G04 #@! TF.GenerationSoftware,KiCad,Pcbnew,7.0.1*
G04 #@! TF.CreationDate,2023-04-16T16:23:16+07:00*
G04 #@! TF.ProjectId,chargerV1,63686172-6765-4725-9631-2e6b69636164,rev?*
G04 #@! TF.SameCoordinates,Original*
G04 #@! TF.FileFunction,Soldermask,Top*
G04 #@! TF.FilePolarity,Negative*
%FSLAX46Y46*%
G04 Gerber Fmt 4.6, Leading zero omitted, Abs format (unit mm)*
G04 Created by KiCad (PCBNEW 7.0.1) date 2023-04-16 16:23:16*
%MOMM*%
%LPD*%
G01*
G04 APERTURE LIST*
G04 Aperture macros list*
%AMRoundRect*
0 Rectangle with rounded corners*
0 $1 Rounding radius*
0 $2 $3 $4 $5 $6 $7 $8 $9 X,Y pos of 4 corners*
0 Add a 4 corners polygon primitive as box body*
4,1,4,$2,$3,$4,$5,$6,$7,$8,$9,$2,$3,0*
0 Add four circle primitives for the rounded corners*
1,1,$1+$1,$2,$3*
1,1,$1+$1,$4,$5*
1,1,$1+$1,$6,$7*
1,1,$1+$1,$8,$9*
0 Add four rect primitives between the rounded corners*
20,1,$1+$1,$2,$3,$4,$5,0*
20,1,$1+$1,$4,$5,$6,$7,0*
20,1,$1+$1,$6,$7,$8,$9,0*
20,1,$1+$1,$8,$9,$2,$3,0*%
G04 Aperture macros list end*
%ADD10C,0.010000*%
%ADD11RoundRect,0.127500X0.297500X0.322500X-0.297500X0.322500X-0.297500X-0.322500X0.297500X-0.322500X0*%
%ADD12RoundRect,0.127500X0.322500X-0.297500X0.322500X0.297500X-0.322500X0.297500X-0.322500X-0.297500X0*%
%ADD13RoundRect,0.218750X-0.218750X-0.256250X0.218750X-0.256250X0.218750X0.256250X-0.218750X0.256250X0*%
%ADD14R,1.850000X3.048000*%
%ADD15RoundRect,0.150000X0.150000X0.625000X-0.150000X0.625000X-0.150000X-0.625000X0.150000X-0.625000X0*%
%ADD16RoundRect,0.250000X0.350000X0.650000X-0.350000X0.650000X-0.350000X-0.650000X0.350000X-0.650000X0*%
%ADD17C,0.950000*%
%ADD18R,0.620000X1.400000*%
%ADD19R,1.100000X2.400000*%
%ADD20RoundRect,0.127500X-0.297500X-0.322500X0.297500X-0.322500X0.297500X0.322500X-0.297500X0.322500X0*%
%ADD21RoundRect,0.250000X-0.250000X-0.250000X0.250000X-0.250000X0.250000X0.250000X-0.250000X0.250000X0*%
%ADD22C,0.650000*%
%ADD23RoundRect,0.075000X-0.675000X0.075000X-0.675000X-0.075000X0.675000X-0.075000X0.675000X0.075000X0*%
%ADD24O,2.100000X1.000000*%
%ADD25O,1.600000X1.000000*%
%ADD26RoundRect,0.222250X-0.222250X0.527050X-0.222250X-0.527050X0.222250X-0.527050X0.222250X0.527050X0*%
%ADD27RoundRect,0.225000X-0.525000X-0.225000X0.525000X-0.225000X0.525000X0.225000X-0.525000X0.225000X0*%
%ADD28C,1.000000*%
%ADD29R,4.200000X4.200000*%
%ADD30R,1.000000X1.500000*%
%ADD31RoundRect,0.150000X-0.587500X-0.150000X0.587500X-0.150000X0.587500X0.150000X-0.587500X0.150000X0*%
%ADD32RoundRect,0.150000X0.625000X-0.150000X0.625000X0.150000X-0.625000X0.150000X-0.625000X-0.150000X0*%
%ADD33RoundRect,0.250000X0.650000X-0.350000X0.650000X0.350000X-0.650000X0.350000X-0.650000X-0.350000X0*%
%ADD34RoundRect,0.150000X-0.150000X-0.625000X0.150000X-0.625000X0.150000X0.625000X-0.150000X0.625000X0*%
%ADD35RoundRect,0.250000X-0.350000X-0.650000X0.350000X-0.650000X0.350000X0.650000X-0.350000X0.650000X0*%
%ADD36RoundRect,0.250000X0.250000X0.250000X-0.250000X0.250000X-0.250000X-0.250000X0.250000X-0.250000X0*%
%ADD37RoundRect,0.250000X0.600000X-0.400000X0.600000X0.400000X-0.600000X0.400000X-0.600000X-0.400000X0*%
%ADD38C,0.700000*%
%ADD39C,4.400000*%
%ADD40RoundRect,0.162500X-0.362500X-0.162500X0.362500X-0.162500X0.362500X0.162500X-0.362500X0.162500X0*%
%ADD41C,1.244600*%
%ADD42RoundRect,0.647700X1.155700X0.647700X-1.155700X0.647700X-1.155700X-0.647700X1.155700X-0.647700X0*%
%ADD43RoundRect,0.127500X-0.322500X0.297500X-0.322500X-0.297500X0.322500X-0.297500X0.322500X0.297500X0*%
%ADD44RoundRect,0.250000X-0.250000X0.250000X-0.250000X-0.250000X0.250000X-0.250000X0.250000X0.250000X0*%
%ADD45RoundRect,0.150000X0.875000X0.150000X-0.875000X0.150000X-0.875000X-0.150000X0.875000X-0.150000X0*%
%ADD46R,1.500000X2.000000*%
%ADD47R,3.800000X2.000000*%
G04 APERTURE END LIST*
D10*
X99985000Y-127970700D02*
X99534564Y-127970700D01*
X99534564Y-127070000D01*
X99985000Y-127070000D01*
X99985000Y-127970700D01*
G36*
X99985000Y-127970700D02*
G01*
X99534564Y-127970700D01*
X99534564Y-127070000D01*
X99985000Y-127070000D01*
X99985000Y-127970700D01*
G37*
X99985000Y-126069917D02*
X99534855Y-126069917D01*
X99534855Y-125170000D01*
X99985000Y-125170000D01*
X99985000Y-126069917D01*
G36*
X99985000Y-126069917D02*
G01*
X99534855Y-126069917D01*
X99534855Y-125170000D01*
X99985000Y-125170000D01*
X99985000Y-126069917D01*
G37*
X100635000Y-126069435D02*
X100184746Y-126069435D01*
X100184746Y-125170000D01*
X100635000Y-125170000D01*
X100635000Y-126069435D01*
G36*
X100635000Y-126069435D02*
G01*
X100184746Y-126069435D01*
X100184746Y-125170000D01*
X100635000Y-125170000D01*
X100635000Y-126069435D01*
G37*
X100635000Y-127970820D02*
X100184869Y-127970820D01*
X100184869Y-127070000D01*
X100635000Y-127070000D01*
X100635000Y-127970820D01*
G36*
X100635000Y-127970820D02*
G01*
X100184869Y-127970820D01*
X100184869Y-127070000D01*
X100635000Y-127070000D01*
X100635000Y-127970820D01*
G37*
X101285000Y-126069692D02*
X100835262Y-126069692D01*
X100835262Y-125170000D01*
X101285000Y-125170000D01*
X101285000Y-126069692D01*
G36*
X101285000Y-126069692D02*
G01*
X100835262Y-126069692D01*
X100835262Y-125170000D01*
X101285000Y-125170000D01*
X101285000Y-126069692D01*
G37*
X101285000Y-127971810D02*
X100835551Y-127971810D01*
X100835551Y-127070000D01*
X101285000Y-127070000D01*
X101285000Y-127971810D01*
G36*
X101285000Y-127971810D02*
G01*
X100835551Y-127971810D01*
X100835551Y-127070000D01*
X101285000Y-127070000D01*
X101285000Y-127971810D01*
G37*
D11*
X70205000Y-88180000D03*
X68655000Y-88180000D03*
D12*
X114615000Y-87245000D03*
X114615000Y-85695000D03*
D11*
X110875000Y-113830000D03*
X109325000Y-113830000D03*
D13*
X90965000Y-96567500D03*
X89390000Y-96567500D03*
D14*
X74180000Y-77900000D03*
X74180000Y-65400000D03*
X79180000Y-77900000D03*
X79180000Y-65400000D03*
D15*
X95600000Y-91455000D03*
X94600000Y-91455000D03*
X93600000Y-91455000D03*
X92600000Y-91455000D03*
D16*
X96900000Y-87580000D03*
X91300000Y-87580000D03*
D17*
X106990000Y-128070000D03*
X114990000Y-128070000D03*
D18*
X114170000Y-116845000D03*
X113070000Y-116845000D03*
X111970000Y-116845000D03*
X110870000Y-116845000D03*
X109770000Y-116845000D03*
X108670000Y-116845000D03*
X107570000Y-116845000D03*
X106470000Y-116845000D03*
X105370000Y-116845000D03*
D19*
X103990000Y-118470000D03*
X103990000Y-127650000D03*
X119090000Y-118395000D03*
X120065000Y-127645000D03*
D20*
X85690000Y-108010000D03*
X87240000Y-108010000D03*
D12*
X116520000Y-87245000D03*
X116520000Y-85695000D03*
D21*
X94072500Y-103515000D03*
X95722500Y-103515000D03*
D15*
X87070000Y-91455000D03*
X86070000Y-91455000D03*
X85070000Y-91455000D03*
X84070000Y-91455000D03*
D16*
X88370000Y-87580000D03*
X82770000Y-87580000D03*
D22*
X64945000Y-92150000D03*
X64945000Y-97930000D03*
D23*
X66370000Y-91690000D03*
X66370000Y-92490000D03*
X66370000Y-93790000D03*
X66370000Y-94790000D03*
X66370000Y-95290000D03*
X66370000Y-96290000D03*
X66370000Y-97590000D03*
X66370000Y-98390000D03*
X66370000Y-98090000D03*
X66370000Y-97290000D03*
X66370000Y-96790000D03*
X66370000Y-95790000D03*
X66370000Y-94290000D03*
X66370000Y-93290000D03*
X66370000Y-92790000D03*
X66370000Y-91990000D03*
D24*
X65625000Y-90720000D03*
D25*
X61445000Y-90720000D03*
D24*
X65625000Y-99360000D03*
D25*
X61445000Y-99360000D03*
D26*
X122055000Y-90845000D03*
X120785000Y-90845000D03*
X119515000Y-90845000D03*
X118245000Y-90845000D03*
X116975000Y-90845000D03*
X115705000Y-90845000D03*
X114435000Y-90845000D03*
X113165000Y-90845000D03*
X111895000Y-90845000D03*
X110625000Y-90845000D03*
X109355000Y-90845000D03*
X108085000Y-90845000D03*
X106815000Y-90845000D03*
X105545000Y-90845000D03*
D27*
X104295000Y-93885000D03*
X104295000Y-95155000D03*
X104295000Y-96425000D03*
X104295000Y-97695000D03*
X104295000Y-98965000D03*
X104295000Y-100235000D03*
X104295000Y-101505000D03*
X104295000Y-102775000D03*
X104295000Y-104045000D03*
X104295000Y-105315000D03*
D26*
X105545000Y-108345000D03*
X106815000Y-108345000D03*
X108085000Y-108345000D03*
X109355000Y-108345000D03*
X110625000Y-108345000D03*
X111895000Y-108345000D03*
X113165000Y-108345000D03*
X114435000Y-108345000D03*
X115705000Y-108345000D03*
X116975000Y-108345000D03*
X118245000Y-108345000D03*
X119515000Y-108345000D03*
X120785000Y-108345000D03*
X122055000Y-108345000D03*
D28*
X115995000Y-97615000D03*
X114705000Y-97665000D03*
X113405000Y-97665000D03*
X116005000Y-98915000D03*
D29*
X114715000Y-98915000D03*
D28*
X114715000Y-98965000D03*
X113415000Y-98965000D03*
X116025000Y-100275000D03*
X114735000Y-100325000D03*
X113435000Y-100325000D03*
D11*
X98285000Y-112035000D03*
X96735000Y-112035000D03*
D30*
X106420000Y-87245000D03*
X105120000Y-87245000D03*
D31*
X69252500Y-105215000D03*
X69252500Y-107115000D03*
X71127500Y-106165000D03*
D21*
X69600000Y-103095000D03*
X71250000Y-103095000D03*
D32*
X123250000Y-123130000D03*
X123250000Y-122130000D03*
X123250000Y-121130000D03*
X123250000Y-120130000D03*
X123250000Y-119130000D03*
X123250000Y-118130000D03*
D33*
X127125000Y-124430000D03*
X127125000Y-116830000D03*
D34*
X88900000Y-123090000D03*
X89900000Y-123090000D03*
X90900000Y-123090000D03*
X91900000Y-123090000D03*
X92900000Y-123090000D03*
X93900000Y-123090000D03*
X94900000Y-123090000D03*
X95900000Y-123090000D03*
D35*
X87600000Y-126965000D03*
X97200000Y-126965000D03*
D36*
X98292500Y-110020000D03*
X96642500Y-110020000D03*
D12*
X72912000Y-86119000D03*
X72912000Y-84569000D03*
D37*
X110000000Y-87250000D03*
X110000000Y-83750000D03*
D12*
X74690000Y-86119000D03*
X74690000Y-84569000D03*
D14*
X89500000Y-77900000D03*
X89500000Y-65400000D03*
X94500000Y-77900000D03*
X94500000Y-65400000D03*
D21*
X89300000Y-98992500D03*
X90950000Y-98992500D03*
D38*
X61050000Y-130300000D03*
X61533274Y-129133274D03*
X61533274Y-131466726D03*
X62700000Y-128650000D03*
D39*
X62700000Y-130300000D03*
D38*
X62700000Y-131950000D03*
X63866726Y-129133274D03*
X63866726Y-131466726D03*
X64350000Y-130300000D03*
D40*
X93287326Y-105640144D03*
X97937326Y-105640144D03*
X93287326Y-107790144D03*
X97937326Y-107790144D03*
X93437326Y-113920144D03*
X98087326Y-113920144D03*
X93437326Y-116070144D03*
X98087326Y-116070144D03*
D38*
X126040000Y-130280000D03*
X126523274Y-129113274D03*
X126523274Y-131446726D03*
X127690000Y-128630000D03*
D39*
X127690000Y-130280000D03*
D38*
X127690000Y-131930000D03*
X128856726Y-129113274D03*
X128856726Y-131446726D03*
X129340000Y-130280000D03*
X61073274Y-84323274D03*
X61556548Y-83156548D03*
X61556548Y-85490000D03*
X62723274Y-82673274D03*
D39*
X62723274Y-84323274D03*
D38*
X62723274Y-85973274D03*
X63890000Y-83156548D03*
X63890000Y-85490000D03*
X64373274Y-84323274D03*
D11*
X88045000Y-119660000D03*
X86495000Y-119660000D03*
D28*
X78181500Y-121100003D03*
D41*
X70688500Y-121100003D03*
D42*
X66535600Y-121100003D03*
X82334400Y-121100003D03*
D43*
X81350000Y-95310000D03*
X81350000Y-96860000D03*
D20*
X85710000Y-106170000D03*
X87260000Y-106170000D03*
D44*
X93440000Y-110080000D03*
X93440000Y-111730000D03*
D12*
X112710000Y-87245000D03*
X112710000Y-85695000D03*
D36*
X71210000Y-111265000D03*
X69560000Y-111265000D03*
D14*
X104820000Y-77900000D03*
X104820000Y-65400000D03*
X109820000Y-77900000D03*
X109820000Y-65400000D03*
D12*
X118425000Y-87245000D03*
X118425000Y-85695000D03*
X97950000Y-103775000D03*
X97950000Y-102225000D03*
D45*
X83180000Y-110660000D03*
X83180000Y-109390000D03*
X83180000Y-108120000D03*
X83180000Y-106850000D03*
X83180000Y-105580000D03*
X83180000Y-104310000D03*
X83180000Y-103040000D03*
X83180000Y-101770000D03*
X73880000Y-101770000D03*
X73880000Y-103040000D03*
X73880000Y-104310000D03*
X73880000Y-105580000D03*
X73880000Y-106850000D03*
X73880000Y-108120000D03*
X73880000Y-109390000D03*
X73880000Y-110660000D03*
D46*
X79110000Y-88420000D03*
X76810000Y-88420000D03*
D47*
X76810000Y-94720000D03*
D46*
X74510000Y-88420000D03*
D43*
X83160000Y-95310000D03*
X83160000Y-96860000D03*
D36*
X71210000Y-109035000D03*
X69560000Y-109035000D03*
M02*
