G04 #@! TF.GenerationSoftware,KiCad,Pcbnew,7.0.1*
G04 #@! TF.CreationDate,2023-04-16T16:23:16+07:00*
G04 #@! TF.ProjectId,chargerV1,63686172-6765-4725-9631-2e6b69636164,rev?*
G04 #@! TF.SameCoordinates,Original*
G04 #@! TF.FileFunction,Profile,NP*
%FSLAX46Y46*%
G04 Gerber Fmt 4.6, Leading zero omitted, Abs format (unit mm)*
G04 Created by KiCad (PCBNEW 7.0.1) date 2023-04-16 16:23:16*
%MOMM*%
%LPD*%
G01*
G04 APERTURE LIST*
G04 #@! TA.AperFunction,Profile*
%ADD10C,0.100000*%
G04 #@! TD*
G04 APERTURE END LIST*
D10*
X115530000Y-64710000D02*
G75*
G03*
X113630000Y-62810000I-1900000J0D01*
G01*
X60200000Y-130300000D02*
X60200000Y-84240000D01*
X60200000Y-130300000D02*
G75*
G03*
X62720000Y-132820000I2520000J0D01*
G01*
X130220000Y-108830000D02*
X130220000Y-130300000D01*
X62640000Y-81800000D02*
X74360000Y-81800000D01*
X106119967Y-81800233D02*
G75*
G03*
X106119967Y-80800167I33J500033D01*
G01*
X127700000Y-132820000D02*
G75*
G03*
X130220000Y-130300000I0J2520000D01*
G01*
X130220000Y-90320000D02*
X123326250Y-90320000D01*
X130220000Y-84320000D02*
X130220000Y-90320000D01*
X79380033Y-80799767D02*
G75*
G03*
X79380033Y-81799833I-33J-500033D01*
G01*
X106120000Y-81799833D02*
X79380000Y-81799833D01*
X68300000Y-64710000D02*
X68300000Y-78899833D01*
X74360000Y-81800000D02*
G75*
G03*
X74360000Y-80800000I0J500000D01*
G01*
X74360000Y-80800000D02*
X70200000Y-80800000D01*
X115530000Y-64710000D02*
X115530000Y-78899833D01*
X70200000Y-62810000D02*
G75*
G03*
X68300000Y-64710000I0J-1900000D01*
G01*
X130220000Y-84320000D02*
G75*
G03*
X127700000Y-81800000I-2520000J0D01*
G01*
X123326250Y-90320000D02*
X123326250Y-108830000D01*
X113630000Y-80799800D02*
G75*
G03*
X115530000Y-78899833I0J1900000D01*
G01*
X111140000Y-81800000D02*
X127700000Y-81800000D01*
X70200000Y-62810000D02*
X113630000Y-62810000D01*
X123326250Y-108830000D02*
X130220000Y-108830000D01*
X79380033Y-80799833D02*
X106119967Y-80799833D01*
X127700000Y-132820000D02*
X62720000Y-132820000D01*
X62640000Y-81800000D02*
G75*
G03*
X60200000Y-84240000I0J-2440000D01*
G01*
X111140000Y-80800000D02*
G75*
G03*
X111140000Y-81800000I0J-500000D01*
G01*
X111140000Y-80800000D02*
X113630000Y-80800000D01*
X68299967Y-78899833D02*
G75*
G03*
X70200000Y-80799833I1900033J33D01*
G01*
M02*
