M48
; DRILL file {KiCad (6.0.11)} date Fri Mar  3 14:47:06 2023
; FORMAT={-:-/ absolute / inch / decimal}
; #@! TF.CreationDate,2023-03-03T14:47:06+07:00
; #@! TF.GenerationSoftware,Kicad,Pcbnew,(6.0.11)
; #@! TF.FileFunction,Plated,1,2,PTH
FMAT,2
INCH
; #@! TA.AperFunction,Plated,PTH,ComponentDrill
T1C0.0079
; #@! TA.AperFunction,Plated,PTH,ViaDrill
T2C0.0157
; #@! TA.AperFunction,Plated,PTH,ComponentDrill
T3C0.0157
; #@! TA.AperFunction,Plated,PTH,ComponentDrill
T4C0.0197
; #@! TA.AperFunction,Plated,PTH,ComponentDrill
T5C0.0787
; #@! TA.AperFunction,Plated,PTH,ComponentDrill
T6C0.0866
%
G90
G05
T1
X2.8071Y-2.0544
X2.8445Y-2.0318
X2.8445Y-2.0771
X2.8819Y-2.0544
X3.3787Y-2.8051
X3.3787Y-2.8484
X3.422Y-2.8051
X3.422Y-2.8484
X4.8222Y-1.8133
X4.8222Y-1.8733
X4.8523Y-1.7833
X4.8523Y-1.8433
X4.8523Y-1.9033
X4.8823Y-1.8133
X4.8823Y-1.8733
X4.9123Y-1.7833
X4.9123Y-1.8433
X4.9123Y-1.9033
X4.9423Y-1.8133
X4.9423Y-1.8733
T2
X1.8724Y-1.8681
X1.8724Y-1.9075
X1.9118Y-1.8681
X1.9118Y-1.9075
X1.913Y-2.765
X1.913Y-2.8043
X1.9283Y-2.1756
X1.9283Y-2.215
X1.9524Y-2.765
X1.9524Y-2.8043
X1.9677Y-2.1756
X1.9677Y-2.215
X1.9917Y-2.765
X1.9917Y-2.8043
X2.0071Y-2.1756
X2.0071Y-2.215
X2.0311Y-2.765
X2.0311Y-2.8043
X2.0465Y-2.1756
X2.0465Y-2.215
X2.5327Y-1.4311
X2.5327Y-1.4705
X2.5327Y-1.5098
X2.5327Y-1.5492
X2.572Y-1.4311
X2.572Y-1.4705
X2.572Y-1.5098
X2.572Y-1.5492
X2.6114Y-1.4311
X2.6114Y-1.4705
X2.6114Y-1.5098
X2.6114Y-1.5492
X2.6575Y-2.8248
X2.6575Y-2.8642
X2.6575Y-2.9035
X2.6969Y-2.8248
X2.6969Y-2.8642
X2.6969Y-2.9035
X2.7362Y-2.8248
X2.7362Y-2.8642
X2.7362Y-2.9035
X2.7756Y-2.8248
X2.7756Y-2.8642
X2.7756Y-2.9035
X2.8752Y-2.2917
X2.8984Y-1.3614
X3.1043Y-3.1638
X3.1343Y-3.1244
X3.1449Y-2.1846
X3.1657Y-2.0047
X3.2087Y-3.002
X3.248Y-3.002
X3.2626Y-3.1563
X3.2874Y-3.002
X3.2972Y-1.6831
X3.2972Y-1.7224
X3.2972Y-1.7618
X3.2972Y-1.8012
X3.3268Y-3.002
X3.3287Y-3.1406
X3.3366Y-1.6831
X3.3366Y-1.7224
X3.3366Y-1.7618
X3.3366Y-1.8012
X3.376Y-1.6831
X3.376Y-1.7224
X3.376Y-1.7618
X3.376Y-1.8012
X3.4134Y-2.3496
X3.4134Y-2.389
X3.4341Y-2.5285
X3.4445Y-3.1547
X3.4528Y-2.3496
X3.4528Y-2.389
X3.4591Y-2.7063
X3.4602Y-1.5996
X3.4839Y-3.1547
X3.4921Y-2.3496
X3.4921Y-2.389
X3.4941Y-2.5823
X3.4996Y-1.6295
X3.6059Y-2.7693
X3.6059Y-2.8087
X3.6059Y-2.848
X3.6453Y-2.7693
X3.6453Y-2.8087
X3.6453Y-2.848
X3.6843Y-3.3417
X3.6843Y-3.3811
X3.6909Y-2.0866
X3.7103Y-2.9343
X3.7236Y-3.3417
X3.7236Y-3.3811
X3.7303Y-2.0866
X3.763Y-3.3417
X3.763Y-3.3811
X3.7713Y-1.6161
X3.8024Y-3.3417
X3.8024Y-3.3811
X3.8106Y-1.6531
X3.8205Y-2.3248
X3.85Y-1.6945
X4.0291Y-2.1378
X4.0291Y-2.8461
X4.0577Y-2.0846
X4.0846Y-1.8504
X4.1449Y-1.6606
X4.1535Y-1.8012
X4.1732Y-2.1358
X4.1732Y-2.1752
X4.1732Y-2.2146
X4.1831Y-2.9134
X4.1831Y-2.9528
X4.1831Y-2.9921
X4.1831Y-3.0315
X4.2126Y-2.1358
X4.2126Y-2.1752
X4.2126Y-2.2146
X4.2224Y-2.9134
X4.2224Y-2.9528
X4.2224Y-2.9921
X4.2224Y-3.0315
X4.2516Y-1.5417
X4.2516Y-1.5811
X4.2516Y-1.6205
X4.2516Y-1.6598
X4.252Y-2.1358
X4.252Y-2.1752
X4.252Y-2.2146
X4.2909Y-1.5417
X4.2909Y-1.5811
X4.2909Y-1.6205
X4.2909Y-1.6598
X4.2913Y-2.1358
X4.2913Y-2.1752
X4.2913Y-2.2146
X4.3303Y-1.5417
X4.3303Y-1.5811
X4.3303Y-1.6205
X4.3303Y-1.6598
X4.3594Y-2.3476
X4.3646Y-2.8402
X4.4094Y-2.5197
X4.4094Y-2.5591
X4.4094Y-2.5984
X4.4154Y-2.8189
X4.4488Y-2.5197
X4.4488Y-2.5591
X4.4488Y-2.5984
X4.4577Y-2.9051
X4.4882Y-2.5197
X4.4882Y-2.5591
X4.4882Y-2.5984
X4.5063Y-2.9193
X4.5276Y-2.5197
X4.5276Y-2.5591
X4.5276Y-2.5984
X4.5904Y-2.2918
X4.6039Y-2.0168
X4.6224Y-1.6339
X4.6585Y-2.0852
X4.6732Y-1.6339
X4.7209Y-1.6339
X4.752Y-2.7795
X4.8106Y-2.8601
X4.8465Y-1.6535
X4.8524Y-2.4311
X4.8524Y-2.4705
X4.8524Y-2.5098
X4.8524Y-2.5492
X4.8543Y-1.4606
X4.8878Y-1.9591
X4.8917Y-2.4311
X4.8917Y-2.4705
X4.8917Y-2.5098
X4.8917Y-2.5492
X4.9055Y-1.6535
X4.9283Y-2.765
X4.9646Y-1.6535
X5.0142Y-2.022
X5.0709Y-1.6126
X5.0994Y-2.6486
X5.1083Y-3.2972
X5.1083Y-3.3366
X5.1083Y-3.376
X5.128Y-2.0394
X5.1476Y-3.2972
X5.1476Y-3.3366
X5.1476Y-3.376
X5.187Y-3.2972
X5.187Y-3.3366
X5.187Y-3.376
X5.2264Y-3.2972
X5.2264Y-3.3366
X5.2264Y-3.376
T3
X1.9169Y-3.5197
X1.9244Y-1.0825
X1.936Y-3.4738
X1.936Y-3.5656
X1.9434Y-1.0365
X1.9434Y-1.1284
X1.9819Y-3.4547
X1.9819Y-3.5846
X1.9893Y-1.0175
X1.9893Y-1.1474
X2.0278Y-3.4738
X2.0278Y-3.5656
X2.0353Y-1.0365
X2.0353Y-1.1284
X2.0469Y-3.5197
X2.0543Y-1.0825
X2.431Y-3.3941
X2.4311Y-1.2323
X2.45Y-3.3482
X2.45Y-3.44
X2.4501Y-1.1863
X2.4501Y-1.2782
X2.4959Y-3.3291
X2.4959Y-3.4591
X2.4961Y-1.1673
X2.4961Y-1.2972
X2.5418Y-3.3482
X2.5418Y-3.44
X2.542Y-1.1863
X2.542Y-1.2782
X2.5609Y-3.3941
X2.561Y-1.2323
X5.3185Y-3.3992
X5.3375Y-3.3533
X5.3375Y-3.4451
X5.3835Y-3.3343
X5.3835Y-3.4642
X5.4294Y-3.3533
X5.4294Y-3.4451
X5.4484Y-3.3992
T5
X2.5197Y-3.0657
X5.3543Y-3.0657
T6
X1.9819Y-3.5197
X1.9893Y-1.0825
X2.4959Y-3.3941
X2.4961Y-1.2323
X5.3835Y-3.3992
T4
G00X3.1087Y-3.2364
M15
G01X3.1087Y-3.2561
M16
G05
G00X3.1087Y-3.403
M15
G01X3.1087Y-3.4187
M16
G05
G00X3.4488Y-3.2364
M15
G01X3.4488Y-3.2561
M16
G05
G00X3.4488Y-3.403
M15
G01X3.4488Y-3.4187
M16
G05
T0
M30
