G04 #@! TF.GenerationSoftware,KiCad,Pcbnew,7.0.1*
G04 #@! TF.CreationDate,2023-04-16T16:23:16+07:00*
G04 #@! TF.ProjectId,chargerV1,63686172-6765-4725-9631-2e6b69636164,rev?*
G04 #@! TF.SameCoordinates,Original*
G04 #@! TF.FileFunction,Legend,Top*
G04 #@! TF.FilePolarity,Positive*
%FSLAX46Y46*%
G04 Gerber Fmt 4.6, Leading zero omitted, Abs format (unit mm)*
G04 Created by KiCad (PCBNEW 7.0.1) date 2023-04-16 16:23:16*
%MOMM*%
%LPD*%
G01*
G04 APERTURE LIST*
G04 Aperture macros list*
%AMRoundRect*
0 Rectangle with rounded corners*
0 $1 Rounding radius*
0 $2 $3 $4 $5 $6 $7 $8 $9 X,Y pos of 4 corners*
0 Add a 4 corners polygon primitive as box body*
4,1,4,$2,$3,$4,$5,$6,$7,$8,$9,$2,$3,0*
0 Add four circle primitives for the rounded corners*
1,1,$1+$1,$2,$3*
1,1,$1+$1,$4,$5*
1,1,$1+$1,$6,$7*
1,1,$1+$1,$8,$9*
0 Add four rect primitives between the rounded corners*
20,1,$1+$1,$2,$3,$4,$5,0*
20,1,$1+$1,$4,$5,$6,$7,0*
20,1,$1+$1,$6,$7,$8,$9,0*
20,1,$1+$1,$8,$9,$2,$3,0*%
G04 Aperture macros list end*
%ADD10C,0.240000*%
%ADD11C,0.200000*%
%ADD12C,0.160000*%
%ADD13C,0.150000*%
%ADD14C,0.250000*%
%ADD15C,0.120000*%
%ADD16C,0.100000*%
%ADD17C,0.283607*%
%ADD18C,0.300000*%
%ADD19C,0.010000*%
%ADD20RoundRect,0.127500X0.297500X0.322500X-0.297500X0.322500X-0.297500X-0.322500X0.297500X-0.322500X0*%
%ADD21RoundRect,0.127500X0.322500X-0.297500X0.322500X0.297500X-0.322500X0.297500X-0.322500X-0.297500X0*%
%ADD22RoundRect,0.218750X-0.218750X-0.256250X0.218750X-0.256250X0.218750X0.256250X-0.218750X0.256250X0*%
%ADD23R,1.850000X3.048000*%
%ADD24RoundRect,0.150000X0.150000X0.625000X-0.150000X0.625000X-0.150000X-0.625000X0.150000X-0.625000X0*%
%ADD25RoundRect,0.250000X0.350000X0.650000X-0.350000X0.650000X-0.350000X-0.650000X0.350000X-0.650000X0*%
%ADD26C,0.950000*%
%ADD27R,0.620000X1.400000*%
%ADD28R,1.100000X2.400000*%
%ADD29RoundRect,0.127500X-0.297500X-0.322500X0.297500X-0.322500X0.297500X0.322500X-0.297500X0.322500X0*%
%ADD30RoundRect,0.250000X-0.250000X-0.250000X0.250000X-0.250000X0.250000X0.250000X-0.250000X0.250000X0*%
%ADD31C,0.650000*%
%ADD32RoundRect,0.075000X-0.675000X0.075000X-0.675000X-0.075000X0.675000X-0.075000X0.675000X0.075000X0*%
%ADD33O,2.100000X1.000000*%
%ADD34O,1.600000X1.000000*%
%ADD35RoundRect,0.222250X-0.222250X0.527050X-0.222250X-0.527050X0.222250X-0.527050X0.222250X0.527050X0*%
%ADD36RoundRect,0.225000X-0.525000X-0.225000X0.525000X-0.225000X0.525000X0.225000X-0.525000X0.225000X0*%
%ADD37C,1.000000*%
%ADD38R,4.200000X4.200000*%
%ADD39R,1.000000X1.500000*%
%ADD40RoundRect,0.150000X-0.587500X-0.150000X0.587500X-0.150000X0.587500X0.150000X-0.587500X0.150000X0*%
%ADD41RoundRect,0.150000X0.625000X-0.150000X0.625000X0.150000X-0.625000X0.150000X-0.625000X-0.150000X0*%
%ADD42RoundRect,0.250000X0.650000X-0.350000X0.650000X0.350000X-0.650000X0.350000X-0.650000X-0.350000X0*%
%ADD43RoundRect,0.150000X-0.150000X-0.625000X0.150000X-0.625000X0.150000X0.625000X-0.150000X0.625000X0*%
%ADD44RoundRect,0.250000X-0.350000X-0.650000X0.350000X-0.650000X0.350000X0.650000X-0.350000X0.650000X0*%
%ADD45RoundRect,0.250000X0.250000X0.250000X-0.250000X0.250000X-0.250000X-0.250000X0.250000X-0.250000X0*%
%ADD46RoundRect,0.250000X0.600000X-0.400000X0.600000X0.400000X-0.600000X0.400000X-0.600000X-0.400000X0*%
%ADD47C,0.700000*%
%ADD48C,4.400000*%
%ADD49RoundRect,0.162500X-0.362500X-0.162500X0.362500X-0.162500X0.362500X0.162500X-0.362500X0.162500X0*%
%ADD50C,1.244600*%
%ADD51RoundRect,0.647700X1.155700X0.647700X-1.155700X0.647700X-1.155700X-0.647700X1.155700X-0.647700X0*%
%ADD52RoundRect,0.127500X-0.322500X0.297500X-0.322500X-0.297500X0.322500X-0.297500X0.322500X0.297500X0*%
%ADD53RoundRect,0.250000X-0.250000X0.250000X-0.250000X-0.250000X0.250000X-0.250000X0.250000X0.250000X0*%
%ADD54RoundRect,0.150000X0.875000X0.150000X-0.875000X0.150000X-0.875000X-0.150000X0.875000X-0.150000X0*%
%ADD55R,1.500000X2.000000*%
%ADD56R,3.800000X2.000000*%
G04 APERTURE END LIST*
D10*
G36*
X89101429Y-86431429D02*
G01*
X82078571Y-86431429D01*
X82078571Y-84597139D01*
X82894228Y-84597139D01*
X82898571Y-84607611D01*
X82898571Y-84691538D01*
X82895482Y-84720151D01*
X82906450Y-84742087D01*
X82913359Y-84765616D01*
X82921926Y-84773040D01*
X82961653Y-84852493D01*
X82965946Y-84872223D01*
X82989331Y-84895608D01*
X83011849Y-84919815D01*
X83014118Y-84920395D01*
X83037365Y-84943641D01*
X83047676Y-84961001D01*
X83077250Y-84975788D01*
X83106272Y-84991636D01*
X83108610Y-84991468D01*
X83174359Y-85024343D01*
X83183855Y-85034442D01*
X83205257Y-85039792D01*
X83208908Y-85041618D01*
X83221936Y-85043962D01*
X83433830Y-85096936D01*
X83518916Y-85139479D01*
X83548519Y-85169082D01*
X83584285Y-85240614D01*
X83584285Y-85298242D01*
X83548518Y-85369774D01*
X83518917Y-85399376D01*
X83447387Y-85435142D01*
X83209473Y-85435142D01*
X83040150Y-85378702D01*
X82987695Y-85376805D01*
X82927074Y-85412737D01*
X82895502Y-85475739D01*
X82903003Y-85545809D01*
X82947197Y-85600700D01*
X83137779Y-85664226D01*
X83154765Y-85675142D01*
X83187832Y-85675142D01*
X83220876Y-85676337D01*
X83222892Y-85675142D01*
X83469255Y-85675142D01*
X83497864Y-85678231D01*
X83519800Y-85667262D01*
X83543330Y-85660354D01*
X83550753Y-85651786D01*
X83630208Y-85612059D01*
X83649939Y-85607767D01*
X83673322Y-85584383D01*
X83697529Y-85561867D01*
X83698110Y-85559594D01*
X83721355Y-85536349D01*
X83738716Y-85526038D01*
X83753512Y-85496445D01*
X83769350Y-85467440D01*
X83769182Y-85465103D01*
X83808727Y-85386014D01*
X83824285Y-85361806D01*
X83824285Y-85337280D01*
X83828628Y-85313145D01*
X83824285Y-85302674D01*
X83824285Y-85218747D01*
X83827374Y-85190134D01*
X83816405Y-85168197D01*
X83809497Y-85144669D01*
X83800929Y-85137244D01*
X83761201Y-85057790D01*
X83756910Y-85038063D01*
X83733527Y-85014679D01*
X83711007Y-84990470D01*
X83708737Y-84989889D01*
X83685492Y-84966643D01*
X83675181Y-84949283D01*
X83665355Y-84944370D01*
X84094778Y-84944370D01*
X84098571Y-84952676D01*
X84098571Y-85572395D01*
X84113359Y-85622758D01*
X84166617Y-85668906D01*
X84236370Y-85678935D01*
X84300472Y-85649661D01*
X84338571Y-85590377D01*
X84338571Y-85046571D01*
X84784285Y-85046571D01*
X84784285Y-85572395D01*
X84799073Y-85622758D01*
X84852331Y-85668906D01*
X84922084Y-85678935D01*
X84986186Y-85649661D01*
X85024285Y-85590377D01*
X85024285Y-84935153D01*
X85028078Y-84908772D01*
X85024285Y-84900466D01*
X85024285Y-84372941D01*
X85180492Y-84372941D01*
X85209766Y-84437043D01*
X85269050Y-84475142D01*
X85527142Y-84475142D01*
X85527142Y-85572395D01*
X85541930Y-85622758D01*
X85595188Y-85668906D01*
X85664941Y-85678935D01*
X85729043Y-85649661D01*
X85767142Y-85590377D01*
X85767142Y-85431935D01*
X86150966Y-85431935D01*
X86165946Y-85500795D01*
X86237366Y-85572214D01*
X86247677Y-85589574D01*
X86277251Y-85604360D01*
X86306272Y-85620208D01*
X86308611Y-85620040D01*
X86387696Y-85659582D01*
X86411908Y-85675142D01*
X86436434Y-85675142D01*
X86460569Y-85679485D01*
X86471040Y-85675142D01*
X86783541Y-85675142D01*
X86812150Y-85678231D01*
X86834086Y-85667262D01*
X86857616Y-85660354D01*
X86865039Y-85651786D01*
X86944494Y-85612059D01*
X86964225Y-85607767D01*
X86987608Y-85584383D01*
X87011815Y-85561867D01*
X87012396Y-85559594D01*
X87035641Y-85536349D01*
X87053002Y-85526038D01*
X87067798Y-85496445D01*
X87083636Y-85467440D01*
X87083468Y-85465103D01*
X87123013Y-85386014D01*
X87138571Y-85361806D01*
X87138571Y-85337280D01*
X87142914Y-85313145D01*
X87138571Y-85302674D01*
X87138571Y-85047319D01*
X87141660Y-85018707D01*
X87130692Y-84996771D01*
X87123783Y-84973241D01*
X87115214Y-84965816D01*
X87075488Y-84886363D01*
X87071196Y-84866634D01*
X87047810Y-84843247D01*
X87025294Y-84819041D01*
X87023023Y-84818460D01*
X86999778Y-84795214D01*
X86989467Y-84777854D01*
X86959884Y-84763062D01*
X86930871Y-84747220D01*
X86928533Y-84747387D01*
X86863333Y-84714787D01*
X86874165Y-84702408D01*
X87350726Y-84702408D01*
X87372950Y-84769282D01*
X87427801Y-84813525D01*
X87497864Y-84821089D01*
X87630210Y-84754915D01*
X87649938Y-84750624D01*
X87673307Y-84727254D01*
X87697530Y-84704723D01*
X87698110Y-84702451D01*
X87698571Y-84701991D01*
X87698571Y-85435142D01*
X87458461Y-85435142D01*
X87408098Y-85449930D01*
X87361950Y-85503188D01*
X87351921Y-85572941D01*
X87381195Y-85637043D01*
X87440479Y-85675142D01*
X87809989Y-85675142D01*
X87836370Y-85678935D01*
X87844676Y-85675142D01*
X88178681Y-85675142D01*
X88229044Y-85660354D01*
X88275192Y-85607096D01*
X88285221Y-85537343D01*
X88255947Y-85473241D01*
X88196663Y-85435142D01*
X87938571Y-85435142D01*
X87938571Y-84373424D01*
X87943619Y-84357243D01*
X87938571Y-84338918D01*
X87938571Y-84337889D01*
X87933988Y-84322283D01*
X87924904Y-84289304D01*
X87924091Y-84288575D01*
X87923783Y-84287526D01*
X87897899Y-84265097D01*
X87872429Y-84242267D01*
X87871350Y-84242093D01*
X87870525Y-84241378D01*
X87836660Y-84236509D01*
X87802855Y-84231067D01*
X87801852Y-84231504D01*
X87800772Y-84231349D01*
X87769620Y-84245575D01*
X87738270Y-84259261D01*
X87737664Y-84260168D01*
X87736670Y-84260623D01*
X87718152Y-84289437D01*
X87611029Y-84450121D01*
X87518915Y-84542235D01*
X87406617Y-84598385D01*
X87368184Y-84634134D01*
X87350726Y-84702408D01*
X86874165Y-84702408D01*
X87085884Y-84460442D01*
X87086187Y-84460354D01*
X87109117Y-84433890D01*
X87120241Y-84421178D01*
X87120364Y-84420910D01*
X87132335Y-84407096D01*
X87134851Y-84389590D01*
X87142277Y-84373538D01*
X87139762Y-84355433D01*
X87142364Y-84337343D01*
X87135016Y-84321253D01*
X87132584Y-84303738D01*
X87120684Y-84289869D01*
X87113090Y-84273241D01*
X87098209Y-84263677D01*
X87086694Y-84250258D01*
X87069183Y-84245024D01*
X87053806Y-84235142D01*
X87036121Y-84235142D01*
X87019175Y-84230077D01*
X87001612Y-84235142D01*
X86258461Y-84235142D01*
X86208098Y-84249930D01*
X86161950Y-84303188D01*
X86151921Y-84372941D01*
X86181195Y-84437043D01*
X86240479Y-84475142D01*
X86754119Y-84475142D01*
X86551257Y-84706984D01*
X86550955Y-84707073D01*
X86528024Y-84733536D01*
X86516901Y-84746249D01*
X86516777Y-84746516D01*
X86504807Y-84760331D01*
X86502290Y-84777836D01*
X86494865Y-84793889D01*
X86497379Y-84811993D01*
X86494778Y-84830084D01*
X86502125Y-84846173D01*
X86504558Y-84863689D01*
X86516457Y-84877557D01*
X86524052Y-84894186D01*
X86538932Y-84903749D01*
X86550448Y-84917169D01*
X86567958Y-84922402D01*
X86583336Y-84932285D01*
X86601021Y-84932285D01*
X86617967Y-84937350D01*
X86635530Y-84932285D01*
X86761671Y-84932285D01*
X86833202Y-84968050D01*
X86862805Y-84997653D01*
X86898571Y-85069185D01*
X86898571Y-85298242D01*
X86862804Y-85369774D01*
X86833203Y-85399376D01*
X86761673Y-85435142D01*
X86475470Y-85435142D01*
X86403940Y-85399377D01*
X86348367Y-85343804D01*
X86302298Y-85318649D01*
X86232008Y-85323677D01*
X86175593Y-85365908D01*
X86150966Y-85431935D01*
X85767142Y-85431935D01*
X85767142Y-84475142D01*
X86007253Y-84475142D01*
X86057616Y-84460354D01*
X86103764Y-84407096D01*
X86113793Y-84337343D01*
X86084519Y-84273241D01*
X86025235Y-84235142D01*
X85655724Y-84235142D01*
X85629343Y-84231349D01*
X85621037Y-84235142D01*
X85287032Y-84235142D01*
X85236669Y-84249930D01*
X85190521Y-84303188D01*
X85180492Y-84372941D01*
X85024285Y-84372941D01*
X85024285Y-84337889D01*
X85009497Y-84287526D01*
X84956239Y-84241378D01*
X84886486Y-84231349D01*
X84822384Y-84260623D01*
X84784285Y-84319907D01*
X84784285Y-84806571D01*
X84338571Y-84806571D01*
X84338571Y-84337889D01*
X84323783Y-84287526D01*
X84270525Y-84241378D01*
X84200772Y-84231349D01*
X84136670Y-84260623D01*
X84098571Y-84319907D01*
X84098571Y-84917989D01*
X84094778Y-84944370D01*
X83665355Y-84944370D01*
X83645598Y-84934491D01*
X83616585Y-84918649D01*
X83614247Y-84918816D01*
X83548497Y-84885941D01*
X83539002Y-84875843D01*
X83517597Y-84870491D01*
X83513948Y-84868667D01*
X83500922Y-84866323D01*
X83289023Y-84813347D01*
X83203940Y-84770805D01*
X83174336Y-84741201D01*
X83138571Y-84669671D01*
X83138571Y-84612043D01*
X83174336Y-84540510D01*
X83203939Y-84510908D01*
X83275471Y-84475142D01*
X83513383Y-84475142D01*
X83682705Y-84531583D01*
X83735160Y-84533480D01*
X83795781Y-84497548D01*
X83827354Y-84434546D01*
X83819853Y-84364477D01*
X83775659Y-84309585D01*
X83585076Y-84246057D01*
X83568092Y-84235142D01*
X83535026Y-84235142D01*
X83501982Y-84233947D01*
X83499966Y-84235142D01*
X83253604Y-84235142D01*
X83224991Y-84232053D01*
X83203054Y-84243021D01*
X83179526Y-84249930D01*
X83172101Y-84258497D01*
X83092645Y-84298226D01*
X83072919Y-84302518D01*
X83049540Y-84325896D01*
X83025327Y-84348420D01*
X83024746Y-84350689D01*
X83001500Y-84373936D01*
X82984140Y-84384247D01*
X82969349Y-84413827D01*
X82953506Y-84442844D01*
X82953673Y-84445181D01*
X82914128Y-84524270D01*
X82898571Y-84548479D01*
X82898571Y-84573004D01*
X82894228Y-84597139D01*
X82078571Y-84597139D01*
X82078571Y-83568571D01*
X89101429Y-83568571D01*
X89101429Y-86431429D01*
G37*
G36*
X95400343Y-84520906D02*
G01*
X95477358Y-84597921D01*
X95522857Y-84779917D01*
X95522857Y-85150370D01*
X95477358Y-85332363D01*
X95400344Y-85409377D01*
X95328815Y-85445142D01*
X95156899Y-85445142D01*
X95085369Y-85409377D01*
X95008355Y-85332363D01*
X94962857Y-85150368D01*
X94962857Y-84779914D01*
X95008355Y-84597921D01*
X95085369Y-84520907D01*
X95156900Y-84485142D01*
X95328815Y-84485142D01*
X95400343Y-84520906D01*
G37*
G36*
X91120891Y-85098598D02*
G01*
X91144232Y-85121939D01*
X91179999Y-85193471D01*
X91179999Y-85308242D01*
X91144233Y-85379774D01*
X91114630Y-85409377D01*
X91043100Y-85445142D01*
X90734285Y-85445142D01*
X90734285Y-85056571D01*
X90994811Y-85056571D01*
X91120891Y-85098598D01*
G37*
G36*
X91057487Y-84520907D02*
G01*
X91087090Y-84550510D01*
X91122856Y-84622042D01*
X91122856Y-84679672D01*
X91087090Y-84751202D01*
X91057487Y-84780805D01*
X90988014Y-84815542D01*
X90983410Y-84815376D01*
X90981394Y-84816571D01*
X90734285Y-84816571D01*
X90734285Y-84485142D01*
X90985956Y-84485142D01*
X91057487Y-84520907D01*
G37*
G36*
X98982858Y-86441429D02*
G01*
X89617142Y-86441429D01*
X89617142Y-85582941D01*
X90490492Y-85582941D01*
X90501564Y-85607187D01*
X90509073Y-85632758D01*
X90515972Y-85638736D01*
X90519766Y-85647043D01*
X90542189Y-85661453D01*
X90562331Y-85678906D01*
X90571368Y-85680205D01*
X90579050Y-85685142D01*
X90605703Y-85685142D01*
X90632084Y-85688935D01*
X90640390Y-85685142D01*
X91064969Y-85685142D01*
X91093578Y-85688231D01*
X91115514Y-85677262D01*
X91139044Y-85670354D01*
X91146467Y-85661786D01*
X91225921Y-85622059D01*
X91245651Y-85617768D01*
X91269035Y-85594383D01*
X91293242Y-85571866D01*
X91293822Y-85569595D01*
X91317068Y-85546349D01*
X91334430Y-85536038D01*
X91349224Y-85506448D01*
X91365064Y-85477442D01*
X91364896Y-85475104D01*
X91404441Y-85396014D01*
X91419999Y-85371806D01*
X91419999Y-85358721D01*
X91691196Y-85358721D01*
X91702163Y-85380656D01*
X91709073Y-85404187D01*
X91717641Y-85411611D01*
X91757367Y-85491064D01*
X91761660Y-85510795D01*
X91785040Y-85534175D01*
X91807562Y-85558387D01*
X91809833Y-85558967D01*
X91833080Y-85582214D01*
X91843391Y-85599574D01*
X91872968Y-85614362D01*
X91901986Y-85630208D01*
X91904324Y-85630040D01*
X91983412Y-85669584D01*
X92007621Y-85685142D01*
X92032147Y-85685142D01*
X92056282Y-85689485D01*
X92066753Y-85685142D01*
X92264969Y-85685142D01*
X92293578Y-85688231D01*
X92315514Y-85677262D01*
X92339044Y-85670354D01*
X92346467Y-85661786D01*
X92425921Y-85622059D01*
X92445651Y-85617768D01*
X92469035Y-85594383D01*
X92493242Y-85571866D01*
X92493822Y-85569595D01*
X92517068Y-85546349D01*
X92534430Y-85536038D01*
X92549224Y-85506448D01*
X92565064Y-85477442D01*
X92564896Y-85475104D01*
X92604441Y-85396014D01*
X92619999Y-85371806D01*
X92619999Y-85347280D01*
X92624342Y-85323145D01*
X92619999Y-85312674D01*
X92619999Y-84382941D01*
X92776206Y-84382941D01*
X92805480Y-84447043D01*
X92864764Y-84485142D01*
X93122856Y-84485142D01*
X93122856Y-85582395D01*
X93137644Y-85632758D01*
X93190902Y-85678906D01*
X93260655Y-85688935D01*
X93324757Y-85659661D01*
X93362856Y-85600377D01*
X93362856Y-84485142D01*
X93602967Y-84485142D01*
X93653330Y-84470354D01*
X93699478Y-84417096D01*
X93701061Y-84406084D01*
X93719766Y-84447043D01*
X93779050Y-84485142D01*
X94037142Y-84485142D01*
X94037142Y-85582395D01*
X94051930Y-85632758D01*
X94105188Y-85678906D01*
X94174941Y-85688935D01*
X94239043Y-85659661D01*
X94277142Y-85600377D01*
X94277142Y-85160063D01*
X94717894Y-85160063D01*
X94722857Y-85179915D01*
X94722857Y-85182395D01*
X94727029Y-85196604D01*
X94783135Y-85421031D01*
X94790232Y-85453652D01*
X94804277Y-85467697D01*
X94814329Y-85484829D01*
X94828682Y-85492102D01*
X94918796Y-85582216D01*
X94929106Y-85599574D01*
X94958674Y-85614358D01*
X94987702Y-85630208D01*
X94990039Y-85630040D01*
X95069127Y-85669584D01*
X95093336Y-85685142D01*
X95117862Y-85685142D01*
X95141997Y-85689485D01*
X95152468Y-85685142D01*
X95350684Y-85685142D01*
X95379293Y-85688231D01*
X95401229Y-85677262D01*
X95424759Y-85670354D01*
X95432182Y-85661786D01*
X95511636Y-85622059D01*
X95531366Y-85617768D01*
X95554754Y-85594379D01*
X95578957Y-85571866D01*
X95579537Y-85569596D01*
X95669271Y-85479862D01*
X95693585Y-85457001D01*
X95698402Y-85437732D01*
X95707922Y-85420298D01*
X95706773Y-85404246D01*
X95754484Y-85213404D01*
X95762857Y-85200377D01*
X95762857Y-85179916D01*
X95763459Y-85177508D01*
X95762857Y-85162699D01*
X95762857Y-84784891D01*
X95767820Y-84770221D01*
X95762857Y-84750369D01*
X95762857Y-84747889D01*
X95758684Y-84733678D01*
X95702579Y-84509260D01*
X95695482Y-84476633D01*
X95681435Y-84462586D01*
X95671385Y-84445456D01*
X95657031Y-84438182D01*
X95612935Y-84394086D01*
X96035472Y-84394086D01*
X96037143Y-84397010D01*
X96037143Y-85582395D01*
X96051931Y-85632758D01*
X96105189Y-85678906D01*
X96174942Y-85688935D01*
X96239044Y-85659661D01*
X96277143Y-85600377D01*
X96277143Y-84817010D01*
X96731683Y-85612455D01*
X96737645Y-85632758D01*
X96761916Y-85653788D01*
X96785054Y-85676049D01*
X96788358Y-85676701D01*
X96790903Y-85678906D01*
X96822688Y-85683476D01*
X96854191Y-85689693D01*
X96857322Y-85688455D01*
X96860656Y-85688935D01*
X96889879Y-85675589D01*
X96919729Y-85663793D01*
X96921693Y-85661060D01*
X96924758Y-85659661D01*
X96942123Y-85632638D01*
X96960861Y-85606573D01*
X96961036Y-85603210D01*
X96962857Y-85600377D01*
X96962857Y-85568267D01*
X96964528Y-85536198D01*
X96962857Y-85533274D01*
X96962857Y-84607139D01*
X97232800Y-84607139D01*
X97237143Y-84617611D01*
X97237143Y-84701538D01*
X97234054Y-84730151D01*
X97245022Y-84752087D01*
X97251931Y-84775616D01*
X97260498Y-84783040D01*
X97300225Y-84862493D01*
X97304518Y-84882223D01*
X97327903Y-84905608D01*
X97350421Y-84929815D01*
X97352690Y-84930395D01*
X97375937Y-84953641D01*
X97386248Y-84971001D01*
X97415822Y-84985788D01*
X97444844Y-85001636D01*
X97447182Y-85001468D01*
X97512931Y-85034343D01*
X97522427Y-85044442D01*
X97543829Y-85049792D01*
X97547480Y-85051618D01*
X97560508Y-85053962D01*
X97772402Y-85106936D01*
X97857488Y-85149479D01*
X97887091Y-85179082D01*
X97922857Y-85250614D01*
X97922857Y-85308242D01*
X97887090Y-85379774D01*
X97857489Y-85409376D01*
X97785959Y-85445142D01*
X97548045Y-85445142D01*
X97378722Y-85388702D01*
X97326267Y-85386805D01*
X97265646Y-85422737D01*
X97234074Y-85485739D01*
X97241575Y-85555809D01*
X97285769Y-85610700D01*
X97476351Y-85674226D01*
X97493337Y-85685142D01*
X97526404Y-85685142D01*
X97559448Y-85686337D01*
X97561464Y-85685142D01*
X97807827Y-85685142D01*
X97836436Y-85688231D01*
X97858372Y-85677262D01*
X97881902Y-85670354D01*
X97889325Y-85661786D01*
X97968780Y-85622059D01*
X97988511Y-85617767D01*
X98011894Y-85594383D01*
X98036101Y-85571867D01*
X98036682Y-85569594D01*
X98059927Y-85546349D01*
X98077288Y-85536038D01*
X98092084Y-85506445D01*
X98107922Y-85477440D01*
X98107754Y-85475103D01*
X98147299Y-85396014D01*
X98162857Y-85371806D01*
X98162857Y-85347280D01*
X98167200Y-85323145D01*
X98162857Y-85312674D01*
X98162857Y-85228747D01*
X98165946Y-85200134D01*
X98154977Y-85178197D01*
X98148069Y-85154669D01*
X98139501Y-85147244D01*
X98099773Y-85067790D01*
X98095482Y-85048063D01*
X98072099Y-85024679D01*
X98049579Y-85000470D01*
X98047309Y-84999889D01*
X98024064Y-84976643D01*
X98013753Y-84959283D01*
X97984170Y-84944491D01*
X97955157Y-84928649D01*
X97952819Y-84928816D01*
X97887069Y-84895941D01*
X97877574Y-84885843D01*
X97856169Y-84880491D01*
X97852520Y-84878667D01*
X97839494Y-84876323D01*
X97627595Y-84823347D01*
X97542512Y-84780805D01*
X97512908Y-84751201D01*
X97477143Y-84679671D01*
X97477143Y-84622043D01*
X97512908Y-84550510D01*
X97542511Y-84520908D01*
X97614043Y-84485142D01*
X97851955Y-84485142D01*
X98021277Y-84541583D01*
X98073732Y-84543480D01*
X98134353Y-84507548D01*
X98165926Y-84444546D01*
X98158425Y-84374477D01*
X98114231Y-84319585D01*
X97923648Y-84256057D01*
X97906664Y-84245142D01*
X97873598Y-84245142D01*
X97840554Y-84243947D01*
X97838538Y-84245142D01*
X97592176Y-84245142D01*
X97563563Y-84242053D01*
X97541626Y-84253021D01*
X97518098Y-84259930D01*
X97510673Y-84268497D01*
X97431217Y-84308226D01*
X97411491Y-84312518D01*
X97388112Y-84335896D01*
X97363899Y-84358420D01*
X97363318Y-84360689D01*
X97340072Y-84383936D01*
X97322712Y-84394247D01*
X97307921Y-84423827D01*
X97292078Y-84452844D01*
X97292245Y-84455181D01*
X97252700Y-84534270D01*
X97237143Y-84558479D01*
X97237143Y-84583004D01*
X97232800Y-84607139D01*
X96962857Y-84607139D01*
X96962857Y-84347889D01*
X96948069Y-84297526D01*
X96894811Y-84251378D01*
X96825058Y-84241349D01*
X96760956Y-84270623D01*
X96722857Y-84329907D01*
X96722857Y-85113274D01*
X96268316Y-84317828D01*
X96262355Y-84297526D01*
X96238083Y-84276495D01*
X96214946Y-84254235D01*
X96211641Y-84253582D01*
X96209097Y-84251378D01*
X96177311Y-84246807D01*
X96145809Y-84240591D01*
X96142677Y-84241828D01*
X96139344Y-84241349D01*
X96110129Y-84254690D01*
X96080271Y-84266490D01*
X96078305Y-84269223D01*
X96075242Y-84270623D01*
X96057883Y-84297633D01*
X96039138Y-84323711D01*
X96038962Y-84327075D01*
X96037143Y-84329907D01*
X96037143Y-84362008D01*
X96035472Y-84394086D01*
X95612935Y-84394086D01*
X95566918Y-84348069D01*
X95556609Y-84330712D01*
X95527044Y-84315929D01*
X95498012Y-84300077D01*
X95495674Y-84300244D01*
X95416588Y-84260700D01*
X95392378Y-84245142D01*
X95367853Y-84245142D01*
X95343718Y-84240799D01*
X95333246Y-84245142D01*
X95135033Y-84245142D01*
X95106420Y-84242053D01*
X95084483Y-84253021D01*
X95060955Y-84259930D01*
X95053530Y-84268497D01*
X94974077Y-84308224D01*
X94954348Y-84312517D01*
X94930958Y-84335906D01*
X94906756Y-84358420D01*
X94906175Y-84360689D01*
X94816451Y-84450413D01*
X94792129Y-84473283D01*
X94787311Y-84492553D01*
X94777792Y-84509987D01*
X94778940Y-84526037D01*
X94731228Y-84716879D01*
X94722857Y-84729907D01*
X94722857Y-84750367D01*
X94722255Y-84752775D01*
X94722857Y-84767584D01*
X94722857Y-85145393D01*
X94717894Y-85160063D01*
X94277142Y-85160063D01*
X94277142Y-84485142D01*
X94517253Y-84485142D01*
X94567616Y-84470354D01*
X94613764Y-84417096D01*
X94623793Y-84347343D01*
X94594519Y-84283241D01*
X94535235Y-84245142D01*
X94165724Y-84245142D01*
X94139343Y-84241349D01*
X94131037Y-84245142D01*
X93797032Y-84245142D01*
X93746669Y-84259930D01*
X93700521Y-84313188D01*
X93698937Y-84324199D01*
X93680233Y-84283241D01*
X93620949Y-84245142D01*
X93251438Y-84245142D01*
X93225057Y-84241349D01*
X93216751Y-84245142D01*
X92882746Y-84245142D01*
X92832383Y-84259930D01*
X92786235Y-84313188D01*
X92776206Y-84382941D01*
X92619999Y-84382941D01*
X92619999Y-84347889D01*
X92605211Y-84297526D01*
X92551953Y-84251378D01*
X92482200Y-84241349D01*
X92418098Y-84270623D01*
X92379999Y-84329907D01*
X92379999Y-85308242D01*
X92344233Y-85379774D01*
X92314630Y-85409377D01*
X92243100Y-85445142D01*
X92071184Y-85445142D01*
X91999653Y-85409377D01*
X91970049Y-85379773D01*
X91934285Y-85308244D01*
X91934285Y-84347889D01*
X91919497Y-84297526D01*
X91866239Y-84251378D01*
X91796486Y-84241349D01*
X91732384Y-84270623D01*
X91694285Y-84329907D01*
X91694285Y-85330109D01*
X91691196Y-85358721D01*
X91419999Y-85358721D01*
X91419999Y-85347280D01*
X91424342Y-85323145D01*
X91419999Y-85312674D01*
X91419999Y-85171604D01*
X91423088Y-85142991D01*
X91412119Y-85121054D01*
X91405211Y-85097526D01*
X91396643Y-85090101D01*
X91356914Y-85010645D01*
X91352623Y-84990919D01*
X91329244Y-84967540D01*
X91306721Y-84943327D01*
X91304451Y-84942746D01*
X91275132Y-84913427D01*
X91272582Y-84910259D01*
X91277286Y-84907466D01*
X91292074Y-84877889D01*
X91307921Y-84848868D01*
X91307753Y-84846531D01*
X91347297Y-84767445D01*
X91362856Y-84743235D01*
X91362856Y-84718710D01*
X91367199Y-84694575D01*
X91362856Y-84684103D01*
X91362856Y-84600176D01*
X91365945Y-84571564D01*
X91354977Y-84549628D01*
X91348068Y-84526098D01*
X91339499Y-84518673D01*
X91299773Y-84439220D01*
X91295481Y-84419491D01*
X91272095Y-84396104D01*
X91249579Y-84371898D01*
X91247308Y-84371317D01*
X91224063Y-84348071D01*
X91213752Y-84330711D01*
X91184169Y-84315919D01*
X91155156Y-84300077D01*
X91152818Y-84300244D01*
X91073728Y-84260699D01*
X91049520Y-84245142D01*
X91024995Y-84245142D01*
X91000860Y-84240799D01*
X90990388Y-84245142D01*
X90622867Y-84245142D01*
X90596486Y-84241349D01*
X90572239Y-84252421D01*
X90546669Y-84259930D01*
X90540690Y-84266829D01*
X90532384Y-84270623D01*
X90517973Y-84293046D01*
X90500521Y-84313188D01*
X90499221Y-84322225D01*
X90494285Y-84329907D01*
X90494285Y-84356560D01*
X90490492Y-84382941D01*
X90494285Y-84391247D01*
X90494285Y-84927989D01*
X90490492Y-84954370D01*
X90494285Y-84962676D01*
X90494285Y-85556560D01*
X90490492Y-85582941D01*
X89617142Y-85582941D01*
X89617142Y-83578571D01*
X98982858Y-83578571D01*
X98982858Y-86441429D01*
G37*
G36*
X101910416Y-122045122D02*
G01*
X101971853Y-122106559D01*
X102004872Y-122172598D01*
X102045714Y-122335964D01*
X102045714Y-122449275D01*
X102004872Y-122612640D01*
X101971853Y-122678677D01*
X101910415Y-122740116D01*
X101812908Y-122772619D01*
X101714286Y-122772619D01*
X101714286Y-122012619D01*
X101812907Y-122012619D01*
X101910416Y-122045122D01*
G37*
G36*
X103059048Y-123732857D02*
G01*
X99700953Y-123732857D01*
X99700953Y-122096520D01*
X100469943Y-122096520D01*
X100474286Y-122106992D01*
X100474286Y-122171871D01*
X100471197Y-122200483D01*
X100482164Y-122222419D01*
X100489074Y-122245949D01*
X100497641Y-122253373D01*
X100527845Y-122313779D01*
X100532137Y-122333509D01*
X100555516Y-122356888D01*
X100578039Y-122381101D01*
X100580310Y-122381681D01*
X100594031Y-122395402D01*
X100604343Y-122412764D01*
X100633932Y-122427558D01*
X100662939Y-122443398D01*
X100665276Y-122443230D01*
X100711980Y-122466582D01*
X100721475Y-122476680D01*
X100742877Y-122482030D01*
X100746528Y-122483856D01*
X100759555Y-122486200D01*
X100933355Y-122529650D01*
X100999393Y-122562669D01*
X101019471Y-122582748D01*
X101045714Y-122635233D01*
X101045714Y-122673814D01*
X101019472Y-122726297D01*
X100999393Y-122746377D01*
X100946910Y-122772619D01*
X100756617Y-122772619D01*
X100615866Y-122725702D01*
X100563411Y-122723805D01*
X100502789Y-122759737D01*
X100471217Y-122822739D01*
X100478718Y-122892809D01*
X100522912Y-122947700D01*
X100684923Y-123001703D01*
X100701908Y-123012619D01*
X100734974Y-123012619D01*
X100768018Y-123013814D01*
X100770034Y-123012619D01*
X100968776Y-123012619D01*
X100997388Y-123015708D01*
X101019324Y-123004740D01*
X101042854Y-122997831D01*
X101050278Y-122989263D01*
X101110686Y-122959059D01*
X101130415Y-122954767D01*
X101153789Y-122931391D01*
X101176337Y-122910418D01*
X101470493Y-122910418D01*
X101481565Y-122934664D01*
X101489074Y-122960235D01*
X101495973Y-122966213D01*
X101499767Y-122974520D01*
X101522190Y-122988930D01*
X101542332Y-123006383D01*
X101551369Y-123007682D01*
X101559051Y-123012619D01*
X101585704Y-123012619D01*
X101612085Y-123016412D01*
X101620391Y-123012619D01*
X101817336Y-123012619D01*
X101836901Y-123017603D01*
X101868263Y-123007148D01*
X101899997Y-122997831D01*
X101901532Y-122996059D01*
X102007055Y-122960884D01*
X102035176Y-122954767D01*
X102052516Y-122937426D01*
X102072655Y-122923431D01*
X102076989Y-122912953D01*
X102144688Y-122845253D01*
X102162050Y-122834942D01*
X102176845Y-122805349D01*
X102192684Y-122776344D01*
X102192516Y-122774007D01*
X102215868Y-122727304D01*
X102225966Y-122717810D01*
X102231316Y-122696407D01*
X102233142Y-122692757D01*
X102235486Y-122679729D01*
X102277342Y-122512309D01*
X102285714Y-122499282D01*
X102285714Y-122478822D01*
X102286316Y-122476414D01*
X102285714Y-122461605D01*
X102285714Y-122340939D01*
X102290677Y-122326269D01*
X102285714Y-122306417D01*
X102285714Y-122303937D01*
X102281541Y-122289726D01*
X102239696Y-122122344D01*
X102241184Y-122108563D01*
X102231317Y-122088830D01*
X102230328Y-122084872D01*
X102223630Y-122073457D01*
X102184536Y-121995269D01*
X102180244Y-121975538D01*
X102156851Y-121952145D01*
X102134342Y-121927946D01*
X102132071Y-121927365D01*
X102064656Y-121859950D01*
X102046612Y-121837538D01*
X102023345Y-121829782D01*
X102001822Y-121818030D01*
X101990514Y-121818838D01*
X101884600Y-121783534D01*
X101867616Y-121772619D01*
X101834550Y-121772619D01*
X101801506Y-121771424D01*
X101799490Y-121772619D01*
X101602868Y-121772619D01*
X101576487Y-121768826D01*
X101552240Y-121779898D01*
X101526670Y-121787407D01*
X101520691Y-121794306D01*
X101512385Y-121798100D01*
X101497974Y-121820523D01*
X101480522Y-121840665D01*
X101479222Y-121849702D01*
X101474286Y-121857384D01*
X101474286Y-121884037D01*
X101470493Y-121910418D01*
X101474286Y-121918724D01*
X101474286Y-122884037D01*
X101470493Y-122910418D01*
X101176337Y-122910418D01*
X101178006Y-122908866D01*
X101178586Y-122906593D01*
X101192308Y-122892872D01*
X101209669Y-122882561D01*
X101224464Y-122852968D01*
X101240303Y-122823963D01*
X101240135Y-122821626D01*
X101270156Y-122761585D01*
X101285714Y-122737377D01*
X101285714Y-122712852D01*
X101290057Y-122688717D01*
X101285714Y-122678245D01*
X101285714Y-122613366D01*
X101288803Y-122584753D01*
X101277834Y-122562816D01*
X101270926Y-122539288D01*
X101262358Y-122531863D01*
X101232153Y-122471455D01*
X101227862Y-122451728D01*
X101204480Y-122428345D01*
X101181961Y-122404136D01*
X101179689Y-122403555D01*
X101165965Y-122389830D01*
X101155656Y-122372473D01*
X101126085Y-122357687D01*
X101097060Y-122341839D01*
X101094722Y-122342006D01*
X101048019Y-122318654D01*
X101038525Y-122308557D01*
X101017122Y-122303206D01*
X101013472Y-122301381D01*
X101000443Y-122299036D01*
X100826644Y-122255586D01*
X100760606Y-122222567D01*
X100740527Y-122202487D01*
X100714286Y-122150005D01*
X100714286Y-122111424D01*
X100740527Y-122058939D01*
X100760606Y-122038861D01*
X100813091Y-122012619D01*
X101003383Y-122012619D01*
X101144134Y-122059536D01*
X101196589Y-122061433D01*
X101257210Y-122025501D01*
X101288782Y-121962499D01*
X101281281Y-121892429D01*
X101237088Y-121837538D01*
X101075076Y-121783534D01*
X101058092Y-121772619D01*
X101025026Y-121772619D01*
X100991982Y-121771424D01*
X100989966Y-121772619D01*
X100791224Y-121772619D01*
X100762611Y-121769530D01*
X100740674Y-121780498D01*
X100717146Y-121787407D01*
X100709721Y-121795974D01*
X100649313Y-121826179D01*
X100629586Y-121830471D01*
X100606203Y-121853852D01*
X100581994Y-121876372D01*
X100581413Y-121878643D01*
X100567688Y-121892367D01*
X100550331Y-121902677D01*
X100535545Y-121932247D01*
X100519697Y-121961273D01*
X100519864Y-121963610D01*
X100489844Y-122023650D01*
X100474286Y-122047860D01*
X100474286Y-122072385D01*
X100469943Y-122096520D01*
X99700953Y-122096520D01*
X99700953Y-121127143D01*
X103059048Y-121127143D01*
X103059048Y-123732857D01*
G37*
G36*
X90820107Y-115798622D02*
G01*
X90840185Y-115818701D01*
X90866428Y-115871186D01*
X90866428Y-115979514D01*
X90863435Y-116008391D01*
X90866428Y-116014313D01*
X90866428Y-116103809D01*
X90582619Y-116103809D01*
X90582619Y-115871186D01*
X90608860Y-115818701D01*
X90628939Y-115798623D01*
X90681424Y-115772381D01*
X90767623Y-115772381D01*
X90820107Y-115798622D01*
G37*
G36*
X92302857Y-117164762D02*
G01*
X89697143Y-117164762D01*
X89697143Y-115856282D01*
X90338276Y-115856282D01*
X90342619Y-115866754D01*
X90342619Y-116215227D01*
X90338826Y-116241608D01*
X90349898Y-116265854D01*
X90357407Y-116291425D01*
X90364306Y-116297403D01*
X90368100Y-116305710D01*
X90390523Y-116320120D01*
X90410665Y-116337573D01*
X90419702Y-116338872D01*
X90427384Y-116343809D01*
X90454037Y-116343809D01*
X90480418Y-116347602D01*
X90488724Y-116343809D01*
X90977846Y-116343809D01*
X91004227Y-116347602D01*
X91012533Y-116343809D01*
X91479872Y-116343809D01*
X91530235Y-116329021D01*
X91576383Y-116275763D01*
X91586412Y-116206010D01*
X91557138Y-116141908D01*
X91497854Y-116103809D01*
X91106428Y-116103809D01*
X91106428Y-116048193D01*
X91545569Y-115740795D01*
X91578347Y-115699799D01*
X91585612Y-115629704D01*
X91553827Y-115566809D01*
X91493085Y-115531082D01*
X91422669Y-115533867D01*
X91085477Y-115769900D01*
X91083072Y-115767816D01*
X91052867Y-115707408D01*
X91048576Y-115687681D01*
X91025194Y-115664298D01*
X91002675Y-115640089D01*
X91000403Y-115639508D01*
X90986679Y-115625783D01*
X90976370Y-115608426D01*
X90946799Y-115593640D01*
X90917774Y-115577792D01*
X90915436Y-115577959D01*
X90855396Y-115547939D01*
X90831187Y-115532381D01*
X90806662Y-115532381D01*
X90782527Y-115528038D01*
X90772055Y-115532381D01*
X90659557Y-115532381D01*
X90630944Y-115529292D01*
X90609007Y-115540260D01*
X90585479Y-115547169D01*
X90578054Y-115555736D01*
X90517646Y-115585941D01*
X90497919Y-115590233D01*
X90474536Y-115613614D01*
X90450327Y-115636134D01*
X90449746Y-115638405D01*
X90436021Y-115652129D01*
X90418664Y-115662439D01*
X90403878Y-115692009D01*
X90388030Y-115721035D01*
X90388197Y-115723372D01*
X90358177Y-115783412D01*
X90342619Y-115807622D01*
X90342619Y-115832147D01*
X90338276Y-115856282D01*
X89697143Y-115856282D01*
X89697143Y-115241608D01*
X90338826Y-115241608D01*
X90349898Y-115265854D01*
X90357407Y-115291425D01*
X90364306Y-115297403D01*
X90368100Y-115305710D01*
X90390523Y-115320120D01*
X90410665Y-115337573D01*
X90419702Y-115338872D01*
X90427384Y-115343809D01*
X90454037Y-115343809D01*
X90480418Y-115347602D01*
X90488724Y-115343809D01*
X90930227Y-115343809D01*
X90956608Y-115347602D01*
X90964914Y-115343809D01*
X91454037Y-115343809D01*
X91480418Y-115347602D01*
X91504664Y-115336529D01*
X91530235Y-115329021D01*
X91536213Y-115322121D01*
X91544520Y-115318328D01*
X91558930Y-115295904D01*
X91576383Y-115275763D01*
X91577682Y-115266725D01*
X91582619Y-115259044D01*
X91582619Y-115232391D01*
X91586412Y-115206010D01*
X91582619Y-115197704D01*
X91582619Y-114730366D01*
X91567831Y-114680003D01*
X91514573Y-114633855D01*
X91444820Y-114623826D01*
X91380718Y-114653100D01*
X91342619Y-114712384D01*
X91342619Y-115103809D01*
X91058809Y-115103809D01*
X91058809Y-114873223D01*
X91044021Y-114822860D01*
X90990763Y-114776712D01*
X90921010Y-114766683D01*
X90856908Y-114795957D01*
X90818809Y-114855241D01*
X90818809Y-115103809D01*
X90582619Y-115103809D01*
X90582619Y-114730366D01*
X90567831Y-114680003D01*
X90514573Y-114633855D01*
X90444820Y-114623826D01*
X90380718Y-114653100D01*
X90342619Y-114712384D01*
X90342619Y-115215227D01*
X90338826Y-115241608D01*
X89697143Y-115241608D01*
X89697143Y-114198340D01*
X90339530Y-114198340D01*
X90350497Y-114220276D01*
X90357407Y-114243806D01*
X90365974Y-114251230D01*
X90396178Y-114311636D01*
X90400470Y-114331366D01*
X90423849Y-114354745D01*
X90446372Y-114378958D01*
X90448643Y-114379538D01*
X90462364Y-114393259D01*
X90472676Y-114410621D01*
X90502265Y-114425415D01*
X90531272Y-114441255D01*
X90533609Y-114441087D01*
X90593651Y-114471108D01*
X90617860Y-114486666D01*
X90642385Y-114486666D01*
X90666520Y-114491009D01*
X90676992Y-114486666D01*
X90741871Y-114486666D01*
X90770483Y-114489755D01*
X90792419Y-114478787D01*
X90815949Y-114471878D01*
X90823373Y-114463310D01*
X90883779Y-114433106D01*
X90903509Y-114428815D01*
X90926888Y-114405435D01*
X90951101Y-114382913D01*
X90951681Y-114380641D01*
X90965402Y-114366920D01*
X90982764Y-114356609D01*
X90997558Y-114327019D01*
X91013398Y-114298013D01*
X91013230Y-114295675D01*
X91036582Y-114248971D01*
X91046680Y-114239477D01*
X91052030Y-114218074D01*
X91053856Y-114214424D01*
X91056200Y-114201396D01*
X91099650Y-114027596D01*
X91132669Y-113961558D01*
X91152748Y-113941480D01*
X91205233Y-113915238D01*
X91243813Y-113915238D01*
X91296298Y-113941480D01*
X91316377Y-113961558D01*
X91342619Y-114014043D01*
X91342619Y-114204335D01*
X91295702Y-114345086D01*
X91293805Y-114397541D01*
X91329737Y-114458163D01*
X91392739Y-114489735D01*
X91462809Y-114482234D01*
X91517700Y-114438040D01*
X91571703Y-114276028D01*
X91582619Y-114259044D01*
X91582619Y-114225978D01*
X91583814Y-114192934D01*
X91582619Y-114190918D01*
X91582619Y-113992176D01*
X91585708Y-113963563D01*
X91574739Y-113941626D01*
X91567831Y-113918098D01*
X91559263Y-113910673D01*
X91529059Y-113850267D01*
X91524767Y-113830537D01*
X91501382Y-113807153D01*
X91478866Y-113782946D01*
X91476593Y-113782365D01*
X91462869Y-113768641D01*
X91452560Y-113751283D01*
X91422977Y-113736491D01*
X91393963Y-113720649D01*
X91391626Y-113720816D01*
X91331586Y-113690796D01*
X91307377Y-113675238D01*
X91282852Y-113675238D01*
X91258717Y-113670895D01*
X91248245Y-113675238D01*
X91183366Y-113675238D01*
X91154753Y-113672149D01*
X91132816Y-113683117D01*
X91109288Y-113690026D01*
X91101863Y-113698593D01*
X91041455Y-113728798D01*
X91021728Y-113733090D01*
X90998345Y-113756471D01*
X90974136Y-113778991D01*
X90973555Y-113781262D01*
X90959830Y-113794986D01*
X90942473Y-113805296D01*
X90927687Y-113834866D01*
X90911839Y-113863892D01*
X90912006Y-113866229D01*
X90888654Y-113912932D01*
X90878557Y-113922427D01*
X90873206Y-113943829D01*
X90871381Y-113947480D01*
X90869036Y-113960508D01*
X90825586Y-114134307D01*
X90792567Y-114200345D01*
X90772487Y-114220424D01*
X90720005Y-114246666D01*
X90681423Y-114246666D01*
X90628939Y-114220424D01*
X90608860Y-114200344D01*
X90582619Y-114147862D01*
X90582619Y-113957569D01*
X90629536Y-113816818D01*
X90631433Y-113764363D01*
X90595501Y-113703742D01*
X90532499Y-113672170D01*
X90462429Y-113679671D01*
X90407538Y-113723864D01*
X90353534Y-113885875D01*
X90342619Y-113902860D01*
X90342619Y-113935926D01*
X90341424Y-113968970D01*
X90342619Y-113970986D01*
X90342619Y-114169728D01*
X90339530Y-114198340D01*
X89697143Y-114198340D01*
X89697143Y-113384465D01*
X90338826Y-113384465D01*
X90349898Y-113408711D01*
X90357407Y-113434282D01*
X90364306Y-113440260D01*
X90368100Y-113448567D01*
X90390523Y-113462977D01*
X90410665Y-113480430D01*
X90419702Y-113481729D01*
X90427384Y-113486666D01*
X90454037Y-113486666D01*
X90480418Y-113490459D01*
X90488724Y-113486666D01*
X90930227Y-113486666D01*
X90956608Y-113490459D01*
X90964914Y-113486666D01*
X91454037Y-113486666D01*
X91480418Y-113490459D01*
X91504664Y-113479386D01*
X91530235Y-113471878D01*
X91536213Y-113464978D01*
X91544520Y-113461185D01*
X91558930Y-113438761D01*
X91576383Y-113418620D01*
X91577682Y-113409582D01*
X91582619Y-113401901D01*
X91582619Y-113375248D01*
X91586412Y-113348867D01*
X91582619Y-113340561D01*
X91582619Y-112873223D01*
X91567831Y-112822860D01*
X91514573Y-112776712D01*
X91444820Y-112766683D01*
X91380718Y-112795957D01*
X91342619Y-112855241D01*
X91342619Y-113246666D01*
X91058809Y-113246666D01*
X91058809Y-113016080D01*
X91044021Y-112965717D01*
X90990763Y-112919569D01*
X90921010Y-112909540D01*
X90856908Y-112938814D01*
X90818809Y-112998098D01*
X90818809Y-113246666D01*
X90582619Y-113246666D01*
X90582619Y-112873223D01*
X90567831Y-112822860D01*
X90514573Y-112776712D01*
X90444820Y-112766683D01*
X90380718Y-112795957D01*
X90342619Y-112855241D01*
X90342619Y-113358084D01*
X90338826Y-113384465D01*
X89697143Y-113384465D01*
X89697143Y-112336846D01*
X90338826Y-112336846D01*
X90342619Y-112345152D01*
X90342619Y-112622014D01*
X90357407Y-112672377D01*
X90410665Y-112718525D01*
X90480418Y-112728554D01*
X90544520Y-112699280D01*
X90582619Y-112639996D01*
X90582619Y-112439047D01*
X91479872Y-112439047D01*
X91530235Y-112424259D01*
X91576383Y-112371001D01*
X91586412Y-112301248D01*
X91557138Y-112237146D01*
X91497854Y-112199047D01*
X90582619Y-112199047D01*
X90582619Y-112016080D01*
X90567831Y-111965717D01*
X90514573Y-111919569D01*
X90444820Y-111909540D01*
X90380718Y-111938814D01*
X90342619Y-111998098D01*
X90342619Y-112310465D01*
X90338826Y-112336846D01*
X89697143Y-112336846D01*
X89697143Y-111235238D01*
X92302857Y-111235238D01*
X92302857Y-117164762D01*
G37*
D11*
X106109999Y-72012619D02*
X106109999Y-71012619D01*
X106109999Y-71012619D02*
X106467142Y-71012619D01*
X106467142Y-71012619D02*
X106681428Y-71060238D01*
X106681428Y-71060238D02*
X106824285Y-71155476D01*
X106824285Y-71155476D02*
X106895714Y-71250714D01*
X106895714Y-71250714D02*
X106967142Y-71441190D01*
X106967142Y-71441190D02*
X106967142Y-71584047D01*
X106967142Y-71584047D02*
X106895714Y-71774523D01*
X106895714Y-71774523D02*
X106824285Y-71869761D01*
X106824285Y-71869761D02*
X106681428Y-71965000D01*
X106681428Y-71965000D02*
X106467142Y-72012619D01*
X106467142Y-72012619D02*
X106109999Y-72012619D01*
X107467142Y-71012619D02*
X107824285Y-72012619D01*
X107824285Y-72012619D02*
X108109999Y-71298333D01*
X108109999Y-71298333D02*
X108395714Y-72012619D01*
X108395714Y-72012619D02*
X108752857Y-71012619D01*
D10*
G36*
X93178987Y-129335122D02*
G01*
X93240424Y-129396559D01*
X93273443Y-129462598D01*
X93314285Y-129625964D01*
X93314285Y-129739275D01*
X93273443Y-129902640D01*
X93240424Y-129968677D01*
X93178986Y-130030116D01*
X93081479Y-130062619D01*
X92982857Y-130062619D01*
X92982857Y-129302619D01*
X93081478Y-129302619D01*
X93178987Y-129335122D01*
G37*
G36*
X94327619Y-131022857D02*
G01*
X90112381Y-131022857D01*
X90112381Y-130200418D01*
X90929540Y-130200418D01*
X90940612Y-130224664D01*
X90948121Y-130250235D01*
X90955020Y-130256213D01*
X90958814Y-130264520D01*
X90981237Y-130278930D01*
X91001379Y-130296383D01*
X91010416Y-130297682D01*
X91018098Y-130302619D01*
X91044751Y-130302619D01*
X91071132Y-130306412D01*
X91079438Y-130302619D01*
X91546776Y-130302619D01*
X91597139Y-130287831D01*
X91643287Y-130234573D01*
X91653316Y-130164820D01*
X91624042Y-130100718D01*
X91564758Y-130062619D01*
X91173333Y-130062619D01*
X91173333Y-129748968D01*
X91690275Y-129748968D01*
X91695238Y-129768820D01*
X91695238Y-129771300D01*
X91699410Y-129785510D01*
X91741255Y-129952892D01*
X91739768Y-129966673D01*
X91749634Y-129986405D01*
X91750624Y-129990365D01*
X91757322Y-130001781D01*
X91796416Y-130079970D01*
X91800708Y-130099698D01*
X91824080Y-130123070D01*
X91846610Y-130147291D01*
X91848881Y-130147871D01*
X91916289Y-130215280D01*
X91934340Y-130237700D01*
X91957607Y-130245455D01*
X91979129Y-130257208D01*
X91990437Y-130256399D01*
X92096351Y-130291703D01*
X92113336Y-130302619D01*
X92146402Y-130302619D01*
X92179446Y-130303814D01*
X92181462Y-130302619D01*
X92228764Y-130302619D01*
X92248329Y-130307603D01*
X92279691Y-130297148D01*
X92311425Y-130287831D01*
X92312960Y-130286059D01*
X92418481Y-130250885D01*
X92446605Y-130244767D01*
X92463946Y-130227425D01*
X92484083Y-130213431D01*
X92488417Y-130202953D01*
X92490952Y-130200418D01*
X92739064Y-130200418D01*
X92750136Y-130224664D01*
X92757645Y-130250235D01*
X92764544Y-130256213D01*
X92768338Y-130264520D01*
X92790761Y-130278930D01*
X92810903Y-130296383D01*
X92819940Y-130297682D01*
X92827622Y-130302619D01*
X92854275Y-130302619D01*
X92880656Y-130306412D01*
X92888962Y-130302619D01*
X93085907Y-130302619D01*
X93105472Y-130307603D01*
X93136834Y-130297148D01*
X93168568Y-130287831D01*
X93170103Y-130286059D01*
X93275626Y-130250884D01*
X93303747Y-130244767D01*
X93321087Y-130227426D01*
X93341226Y-130213431D01*
X93345560Y-130202953D01*
X93413259Y-130135253D01*
X93430621Y-130124942D01*
X93445416Y-130095349D01*
X93461255Y-130066344D01*
X93461087Y-130064007D01*
X93484439Y-130017304D01*
X93494537Y-130007810D01*
X93499887Y-129986407D01*
X93501713Y-129982757D01*
X93504057Y-129969729D01*
X93545913Y-129802309D01*
X93554285Y-129789282D01*
X93554285Y-129768822D01*
X93554887Y-129766414D01*
X93554285Y-129751605D01*
X93554285Y-129630939D01*
X93559248Y-129616269D01*
X93554285Y-129596417D01*
X93554285Y-129593937D01*
X93550112Y-129579726D01*
X93508267Y-129412344D01*
X93509755Y-129398563D01*
X93499888Y-129378830D01*
X93498899Y-129374872D01*
X93492201Y-129363457D01*
X93453107Y-129285269D01*
X93448815Y-129265538D01*
X93425422Y-129242145D01*
X93402913Y-129217946D01*
X93400642Y-129217365D01*
X93333227Y-129149950D01*
X93315183Y-129127538D01*
X93291916Y-129119782D01*
X93270393Y-129108030D01*
X93259085Y-129108838D01*
X93153171Y-129073534D01*
X93136187Y-129062619D01*
X93103121Y-129062619D01*
X93070077Y-129061424D01*
X93068061Y-129062619D01*
X92871439Y-129062619D01*
X92845058Y-129058826D01*
X92820811Y-129069898D01*
X92795241Y-129077407D01*
X92789262Y-129084306D01*
X92780956Y-129088100D01*
X92766545Y-129110523D01*
X92749093Y-129130665D01*
X92747793Y-129139702D01*
X92742857Y-129147384D01*
X92742857Y-129174037D01*
X92739064Y-129200418D01*
X92742857Y-129208724D01*
X92742857Y-130174037D01*
X92739064Y-130200418D01*
X92490952Y-130200418D01*
X92531338Y-130160032D01*
X92556493Y-130113963D01*
X92551465Y-130043673D01*
X92509233Y-129987259D01*
X92443206Y-129962632D01*
X92374346Y-129977613D01*
X92321843Y-130030116D01*
X92224336Y-130062619D01*
X92168045Y-130062619D01*
X92070535Y-130030115D01*
X92009098Y-129968678D01*
X91976079Y-129902641D01*
X91935238Y-129739273D01*
X91935238Y-129625962D01*
X91976079Y-129462596D01*
X92009098Y-129396559D01*
X92070537Y-129335121D01*
X92168043Y-129302619D01*
X92224335Y-129302619D01*
X92321844Y-129335122D01*
X92361632Y-129374909D01*
X92407700Y-129400065D01*
X92477991Y-129395037D01*
X92534405Y-129352806D01*
X92559032Y-129286779D01*
X92544052Y-129217919D01*
X92476084Y-129149951D01*
X92458040Y-129127538D01*
X92434773Y-129119782D01*
X92413250Y-129108030D01*
X92401942Y-129108838D01*
X92296028Y-129073534D01*
X92279044Y-129062619D01*
X92245978Y-129062619D01*
X92212934Y-129061424D01*
X92210918Y-129062619D01*
X92163614Y-129062619D01*
X92144050Y-129057635D01*
X92112680Y-129068091D01*
X92080955Y-129077407D01*
X92079420Y-129079178D01*
X91973898Y-129114352D01*
X91945776Y-129120470D01*
X91928433Y-129137812D01*
X91908297Y-129151807D01*
X91903963Y-129162282D01*
X91836259Y-129229986D01*
X91818902Y-129240296D01*
X91804116Y-129269866D01*
X91788268Y-129298892D01*
X91788435Y-129301229D01*
X91765083Y-129347932D01*
X91754986Y-129357427D01*
X91749635Y-129378829D01*
X91747810Y-129382480D01*
X91745465Y-129395508D01*
X91703610Y-129562927D01*
X91695238Y-129575955D01*
X91695238Y-129596416D01*
X91694636Y-129598824D01*
X91695238Y-129613633D01*
X91695238Y-129734298D01*
X91690275Y-129748968D01*
X91173333Y-129748968D01*
X91173333Y-129165366D01*
X91158545Y-129115003D01*
X91105287Y-129068855D01*
X91035534Y-129058826D01*
X90971432Y-129088100D01*
X90933333Y-129147384D01*
X90933333Y-130174037D01*
X90929540Y-130200418D01*
X90112381Y-130200418D01*
X90112381Y-128417143D01*
X94327619Y-128417143D01*
X94327619Y-131022857D01*
G37*
G36*
X122016904Y-114824936D02*
G01*
X121802092Y-114753332D01*
X122016904Y-114681729D01*
X122016904Y-114824936D01*
G37*
G36*
X121780107Y-113661479D02*
G01*
X121800185Y-113681558D01*
X121826428Y-113734043D01*
X121826428Y-113842371D01*
X121823435Y-113871248D01*
X121826428Y-113877170D01*
X121826428Y-113966666D01*
X121542619Y-113966666D01*
X121542619Y-113734043D01*
X121568860Y-113681558D01*
X121588939Y-113661480D01*
X121641424Y-113635238D01*
X121727623Y-113635238D01*
X121780107Y-113661479D01*
G37*
G36*
X122190259Y-111961793D02*
G01*
X122256298Y-111994813D01*
X122276377Y-112014891D01*
X122302619Y-112067376D01*
X122302619Y-112105957D01*
X122276377Y-112158439D01*
X122256297Y-112178519D01*
X122190260Y-112211538D01*
X122026892Y-112252380D01*
X121818343Y-112252380D01*
X121654977Y-112211538D01*
X121588939Y-112178519D01*
X121568860Y-112158439D01*
X121542619Y-112105957D01*
X121542619Y-112067376D01*
X121568860Y-112014891D01*
X121588939Y-111994813D01*
X121654979Y-111961793D01*
X121818345Y-111920952D01*
X122026894Y-111920952D01*
X122190259Y-111961793D01*
G37*
G36*
X123262857Y-116932381D02*
G01*
X120657143Y-116932381D01*
X120657143Y-116009227D01*
X121298826Y-116009227D01*
X121328100Y-116073329D01*
X121387384Y-116111428D01*
X122225680Y-116111428D01*
X122254292Y-116114517D01*
X122276228Y-116103549D01*
X122299758Y-116096640D01*
X122307182Y-116088072D01*
X122367589Y-116057868D01*
X122387317Y-116053577D01*
X122410694Y-116030199D01*
X122434910Y-116007675D01*
X122435490Y-116005404D01*
X122449213Y-115991682D01*
X122466574Y-115981371D01*
X122481366Y-115951785D01*
X122497207Y-115922776D01*
X122497039Y-115920438D01*
X122527061Y-115860395D01*
X122542619Y-115836187D01*
X122542619Y-115811662D01*
X122546962Y-115787527D01*
X122542619Y-115777055D01*
X122542619Y-115616938D01*
X122545708Y-115588325D01*
X122534739Y-115566388D01*
X122527831Y-115542860D01*
X122519263Y-115535435D01*
X122489059Y-115475029D01*
X122484767Y-115455299D01*
X122461382Y-115431915D01*
X122438866Y-115407708D01*
X122436593Y-115407127D01*
X122422869Y-115393403D01*
X122412560Y-115376045D01*
X122382977Y-115361253D01*
X122353963Y-115345411D01*
X122351626Y-115345578D01*
X122291586Y-115315558D01*
X122267377Y-115300000D01*
X122242852Y-115300000D01*
X122218717Y-115295657D01*
X122208245Y-115300000D01*
X121405366Y-115300000D01*
X121355003Y-115314788D01*
X121308855Y-115368046D01*
X121298826Y-115437799D01*
X121328100Y-115501901D01*
X121387384Y-115540000D01*
X122203813Y-115540000D01*
X122256298Y-115566242D01*
X122276377Y-115586320D01*
X122302619Y-115638805D01*
X122302619Y-115772624D01*
X122276377Y-115825106D01*
X122256297Y-115845186D01*
X122203814Y-115871428D01*
X121405366Y-115871428D01*
X121355003Y-115886216D01*
X121308855Y-115939474D01*
X121298826Y-116009227D01*
X120657143Y-116009227D01*
X120657143Y-114740020D01*
X121298264Y-114740020D01*
X121303761Y-114770413D01*
X121307051Y-114801142D01*
X121309976Y-114804776D01*
X121310807Y-114809365D01*
X121331868Y-114831967D01*
X121351245Y-114856033D01*
X121355669Y-114857507D01*
X121358850Y-114860921D01*
X121388789Y-114868547D01*
X122076339Y-115097730D01*
X122084950Y-115105192D01*
X122109169Y-115108674D01*
X122401039Y-115205964D01*
X122453494Y-115207861D01*
X122514115Y-115171929D01*
X122545687Y-115108927D01*
X122538187Y-115038857D01*
X122493993Y-114983966D01*
X122256904Y-114904936D01*
X122256904Y-114601729D01*
X122476934Y-114528386D01*
X122520036Y-114498431D01*
X122546974Y-114433313D01*
X122534430Y-114363968D01*
X122486388Y-114312413D01*
X122418098Y-114295016D01*
X122125885Y-114392419D01*
X122119105Y-114391445D01*
X122092875Y-114403423D01*
X121405264Y-114632626D01*
X121391744Y-114632138D01*
X121372484Y-114643553D01*
X121368304Y-114644947D01*
X121357699Y-114652317D01*
X121331122Y-114668070D01*
X121329032Y-114672240D01*
X121325202Y-114674902D01*
X121313392Y-114703448D01*
X121299550Y-114731072D01*
X121300046Y-114735710D01*
X121298264Y-114740020D01*
X120657143Y-114740020D01*
X120657143Y-113719139D01*
X121298276Y-113719139D01*
X121302619Y-113729611D01*
X121302619Y-114078084D01*
X121298826Y-114104465D01*
X121309898Y-114128711D01*
X121317407Y-114154282D01*
X121324306Y-114160260D01*
X121328100Y-114168567D01*
X121350523Y-114182977D01*
X121370665Y-114200430D01*
X121379702Y-114201729D01*
X121387384Y-114206666D01*
X121414037Y-114206666D01*
X121440418Y-114210459D01*
X121448724Y-114206666D01*
X121937846Y-114206666D01*
X121964227Y-114210459D01*
X121972533Y-114206666D01*
X122439872Y-114206666D01*
X122490235Y-114191878D01*
X122536383Y-114138620D01*
X122546412Y-114068867D01*
X122517138Y-114004765D01*
X122457854Y-113966666D01*
X122066428Y-113966666D01*
X122066428Y-113911050D01*
X122505569Y-113603652D01*
X122538347Y-113562656D01*
X122545612Y-113492561D01*
X122513827Y-113429666D01*
X122453085Y-113393939D01*
X122382669Y-113396724D01*
X122045477Y-113632757D01*
X122043072Y-113630673D01*
X122012867Y-113570265D01*
X122008576Y-113550538D01*
X121985194Y-113527155D01*
X121962675Y-113502946D01*
X121960403Y-113502365D01*
X121946679Y-113488640D01*
X121936370Y-113471283D01*
X121906799Y-113456497D01*
X121877774Y-113440649D01*
X121875436Y-113440816D01*
X121815396Y-113410796D01*
X121791187Y-113395238D01*
X121766662Y-113395238D01*
X121742527Y-113390895D01*
X121732055Y-113395238D01*
X121619557Y-113395238D01*
X121590944Y-113392149D01*
X121569007Y-113403117D01*
X121545479Y-113410026D01*
X121538054Y-113418593D01*
X121477646Y-113448798D01*
X121457919Y-113453090D01*
X121434536Y-113476471D01*
X121410327Y-113498991D01*
X121409746Y-113501262D01*
X121396021Y-113514986D01*
X121378664Y-113525296D01*
X121363878Y-113554866D01*
X121348030Y-113583892D01*
X121348197Y-113586229D01*
X121318177Y-113646269D01*
X121302619Y-113670479D01*
X121302619Y-113695004D01*
X121298276Y-113719139D01*
X120657143Y-113719139D01*
X120657143Y-112961608D01*
X121298826Y-112961608D01*
X121302619Y-112969914D01*
X121302619Y-113246776D01*
X121317407Y-113297139D01*
X121370665Y-113343287D01*
X121440418Y-113353316D01*
X121504520Y-113324042D01*
X121542619Y-113264758D01*
X121542619Y-113063809D01*
X122439872Y-113063809D01*
X122490235Y-113049021D01*
X122536383Y-112995763D01*
X122546412Y-112926010D01*
X122517138Y-112861908D01*
X122457854Y-112823809D01*
X121542619Y-112823809D01*
X121542619Y-112640842D01*
X121527831Y-112590479D01*
X121474573Y-112544331D01*
X121404820Y-112534302D01*
X121340718Y-112563576D01*
X121302619Y-112622860D01*
X121302619Y-112935227D01*
X121298826Y-112961608D01*
X120657143Y-112961608D01*
X120657143Y-112052472D01*
X121298276Y-112052472D01*
X121302619Y-112062944D01*
X121302619Y-112127823D01*
X121299530Y-112156435D01*
X121310497Y-112178371D01*
X121317407Y-112201901D01*
X121325974Y-112209325D01*
X121356178Y-112269731D01*
X121360470Y-112289461D01*
X121383849Y-112312840D01*
X121406372Y-112337053D01*
X121408643Y-112337633D01*
X121422364Y-112351354D01*
X121432676Y-112368716D01*
X121462265Y-112383510D01*
X121491272Y-112399350D01*
X121493609Y-112399182D01*
X121540313Y-112422534D01*
X121549808Y-112432632D01*
X121571210Y-112437982D01*
X121574861Y-112439808D01*
X121587888Y-112442152D01*
X121755308Y-112484008D01*
X121768336Y-112492380D01*
X121788796Y-112492380D01*
X121791204Y-112492982D01*
X121806013Y-112492380D01*
X122021917Y-112492380D01*
X122036587Y-112497343D01*
X122056439Y-112492380D01*
X122058919Y-112492380D01*
X122073129Y-112488207D01*
X122240511Y-112446362D01*
X122254292Y-112447850D01*
X122274024Y-112437983D01*
X122277984Y-112436994D01*
X122289400Y-112430295D01*
X122367589Y-112391201D01*
X122387317Y-112386910D01*
X122410694Y-112363532D01*
X122434910Y-112341008D01*
X122435490Y-112338737D01*
X122449213Y-112325015D01*
X122466574Y-112314704D01*
X122481366Y-112285118D01*
X122497207Y-112256109D01*
X122497039Y-112253771D01*
X122527061Y-112193728D01*
X122542619Y-112169520D01*
X122542619Y-112144995D01*
X122546962Y-112120860D01*
X122542619Y-112110388D01*
X122542619Y-112045509D01*
X122545708Y-112016896D01*
X122534739Y-111994959D01*
X122527831Y-111971431D01*
X122519263Y-111964006D01*
X122489059Y-111903600D01*
X122484767Y-111883870D01*
X122461382Y-111860486D01*
X122438866Y-111836279D01*
X122436593Y-111835698D01*
X122422869Y-111821974D01*
X122412560Y-111804616D01*
X122382977Y-111789824D01*
X122353963Y-111773982D01*
X122351626Y-111774149D01*
X122304923Y-111750797D01*
X122295429Y-111740700D01*
X122274026Y-111735349D01*
X122270376Y-111733524D01*
X122257347Y-111731179D01*
X122089928Y-111689324D01*
X122076901Y-111680952D01*
X122056440Y-111680952D01*
X122054032Y-111680350D01*
X122039223Y-111680952D01*
X121823320Y-111680952D01*
X121808650Y-111675989D01*
X121788798Y-111680952D01*
X121786318Y-111680952D01*
X121772107Y-111685124D01*
X121604725Y-111726969D01*
X121590944Y-111725482D01*
X121571211Y-111735348D01*
X121567253Y-111736338D01*
X121555838Y-111743035D01*
X121477646Y-111782131D01*
X121457919Y-111786423D01*
X121434536Y-111809804D01*
X121410327Y-111832324D01*
X121409746Y-111834595D01*
X121396021Y-111848319D01*
X121378664Y-111858629D01*
X121363878Y-111888199D01*
X121348030Y-111917225D01*
X121348197Y-111919562D01*
X121318177Y-111979602D01*
X121302619Y-112003812D01*
X121302619Y-112028337D01*
X121298276Y-112052472D01*
X120657143Y-112052472D01*
X120657143Y-110907619D01*
X123262857Y-110907619D01*
X123262857Y-116932381D01*
G37*
G36*
X91296298Y-107375289D02*
G01*
X91316377Y-107395367D01*
X91342619Y-107447852D01*
X91342619Y-107680475D01*
X91058809Y-107680475D01*
X91058809Y-107486616D01*
X91091312Y-107389106D01*
X91105129Y-107375289D01*
X91157614Y-107349047D01*
X91243813Y-107349047D01*
X91296298Y-107375289D01*
G37*
G36*
X90772488Y-107422907D02*
G01*
X90792566Y-107442986D01*
X90817780Y-107493413D01*
X90817614Y-107498017D01*
X90818809Y-107500033D01*
X90818809Y-107680475D01*
X90582619Y-107680475D01*
X90582619Y-107495471D01*
X90608860Y-107442986D01*
X90628939Y-107422908D01*
X90681424Y-107396666D01*
X90720004Y-107396666D01*
X90772488Y-107422907D01*
G37*
G36*
X91258412Y-106337403D02*
G01*
X91316376Y-106395367D01*
X91342619Y-106447852D01*
X91342619Y-106581671D01*
X91316377Y-106634153D01*
X91258411Y-106692119D01*
X91114511Y-106728094D01*
X90810724Y-106728094D01*
X90666826Y-106692119D01*
X90608860Y-106634153D01*
X90582619Y-106581671D01*
X90582619Y-106447852D01*
X90608860Y-106395368D01*
X90666826Y-106337402D01*
X90810726Y-106301428D01*
X91114513Y-106301428D01*
X91258412Y-106337403D01*
G37*
G36*
X91258412Y-105289784D02*
G01*
X91316376Y-105347748D01*
X91342619Y-105400233D01*
X91342619Y-105534052D01*
X91316377Y-105586534D01*
X91258411Y-105644500D01*
X91114511Y-105680475D01*
X90810724Y-105680475D01*
X90666826Y-105644500D01*
X90608860Y-105586534D01*
X90582619Y-105534052D01*
X90582619Y-105400233D01*
X90608860Y-105347749D01*
X90666826Y-105289783D01*
X90810726Y-105253809D01*
X91114513Y-105253809D01*
X91258412Y-105289784D01*
G37*
G36*
X92302857Y-108741428D02*
G01*
X89697143Y-108741428D01*
X89697143Y-107480567D01*
X90338276Y-107480567D01*
X90342619Y-107491039D01*
X90342619Y-107791893D01*
X90338826Y-107818274D01*
X90349898Y-107842520D01*
X90357407Y-107868091D01*
X90364306Y-107874069D01*
X90368100Y-107882376D01*
X90390523Y-107896786D01*
X90410665Y-107914239D01*
X90419702Y-107915538D01*
X90427384Y-107920475D01*
X90454037Y-107920475D01*
X90480418Y-107924268D01*
X90488724Y-107920475D01*
X90930227Y-107920475D01*
X90956608Y-107924268D01*
X90964914Y-107920475D01*
X91454037Y-107920475D01*
X91480418Y-107924268D01*
X91504664Y-107913195D01*
X91530235Y-107905687D01*
X91536213Y-107898787D01*
X91544520Y-107894994D01*
X91558930Y-107872570D01*
X91576383Y-107852429D01*
X91577682Y-107843391D01*
X91582619Y-107835710D01*
X91582619Y-107809057D01*
X91586412Y-107782676D01*
X91582619Y-107774370D01*
X91582619Y-107425985D01*
X91585708Y-107397372D01*
X91574739Y-107375435D01*
X91567831Y-107351907D01*
X91559263Y-107344482D01*
X91529059Y-107284076D01*
X91524767Y-107264346D01*
X91501382Y-107240962D01*
X91478866Y-107216755D01*
X91476593Y-107216174D01*
X91462869Y-107202450D01*
X91452560Y-107185092D01*
X91422977Y-107170300D01*
X91393963Y-107154458D01*
X91391626Y-107154625D01*
X91331586Y-107124605D01*
X91307377Y-107109047D01*
X91282852Y-107109047D01*
X91258717Y-107104704D01*
X91248245Y-107109047D01*
X91135747Y-107109047D01*
X91107134Y-107105958D01*
X91085197Y-107116926D01*
X91061669Y-107123835D01*
X91054244Y-107132402D01*
X90993836Y-107162607D01*
X90974109Y-107166899D01*
X90950726Y-107190280D01*
X90926517Y-107212800D01*
X90925936Y-107215071D01*
X90915114Y-107225892D01*
X90899180Y-107217925D01*
X90870155Y-107202077D01*
X90867817Y-107202244D01*
X90807777Y-107172224D01*
X90783568Y-107156666D01*
X90759043Y-107156666D01*
X90734908Y-107152323D01*
X90724436Y-107156666D01*
X90659557Y-107156666D01*
X90630944Y-107153577D01*
X90609007Y-107164545D01*
X90585479Y-107171454D01*
X90578054Y-107180021D01*
X90517646Y-107210226D01*
X90497919Y-107214518D01*
X90474536Y-107237899D01*
X90450327Y-107260419D01*
X90449746Y-107262690D01*
X90436021Y-107276414D01*
X90418664Y-107286724D01*
X90403878Y-107316294D01*
X90388030Y-107345320D01*
X90388197Y-107347657D01*
X90358177Y-107407697D01*
X90342619Y-107431907D01*
X90342619Y-107456432D01*
X90338276Y-107480567D01*
X89697143Y-107480567D01*
X89697143Y-106432948D01*
X90338276Y-106432948D01*
X90342619Y-106443420D01*
X90342619Y-106603537D01*
X90339530Y-106632149D01*
X90350497Y-106654085D01*
X90357407Y-106677615D01*
X90365974Y-106685039D01*
X90396178Y-106745445D01*
X90400470Y-106765175D01*
X90423853Y-106788558D01*
X90446372Y-106812767D01*
X90448642Y-106813347D01*
X90519327Y-106884032D01*
X90542189Y-106908346D01*
X90561457Y-106913163D01*
X90578892Y-106922683D01*
X90594943Y-106921534D01*
X90747689Y-106959722D01*
X90760717Y-106968094D01*
X90781177Y-106968094D01*
X90783585Y-106968696D01*
X90798394Y-106968094D01*
X91109536Y-106968094D01*
X91124206Y-106973057D01*
X91144058Y-106968094D01*
X91146538Y-106968094D01*
X91160748Y-106963921D01*
X91347077Y-106917339D01*
X91379698Y-106910243D01*
X91393743Y-106896197D01*
X91410876Y-106886146D01*
X91418149Y-106871791D01*
X91489211Y-106800730D01*
X91506574Y-106790418D01*
X91521368Y-106760828D01*
X91537208Y-106731822D01*
X91537040Y-106729483D01*
X91567061Y-106669442D01*
X91582619Y-106645234D01*
X91582619Y-106620709D01*
X91586962Y-106596574D01*
X91582619Y-106586102D01*
X91582619Y-106425985D01*
X91585708Y-106397372D01*
X91574739Y-106375435D01*
X91567831Y-106351907D01*
X91559263Y-106344482D01*
X91529060Y-106284078D01*
X91524768Y-106264347D01*
X91501377Y-106240957D01*
X91478866Y-106216755D01*
X91476594Y-106216174D01*
X91405908Y-106145487D01*
X91383048Y-106121176D01*
X91363779Y-106116358D01*
X91346345Y-106106839D01*
X91330293Y-106107987D01*
X91177547Y-106069800D01*
X91164520Y-106061428D01*
X91144059Y-106061428D01*
X91141651Y-106060826D01*
X91126842Y-106061428D01*
X90815701Y-106061428D01*
X90801031Y-106056465D01*
X90781179Y-106061428D01*
X90778699Y-106061428D01*
X90764488Y-106065600D01*
X90578166Y-106112180D01*
X90545538Y-106119279D01*
X90531491Y-106133325D01*
X90514361Y-106143376D01*
X90507087Y-106157729D01*
X90436021Y-106228795D01*
X90418664Y-106239105D01*
X90403878Y-106268675D01*
X90388030Y-106297701D01*
X90388197Y-106300038D01*
X90358177Y-106360078D01*
X90342619Y-106384288D01*
X90342619Y-106408813D01*
X90338276Y-106432948D01*
X89697143Y-106432948D01*
X89697143Y-105385329D01*
X90338276Y-105385329D01*
X90342619Y-105395801D01*
X90342619Y-105555918D01*
X90339530Y-105584530D01*
X90350497Y-105606466D01*
X90357407Y-105629996D01*
X90365974Y-105637420D01*
X90396178Y-105697826D01*
X90400470Y-105717556D01*
X90423853Y-105740939D01*
X90446372Y-105765148D01*
X90448642Y-105765728D01*
X90519327Y-105836413D01*
X90542189Y-105860727D01*
X90561457Y-105865544D01*
X90578892Y-105875064D01*
X90594943Y-105873915D01*
X90747689Y-105912103D01*
X90760717Y-105920475D01*
X90781177Y-105920475D01*
X90783585Y-105921077D01*
X90798394Y-105920475D01*
X91109536Y-105920475D01*
X91124206Y-105925438D01*
X91144058Y-105920475D01*
X91146538Y-105920475D01*
X91160748Y-105916302D01*
X91347077Y-105869720D01*
X91379698Y-105862624D01*
X91393743Y-105848578D01*
X91410876Y-105838527D01*
X91418149Y-105824172D01*
X91489211Y-105753111D01*
X91506574Y-105742799D01*
X91521368Y-105713209D01*
X91537208Y-105684203D01*
X91537040Y-105681864D01*
X91567061Y-105621823D01*
X91582619Y-105597615D01*
X91582619Y-105573090D01*
X91586962Y-105548955D01*
X91582619Y-105538483D01*
X91582619Y-105378366D01*
X91585708Y-105349753D01*
X91574739Y-105327816D01*
X91567831Y-105304288D01*
X91559263Y-105296863D01*
X91529060Y-105236459D01*
X91524768Y-105216728D01*
X91501377Y-105193338D01*
X91478866Y-105169136D01*
X91476594Y-105168555D01*
X91405908Y-105097868D01*
X91383048Y-105073557D01*
X91363779Y-105068739D01*
X91346345Y-105059220D01*
X91330293Y-105060368D01*
X91177547Y-105022181D01*
X91164520Y-105013809D01*
X91144059Y-105013809D01*
X91141651Y-105013207D01*
X91126842Y-105013809D01*
X90815701Y-105013809D01*
X90801031Y-105008846D01*
X90781179Y-105013809D01*
X90778699Y-105013809D01*
X90764488Y-105017981D01*
X90578166Y-105064561D01*
X90545538Y-105071660D01*
X90531491Y-105085706D01*
X90514361Y-105095757D01*
X90507087Y-105110110D01*
X90436021Y-105181176D01*
X90418664Y-105191486D01*
X90403878Y-105221056D01*
X90388030Y-105250082D01*
X90388197Y-105252419D01*
X90358177Y-105312459D01*
X90342619Y-105336669D01*
X90342619Y-105361194D01*
X90338276Y-105385329D01*
X89697143Y-105385329D01*
X89697143Y-104580179D01*
X90338826Y-104580179D01*
X90342619Y-104588485D01*
X90342619Y-104865347D01*
X90357407Y-104915710D01*
X90410665Y-104961858D01*
X90480418Y-104971887D01*
X90544520Y-104942613D01*
X90582619Y-104883329D01*
X90582619Y-104682380D01*
X91479872Y-104682380D01*
X91530235Y-104667592D01*
X91576383Y-104614334D01*
X91586412Y-104544581D01*
X91557138Y-104480479D01*
X91497854Y-104442380D01*
X90582619Y-104442380D01*
X90582619Y-104259413D01*
X90567831Y-104209050D01*
X90514573Y-104162902D01*
X90444820Y-104152873D01*
X90380718Y-104182147D01*
X90342619Y-104241431D01*
X90342619Y-104553798D01*
X90338826Y-104580179D01*
X89697143Y-104580179D01*
X89697143Y-103478571D01*
X92302857Y-103478571D01*
X92302857Y-108741428D01*
G37*
D11*
X91241428Y-71012619D02*
X91241428Y-71822142D01*
X91241428Y-71822142D02*
X91312857Y-71917380D01*
X91312857Y-71917380D02*
X91384286Y-71965000D01*
X91384286Y-71965000D02*
X91527143Y-72012619D01*
X91527143Y-72012619D02*
X91812857Y-72012619D01*
X91812857Y-72012619D02*
X91955714Y-71965000D01*
X91955714Y-71965000D02*
X92027143Y-71917380D01*
X92027143Y-71917380D02*
X92098571Y-71822142D01*
X92098571Y-71822142D02*
X92098571Y-71012619D01*
X92812857Y-72012619D02*
X92812857Y-71012619D01*
X92812857Y-71012619D02*
X93384286Y-71012619D01*
X93384286Y-71012619D02*
X93527143Y-71060238D01*
X93527143Y-71060238D02*
X93598572Y-71107857D01*
X93598572Y-71107857D02*
X93670000Y-71203095D01*
X93670000Y-71203095D02*
X93670000Y-71345952D01*
X93670000Y-71345952D02*
X93598572Y-71441190D01*
X93598572Y-71441190D02*
X93527143Y-71488809D01*
X93527143Y-71488809D02*
X93384286Y-71536428D01*
X93384286Y-71536428D02*
X92812857Y-71536428D01*
X75827143Y-71012619D02*
X76112857Y-71012619D01*
X76112857Y-71012619D02*
X76255714Y-71060238D01*
X76255714Y-71060238D02*
X76398571Y-71155476D01*
X76398571Y-71155476D02*
X76470000Y-71345952D01*
X76470000Y-71345952D02*
X76470000Y-71679285D01*
X76470000Y-71679285D02*
X76398571Y-71869761D01*
X76398571Y-71869761D02*
X76255714Y-71965000D01*
X76255714Y-71965000D02*
X76112857Y-72012619D01*
X76112857Y-72012619D02*
X75827143Y-72012619D01*
X75827143Y-72012619D02*
X75684286Y-71965000D01*
X75684286Y-71965000D02*
X75541428Y-71869761D01*
X75541428Y-71869761D02*
X75470000Y-71679285D01*
X75470000Y-71679285D02*
X75470000Y-71345952D01*
X75470000Y-71345952D02*
X75541428Y-71155476D01*
X75541428Y-71155476D02*
X75684286Y-71060238D01*
X75684286Y-71060238D02*
X75827143Y-71012619D01*
X77112857Y-72012619D02*
X77112857Y-71012619D01*
X77970000Y-72012619D02*
X77327143Y-71441190D01*
X77970000Y-71012619D02*
X77112857Y-71584047D01*
D12*
X69345714Y-86833904D02*
X69307618Y-86872000D01*
X69307618Y-86872000D02*
X69193333Y-86910095D01*
X69193333Y-86910095D02*
X69117142Y-86910095D01*
X69117142Y-86910095D02*
X69002856Y-86872000D01*
X69002856Y-86872000D02*
X68926666Y-86795809D01*
X68926666Y-86795809D02*
X68888571Y-86719619D01*
X68888571Y-86719619D02*
X68850475Y-86567238D01*
X68850475Y-86567238D02*
X68850475Y-86452952D01*
X68850475Y-86452952D02*
X68888571Y-86300571D01*
X68888571Y-86300571D02*
X68926666Y-86224380D01*
X68926666Y-86224380D02*
X69002856Y-86148190D01*
X69002856Y-86148190D02*
X69117142Y-86110095D01*
X69117142Y-86110095D02*
X69193333Y-86110095D01*
X69193333Y-86110095D02*
X69307618Y-86148190D01*
X69307618Y-86148190D02*
X69345714Y-86186285D01*
X69650475Y-86186285D02*
X69688571Y-86148190D01*
X69688571Y-86148190D02*
X69764761Y-86110095D01*
X69764761Y-86110095D02*
X69955237Y-86110095D01*
X69955237Y-86110095D02*
X70031428Y-86148190D01*
X70031428Y-86148190D02*
X70069523Y-86186285D01*
X70069523Y-86186285D02*
X70107618Y-86262476D01*
X70107618Y-86262476D02*
X70107618Y-86338666D01*
X70107618Y-86338666D02*
X70069523Y-86452952D01*
X70069523Y-86452952D02*
X69612380Y-86910095D01*
X69612380Y-86910095D02*
X70107618Y-86910095D01*
X70793333Y-86376761D02*
X70793333Y-86910095D01*
X70602857Y-86072000D02*
X70412380Y-86643428D01*
X70412380Y-86643428D02*
X70907619Y-86643428D01*
X114470000Y-84423904D02*
X114431904Y-84462000D01*
X114431904Y-84462000D02*
X114317619Y-84500095D01*
X114317619Y-84500095D02*
X114241428Y-84500095D01*
X114241428Y-84500095D02*
X114127142Y-84462000D01*
X114127142Y-84462000D02*
X114050952Y-84385809D01*
X114050952Y-84385809D02*
X114012857Y-84309619D01*
X114012857Y-84309619D02*
X113974761Y-84157238D01*
X113974761Y-84157238D02*
X113974761Y-84042952D01*
X113974761Y-84042952D02*
X114012857Y-83890571D01*
X114012857Y-83890571D02*
X114050952Y-83814380D01*
X114050952Y-83814380D02*
X114127142Y-83738190D01*
X114127142Y-83738190D02*
X114241428Y-83700095D01*
X114241428Y-83700095D02*
X114317619Y-83700095D01*
X114317619Y-83700095D02*
X114431904Y-83738190D01*
X114431904Y-83738190D02*
X114470000Y-83776285D01*
X115155714Y-83700095D02*
X115003333Y-83700095D01*
X115003333Y-83700095D02*
X114927142Y-83738190D01*
X114927142Y-83738190D02*
X114889047Y-83776285D01*
X114889047Y-83776285D02*
X114812857Y-83890571D01*
X114812857Y-83890571D02*
X114774761Y-84042952D01*
X114774761Y-84042952D02*
X114774761Y-84347714D01*
X114774761Y-84347714D02*
X114812857Y-84423904D01*
X114812857Y-84423904D02*
X114850952Y-84462000D01*
X114850952Y-84462000D02*
X114927142Y-84500095D01*
X114927142Y-84500095D02*
X115079523Y-84500095D01*
X115079523Y-84500095D02*
X115155714Y-84462000D01*
X115155714Y-84462000D02*
X115193809Y-84423904D01*
X115193809Y-84423904D02*
X115231904Y-84347714D01*
X115231904Y-84347714D02*
X115231904Y-84157238D01*
X115231904Y-84157238D02*
X115193809Y-84081047D01*
X115193809Y-84081047D02*
X115155714Y-84042952D01*
X115155714Y-84042952D02*
X115079523Y-84004857D01*
X115079523Y-84004857D02*
X114927142Y-84004857D01*
X114927142Y-84004857D02*
X114850952Y-84042952D01*
X114850952Y-84042952D02*
X114812857Y-84081047D01*
X114812857Y-84081047D02*
X114774761Y-84157238D01*
D13*
X109476667Y-112563904D02*
X109438571Y-112602000D01*
X109438571Y-112602000D02*
X109324286Y-112640095D01*
X109324286Y-112640095D02*
X109248095Y-112640095D01*
X109248095Y-112640095D02*
X109133809Y-112602000D01*
X109133809Y-112602000D02*
X109057619Y-112525809D01*
X109057619Y-112525809D02*
X109019524Y-112449619D01*
X109019524Y-112449619D02*
X108981428Y-112297238D01*
X108981428Y-112297238D02*
X108981428Y-112182952D01*
X108981428Y-112182952D02*
X109019524Y-112030571D01*
X109019524Y-112030571D02*
X109057619Y-111954380D01*
X109057619Y-111954380D02*
X109133809Y-111878190D01*
X109133809Y-111878190D02*
X109248095Y-111840095D01*
X109248095Y-111840095D02*
X109324286Y-111840095D01*
X109324286Y-111840095D02*
X109438571Y-111878190D01*
X109438571Y-111878190D02*
X109476667Y-111916285D01*
X109857619Y-112640095D02*
X110010000Y-112640095D01*
X110010000Y-112640095D02*
X110086190Y-112602000D01*
X110086190Y-112602000D02*
X110124286Y-112563904D01*
X110124286Y-112563904D02*
X110200476Y-112449619D01*
X110200476Y-112449619D02*
X110238571Y-112297238D01*
X110238571Y-112297238D02*
X110238571Y-111992476D01*
X110238571Y-111992476D02*
X110200476Y-111916285D01*
X110200476Y-111916285D02*
X110162381Y-111878190D01*
X110162381Y-111878190D02*
X110086190Y-111840095D01*
X110086190Y-111840095D02*
X109933809Y-111840095D01*
X109933809Y-111840095D02*
X109857619Y-111878190D01*
X109857619Y-111878190D02*
X109819524Y-111916285D01*
X109819524Y-111916285D02*
X109781428Y-111992476D01*
X109781428Y-111992476D02*
X109781428Y-112182952D01*
X109781428Y-112182952D02*
X109819524Y-112259142D01*
X109819524Y-112259142D02*
X109857619Y-112297238D01*
X109857619Y-112297238D02*
X109933809Y-112335333D01*
X109933809Y-112335333D02*
X110086190Y-112335333D01*
X110086190Y-112335333D02*
X110162381Y-112297238D01*
X110162381Y-112297238D02*
X110200476Y-112259142D01*
X110200476Y-112259142D02*
X110238571Y-112182952D01*
D12*
X92612261Y-96937595D02*
X92231309Y-96937595D01*
X92231309Y-96937595D02*
X92231309Y-96137595D01*
X92878928Y-96518547D02*
X93145594Y-96518547D01*
X93259880Y-96937595D02*
X92878928Y-96937595D01*
X92878928Y-96937595D02*
X92878928Y-96137595D01*
X92878928Y-96137595D02*
X93259880Y-96137595D01*
X94021785Y-96937595D02*
X93564642Y-96937595D01*
X93793214Y-96937595D02*
X93793214Y-96137595D01*
X93793214Y-96137595D02*
X93717023Y-96251880D01*
X93717023Y-96251880D02*
X93640833Y-96328071D01*
X93640833Y-96328071D02*
X93564642Y-96366166D01*
X85526667Y-109953904D02*
X85488571Y-109992000D01*
X85488571Y-109992000D02*
X85374286Y-110030095D01*
X85374286Y-110030095D02*
X85298095Y-110030095D01*
X85298095Y-110030095D02*
X85183809Y-109992000D01*
X85183809Y-109992000D02*
X85107619Y-109915809D01*
X85107619Y-109915809D02*
X85069524Y-109839619D01*
X85069524Y-109839619D02*
X85031428Y-109687238D01*
X85031428Y-109687238D02*
X85031428Y-109572952D01*
X85031428Y-109572952D02*
X85069524Y-109420571D01*
X85069524Y-109420571D02*
X85107619Y-109344380D01*
X85107619Y-109344380D02*
X85183809Y-109268190D01*
X85183809Y-109268190D02*
X85298095Y-109230095D01*
X85298095Y-109230095D02*
X85374286Y-109230095D01*
X85374286Y-109230095D02*
X85488571Y-109268190D01*
X85488571Y-109268190D02*
X85526667Y-109306285D01*
X85831428Y-109306285D02*
X85869524Y-109268190D01*
X85869524Y-109268190D02*
X85945714Y-109230095D01*
X85945714Y-109230095D02*
X86136190Y-109230095D01*
X86136190Y-109230095D02*
X86212381Y-109268190D01*
X86212381Y-109268190D02*
X86250476Y-109306285D01*
X86250476Y-109306285D02*
X86288571Y-109382476D01*
X86288571Y-109382476D02*
X86288571Y-109458666D01*
X86288571Y-109458666D02*
X86250476Y-109572952D01*
X86250476Y-109572952D02*
X85793333Y-110030095D01*
X85793333Y-110030095D02*
X86288571Y-110030095D01*
X116373333Y-84423904D02*
X116335237Y-84462000D01*
X116335237Y-84462000D02*
X116220952Y-84500095D01*
X116220952Y-84500095D02*
X116144761Y-84500095D01*
X116144761Y-84500095D02*
X116030475Y-84462000D01*
X116030475Y-84462000D02*
X115954285Y-84385809D01*
X115954285Y-84385809D02*
X115916190Y-84309619D01*
X115916190Y-84309619D02*
X115878094Y-84157238D01*
X115878094Y-84157238D02*
X115878094Y-84042952D01*
X115878094Y-84042952D02*
X115916190Y-83890571D01*
X115916190Y-83890571D02*
X115954285Y-83814380D01*
X115954285Y-83814380D02*
X116030475Y-83738190D01*
X116030475Y-83738190D02*
X116144761Y-83700095D01*
X116144761Y-83700095D02*
X116220952Y-83700095D01*
X116220952Y-83700095D02*
X116335237Y-83738190D01*
X116335237Y-83738190D02*
X116373333Y-83776285D01*
X116639999Y-83700095D02*
X117173333Y-83700095D01*
X117173333Y-83700095D02*
X116830475Y-84500095D01*
X93779167Y-102255095D02*
X93512500Y-101874142D01*
X93322024Y-102255095D02*
X93322024Y-101455095D01*
X93322024Y-101455095D02*
X93626786Y-101455095D01*
X93626786Y-101455095D02*
X93702976Y-101493190D01*
X93702976Y-101493190D02*
X93741071Y-101531285D01*
X93741071Y-101531285D02*
X93779167Y-101607476D01*
X93779167Y-101607476D02*
X93779167Y-101721761D01*
X93779167Y-101721761D02*
X93741071Y-101797952D01*
X93741071Y-101797952D02*
X93702976Y-101836047D01*
X93702976Y-101836047D02*
X93626786Y-101874142D01*
X93626786Y-101874142D02*
X93322024Y-101874142D01*
X94502976Y-101455095D02*
X94122024Y-101455095D01*
X94122024Y-101455095D02*
X94083928Y-101836047D01*
X94083928Y-101836047D02*
X94122024Y-101797952D01*
X94122024Y-101797952D02*
X94198214Y-101759857D01*
X94198214Y-101759857D02*
X94388690Y-101759857D01*
X94388690Y-101759857D02*
X94464881Y-101797952D01*
X94464881Y-101797952D02*
X94502976Y-101836047D01*
X94502976Y-101836047D02*
X94541071Y-101912238D01*
X94541071Y-101912238D02*
X94541071Y-102102714D01*
X94541071Y-102102714D02*
X94502976Y-102178904D01*
X94502976Y-102178904D02*
X94464881Y-102217000D01*
X94464881Y-102217000D02*
X94388690Y-102255095D01*
X94388690Y-102255095D02*
X94198214Y-102255095D01*
X94198214Y-102255095D02*
X94122024Y-102217000D01*
X94122024Y-102217000D02*
X94083928Y-102178904D01*
D11*
X98568095Y-90252619D02*
X98568095Y-91062142D01*
X98568095Y-91062142D02*
X98615714Y-91157380D01*
X98615714Y-91157380D02*
X98663333Y-91205000D01*
X98663333Y-91205000D02*
X98758571Y-91252619D01*
X98758571Y-91252619D02*
X98949047Y-91252619D01*
X98949047Y-91252619D02*
X99044285Y-91205000D01*
X99044285Y-91205000D02*
X99091904Y-91157380D01*
X99091904Y-91157380D02*
X99139523Y-91062142D01*
X99139523Y-91062142D02*
X99139523Y-90252619D01*
X99568095Y-90347857D02*
X99615714Y-90300238D01*
X99615714Y-90300238D02*
X99710952Y-90252619D01*
X99710952Y-90252619D02*
X99949047Y-90252619D01*
X99949047Y-90252619D02*
X100044285Y-90300238D01*
X100044285Y-90300238D02*
X100091904Y-90347857D01*
X100091904Y-90347857D02*
X100139523Y-90443095D01*
X100139523Y-90443095D02*
X100139523Y-90538333D01*
X100139523Y-90538333D02*
X100091904Y-90681190D01*
X100091904Y-90681190D02*
X99520476Y-91252619D01*
X99520476Y-91252619D02*
X100139523Y-91252619D01*
D12*
X100029167Y-112318904D02*
X99991071Y-112357000D01*
X99991071Y-112357000D02*
X99876786Y-112395095D01*
X99876786Y-112395095D02*
X99800595Y-112395095D01*
X99800595Y-112395095D02*
X99686309Y-112357000D01*
X99686309Y-112357000D02*
X99610119Y-112280809D01*
X99610119Y-112280809D02*
X99572024Y-112204619D01*
X99572024Y-112204619D02*
X99533928Y-112052238D01*
X99533928Y-112052238D02*
X99533928Y-111937952D01*
X99533928Y-111937952D02*
X99572024Y-111785571D01*
X99572024Y-111785571D02*
X99610119Y-111709380D01*
X99610119Y-111709380D02*
X99686309Y-111633190D01*
X99686309Y-111633190D02*
X99800595Y-111595095D01*
X99800595Y-111595095D02*
X99876786Y-111595095D01*
X99876786Y-111595095D02*
X99991071Y-111633190D01*
X99991071Y-111633190D02*
X100029167Y-111671285D01*
X100752976Y-111595095D02*
X100372024Y-111595095D01*
X100372024Y-111595095D02*
X100333928Y-111976047D01*
X100333928Y-111976047D02*
X100372024Y-111937952D01*
X100372024Y-111937952D02*
X100448214Y-111899857D01*
X100448214Y-111899857D02*
X100638690Y-111899857D01*
X100638690Y-111899857D02*
X100714881Y-111937952D01*
X100714881Y-111937952D02*
X100752976Y-111976047D01*
X100752976Y-111976047D02*
X100791071Y-112052238D01*
X100791071Y-112052238D02*
X100791071Y-112242714D01*
X100791071Y-112242714D02*
X100752976Y-112318904D01*
X100752976Y-112318904D02*
X100714881Y-112357000D01*
X100714881Y-112357000D02*
X100638690Y-112395095D01*
X100638690Y-112395095D02*
X100448214Y-112395095D01*
X100448214Y-112395095D02*
X100372024Y-112357000D01*
X100372024Y-112357000D02*
X100333928Y-112318904D01*
D11*
X104936666Y-84817619D02*
X104936666Y-85531904D01*
X104936666Y-85531904D02*
X104889047Y-85674761D01*
X104889047Y-85674761D02*
X104793809Y-85770000D01*
X104793809Y-85770000D02*
X104650952Y-85817619D01*
X104650952Y-85817619D02*
X104555714Y-85817619D01*
X105412857Y-85817619D02*
X105412857Y-84817619D01*
X105412857Y-84817619D02*
X105793809Y-84817619D01*
X105793809Y-84817619D02*
X105889047Y-84865238D01*
X105889047Y-84865238D02*
X105936666Y-84912857D01*
X105936666Y-84912857D02*
X105984285Y-85008095D01*
X105984285Y-85008095D02*
X105984285Y-85150952D01*
X105984285Y-85150952D02*
X105936666Y-85246190D01*
X105936666Y-85246190D02*
X105889047Y-85293809D01*
X105889047Y-85293809D02*
X105793809Y-85341428D01*
X105793809Y-85341428D02*
X105412857Y-85341428D01*
X106936666Y-85817619D02*
X106365238Y-85817619D01*
X106650952Y-85817619D02*
X106650952Y-84817619D01*
X106650952Y-84817619D02*
X106555714Y-84960476D01*
X106555714Y-84960476D02*
X106460476Y-85055714D01*
X106460476Y-85055714D02*
X106365238Y-85103333D01*
X66451905Y-106297619D02*
X66451905Y-105297619D01*
X66451905Y-105297619D02*
X66690000Y-105297619D01*
X66690000Y-105297619D02*
X66832857Y-105345238D01*
X66832857Y-105345238D02*
X66928095Y-105440476D01*
X66928095Y-105440476D02*
X66975714Y-105535714D01*
X66975714Y-105535714D02*
X67023333Y-105726190D01*
X67023333Y-105726190D02*
X67023333Y-105869047D01*
X67023333Y-105869047D02*
X66975714Y-106059523D01*
X66975714Y-106059523D02*
X66928095Y-106154761D01*
X66928095Y-106154761D02*
X66832857Y-106250000D01*
X66832857Y-106250000D02*
X66690000Y-106297619D01*
X66690000Y-106297619D02*
X66451905Y-106297619D01*
X67404286Y-105392857D02*
X67451905Y-105345238D01*
X67451905Y-105345238D02*
X67547143Y-105297619D01*
X67547143Y-105297619D02*
X67785238Y-105297619D01*
X67785238Y-105297619D02*
X67880476Y-105345238D01*
X67880476Y-105345238D02*
X67928095Y-105392857D01*
X67928095Y-105392857D02*
X67975714Y-105488095D01*
X67975714Y-105488095D02*
X67975714Y-105583333D01*
X67975714Y-105583333D02*
X67928095Y-105726190D01*
X67928095Y-105726190D02*
X67356667Y-106297619D01*
X67356667Y-106297619D02*
X67975714Y-106297619D01*
D12*
X66886667Y-103470095D02*
X66620000Y-103089142D01*
X66429524Y-103470095D02*
X66429524Y-102670095D01*
X66429524Y-102670095D02*
X66734286Y-102670095D01*
X66734286Y-102670095D02*
X66810476Y-102708190D01*
X66810476Y-102708190D02*
X66848571Y-102746285D01*
X66848571Y-102746285D02*
X66886667Y-102822476D01*
X66886667Y-102822476D02*
X66886667Y-102936761D01*
X66886667Y-102936761D02*
X66848571Y-103012952D01*
X66848571Y-103012952D02*
X66810476Y-103051047D01*
X66810476Y-103051047D02*
X66734286Y-103089142D01*
X66734286Y-103089142D02*
X66429524Y-103089142D01*
X67648571Y-103470095D02*
X67191428Y-103470095D01*
X67420000Y-103470095D02*
X67420000Y-102670095D01*
X67420000Y-102670095D02*
X67343809Y-102784380D01*
X67343809Y-102784380D02*
X67267619Y-102860571D01*
X67267619Y-102860571D02*
X67191428Y-102898666D01*
X100089167Y-110390095D02*
X99822500Y-110009142D01*
X99632024Y-110390095D02*
X99632024Y-109590095D01*
X99632024Y-109590095D02*
X99936786Y-109590095D01*
X99936786Y-109590095D02*
X100012976Y-109628190D01*
X100012976Y-109628190D02*
X100051071Y-109666285D01*
X100051071Y-109666285D02*
X100089167Y-109742476D01*
X100089167Y-109742476D02*
X100089167Y-109856761D01*
X100089167Y-109856761D02*
X100051071Y-109932952D01*
X100051071Y-109932952D02*
X100012976Y-109971047D01*
X100012976Y-109971047D02*
X99936786Y-110009142D01*
X99936786Y-110009142D02*
X99632024Y-110009142D01*
X100774881Y-109590095D02*
X100622500Y-109590095D01*
X100622500Y-109590095D02*
X100546309Y-109628190D01*
X100546309Y-109628190D02*
X100508214Y-109666285D01*
X100508214Y-109666285D02*
X100432024Y-109780571D01*
X100432024Y-109780571D02*
X100393928Y-109932952D01*
X100393928Y-109932952D02*
X100393928Y-110237714D01*
X100393928Y-110237714D02*
X100432024Y-110313904D01*
X100432024Y-110313904D02*
X100470119Y-110352000D01*
X100470119Y-110352000D02*
X100546309Y-110390095D01*
X100546309Y-110390095D02*
X100698690Y-110390095D01*
X100698690Y-110390095D02*
X100774881Y-110352000D01*
X100774881Y-110352000D02*
X100812976Y-110313904D01*
X100812976Y-110313904D02*
X100851071Y-110237714D01*
X100851071Y-110237714D02*
X100851071Y-110047238D01*
X100851071Y-110047238D02*
X100812976Y-109971047D01*
X100812976Y-109971047D02*
X100774881Y-109932952D01*
X100774881Y-109932952D02*
X100698690Y-109894857D01*
X100698690Y-109894857D02*
X100546309Y-109894857D01*
X100546309Y-109894857D02*
X100470119Y-109932952D01*
X100470119Y-109932952D02*
X100432024Y-109971047D01*
X100432024Y-109971047D02*
X100393928Y-110047238D01*
X70205714Y-84693904D02*
X70167618Y-84732000D01*
X70167618Y-84732000D02*
X70053333Y-84770095D01*
X70053333Y-84770095D02*
X69977142Y-84770095D01*
X69977142Y-84770095D02*
X69862856Y-84732000D01*
X69862856Y-84732000D02*
X69786666Y-84655809D01*
X69786666Y-84655809D02*
X69748571Y-84579619D01*
X69748571Y-84579619D02*
X69710475Y-84427238D01*
X69710475Y-84427238D02*
X69710475Y-84312952D01*
X69710475Y-84312952D02*
X69748571Y-84160571D01*
X69748571Y-84160571D02*
X69786666Y-84084380D01*
X69786666Y-84084380D02*
X69862856Y-84008190D01*
X69862856Y-84008190D02*
X69977142Y-83970095D01*
X69977142Y-83970095D02*
X70053333Y-83970095D01*
X70053333Y-83970095D02*
X70167618Y-84008190D01*
X70167618Y-84008190D02*
X70205714Y-84046285D01*
X70967618Y-84770095D02*
X70510475Y-84770095D01*
X70739047Y-84770095D02*
X70739047Y-83970095D01*
X70739047Y-83970095D02*
X70662856Y-84084380D01*
X70662856Y-84084380D02*
X70586666Y-84160571D01*
X70586666Y-84160571D02*
X70510475Y-84198666D01*
X71653333Y-84236761D02*
X71653333Y-84770095D01*
X71462857Y-83932000D02*
X71272380Y-84503428D01*
X71272380Y-84503428D02*
X71767619Y-84503428D01*
X107299524Y-84520095D02*
X107299524Y-83720095D01*
X107299524Y-83720095D02*
X107490000Y-83720095D01*
X107490000Y-83720095D02*
X107604286Y-83758190D01*
X107604286Y-83758190D02*
X107680476Y-83834380D01*
X107680476Y-83834380D02*
X107718571Y-83910571D01*
X107718571Y-83910571D02*
X107756667Y-84062952D01*
X107756667Y-84062952D02*
X107756667Y-84177238D01*
X107756667Y-84177238D02*
X107718571Y-84329619D01*
X107718571Y-84329619D02*
X107680476Y-84405809D01*
X107680476Y-84405809D02*
X107604286Y-84482000D01*
X107604286Y-84482000D02*
X107490000Y-84520095D01*
X107490000Y-84520095D02*
X107299524Y-84520095D01*
X108518571Y-84520095D02*
X108061428Y-84520095D01*
X108290000Y-84520095D02*
X108290000Y-83720095D01*
X108290000Y-83720095D02*
X108213809Y-83834380D01*
X108213809Y-83834380D02*
X108137619Y-83910571D01*
X108137619Y-83910571D02*
X108061428Y-83948666D01*
X76175714Y-84833904D02*
X76137618Y-84872000D01*
X76137618Y-84872000D02*
X76023333Y-84910095D01*
X76023333Y-84910095D02*
X75947142Y-84910095D01*
X75947142Y-84910095D02*
X75832856Y-84872000D01*
X75832856Y-84872000D02*
X75756666Y-84795809D01*
X75756666Y-84795809D02*
X75718571Y-84719619D01*
X75718571Y-84719619D02*
X75680475Y-84567238D01*
X75680475Y-84567238D02*
X75680475Y-84452952D01*
X75680475Y-84452952D02*
X75718571Y-84300571D01*
X75718571Y-84300571D02*
X75756666Y-84224380D01*
X75756666Y-84224380D02*
X75832856Y-84148190D01*
X75832856Y-84148190D02*
X75947142Y-84110095D01*
X75947142Y-84110095D02*
X76023333Y-84110095D01*
X76023333Y-84110095D02*
X76137618Y-84148190D01*
X76137618Y-84148190D02*
X76175714Y-84186285D01*
X76937618Y-84910095D02*
X76480475Y-84910095D01*
X76709047Y-84910095D02*
X76709047Y-84110095D01*
X76709047Y-84110095D02*
X76632856Y-84224380D01*
X76632856Y-84224380D02*
X76556666Y-84300571D01*
X76556666Y-84300571D02*
X76480475Y-84338666D01*
X77661428Y-84110095D02*
X77280476Y-84110095D01*
X77280476Y-84110095D02*
X77242380Y-84491047D01*
X77242380Y-84491047D02*
X77280476Y-84452952D01*
X77280476Y-84452952D02*
X77356666Y-84414857D01*
X77356666Y-84414857D02*
X77547142Y-84414857D01*
X77547142Y-84414857D02*
X77623333Y-84452952D01*
X77623333Y-84452952D02*
X77661428Y-84491047D01*
X77661428Y-84491047D02*
X77699523Y-84567238D01*
X77699523Y-84567238D02*
X77699523Y-84757714D01*
X77699523Y-84757714D02*
X77661428Y-84833904D01*
X77661428Y-84833904D02*
X77623333Y-84872000D01*
X77623333Y-84872000D02*
X77547142Y-84910095D01*
X77547142Y-84910095D02*
X77356666Y-84910095D01*
X77356666Y-84910095D02*
X77280476Y-84872000D01*
X77280476Y-84872000D02*
X77242380Y-84833904D01*
X92784167Y-99357595D02*
X92517500Y-98976642D01*
X92327024Y-99357595D02*
X92327024Y-98557595D01*
X92327024Y-98557595D02*
X92631786Y-98557595D01*
X92631786Y-98557595D02*
X92707976Y-98595690D01*
X92707976Y-98595690D02*
X92746071Y-98633785D01*
X92746071Y-98633785D02*
X92784167Y-98709976D01*
X92784167Y-98709976D02*
X92784167Y-98824261D01*
X92784167Y-98824261D02*
X92746071Y-98900452D01*
X92746071Y-98900452D02*
X92707976Y-98938547D01*
X92707976Y-98938547D02*
X92631786Y-98976642D01*
X92631786Y-98976642D02*
X92327024Y-98976642D01*
X93469881Y-98824261D02*
X93469881Y-99357595D01*
X93279405Y-98519500D02*
X93088928Y-99090928D01*
X93088928Y-99090928D02*
X93584167Y-99090928D01*
X98379524Y-124450095D02*
X98379524Y-123650095D01*
X98379524Y-123650095D02*
X98570000Y-123650095D01*
X98570000Y-123650095D02*
X98684286Y-123688190D01*
X98684286Y-123688190D02*
X98760476Y-123764380D01*
X98760476Y-123764380D02*
X98798571Y-123840571D01*
X98798571Y-123840571D02*
X98836667Y-123992952D01*
X98836667Y-123992952D02*
X98836667Y-124107238D01*
X98836667Y-124107238D02*
X98798571Y-124259619D01*
X98798571Y-124259619D02*
X98760476Y-124335809D01*
X98760476Y-124335809D02*
X98684286Y-124412000D01*
X98684286Y-124412000D02*
X98570000Y-124450095D01*
X98570000Y-124450095D02*
X98379524Y-124450095D01*
X99103333Y-123650095D02*
X99598571Y-123650095D01*
X99598571Y-123650095D02*
X99331905Y-123954857D01*
X99331905Y-123954857D02*
X99446190Y-123954857D01*
X99446190Y-123954857D02*
X99522381Y-123992952D01*
X99522381Y-123992952D02*
X99560476Y-124031047D01*
X99560476Y-124031047D02*
X99598571Y-124107238D01*
X99598571Y-124107238D02*
X99598571Y-124297714D01*
X99598571Y-124297714D02*
X99560476Y-124373904D01*
X99560476Y-124373904D02*
X99522381Y-124412000D01*
X99522381Y-124412000D02*
X99446190Y-124450095D01*
X99446190Y-124450095D02*
X99217619Y-124450095D01*
X99217619Y-124450095D02*
X99141428Y-124412000D01*
X99141428Y-124412000D02*
X99103333Y-124373904D01*
X86155714Y-118243904D02*
X86117618Y-118282000D01*
X86117618Y-118282000D02*
X86003333Y-118320095D01*
X86003333Y-118320095D02*
X85927142Y-118320095D01*
X85927142Y-118320095D02*
X85812856Y-118282000D01*
X85812856Y-118282000D02*
X85736666Y-118205809D01*
X85736666Y-118205809D02*
X85698571Y-118129619D01*
X85698571Y-118129619D02*
X85660475Y-117977238D01*
X85660475Y-117977238D02*
X85660475Y-117862952D01*
X85660475Y-117862952D02*
X85698571Y-117710571D01*
X85698571Y-117710571D02*
X85736666Y-117634380D01*
X85736666Y-117634380D02*
X85812856Y-117558190D01*
X85812856Y-117558190D02*
X85927142Y-117520095D01*
X85927142Y-117520095D02*
X86003333Y-117520095D01*
X86003333Y-117520095D02*
X86117618Y-117558190D01*
X86117618Y-117558190D02*
X86155714Y-117596285D01*
X86917618Y-118320095D02*
X86460475Y-118320095D01*
X86689047Y-118320095D02*
X86689047Y-117520095D01*
X86689047Y-117520095D02*
X86612856Y-117634380D01*
X86612856Y-117634380D02*
X86536666Y-117710571D01*
X86536666Y-117710571D02*
X86460475Y-117748666D01*
X87412857Y-117520095D02*
X87489047Y-117520095D01*
X87489047Y-117520095D02*
X87565238Y-117558190D01*
X87565238Y-117558190D02*
X87603333Y-117596285D01*
X87603333Y-117596285D02*
X87641428Y-117672476D01*
X87641428Y-117672476D02*
X87679523Y-117824857D01*
X87679523Y-117824857D02*
X87679523Y-118015333D01*
X87679523Y-118015333D02*
X87641428Y-118167714D01*
X87641428Y-118167714D02*
X87603333Y-118243904D01*
X87603333Y-118243904D02*
X87565238Y-118282000D01*
X87565238Y-118282000D02*
X87489047Y-118320095D01*
X87489047Y-118320095D02*
X87412857Y-118320095D01*
X87412857Y-118320095D02*
X87336666Y-118282000D01*
X87336666Y-118282000D02*
X87298571Y-118243904D01*
X87298571Y-118243904D02*
X87260476Y-118167714D01*
X87260476Y-118167714D02*
X87222380Y-118015333D01*
X87222380Y-118015333D02*
X87222380Y-117824857D01*
X87222380Y-117824857D02*
X87260476Y-117672476D01*
X87260476Y-117672476D02*
X87298571Y-117596285D01*
X87298571Y-117596285D02*
X87336666Y-117558190D01*
X87336666Y-117558190D02*
X87412857Y-117520095D01*
D11*
X77524285Y-124108809D02*
X77667142Y-124156428D01*
X77667142Y-124156428D02*
X77714761Y-124204047D01*
X77714761Y-124204047D02*
X77762380Y-124299285D01*
X77762380Y-124299285D02*
X77762380Y-124442142D01*
X77762380Y-124442142D02*
X77714761Y-124537380D01*
X77714761Y-124537380D02*
X77667142Y-124585000D01*
X77667142Y-124585000D02*
X77571904Y-124632619D01*
X77571904Y-124632619D02*
X77190952Y-124632619D01*
X77190952Y-124632619D02*
X77190952Y-123632619D01*
X77190952Y-123632619D02*
X77524285Y-123632619D01*
X77524285Y-123632619D02*
X77619523Y-123680238D01*
X77619523Y-123680238D02*
X77667142Y-123727857D01*
X77667142Y-123727857D02*
X77714761Y-123823095D01*
X77714761Y-123823095D02*
X77714761Y-123918333D01*
X77714761Y-123918333D02*
X77667142Y-124013571D01*
X77667142Y-124013571D02*
X77619523Y-124061190D01*
X77619523Y-124061190D02*
X77524285Y-124108809D01*
X77524285Y-124108809D02*
X77190952Y-124108809D01*
X78048095Y-123632619D02*
X78619523Y-123632619D01*
X78333809Y-124632619D02*
X78333809Y-123632619D01*
X79476666Y-124632619D02*
X78905238Y-124632619D01*
X79190952Y-124632619D02*
X79190952Y-123632619D01*
X79190952Y-123632619D02*
X79095714Y-123775476D01*
X79095714Y-123775476D02*
X79000476Y-123870714D01*
X79000476Y-123870714D02*
X78905238Y-123918333D01*
D12*
X80625714Y-98693904D02*
X80587618Y-98732000D01*
X80587618Y-98732000D02*
X80473333Y-98770095D01*
X80473333Y-98770095D02*
X80397142Y-98770095D01*
X80397142Y-98770095D02*
X80282856Y-98732000D01*
X80282856Y-98732000D02*
X80206666Y-98655809D01*
X80206666Y-98655809D02*
X80168571Y-98579619D01*
X80168571Y-98579619D02*
X80130475Y-98427238D01*
X80130475Y-98427238D02*
X80130475Y-98312952D01*
X80130475Y-98312952D02*
X80168571Y-98160571D01*
X80168571Y-98160571D02*
X80206666Y-98084380D01*
X80206666Y-98084380D02*
X80282856Y-98008190D01*
X80282856Y-98008190D02*
X80397142Y-97970095D01*
X80397142Y-97970095D02*
X80473333Y-97970095D01*
X80473333Y-97970095D02*
X80587618Y-98008190D01*
X80587618Y-98008190D02*
X80625714Y-98046285D01*
X81387618Y-98770095D02*
X80930475Y-98770095D01*
X81159047Y-98770095D02*
X81159047Y-97970095D01*
X81159047Y-97970095D02*
X81082856Y-98084380D01*
X81082856Y-98084380D02*
X81006666Y-98160571D01*
X81006666Y-98160571D02*
X80930475Y-98198666D01*
X81654285Y-97970095D02*
X82187619Y-97970095D01*
X82187619Y-97970095D02*
X81844761Y-98770095D01*
X85446667Y-104983904D02*
X85408571Y-105022000D01*
X85408571Y-105022000D02*
X85294286Y-105060095D01*
X85294286Y-105060095D02*
X85218095Y-105060095D01*
X85218095Y-105060095D02*
X85103809Y-105022000D01*
X85103809Y-105022000D02*
X85027619Y-104945809D01*
X85027619Y-104945809D02*
X84989524Y-104869619D01*
X84989524Y-104869619D02*
X84951428Y-104717238D01*
X84951428Y-104717238D02*
X84951428Y-104602952D01*
X84951428Y-104602952D02*
X84989524Y-104450571D01*
X84989524Y-104450571D02*
X85027619Y-104374380D01*
X85027619Y-104374380D02*
X85103809Y-104298190D01*
X85103809Y-104298190D02*
X85218095Y-104260095D01*
X85218095Y-104260095D02*
X85294286Y-104260095D01*
X85294286Y-104260095D02*
X85408571Y-104298190D01*
X85408571Y-104298190D02*
X85446667Y-104336285D01*
X86208571Y-105060095D02*
X85751428Y-105060095D01*
X85980000Y-105060095D02*
X85980000Y-104260095D01*
X85980000Y-104260095D02*
X85903809Y-104374380D01*
X85903809Y-104374380D02*
X85827619Y-104450571D01*
X85827619Y-104450571D02*
X85751428Y-104488666D01*
X91206667Y-109860095D02*
X90940000Y-109479142D01*
X90749524Y-109860095D02*
X90749524Y-109060095D01*
X90749524Y-109060095D02*
X91054286Y-109060095D01*
X91054286Y-109060095D02*
X91130476Y-109098190D01*
X91130476Y-109098190D02*
X91168571Y-109136285D01*
X91168571Y-109136285D02*
X91206667Y-109212476D01*
X91206667Y-109212476D02*
X91206667Y-109326761D01*
X91206667Y-109326761D02*
X91168571Y-109402952D01*
X91168571Y-109402952D02*
X91130476Y-109441047D01*
X91130476Y-109441047D02*
X91054286Y-109479142D01*
X91054286Y-109479142D02*
X90749524Y-109479142D01*
X91587619Y-109860095D02*
X91740000Y-109860095D01*
X91740000Y-109860095D02*
X91816190Y-109822000D01*
X91816190Y-109822000D02*
X91854286Y-109783904D01*
X91854286Y-109783904D02*
X91930476Y-109669619D01*
X91930476Y-109669619D02*
X91968571Y-109517238D01*
X91968571Y-109517238D02*
X91968571Y-109212476D01*
X91968571Y-109212476D02*
X91930476Y-109136285D01*
X91930476Y-109136285D02*
X91892381Y-109098190D01*
X91892381Y-109098190D02*
X91816190Y-109060095D01*
X91816190Y-109060095D02*
X91663809Y-109060095D01*
X91663809Y-109060095D02*
X91587619Y-109098190D01*
X91587619Y-109098190D02*
X91549524Y-109136285D01*
X91549524Y-109136285D02*
X91511428Y-109212476D01*
X91511428Y-109212476D02*
X91511428Y-109402952D01*
X91511428Y-109402952D02*
X91549524Y-109479142D01*
X91549524Y-109479142D02*
X91587619Y-109517238D01*
X91587619Y-109517238D02*
X91663809Y-109555333D01*
X91663809Y-109555333D02*
X91816190Y-109555333D01*
X91816190Y-109555333D02*
X91892381Y-109517238D01*
X91892381Y-109517238D02*
X91930476Y-109479142D01*
X91930476Y-109479142D02*
X91968571Y-109402952D01*
X112566667Y-84423904D02*
X112528571Y-84462000D01*
X112528571Y-84462000D02*
X112414286Y-84500095D01*
X112414286Y-84500095D02*
X112338095Y-84500095D01*
X112338095Y-84500095D02*
X112223809Y-84462000D01*
X112223809Y-84462000D02*
X112147619Y-84385809D01*
X112147619Y-84385809D02*
X112109524Y-84309619D01*
X112109524Y-84309619D02*
X112071428Y-84157238D01*
X112071428Y-84157238D02*
X112071428Y-84042952D01*
X112071428Y-84042952D02*
X112109524Y-83890571D01*
X112109524Y-83890571D02*
X112147619Y-83814380D01*
X112147619Y-83814380D02*
X112223809Y-83738190D01*
X112223809Y-83738190D02*
X112338095Y-83700095D01*
X112338095Y-83700095D02*
X112414286Y-83700095D01*
X112414286Y-83700095D02*
X112528571Y-83738190D01*
X112528571Y-83738190D02*
X112566667Y-83776285D01*
X113252381Y-83966761D02*
X113252381Y-84500095D01*
X113061905Y-83662000D02*
X112871428Y-84233428D01*
X112871428Y-84233428D02*
X113366667Y-84233428D01*
X67056667Y-111630095D02*
X66790000Y-111249142D01*
X66599524Y-111630095D02*
X66599524Y-110830095D01*
X66599524Y-110830095D02*
X66904286Y-110830095D01*
X66904286Y-110830095D02*
X66980476Y-110868190D01*
X66980476Y-110868190D02*
X67018571Y-110906285D01*
X67018571Y-110906285D02*
X67056667Y-110982476D01*
X67056667Y-110982476D02*
X67056667Y-111096761D01*
X67056667Y-111096761D02*
X67018571Y-111172952D01*
X67018571Y-111172952D02*
X66980476Y-111211047D01*
X66980476Y-111211047D02*
X66904286Y-111249142D01*
X66904286Y-111249142D02*
X66599524Y-111249142D01*
X67323333Y-110830095D02*
X67818571Y-110830095D01*
X67818571Y-110830095D02*
X67551905Y-111134857D01*
X67551905Y-111134857D02*
X67666190Y-111134857D01*
X67666190Y-111134857D02*
X67742381Y-111172952D01*
X67742381Y-111172952D02*
X67780476Y-111211047D01*
X67780476Y-111211047D02*
X67818571Y-111287238D01*
X67818571Y-111287238D02*
X67818571Y-111477714D01*
X67818571Y-111477714D02*
X67780476Y-111553904D01*
X67780476Y-111553904D02*
X67742381Y-111592000D01*
X67742381Y-111592000D02*
X67666190Y-111630095D01*
X67666190Y-111630095D02*
X67437619Y-111630095D01*
X67437619Y-111630095D02*
X67361428Y-111592000D01*
X67361428Y-111592000D02*
X67323333Y-111553904D01*
X118276667Y-84423904D02*
X118238571Y-84462000D01*
X118238571Y-84462000D02*
X118124286Y-84500095D01*
X118124286Y-84500095D02*
X118048095Y-84500095D01*
X118048095Y-84500095D02*
X117933809Y-84462000D01*
X117933809Y-84462000D02*
X117857619Y-84385809D01*
X117857619Y-84385809D02*
X117819524Y-84309619D01*
X117819524Y-84309619D02*
X117781428Y-84157238D01*
X117781428Y-84157238D02*
X117781428Y-84042952D01*
X117781428Y-84042952D02*
X117819524Y-83890571D01*
X117819524Y-83890571D02*
X117857619Y-83814380D01*
X117857619Y-83814380D02*
X117933809Y-83738190D01*
X117933809Y-83738190D02*
X118048095Y-83700095D01*
X118048095Y-83700095D02*
X118124286Y-83700095D01*
X118124286Y-83700095D02*
X118238571Y-83738190D01*
X118238571Y-83738190D02*
X118276667Y-83776285D01*
X118733809Y-84042952D02*
X118657619Y-84004857D01*
X118657619Y-84004857D02*
X118619524Y-83966761D01*
X118619524Y-83966761D02*
X118581428Y-83890571D01*
X118581428Y-83890571D02*
X118581428Y-83852476D01*
X118581428Y-83852476D02*
X118619524Y-83776285D01*
X118619524Y-83776285D02*
X118657619Y-83738190D01*
X118657619Y-83738190D02*
X118733809Y-83700095D01*
X118733809Y-83700095D02*
X118886190Y-83700095D01*
X118886190Y-83700095D02*
X118962381Y-83738190D01*
X118962381Y-83738190D02*
X119000476Y-83776285D01*
X119000476Y-83776285D02*
X119038571Y-83852476D01*
X119038571Y-83852476D02*
X119038571Y-83890571D01*
X119038571Y-83890571D02*
X119000476Y-83966761D01*
X119000476Y-83966761D02*
X118962381Y-84004857D01*
X118962381Y-84004857D02*
X118886190Y-84042952D01*
X118886190Y-84042952D02*
X118733809Y-84042952D01*
X118733809Y-84042952D02*
X118657619Y-84081047D01*
X118657619Y-84081047D02*
X118619524Y-84119142D01*
X118619524Y-84119142D02*
X118581428Y-84195333D01*
X118581428Y-84195333D02*
X118581428Y-84347714D01*
X118581428Y-84347714D02*
X118619524Y-84423904D01*
X118619524Y-84423904D02*
X118657619Y-84462000D01*
X118657619Y-84462000D02*
X118733809Y-84500095D01*
X118733809Y-84500095D02*
X118886190Y-84500095D01*
X118886190Y-84500095D02*
X118962381Y-84462000D01*
X118962381Y-84462000D02*
X119000476Y-84423904D01*
X119000476Y-84423904D02*
X119038571Y-84347714D01*
X119038571Y-84347714D02*
X119038571Y-84195333D01*
X119038571Y-84195333D02*
X119000476Y-84119142D01*
X119000476Y-84119142D02*
X118962381Y-84081047D01*
X118962381Y-84081047D02*
X118886190Y-84042952D01*
X97776667Y-100913904D02*
X97738571Y-100952000D01*
X97738571Y-100952000D02*
X97624286Y-100990095D01*
X97624286Y-100990095D02*
X97548095Y-100990095D01*
X97548095Y-100990095D02*
X97433809Y-100952000D01*
X97433809Y-100952000D02*
X97357619Y-100875809D01*
X97357619Y-100875809D02*
X97319524Y-100799619D01*
X97319524Y-100799619D02*
X97281428Y-100647238D01*
X97281428Y-100647238D02*
X97281428Y-100532952D01*
X97281428Y-100532952D02*
X97319524Y-100380571D01*
X97319524Y-100380571D02*
X97357619Y-100304380D01*
X97357619Y-100304380D02*
X97433809Y-100228190D01*
X97433809Y-100228190D02*
X97548095Y-100190095D01*
X97548095Y-100190095D02*
X97624286Y-100190095D01*
X97624286Y-100190095D02*
X97738571Y-100228190D01*
X97738571Y-100228190D02*
X97776667Y-100266285D01*
X98043333Y-100190095D02*
X98538571Y-100190095D01*
X98538571Y-100190095D02*
X98271905Y-100494857D01*
X98271905Y-100494857D02*
X98386190Y-100494857D01*
X98386190Y-100494857D02*
X98462381Y-100532952D01*
X98462381Y-100532952D02*
X98500476Y-100571047D01*
X98500476Y-100571047D02*
X98538571Y-100647238D01*
X98538571Y-100647238D02*
X98538571Y-100837714D01*
X98538571Y-100837714D02*
X98500476Y-100913904D01*
X98500476Y-100913904D02*
X98462381Y-100952000D01*
X98462381Y-100952000D02*
X98386190Y-100990095D01*
X98386190Y-100990095D02*
X98157619Y-100990095D01*
X98157619Y-100990095D02*
X98081428Y-100952000D01*
X98081428Y-100952000D02*
X98043333Y-100913904D01*
D13*
X74578095Y-99297619D02*
X74578095Y-100107142D01*
X74578095Y-100107142D02*
X74625714Y-100202380D01*
X74625714Y-100202380D02*
X74673333Y-100250000D01*
X74673333Y-100250000D02*
X74768571Y-100297619D01*
X74768571Y-100297619D02*
X74959047Y-100297619D01*
X74959047Y-100297619D02*
X75054285Y-100250000D01*
X75054285Y-100250000D02*
X75101904Y-100202380D01*
X75101904Y-100202380D02*
X75149523Y-100107142D01*
X75149523Y-100107142D02*
X75149523Y-99297619D01*
X76149523Y-100297619D02*
X75578095Y-100297619D01*
X75863809Y-100297619D02*
X75863809Y-99297619D01*
X75863809Y-99297619D02*
X75768571Y-99440476D01*
X75768571Y-99440476D02*
X75673333Y-99535714D01*
X75673333Y-99535714D02*
X75578095Y-99583333D01*
D11*
X75718095Y-96522619D02*
X75718095Y-97332142D01*
X75718095Y-97332142D02*
X75765714Y-97427380D01*
X75765714Y-97427380D02*
X75813333Y-97475000D01*
X75813333Y-97475000D02*
X75908571Y-97522619D01*
X75908571Y-97522619D02*
X76099047Y-97522619D01*
X76099047Y-97522619D02*
X76194285Y-97475000D01*
X76194285Y-97475000D02*
X76241904Y-97427380D01*
X76241904Y-97427380D02*
X76289523Y-97332142D01*
X76289523Y-97332142D02*
X76289523Y-96522619D01*
X77194285Y-96855952D02*
X77194285Y-97522619D01*
X76956190Y-96475000D02*
X76718095Y-97189285D01*
X76718095Y-97189285D02*
X77337142Y-97189285D01*
D12*
X83535714Y-98633904D02*
X83497618Y-98672000D01*
X83497618Y-98672000D02*
X83383333Y-98710095D01*
X83383333Y-98710095D02*
X83307142Y-98710095D01*
X83307142Y-98710095D02*
X83192856Y-98672000D01*
X83192856Y-98672000D02*
X83116666Y-98595809D01*
X83116666Y-98595809D02*
X83078571Y-98519619D01*
X83078571Y-98519619D02*
X83040475Y-98367238D01*
X83040475Y-98367238D02*
X83040475Y-98252952D01*
X83040475Y-98252952D02*
X83078571Y-98100571D01*
X83078571Y-98100571D02*
X83116666Y-98024380D01*
X83116666Y-98024380D02*
X83192856Y-97948190D01*
X83192856Y-97948190D02*
X83307142Y-97910095D01*
X83307142Y-97910095D02*
X83383333Y-97910095D01*
X83383333Y-97910095D02*
X83497618Y-97948190D01*
X83497618Y-97948190D02*
X83535714Y-97986285D01*
X84297618Y-98710095D02*
X83840475Y-98710095D01*
X84069047Y-98710095D02*
X84069047Y-97910095D01*
X84069047Y-97910095D02*
X83992856Y-98024380D01*
X83992856Y-98024380D02*
X83916666Y-98100571D01*
X83916666Y-98100571D02*
X83840475Y-98138666D01*
X84983333Y-97910095D02*
X84830952Y-97910095D01*
X84830952Y-97910095D02*
X84754761Y-97948190D01*
X84754761Y-97948190D02*
X84716666Y-97986285D01*
X84716666Y-97986285D02*
X84640476Y-98100571D01*
X84640476Y-98100571D02*
X84602380Y-98252952D01*
X84602380Y-98252952D02*
X84602380Y-98557714D01*
X84602380Y-98557714D02*
X84640476Y-98633904D01*
X84640476Y-98633904D02*
X84678571Y-98672000D01*
X84678571Y-98672000D02*
X84754761Y-98710095D01*
X84754761Y-98710095D02*
X84907142Y-98710095D01*
X84907142Y-98710095D02*
X84983333Y-98672000D01*
X84983333Y-98672000D02*
X85021428Y-98633904D01*
X85021428Y-98633904D02*
X85059523Y-98557714D01*
X85059523Y-98557714D02*
X85059523Y-98367238D01*
X85059523Y-98367238D02*
X85021428Y-98291047D01*
X85021428Y-98291047D02*
X84983333Y-98252952D01*
X84983333Y-98252952D02*
X84907142Y-98214857D01*
X84907142Y-98214857D02*
X84754761Y-98214857D01*
X84754761Y-98214857D02*
X84678571Y-98252952D01*
X84678571Y-98252952D02*
X84640476Y-98291047D01*
X84640476Y-98291047D02*
X84602380Y-98367238D01*
X67056667Y-109420095D02*
X66790000Y-109039142D01*
X66599524Y-109420095D02*
X66599524Y-108620095D01*
X66599524Y-108620095D02*
X66904286Y-108620095D01*
X66904286Y-108620095D02*
X66980476Y-108658190D01*
X66980476Y-108658190D02*
X67018571Y-108696285D01*
X67018571Y-108696285D02*
X67056667Y-108772476D01*
X67056667Y-108772476D02*
X67056667Y-108886761D01*
X67056667Y-108886761D02*
X67018571Y-108962952D01*
X67018571Y-108962952D02*
X66980476Y-109001047D01*
X66980476Y-109001047D02*
X66904286Y-109039142D01*
X66904286Y-109039142D02*
X66599524Y-109039142D01*
X67361428Y-108696285D02*
X67399524Y-108658190D01*
X67399524Y-108658190D02*
X67475714Y-108620095D01*
X67475714Y-108620095D02*
X67666190Y-108620095D01*
X67666190Y-108620095D02*
X67742381Y-108658190D01*
X67742381Y-108658190D02*
X67780476Y-108696285D01*
X67780476Y-108696285D02*
X67818571Y-108772476D01*
X67818571Y-108772476D02*
X67818571Y-108848666D01*
X67818571Y-108848666D02*
X67780476Y-108962952D01*
X67780476Y-108962952D02*
X67323333Y-109420095D01*
X67323333Y-109420095D02*
X67818571Y-109420095D01*
D14*
X70880800Y-88880000D02*
X67979200Y-88880000D01*
X67979200Y-88880000D02*
X67979200Y-87480000D01*
X67979200Y-87480000D02*
X70880800Y-87480000D01*
X70880800Y-87480000D02*
X70880800Y-88880000D01*
X113915000Y-87920800D02*
X115315000Y-87920800D01*
X115315000Y-87920800D02*
X115315000Y-85019200D01*
X115315000Y-85019200D02*
X113915000Y-85019200D01*
X113915000Y-85019200D02*
X113915000Y-87920800D01*
X111550800Y-114530000D02*
X108649200Y-114530000D01*
X108649200Y-114530000D02*
X108649200Y-113130000D01*
X108649200Y-113130000D02*
X111550800Y-113130000D01*
X111550800Y-113130000D02*
X111550800Y-114530000D01*
X87977500Y-96017500D02*
X87977500Y-97117500D01*
D15*
X87977500Y-97117500D02*
X88277500Y-97467500D01*
D14*
X88277500Y-97442500D02*
X88567500Y-97447500D01*
X88567500Y-95697500D02*
X88277500Y-95692500D01*
X88567500Y-95697500D02*
X91787500Y-95697500D01*
X91787500Y-95697500D02*
X91787500Y-97447500D01*
X91787500Y-97447500D02*
X88567500Y-97447500D01*
X88567500Y-97447500D02*
X88567500Y-95697500D01*
X88277500Y-95692500D02*
G75*
G03*
X87977500Y-95992500I0J-300000D01*
G01*
X87977500Y-97142500D02*
G75*
G03*
X88277500Y-97442500I300000J0D01*
G01*
D15*
X88527500Y-97492500D02*
X88102500Y-97342500D01*
X87927500Y-96367500D01*
X88102500Y-95792500D01*
X88567500Y-95697500D01*
X88527500Y-97492500D01*
G36*
X88527500Y-97492500D02*
G01*
X88102500Y-97342500D01*
X87927500Y-96367500D01*
X88102500Y-95792500D01*
X88567500Y-95697500D01*
X88527500Y-97492500D01*
G37*
X70530000Y-77800000D02*
X70530000Y-65500000D01*
X73170000Y-77800000D02*
X70530000Y-77800000D01*
X78160000Y-77800000D02*
X75200000Y-77800000D01*
X82830000Y-77800000D02*
X80190000Y-77800000D01*
X70530000Y-65500000D02*
X73160000Y-65500000D01*
X75210000Y-65500000D02*
X78160000Y-65500000D01*
X80210000Y-65500000D02*
X82830000Y-65500000D01*
X82830000Y-65500000D02*
X82830000Y-77800000D01*
X81299050Y-71550000D02*
G75*
G03*
X81299050Y-71550000I-4579050J0D01*
G01*
X97210000Y-91240000D02*
X96160000Y-91240000D01*
X97210000Y-88740000D02*
X97210000Y-91240000D01*
X96160000Y-91240000D02*
X96160000Y-92230000D01*
X96040000Y-86770000D02*
X92160000Y-86770000D01*
X90990000Y-91240000D02*
X92040000Y-91240000D01*
X90990000Y-88740000D02*
X90990000Y-91240000D01*
D14*
X104440000Y-126095000D02*
X104440000Y-119970000D01*
X104440000Y-132050000D02*
X104440000Y-129270000D01*
X104440000Y-132050000D02*
X117790000Y-132050000D01*
X114790000Y-117300000D02*
X118265000Y-117300000D01*
X117790000Y-132050000D02*
X117790000Y-132300000D01*
X117790000Y-132300000D02*
X118890000Y-132300000D01*
X118890000Y-132050000D02*
X119490000Y-132050000D01*
X118890000Y-132300000D02*
X118890000Y-132050000D01*
X119490000Y-126070000D02*
X119490000Y-119920000D01*
X119490000Y-132050000D02*
X119490000Y-129270000D01*
X85014200Y-107310000D02*
X87915800Y-107310000D01*
X87915800Y-107310000D02*
X87915800Y-108710000D01*
X87915800Y-108710000D02*
X85014200Y-108710000D01*
X85014200Y-108710000D02*
X85014200Y-107310000D01*
X115820000Y-87920800D02*
X117220000Y-87920800D01*
X117220000Y-87920800D02*
X117220000Y-85019200D01*
X117220000Y-85019200D02*
X115820000Y-85019200D01*
X115820000Y-85019200D02*
X115820000Y-87920800D01*
X93272500Y-102665000D02*
X96532500Y-102665000D01*
X96532500Y-102665000D02*
X96532500Y-104415000D01*
X96532500Y-104415000D02*
X93272500Y-104415000D01*
X93272500Y-104415000D02*
X93272500Y-102665000D01*
D15*
X88680000Y-91240000D02*
X87630000Y-91240000D01*
X88680000Y-88740000D02*
X88680000Y-91240000D01*
X87630000Y-91240000D02*
X87630000Y-92230000D01*
X87510000Y-86770000D02*
X83630000Y-86770000D01*
X82460000Y-91240000D02*
X83510000Y-91240000D01*
X82460000Y-88740000D02*
X82460000Y-91240000D01*
X64370000Y-90460000D02*
X62450000Y-90460000D01*
X58735000Y-90460000D02*
X60440000Y-90460000D01*
X62450000Y-99620000D02*
X64370000Y-99620000D01*
X60440000Y-99620000D02*
X58735000Y-99620000D01*
X58735000Y-99620000D02*
X58735000Y-90460000D01*
D14*
X104465000Y-90445000D02*
X103685000Y-90445000D01*
X103685000Y-90445000D02*
X103685000Y-91445000D01*
X129665000Y-90475000D02*
X123250000Y-90475000D01*
X129665000Y-90475000D02*
X129665000Y-108715000D01*
X123250000Y-90475000D02*
X123250000Y-90095000D01*
X129665000Y-108715000D02*
X123250000Y-108715000D01*
X104455000Y-108735000D02*
X103675000Y-108735000D01*
X103675000Y-108735000D02*
X103675000Y-107735000D01*
X98960800Y-112735000D02*
X96059200Y-112735000D01*
X96059200Y-112735000D02*
X96059200Y-111335000D01*
X96059200Y-111335000D02*
X98960800Y-111335000D01*
X98960800Y-111335000D02*
X98960800Y-112735000D01*
D15*
X107170000Y-88245000D02*
X104370000Y-88245000D01*
X107170000Y-86245000D02*
X107170000Y-88245000D01*
X104370000Y-88245000D02*
X104370000Y-86245000D01*
X104370000Y-86245000D02*
X107170000Y-86245000D01*
X70190000Y-104605000D02*
X68515000Y-104605000D01*
X70190000Y-104605000D02*
X70840000Y-104605000D01*
X70190000Y-107725000D02*
X69540000Y-107725000D01*
X70190000Y-107725000D02*
X70840000Y-107725000D01*
D14*
X68800000Y-102245000D02*
X72060000Y-102245000D01*
X72060000Y-102245000D02*
X72060000Y-103995000D01*
X72060000Y-103995000D02*
X68800000Y-103995000D01*
X68800000Y-103995000D02*
X68800000Y-102245000D01*
D15*
X123465000Y-124740000D02*
X123465000Y-123690000D01*
X125965000Y-124740000D02*
X123465000Y-124740000D01*
X123465000Y-123690000D02*
X122475000Y-123690000D01*
X127935000Y-123570000D02*
X127935000Y-117690000D01*
X123465000Y-116520000D02*
X123465000Y-117570000D01*
X125965000Y-116520000D02*
X123465000Y-116520000D01*
X87290000Y-123305000D02*
X88340000Y-123305000D01*
X87290000Y-125805000D02*
X87290000Y-123305000D01*
X88340000Y-123305000D02*
X88340000Y-122315000D01*
X88460000Y-127775000D02*
X96340000Y-127775000D01*
X97510000Y-123305000D02*
X96460000Y-123305000D01*
X97510000Y-125805000D02*
X97510000Y-123305000D01*
D14*
X99092500Y-110870000D02*
X95832500Y-110870000D01*
X95832500Y-110870000D02*
X95832500Y-109120000D01*
X95832500Y-109120000D02*
X99092500Y-109120000D01*
X99092500Y-109120000D02*
X99092500Y-110870000D01*
X72212000Y-86794800D02*
X73612000Y-86794800D01*
X73612000Y-86794800D02*
X73612000Y-83893200D01*
X73612000Y-83893200D02*
X72212000Y-83893200D01*
X72212000Y-83893200D02*
X72212000Y-86794800D01*
D13*
X109050000Y-88050000D02*
X110950000Y-88050000D01*
X110950000Y-88050000D02*
X110950000Y-83740000D01*
D11*
X109250000Y-86150000D02*
X110750000Y-86150000D01*
D13*
X109050000Y-83740000D02*
X109050000Y-88050000D01*
D16*
X110000000Y-86150000D02*
X109250000Y-84800000D01*
X110750000Y-84800000D01*
X110000000Y-86150000D01*
G36*
X110000000Y-86150000D02*
G01*
X109250000Y-84800000D01*
X110750000Y-84800000D01*
X110000000Y-86150000D01*
G37*
D14*
X73990000Y-86794800D02*
X75390000Y-86794800D01*
X75390000Y-86794800D02*
X75390000Y-83893200D01*
X75390000Y-83893200D02*
X73990000Y-83893200D01*
X73990000Y-83893200D02*
X73990000Y-86794800D01*
D15*
X85850000Y-77800000D02*
X85850000Y-65500000D01*
X88490000Y-77800000D02*
X85850000Y-77800000D01*
X93480000Y-77800000D02*
X90520000Y-77800000D01*
X98150000Y-77800000D02*
X95510000Y-77800000D01*
X85850000Y-65500000D02*
X88480000Y-65500000D01*
X90530000Y-65500000D02*
X93480000Y-65500000D01*
X95530000Y-65500000D02*
X98150000Y-65500000D01*
X98150000Y-65500000D02*
X98150000Y-77800000D01*
X96619050Y-71550000D02*
G75*
G03*
X96619050Y-71550000I-4579050J0D01*
G01*
D14*
X88500000Y-98142500D02*
X91760000Y-98142500D01*
X91760000Y-98142500D02*
X91760000Y-99892500D01*
X91760000Y-99892500D02*
X88500000Y-99892500D01*
X88500000Y-99892500D02*
X88500000Y-98142500D01*
X93437326Y-104965144D02*
X93437326Y-105085144D01*
X93437326Y-106240144D02*
X93437326Y-107165144D01*
X93437326Y-108345144D02*
X93437326Y-108465144D01*
X93437326Y-108465144D02*
X97837326Y-108465144D01*
X95237326Y-105615144D02*
X96037326Y-105615144D01*
X96037326Y-107815144D02*
X95237326Y-107815144D01*
X97837326Y-104965144D02*
X93437326Y-104965144D01*
X97837326Y-105085144D02*
X97837326Y-104965144D01*
X97837326Y-107215144D02*
X97837326Y-106215144D01*
X97837326Y-108465144D02*
X97837326Y-108345144D01*
X95237326Y-105615144D02*
G75*
G03*
X95237326Y-107815144I0J-1100000D01*
G01*
X96037326Y-107815144D02*
G75*
G03*
X96037326Y-105615144I0J1100000D01*
G01*
X93587326Y-113245144D02*
X93587326Y-113365144D01*
X93587326Y-114520144D02*
X93587326Y-115445144D01*
X93587326Y-116625144D02*
X93587326Y-116745144D01*
X93587326Y-116745144D02*
X97987326Y-116745144D01*
X95387326Y-113895144D02*
X96187326Y-113895144D01*
X96187326Y-116095144D02*
X95387326Y-116095144D01*
X97987326Y-113245144D02*
X93587326Y-113245144D01*
X97987326Y-113365144D02*
X97987326Y-113245144D01*
X97987326Y-115495144D02*
X97987326Y-114495144D01*
X97987326Y-116745144D02*
X97987326Y-116625144D01*
X95387326Y-113895144D02*
G75*
G03*
X95387326Y-116095144I0J-1100000D01*
G01*
X96187326Y-116095144D02*
G75*
G03*
X96187326Y-113895144I0J1100000D01*
G01*
D15*
X99260000Y-126295000D02*
X99760000Y-126295000D01*
X99760000Y-126295000D02*
X99760000Y-126845000D01*
X99760000Y-126845000D02*
X99260000Y-126845000D01*
X99260000Y-126845000D02*
X99260000Y-126295000D01*
D14*
X99260000Y-126295000D02*
X101510000Y-126295000D01*
X101510000Y-126295000D02*
X101510000Y-126845000D01*
X101510000Y-126845000D02*
X99260000Y-126845000D01*
X99260000Y-126845000D02*
X99260000Y-126295000D01*
D17*
X99151803Y-127696393D02*
G75*
G03*
X99151803Y-127696393I-141803J0D01*
G01*
D14*
X88720800Y-120360000D02*
X85819200Y-120360000D01*
X85819200Y-120360000D02*
X85819200Y-118960000D01*
X85819200Y-118960000D02*
X88720800Y-118960000D01*
X88720800Y-118960000D02*
X88720800Y-120360000D01*
D18*
X84435000Y-123100003D02*
X84435000Y-119100003D01*
X84435000Y-123100003D02*
X81495000Y-123100003D01*
D15*
X84435000Y-119100003D02*
X84435000Y-121100003D01*
D18*
X84435000Y-119100003D02*
X81565000Y-119100003D01*
X66435000Y-123100003D02*
X66435000Y-127100003D01*
X66435000Y-115100003D02*
X66435000Y-119100003D01*
X66085000Y-124450003D02*
X64085000Y-124450003D01*
X65085000Y-125450003D02*
X65085000Y-123450003D01*
X64435000Y-123100003D02*
X66435000Y-123100003D01*
X64435000Y-119100003D02*
X66435000Y-119100003D01*
X64435000Y-119100003D02*
X64435000Y-123100003D01*
X69435001Y-126600002D02*
G75*
G03*
X81520387Y-123123705I4975466J5448374D01*
G01*
X66435006Y-127100003D02*
G75*
G03*
X69435000Y-126600002I1541664J0D01*
G01*
X81582039Y-119057992D02*
G75*
G03*
X69435001Y-115600004I-7147631J-2044089D01*
G01*
X69435006Y-115600005D02*
G75*
G03*
X66435000Y-115100003I-1458336J500002D01*
G01*
D14*
X82050000Y-94634200D02*
X80650000Y-94634200D01*
X80650000Y-94634200D02*
X80650000Y-97535800D01*
X80650000Y-97535800D02*
X82050000Y-97535800D01*
X82050000Y-97535800D02*
X82050000Y-94634200D01*
X85034200Y-105470000D02*
X87935800Y-105470000D01*
X87935800Y-105470000D02*
X87935800Y-106870000D01*
X87935800Y-106870000D02*
X85034200Y-106870000D01*
X85034200Y-106870000D02*
X85034200Y-105470000D01*
X94290000Y-109280000D02*
X92540000Y-109280000D01*
X92540000Y-109280000D02*
X92540000Y-112540000D01*
X92540000Y-112540000D02*
X94290000Y-112540000D01*
X94290000Y-112540000D02*
X94290000Y-109280000D01*
X112010000Y-87920800D02*
X113410000Y-87920800D01*
X113410000Y-87920800D02*
X113410000Y-85019200D01*
X113410000Y-85019200D02*
X112010000Y-85019200D01*
X112010000Y-85019200D02*
X112010000Y-87920800D01*
X72010000Y-112115000D02*
X68750000Y-112115000D01*
X68750000Y-112115000D02*
X68750000Y-110365000D01*
X68750000Y-110365000D02*
X72010000Y-110365000D01*
X72010000Y-110365000D02*
X72010000Y-112115000D01*
D15*
X101170000Y-77800000D02*
X101170000Y-65500000D01*
X103810000Y-77800000D02*
X101170000Y-77800000D01*
X108800000Y-77800000D02*
X105840000Y-77800000D01*
X113470000Y-77800000D02*
X110830000Y-77800000D01*
X101170000Y-65500000D02*
X103800000Y-65500000D01*
X105850000Y-65500000D02*
X108800000Y-65500000D01*
X110850000Y-65500000D02*
X113470000Y-65500000D01*
X113470000Y-65500000D02*
X113470000Y-77800000D01*
X111939050Y-71550000D02*
G75*
G03*
X111939050Y-71550000I-4579050J0D01*
G01*
D14*
X117725000Y-87920800D02*
X119125000Y-87920800D01*
X119125000Y-87920800D02*
X119125000Y-85019200D01*
X119125000Y-85019200D02*
X117725000Y-85019200D01*
X117725000Y-85019200D02*
X117725000Y-87920800D01*
X97250000Y-104450800D02*
X98650000Y-104450800D01*
X98650000Y-104450800D02*
X98650000Y-101549200D01*
X98650000Y-101549200D02*
X97250000Y-101549200D01*
X97250000Y-101549200D02*
X97250000Y-104450800D01*
D15*
X82390000Y-111475000D02*
X82390000Y-111220000D01*
X82390000Y-111220000D02*
X84205000Y-111220000D01*
X82390000Y-100955000D02*
X82390000Y-101210000D01*
X78530000Y-111475000D02*
X82390000Y-111475000D01*
X78530000Y-111475000D02*
X74670000Y-111475000D01*
X78530000Y-100955000D02*
X82390000Y-100955000D01*
X78530000Y-100955000D02*
X74670000Y-100955000D01*
X74670000Y-111475000D02*
X74670000Y-111220000D01*
X74670000Y-100955000D02*
X74670000Y-101210000D01*
X80220000Y-87470000D02*
X80220000Y-93480000D01*
X73400000Y-89720000D02*
X73400000Y-93480000D01*
X80220000Y-93480000D02*
X78960000Y-93480000D01*
X73400000Y-93480000D02*
X74660000Y-93480000D01*
D14*
X83860000Y-94634200D02*
X82460000Y-94634200D01*
X82460000Y-94634200D02*
X82460000Y-97535800D01*
X82460000Y-97535800D02*
X83860000Y-97535800D01*
X83860000Y-97535800D02*
X83860000Y-94634200D01*
X72010000Y-109885000D02*
X68750000Y-109885000D01*
X68750000Y-109885000D02*
X68750000Y-108135000D01*
X68750000Y-108135000D02*
X72010000Y-108135000D01*
X72010000Y-108135000D02*
X72010000Y-109885000D01*
%LPC*%
D19*
X99985000Y-127970700D02*
X99534564Y-127970700D01*
X99534564Y-127070000D01*
X99985000Y-127070000D01*
X99985000Y-127970700D01*
G36*
X99985000Y-127970700D02*
G01*
X99534564Y-127970700D01*
X99534564Y-127070000D01*
X99985000Y-127070000D01*
X99985000Y-127970700D01*
G37*
X99985000Y-126069917D02*
X99534855Y-126069917D01*
X99534855Y-125170000D01*
X99985000Y-125170000D01*
X99985000Y-126069917D01*
G36*
X99985000Y-126069917D02*
G01*
X99534855Y-126069917D01*
X99534855Y-125170000D01*
X99985000Y-125170000D01*
X99985000Y-126069917D01*
G37*
X100635000Y-126069435D02*
X100184746Y-126069435D01*
X100184746Y-125170000D01*
X100635000Y-125170000D01*
X100635000Y-126069435D01*
G36*
X100635000Y-126069435D02*
G01*
X100184746Y-126069435D01*
X100184746Y-125170000D01*
X100635000Y-125170000D01*
X100635000Y-126069435D01*
G37*
X100635000Y-127970820D02*
X100184869Y-127970820D01*
X100184869Y-127070000D01*
X100635000Y-127070000D01*
X100635000Y-127970820D01*
G36*
X100635000Y-127970820D02*
G01*
X100184869Y-127970820D01*
X100184869Y-127070000D01*
X100635000Y-127070000D01*
X100635000Y-127970820D01*
G37*
X101285000Y-126069692D02*
X100835262Y-126069692D01*
X100835262Y-125170000D01*
X101285000Y-125170000D01*
X101285000Y-126069692D01*
G36*
X101285000Y-126069692D02*
G01*
X100835262Y-126069692D01*
X100835262Y-125170000D01*
X101285000Y-125170000D01*
X101285000Y-126069692D01*
G37*
X101285000Y-127971810D02*
X100835551Y-127971810D01*
X100835551Y-127070000D01*
X101285000Y-127070000D01*
X101285000Y-127971810D01*
G36*
X101285000Y-127971810D02*
G01*
X100835551Y-127971810D01*
X100835551Y-127070000D01*
X101285000Y-127070000D01*
X101285000Y-127971810D01*
G37*
D20*
X70205000Y-88180000D03*
X68655000Y-88180000D03*
D21*
X114615000Y-87245000D03*
X114615000Y-85695000D03*
D20*
X110875000Y-113830000D03*
X109325000Y-113830000D03*
D22*
X90965000Y-96567500D03*
X89390000Y-96567500D03*
D23*
X74180000Y-77900000D03*
X74180000Y-65400000D03*
X79180000Y-77900000D03*
X79180000Y-65400000D03*
D24*
X95600000Y-91455000D03*
X94600000Y-91455000D03*
X93600000Y-91455000D03*
X92600000Y-91455000D03*
D25*
X96900000Y-87580000D03*
X91300000Y-87580000D03*
D26*
X106990000Y-128070000D03*
X114990000Y-128070000D03*
D27*
X114170000Y-116845000D03*
X113070000Y-116845000D03*
X111970000Y-116845000D03*
X110870000Y-116845000D03*
X109770000Y-116845000D03*
X108670000Y-116845000D03*
X107570000Y-116845000D03*
X106470000Y-116845000D03*
X105370000Y-116845000D03*
D28*
X103990000Y-118470000D03*
X103990000Y-127650000D03*
X119090000Y-118395000D03*
X120065000Y-127645000D03*
D29*
X85690000Y-108010000D03*
X87240000Y-108010000D03*
D21*
X116520000Y-87245000D03*
X116520000Y-85695000D03*
D30*
X94072500Y-103515000D03*
X95722500Y-103515000D03*
D24*
X87070000Y-91455000D03*
X86070000Y-91455000D03*
X85070000Y-91455000D03*
X84070000Y-91455000D03*
D25*
X88370000Y-87580000D03*
X82770000Y-87580000D03*
D31*
X64945000Y-92150000D03*
X64945000Y-97930000D03*
D32*
X66370000Y-91690000D03*
X66370000Y-92490000D03*
X66370000Y-93790000D03*
X66370000Y-94790000D03*
X66370000Y-95290000D03*
X66370000Y-96290000D03*
X66370000Y-97590000D03*
X66370000Y-98390000D03*
X66370000Y-98090000D03*
X66370000Y-97290000D03*
X66370000Y-96790000D03*
X66370000Y-95790000D03*
X66370000Y-94290000D03*
X66370000Y-93290000D03*
X66370000Y-92790000D03*
X66370000Y-91990000D03*
D33*
X65625000Y-90720000D03*
D34*
X61445000Y-90720000D03*
D33*
X65625000Y-99360000D03*
D34*
X61445000Y-99360000D03*
D35*
X122055000Y-90845000D03*
X120785000Y-90845000D03*
X119515000Y-90845000D03*
X118245000Y-90845000D03*
X116975000Y-90845000D03*
X115705000Y-90845000D03*
X114435000Y-90845000D03*
X113165000Y-90845000D03*
X111895000Y-90845000D03*
X110625000Y-90845000D03*
X109355000Y-90845000D03*
X108085000Y-90845000D03*
X106815000Y-90845000D03*
X105545000Y-90845000D03*
D36*
X104295000Y-93885000D03*
X104295000Y-95155000D03*
X104295000Y-96425000D03*
X104295000Y-97695000D03*
X104295000Y-98965000D03*
X104295000Y-100235000D03*
X104295000Y-101505000D03*
X104295000Y-102775000D03*
X104295000Y-104045000D03*
X104295000Y-105315000D03*
D35*
X105545000Y-108345000D03*
X106815000Y-108345000D03*
X108085000Y-108345000D03*
X109355000Y-108345000D03*
X110625000Y-108345000D03*
X111895000Y-108345000D03*
X113165000Y-108345000D03*
X114435000Y-108345000D03*
X115705000Y-108345000D03*
X116975000Y-108345000D03*
X118245000Y-108345000D03*
X119515000Y-108345000D03*
X120785000Y-108345000D03*
X122055000Y-108345000D03*
D37*
X115995000Y-97615000D03*
X114705000Y-97665000D03*
X113405000Y-97665000D03*
X116005000Y-98915000D03*
D38*
X114715000Y-98915000D03*
D37*
X114715000Y-98965000D03*
X113415000Y-98965000D03*
X116025000Y-100275000D03*
X114735000Y-100325000D03*
X113435000Y-100325000D03*
D20*
X98285000Y-112035000D03*
X96735000Y-112035000D03*
D39*
X106420000Y-87245000D03*
X105120000Y-87245000D03*
D40*
X69252500Y-105215000D03*
X69252500Y-107115000D03*
X71127500Y-106165000D03*
D30*
X69600000Y-103095000D03*
X71250000Y-103095000D03*
D41*
X123250000Y-123130000D03*
X123250000Y-122130000D03*
X123250000Y-121130000D03*
X123250000Y-120130000D03*
X123250000Y-119130000D03*
X123250000Y-118130000D03*
D42*
X127125000Y-124430000D03*
X127125000Y-116830000D03*
D43*
X88900000Y-123090000D03*
X89900000Y-123090000D03*
X90900000Y-123090000D03*
X91900000Y-123090000D03*
X92900000Y-123090000D03*
X93900000Y-123090000D03*
X94900000Y-123090000D03*
X95900000Y-123090000D03*
D44*
X87600000Y-126965000D03*
X97200000Y-126965000D03*
D45*
X98292500Y-110020000D03*
X96642500Y-110020000D03*
D21*
X72912000Y-86119000D03*
X72912000Y-84569000D03*
D46*
X110000000Y-87250000D03*
X110000000Y-83750000D03*
D21*
X74690000Y-86119000D03*
X74690000Y-84569000D03*
D23*
X89500000Y-77900000D03*
X89500000Y-65400000D03*
X94500000Y-77900000D03*
X94500000Y-65400000D03*
D30*
X89300000Y-98992500D03*
X90950000Y-98992500D03*
D47*
X61050000Y-130300000D03*
X61533274Y-129133274D03*
X61533274Y-131466726D03*
X62700000Y-128650000D03*
D48*
X62700000Y-130300000D03*
D47*
X62700000Y-131950000D03*
X63866726Y-129133274D03*
X63866726Y-131466726D03*
X64350000Y-130300000D03*
D49*
X93287326Y-105640144D03*
X97937326Y-105640144D03*
X93287326Y-107790144D03*
X97937326Y-107790144D03*
X93437326Y-113920144D03*
X98087326Y-113920144D03*
X93437326Y-116070144D03*
X98087326Y-116070144D03*
D47*
X126040000Y-130280000D03*
X126523274Y-129113274D03*
X126523274Y-131446726D03*
X127690000Y-128630000D03*
D48*
X127690000Y-130280000D03*
D47*
X127690000Y-131930000D03*
X128856726Y-129113274D03*
X128856726Y-131446726D03*
X129340000Y-130280000D03*
X61073274Y-84323274D03*
X61556548Y-83156548D03*
X61556548Y-85490000D03*
X62723274Y-82673274D03*
D48*
X62723274Y-84323274D03*
D47*
X62723274Y-85973274D03*
X63890000Y-83156548D03*
X63890000Y-85490000D03*
X64373274Y-84323274D03*
D20*
X88045000Y-119660000D03*
X86495000Y-119660000D03*
D37*
X78181500Y-121100003D03*
D50*
X70688500Y-121100003D03*
D51*
X66535600Y-121100003D03*
X82334400Y-121100003D03*
D52*
X81350000Y-95310000D03*
X81350000Y-96860000D03*
D29*
X85710000Y-106170000D03*
X87260000Y-106170000D03*
D53*
X93440000Y-110080000D03*
X93440000Y-111730000D03*
D21*
X112710000Y-87245000D03*
X112710000Y-85695000D03*
D45*
X71210000Y-111265000D03*
X69560000Y-111265000D03*
D23*
X104820000Y-77900000D03*
X104820000Y-65400000D03*
X109820000Y-77900000D03*
X109820000Y-65400000D03*
D21*
X118425000Y-87245000D03*
X118425000Y-85695000D03*
X97950000Y-103775000D03*
X97950000Y-102225000D03*
D54*
X83180000Y-110660000D03*
X83180000Y-109390000D03*
X83180000Y-108120000D03*
X83180000Y-106850000D03*
X83180000Y-105580000D03*
X83180000Y-104310000D03*
X83180000Y-103040000D03*
X83180000Y-101770000D03*
X73880000Y-101770000D03*
X73880000Y-103040000D03*
X73880000Y-104310000D03*
X73880000Y-105580000D03*
X73880000Y-106850000D03*
X73880000Y-108120000D03*
X73880000Y-109390000D03*
X73880000Y-110660000D03*
D55*
X79110000Y-88420000D03*
X76810000Y-88420000D03*
D56*
X76810000Y-94720000D03*
D55*
X74510000Y-88420000D03*
D52*
X83160000Y-95310000D03*
X83160000Y-96860000D03*
D45*
X71210000Y-109035000D03*
X69560000Y-109035000D03*
M02*
