G04 #@! TF.GenerationSoftware,KiCad,Pcbnew,(6.0.11)*
G04 #@! TF.CreationDate,2023-03-03T14:47:03+07:00*
G04 #@! TF.ProjectId,chargerV1,63686172-6765-4725-9631-2e6b69636164,rev?*
G04 #@! TF.SameCoordinates,Original*
G04 #@! TF.FileFunction,Legend,Bot*
G04 #@! TF.FilePolarity,Positive*
%FSLAX46Y46*%
G04 Gerber Fmt 4.6, Leading zero omitted, Abs format (unit mm)*
G04 Created by KiCad (PCBNEW (6.0.11)) date 2023-03-03 14:47:03*
%MOMM*%
%LPD*%
G01*
G04 APERTURE LIST*
%ADD10C,0.150000*%
%ADD11C,0.300000*%
%ADD12C,0.120000*%
%ADD13C,0.160000*%
%ADD14C,0.700000*%
%ADD15C,4.400000*%
%ADD16C,0.650000*%
%ADD17O,1.000000X2.100000*%
%ADD18O,1.000000X1.600000*%
%ADD19R,3.500000X3.500000*%
%ADD20C,3.500000*%
%ADD21R,2.100000X0.750000*%
G04 APERTURE END LIST*
D10*
X86010000Y-35750000D02*
X91810000Y-35750000D01*
X86010000Y-33850000D02*
X91810000Y-33850000D01*
X88910000Y-32000000D02*
X88910000Y-41200000D01*
X86010000Y-39500000D02*
X91810000Y-39500000D01*
X86010000Y-37550000D02*
X91810000Y-37550000D01*
X88488571Y-32907142D02*
X87879047Y-32907142D01*
X88183809Y-33211904D02*
X88183809Y-32602380D01*
X87117142Y-32411904D02*
X87498095Y-32411904D01*
X87536190Y-32792857D01*
X87498095Y-32754761D01*
X87421904Y-32716666D01*
X87231428Y-32716666D01*
X87155238Y-32754761D01*
X87117142Y-32792857D01*
X87079047Y-32869047D01*
X87079047Y-33059523D01*
X87117142Y-33135714D01*
X87155238Y-33173809D01*
X87231428Y-33211904D01*
X87421904Y-33211904D01*
X87498095Y-33173809D01*
X87536190Y-33135714D01*
X86850476Y-32411904D02*
X86583809Y-33211904D01*
X86317142Y-32411904D01*
D11*
X131395714Y-32678571D02*
X130895714Y-34178571D01*
X130395714Y-32678571D01*
X129110000Y-34178571D02*
X129967142Y-34178571D01*
X129538571Y-34178571D02*
X129538571Y-32678571D01*
X129681428Y-32892857D01*
X129824285Y-33035714D01*
X129967142Y-33107142D01*
X128467142Y-34035714D02*
X128395714Y-34107142D01*
X128467142Y-34178571D01*
X128538571Y-34107142D01*
X128467142Y-34035714D01*
X128467142Y-34178571D01*
X127467142Y-32678571D02*
X127324285Y-32678571D01*
X127181428Y-32750000D01*
X127110000Y-32821428D01*
X127038571Y-32964285D01*
X126967142Y-33250000D01*
X126967142Y-33607142D01*
X127038571Y-33892857D01*
X127110000Y-34035714D01*
X127181428Y-34107142D01*
X127324285Y-34178571D01*
X127467142Y-34178571D01*
X127610000Y-34107142D01*
X127681428Y-34035714D01*
X127752857Y-33892857D01*
X127824285Y-33607142D01*
X127824285Y-33250000D01*
X127752857Y-32964285D01*
X127681428Y-32821428D01*
X127610000Y-32750000D01*
X127467142Y-32678571D01*
D10*
X90638571Y-37111904D02*
X90638571Y-36311904D01*
X90181428Y-37111904D01*
X90181428Y-36311904D01*
X89343333Y-37035714D02*
X89381428Y-37073809D01*
X89495714Y-37111904D01*
X89571904Y-37111904D01*
X89686190Y-37073809D01*
X89762380Y-36997619D01*
X89800476Y-36921428D01*
X89838571Y-36769047D01*
X89838571Y-36654761D01*
X89800476Y-36502380D01*
X89762380Y-36426190D01*
X89686190Y-36350000D01*
X89571904Y-36311904D01*
X89495714Y-36311904D01*
X89381428Y-36350000D01*
X89343333Y-36388095D01*
X91019523Y-34550000D02*
X91095714Y-34511904D01*
X91210000Y-34511904D01*
X91324285Y-34550000D01*
X91400476Y-34626190D01*
X91438571Y-34702380D01*
X91476666Y-34854761D01*
X91476666Y-34969047D01*
X91438571Y-35121428D01*
X91400476Y-35197619D01*
X91324285Y-35273809D01*
X91210000Y-35311904D01*
X91133809Y-35311904D01*
X91019523Y-35273809D01*
X90981428Y-35235714D01*
X90981428Y-34969047D01*
X91133809Y-34969047D01*
X90638571Y-35311904D02*
X90638571Y-34511904D01*
X90181428Y-35311904D01*
X90181428Y-34511904D01*
X89800476Y-35311904D02*
X89800476Y-34511904D01*
X89610000Y-34511904D01*
X89495714Y-34550000D01*
X89419523Y-34626190D01*
X89381428Y-34702380D01*
X89343333Y-34854761D01*
X89343333Y-34969047D01*
X89381428Y-35121428D01*
X89419523Y-35197619D01*
X89495714Y-35273809D01*
X89610000Y-35311904D01*
X89800476Y-35311904D01*
X90638571Y-38961904D02*
X90638571Y-38161904D01*
X90181428Y-38961904D01*
X90181428Y-38161904D01*
X89343333Y-38885714D02*
X89381428Y-38923809D01*
X89495714Y-38961904D01*
X89571904Y-38961904D01*
X89686190Y-38923809D01*
X89762380Y-38847619D01*
X89800476Y-38771428D01*
X89838571Y-38619047D01*
X89838571Y-38504761D01*
X89800476Y-38352380D01*
X89762380Y-38276190D01*
X89686190Y-38200000D01*
X89571904Y-38161904D01*
X89495714Y-38161904D01*
X89381428Y-38200000D01*
X89343333Y-38238095D01*
D11*
X83851428Y-32688571D02*
X83851428Y-31188571D01*
X83280000Y-31188571D01*
X83137142Y-31260000D01*
X83065714Y-31331428D01*
X82994285Y-31474285D01*
X82994285Y-31688571D01*
X83065714Y-31831428D01*
X83137142Y-31902857D01*
X83280000Y-31974285D01*
X83851428Y-31974285D01*
X82351428Y-32688571D02*
X82351428Y-31188571D01*
X81851428Y-32260000D01*
X81351428Y-31188571D01*
X81351428Y-32688571D01*
X80708571Y-32617142D02*
X80494285Y-32688571D01*
X80137142Y-32688571D01*
X79994285Y-32617142D01*
X79922857Y-32545714D01*
X79851428Y-32402857D01*
X79851428Y-32260000D01*
X79922857Y-32117142D01*
X79994285Y-32045714D01*
X80137142Y-31974285D01*
X80422857Y-31902857D01*
X80565714Y-31831428D01*
X80637142Y-31760000D01*
X80708571Y-31617142D01*
X80708571Y-31474285D01*
X80637142Y-31331428D01*
X80565714Y-31260000D01*
X80422857Y-31188571D01*
X80065714Y-31188571D01*
X79851428Y-31260000D01*
X79351428Y-31188571D02*
X78351428Y-31188571D01*
X78994285Y-32688571D01*
X77494285Y-31188571D02*
X77351428Y-31188571D01*
X77208571Y-31260000D01*
X77137142Y-31331428D01*
X77065714Y-31474285D01*
X76994285Y-31760000D01*
X76994285Y-32117142D01*
X77065714Y-32402857D01*
X77137142Y-32545714D01*
X77208571Y-32617142D01*
X77351428Y-32688571D01*
X77494285Y-32688571D01*
X77637142Y-32617142D01*
X77708571Y-32545714D01*
X77780000Y-32402857D01*
X77851428Y-32117142D01*
X77851428Y-31760000D01*
X77780000Y-31474285D01*
X77708571Y-31331428D01*
X77637142Y-31260000D01*
X77494285Y-31188571D01*
X76065714Y-31188571D02*
X75922857Y-31188571D01*
X75780000Y-31260000D01*
X75708571Y-31331428D01*
X75637142Y-31474285D01*
X75565714Y-31760000D01*
X75565714Y-32117142D01*
X75637142Y-32402857D01*
X75708571Y-32545714D01*
X75780000Y-32617142D01*
X75922857Y-32688571D01*
X76065714Y-32688571D01*
X76208571Y-32617142D01*
X76280000Y-32545714D01*
X76351428Y-32402857D01*
X76422857Y-32117142D01*
X76422857Y-31760000D01*
X76351428Y-31474285D01*
X76280000Y-31331428D01*
X76208571Y-31260000D01*
X76065714Y-31188571D01*
X75065714Y-31188571D02*
X74137142Y-31188571D01*
X74637142Y-31760000D01*
X74422857Y-31760000D01*
X74280000Y-31831428D01*
X74208571Y-31902857D01*
X74137142Y-32045714D01*
X74137142Y-32402857D01*
X74208571Y-32545714D01*
X74280000Y-32617142D01*
X74422857Y-32688571D01*
X74851428Y-32688571D01*
X74994285Y-32617142D01*
X75065714Y-32545714D01*
D10*
X88031428Y-38961904D02*
X88298095Y-38580952D01*
X88488571Y-38961904D02*
X88488571Y-38161904D01*
X88183809Y-38161904D01*
X88107618Y-38200000D01*
X88069523Y-38238095D01*
X88031428Y-38314285D01*
X88031428Y-38428571D01*
X88069523Y-38504761D01*
X88107618Y-38542857D01*
X88183809Y-38580952D01*
X88488571Y-38580952D01*
X87764761Y-38161904D02*
X87231428Y-38961904D01*
X87231428Y-38161904D02*
X87764761Y-38961904D01*
X88069523Y-34550000D02*
X88145714Y-34511904D01*
X88260000Y-34511904D01*
X88374285Y-34550000D01*
X88450476Y-34626190D01*
X88488571Y-34702380D01*
X88526666Y-34854761D01*
X88526666Y-34969047D01*
X88488571Y-35121428D01*
X88450476Y-35197619D01*
X88374285Y-35273809D01*
X88260000Y-35311904D01*
X88183809Y-35311904D01*
X88069523Y-35273809D01*
X88031428Y-35235714D01*
X88031428Y-34969047D01*
X88183809Y-34969047D01*
X87688571Y-35311904D02*
X87688571Y-34511904D01*
X87231428Y-35311904D01*
X87231428Y-34511904D01*
X86850476Y-35311904D02*
X86850476Y-34511904D01*
X86660000Y-34511904D01*
X86545714Y-34550000D01*
X86469523Y-34626190D01*
X86431428Y-34702380D01*
X86393333Y-34854761D01*
X86393333Y-34969047D01*
X86431428Y-35121428D01*
X86469523Y-35197619D01*
X86545714Y-35273809D01*
X86660000Y-35311904D01*
X86850476Y-35311904D01*
X88602856Y-40061904D02*
X88145713Y-40061904D01*
X88374285Y-40861904D02*
X88374285Y-40061904D01*
X87955237Y-40061904D02*
X87421904Y-40861904D01*
X87421904Y-40061904D02*
X87955237Y-40861904D01*
X91438571Y-32907142D02*
X90829047Y-32907142D01*
X91133809Y-33211904D02*
X91133809Y-32602380D01*
X90067142Y-32411904D02*
X90448095Y-32411904D01*
X90486190Y-32792857D01*
X90448095Y-32754761D01*
X90371904Y-32716666D01*
X90181428Y-32716666D01*
X90105238Y-32754761D01*
X90067142Y-32792857D01*
X90029047Y-32869047D01*
X90029047Y-33059523D01*
X90067142Y-33135714D01*
X90105238Y-33173809D01*
X90181428Y-33211904D01*
X90371904Y-33211904D01*
X90448095Y-33173809D01*
X90486190Y-33135714D01*
X89800476Y-32411904D02*
X89533809Y-33211904D01*
X89267142Y-32411904D01*
X88031428Y-37111904D02*
X88298094Y-36730952D01*
X88488571Y-37111904D02*
X88488571Y-36311904D01*
X88183809Y-36311904D01*
X88107618Y-36350000D01*
X88069523Y-36388095D01*
X88031428Y-36464285D01*
X88031428Y-36578571D01*
X88069523Y-36654761D01*
X88107618Y-36692857D01*
X88183809Y-36730952D01*
X88488571Y-36730952D01*
X87726666Y-37073809D02*
X87612380Y-37111904D01*
X87421904Y-37111904D01*
X87345713Y-37073809D01*
X87307618Y-37035714D01*
X87269523Y-36959523D01*
X87269523Y-36883333D01*
X87307618Y-36807142D01*
X87345713Y-36769047D01*
X87421904Y-36730952D01*
X87574285Y-36692857D01*
X87650475Y-36654761D01*
X87688571Y-36616666D01*
X87726666Y-36540476D01*
X87726666Y-36464285D01*
X87688571Y-36388095D01*
X87650475Y-36350000D01*
X87574285Y-36311904D01*
X87383809Y-36311904D01*
X87269523Y-36350000D01*
X87040952Y-36311904D02*
X86583809Y-36311904D01*
X86812380Y-37111904D02*
X86812380Y-36311904D01*
X91133810Y-40823809D02*
X91019524Y-40861904D01*
X90829048Y-40861904D01*
X90752857Y-40823809D01*
X90714762Y-40785714D01*
X90676667Y-40709523D01*
X90676667Y-40633333D01*
X90714762Y-40557142D01*
X90752857Y-40519047D01*
X90829048Y-40480952D01*
X90981429Y-40442857D01*
X91057619Y-40404761D01*
X91095714Y-40366666D01*
X91133810Y-40290476D01*
X91133810Y-40214285D01*
X91095714Y-40138095D01*
X91057619Y-40100000D01*
X90981429Y-40061904D01*
X90790952Y-40061904D01*
X90676667Y-40100000D01*
X90333810Y-40442857D02*
X90067143Y-40442857D01*
X89952857Y-40861904D02*
X90333810Y-40861904D01*
X90333810Y-40061904D01*
X89952857Y-40061904D01*
X89724286Y-40061904D02*
X89267143Y-40061904D01*
X89495714Y-40861904D02*
X89495714Y-40061904D01*
X99214285Y-84691428D02*
X99357142Y-84643809D01*
X99404761Y-84596190D01*
X99452380Y-84500952D01*
X99452380Y-84358095D01*
X99404761Y-84262857D01*
X99357142Y-84215238D01*
X99261904Y-84167619D01*
X98880952Y-84167619D01*
X98880952Y-85167619D01*
X99214285Y-85167619D01*
X99309523Y-85120000D01*
X99357142Y-85072380D01*
X99404761Y-84977142D01*
X99404761Y-84881904D01*
X99357142Y-84786666D01*
X99309523Y-84739047D01*
X99214285Y-84691428D01*
X98880952Y-84691428D01*
X99738095Y-85167619D02*
X100309523Y-85167619D01*
X100023809Y-84167619D02*
X100023809Y-85167619D01*
X101166666Y-84167619D02*
X100595238Y-84167619D01*
X100880952Y-84167619D02*
X100880952Y-85167619D01*
X100785714Y-85024761D01*
X100690476Y-84929523D01*
X100595238Y-84881904D01*
D12*
X139000000Y-87920000D02*
X139000000Y-67820000D01*
X61000000Y-87920000D02*
X139000000Y-87920000D01*
X139000000Y-67820000D02*
X61000000Y-67820000D01*
X61000000Y-67820000D02*
X61000000Y-87920000D01*
X77880000Y-39855000D02*
X77880000Y-39915000D01*
X77880000Y-33505000D02*
X76420000Y-33505000D01*
X80540000Y-33445000D02*
X80540000Y-33505000D01*
X80540000Y-39915000D02*
X77880000Y-39915000D01*
X77880000Y-33445000D02*
X77880000Y-33505000D01*
X80540000Y-33445000D02*
X77880000Y-33445000D01*
X80540000Y-39855000D02*
X80540000Y-39915000D01*
X116730000Y-28880000D02*
X104580000Y-28880000D01*
X104580000Y-28880000D02*
X104580000Y-30380000D01*
X104580000Y-30380000D02*
X116730000Y-30380000D01*
X116730000Y-30380000D02*
X116730000Y-28880000D01*
X73380000Y-28880000D02*
X121380000Y-28880000D01*
X121380000Y-28880000D02*
X121380000Y-65880000D01*
X121380000Y-65880000D02*
X73380000Y-65880000D01*
X73380000Y-65880000D02*
X73380000Y-28880000D01*
D13*
X77140000Y-33030000D02*
G75*
G03*
X77140000Y-33030000I-80000J0D01*
G01*
%LPC*%
D14*
X49362614Y-26328274D03*
X51696066Y-28661726D03*
X50529340Y-25845000D03*
X52179340Y-27495000D03*
X48879340Y-27495000D03*
D15*
X50529340Y-27495000D03*
D14*
X50529340Y-29145000D03*
X49362614Y-28661726D03*
X51696066Y-26328274D03*
X64562926Y-87376726D03*
X62229474Y-85043274D03*
X63396200Y-87860000D03*
X63396200Y-84560000D03*
X65046200Y-86210000D03*
X64562926Y-85043274D03*
X61746200Y-86210000D03*
X62229474Y-87376726D03*
D15*
X63396200Y-86210000D03*
D14*
X135573274Y-85173274D03*
X135090000Y-86340000D03*
X137906726Y-85173274D03*
X138390000Y-86340000D03*
X137906726Y-87506726D03*
X136740000Y-84690000D03*
X135573274Y-87506726D03*
X136740000Y-87990000D03*
D15*
X136740000Y-86340000D03*
D14*
X62233274Y-32466726D03*
X63400000Y-29650000D03*
X63400000Y-32950000D03*
X64566726Y-30133274D03*
D15*
X63400000Y-31300000D03*
D14*
X61750000Y-31300000D03*
X65050000Y-31300000D03*
X62233274Y-30133274D03*
X64566726Y-32466726D03*
X48690000Y-89400000D03*
X51506726Y-90566726D03*
X50340000Y-87750000D03*
X50340000Y-91050000D03*
X51990000Y-89400000D03*
X49173274Y-90566726D03*
X51506726Y-88233274D03*
D15*
X50340000Y-89400000D03*
D14*
X49173274Y-88233274D03*
D16*
X80390000Y-83135000D03*
X86170000Y-83135000D03*
D17*
X87600000Y-82455000D03*
X78960000Y-82455000D03*
D18*
X87600000Y-86635000D03*
X78960000Y-86635000D03*
D19*
X64000000Y-77870000D03*
D20*
X136000000Y-77870000D03*
D21*
X77410000Y-34140000D03*
X81010000Y-34140000D03*
X77410000Y-35410000D03*
X81010000Y-35410000D03*
X77410000Y-36680000D03*
X81010000Y-36680000D03*
X77410000Y-37950000D03*
X81010000Y-37950000D03*
X77410000Y-39220000D03*
X81010000Y-39220000D03*
M02*
