G04 #@! TF.GenerationSoftware,KiCad,Pcbnew,7.0.1*
G04 #@! TF.CreationDate,2023-04-16T16:23:16+07:00*
G04 #@! TF.ProjectId,chargerV1,63686172-6765-4725-9631-2e6b69636164,rev?*
G04 #@! TF.SameCoordinates,Original*
G04 #@! TF.FileFunction,Paste,Top*
G04 #@! TF.FilePolarity,Positive*
%FSLAX46Y46*%
G04 Gerber Fmt 4.6, Leading zero omitted, Abs format (unit mm)*
G04 Created by KiCad (PCBNEW 7.0.1) date 2023-04-16 16:23:16*
%MOMM*%
%LPD*%
G01*
G04 APERTURE LIST*
G04 Aperture macros list*
%AMRoundRect*
0 Rectangle with rounded corners*
0 $1 Rounding radius*
0 $2 $3 $4 $5 $6 $7 $8 $9 X,Y pos of 4 corners*
0 Add a 4 corners polygon primitive as box body*
4,1,4,$2,$3,$4,$5,$6,$7,$8,$9,$2,$3,0*
0 Add four circle primitives for the rounded corners*
1,1,$1+$1,$2,$3*
1,1,$1+$1,$4,$5*
1,1,$1+$1,$6,$7*
1,1,$1+$1,$8,$9*
0 Add four rect primitives between the rounded corners*
20,1,$1+$1,$2,$3,$4,$5,0*
20,1,$1+$1,$4,$5,$6,$7,0*
20,1,$1+$1,$6,$7,$8,$9,0*
20,1,$1+$1,$8,$9,$2,$3,0*%
G04 Aperture macros list end*
%ADD10C,0.010000*%
%ADD11RoundRect,0.127500X0.297500X0.322500X-0.297500X0.322500X-0.297500X-0.322500X0.297500X-0.322500X0*%
%ADD12RoundRect,0.127500X0.322500X-0.297500X0.322500X0.297500X-0.322500X0.297500X-0.322500X-0.297500X0*%
%ADD13RoundRect,0.218750X-0.218750X-0.256250X0.218750X-0.256250X0.218750X0.256250X-0.218750X0.256250X0*%
%ADD14R,1.850000X3.048000*%
%ADD15RoundRect,0.150000X0.150000X0.625000X-0.150000X0.625000X-0.150000X-0.625000X0.150000X-0.625000X0*%
%ADD16RoundRect,0.250000X0.350000X0.650000X-0.350000X0.650000X-0.350000X-0.650000X0.350000X-0.650000X0*%
%ADD17R,0.620000X1.400000*%
%ADD18R,1.100000X2.400000*%
%ADD19RoundRect,0.127500X-0.297500X-0.322500X0.297500X-0.322500X0.297500X0.322500X-0.297500X0.322500X0*%
%ADD20RoundRect,0.250000X-0.250000X-0.250000X0.250000X-0.250000X0.250000X0.250000X-0.250000X0.250000X0*%
%ADD21RoundRect,0.075000X-0.675000X0.075000X-0.675000X-0.075000X0.675000X-0.075000X0.675000X0.075000X0*%
%ADD22RoundRect,0.222250X-0.222250X0.527050X-0.222250X-0.527050X0.222250X-0.527050X0.222250X0.527050X0*%
%ADD23RoundRect,0.225000X-0.525000X-0.225000X0.525000X-0.225000X0.525000X0.225000X-0.525000X0.225000X0*%
%ADD24RoundRect,0.150000X-0.587500X-0.150000X0.587500X-0.150000X0.587500X0.150000X-0.587500X0.150000X0*%
%ADD25RoundRect,0.150000X0.625000X-0.150000X0.625000X0.150000X-0.625000X0.150000X-0.625000X-0.150000X0*%
%ADD26RoundRect,0.250000X0.650000X-0.350000X0.650000X0.350000X-0.650000X0.350000X-0.650000X-0.350000X0*%
%ADD27RoundRect,0.150000X-0.150000X-0.625000X0.150000X-0.625000X0.150000X0.625000X-0.150000X0.625000X0*%
%ADD28RoundRect,0.250000X-0.350000X-0.650000X0.350000X-0.650000X0.350000X0.650000X-0.350000X0.650000X0*%
%ADD29RoundRect,0.250000X0.250000X0.250000X-0.250000X0.250000X-0.250000X-0.250000X0.250000X-0.250000X0*%
%ADD30RoundRect,0.250000X0.600000X-0.400000X0.600000X0.400000X-0.600000X0.400000X-0.600000X-0.400000X0*%
%ADD31RoundRect,0.162500X-0.362500X-0.162500X0.362500X-0.162500X0.362500X0.162500X-0.362500X0.162500X0*%
%ADD32RoundRect,0.647700X1.155700X0.647700X-1.155700X0.647700X-1.155700X-0.647700X1.155700X-0.647700X0*%
%ADD33RoundRect,0.127500X-0.322500X0.297500X-0.322500X-0.297500X0.322500X-0.297500X0.322500X0.297500X0*%
%ADD34RoundRect,0.250000X-0.250000X0.250000X-0.250000X-0.250000X0.250000X-0.250000X0.250000X0.250000X0*%
%ADD35RoundRect,0.150000X0.875000X0.150000X-0.875000X0.150000X-0.875000X-0.150000X0.875000X-0.150000X0*%
%ADD36R,1.500000X2.000000*%
%ADD37R,3.800000X2.000000*%
G04 APERTURE END LIST*
D10*
X99910000Y-125993889D02*
X99608454Y-125993889D01*
X99608454Y-125245000D01*
X99910000Y-125245000D01*
X99910000Y-125993889D01*
G36*
X99910000Y-125993889D02*
G01*
X99608454Y-125993889D01*
X99608454Y-125245000D01*
X99910000Y-125245000D01*
X99910000Y-125993889D01*
G37*
X99910000Y-127895920D02*
X99609445Y-127895920D01*
X99609445Y-127145000D01*
X99910000Y-127145000D01*
X99910000Y-127895920D01*
G36*
X99910000Y-127895920D02*
G01*
X99609445Y-127895920D01*
X99609445Y-127145000D01*
X99910000Y-127145000D01*
X99910000Y-127895920D01*
G37*
X100560000Y-127896250D02*
X100259858Y-127896250D01*
X100259858Y-127145000D01*
X100560000Y-127145000D01*
X100560000Y-127896250D01*
G36*
X100560000Y-127896250D02*
G01*
X100259858Y-127896250D01*
X100259858Y-127145000D01*
X100560000Y-127145000D01*
X100560000Y-127896250D01*
G37*
X100560000Y-125994924D02*
X100259980Y-125994924D01*
X100259980Y-125245000D01*
X100560000Y-125245000D01*
X100560000Y-125994924D01*
G36*
X100560000Y-125994924D02*
G01*
X100259980Y-125994924D01*
X100259980Y-125245000D01*
X100560000Y-125245000D01*
X100560000Y-125994924D01*
G37*
X101210000Y-125994957D02*
X100910037Y-125994957D01*
X100910037Y-125245000D01*
X101210000Y-125245000D01*
X101210000Y-125994957D01*
G36*
X101210000Y-125994957D02*
G01*
X100910037Y-125994957D01*
X100910037Y-125245000D01*
X101210000Y-125245000D01*
X101210000Y-125994957D01*
G37*
X101210000Y-127896090D02*
X100910413Y-127896090D01*
X100910413Y-127145000D01*
X101210000Y-127145000D01*
X101210000Y-127896090D01*
G36*
X101210000Y-127896090D02*
G01*
X100910413Y-127896090D01*
X100910413Y-127145000D01*
X101210000Y-127145000D01*
X101210000Y-127896090D01*
G37*
D11*
X70205000Y-88180000D03*
X68655000Y-88180000D03*
D12*
X114615000Y-87245000D03*
X114615000Y-85695000D03*
D11*
X110875000Y-113830000D03*
X109325000Y-113830000D03*
D13*
X90965000Y-96567500D03*
X89390000Y-96567500D03*
D14*
X74180000Y-77900000D03*
X74180000Y-65400000D03*
X79180000Y-77900000D03*
X79180000Y-65400000D03*
D15*
X95600000Y-91455000D03*
X94600000Y-91455000D03*
X93600000Y-91455000D03*
X92600000Y-91455000D03*
D16*
X96900000Y-87580000D03*
X91300000Y-87580000D03*
D17*
X114170000Y-116845000D03*
X113070000Y-116845000D03*
X111970000Y-116845000D03*
X110870000Y-116845000D03*
X109770000Y-116845000D03*
X108670000Y-116845000D03*
X107570000Y-116845000D03*
X106470000Y-116845000D03*
X105370000Y-116845000D03*
D18*
X103990000Y-118470000D03*
X103990000Y-127650000D03*
X119090000Y-118395000D03*
X120065000Y-127645000D03*
D19*
X85690000Y-108010000D03*
X87240000Y-108010000D03*
D12*
X116520000Y-87245000D03*
X116520000Y-85695000D03*
D20*
X94072500Y-103515000D03*
X95722500Y-103515000D03*
D15*
X87070000Y-91455000D03*
X86070000Y-91455000D03*
X85070000Y-91455000D03*
X84070000Y-91455000D03*
D16*
X88370000Y-87580000D03*
X82770000Y-87580000D03*
D21*
X66370000Y-91690000D03*
X66370000Y-92490000D03*
X66370000Y-93790000D03*
X66370000Y-94790000D03*
X66370000Y-95290000D03*
X66370000Y-96290000D03*
X66370000Y-97590000D03*
X66370000Y-98390000D03*
X66370000Y-98090000D03*
X66370000Y-97290000D03*
X66370000Y-96790000D03*
X66370000Y-95790000D03*
X66370000Y-94290000D03*
X66370000Y-93290000D03*
X66370000Y-92790000D03*
X66370000Y-91990000D03*
D22*
X122055000Y-90845000D03*
X120785000Y-90845000D03*
X119515000Y-90845000D03*
X118245000Y-90845000D03*
X116975000Y-90845000D03*
X115705000Y-90845000D03*
X114435000Y-90845000D03*
X113165000Y-90845000D03*
X111895000Y-90845000D03*
X110625000Y-90845000D03*
X109355000Y-90845000D03*
X108085000Y-90845000D03*
X106815000Y-90845000D03*
X105545000Y-90845000D03*
D23*
X104295000Y-93885000D03*
X104295000Y-95155000D03*
X104295000Y-96425000D03*
X104295000Y-97695000D03*
X104295000Y-98965000D03*
X104295000Y-100235000D03*
X104295000Y-101505000D03*
X104295000Y-102775000D03*
X104295000Y-104045000D03*
X104295000Y-105315000D03*
D22*
X105545000Y-108345000D03*
X106815000Y-108345000D03*
X108085000Y-108345000D03*
X109355000Y-108345000D03*
X110625000Y-108345000D03*
X111895000Y-108345000D03*
X113165000Y-108345000D03*
X114435000Y-108345000D03*
X115705000Y-108345000D03*
X116975000Y-108345000D03*
X118245000Y-108345000D03*
X119515000Y-108345000D03*
X120785000Y-108345000D03*
X122055000Y-108345000D03*
D11*
X98285000Y-112035000D03*
X96735000Y-112035000D03*
D24*
X69252500Y-105215000D03*
X69252500Y-107115000D03*
X71127500Y-106165000D03*
D20*
X69600000Y-103095000D03*
X71250000Y-103095000D03*
D25*
X123250000Y-123130000D03*
X123250000Y-122130000D03*
X123250000Y-121130000D03*
X123250000Y-120130000D03*
X123250000Y-119130000D03*
X123250000Y-118130000D03*
D26*
X127125000Y-124430000D03*
X127125000Y-116830000D03*
D27*
X88900000Y-123090000D03*
X89900000Y-123090000D03*
X90900000Y-123090000D03*
X91900000Y-123090000D03*
X92900000Y-123090000D03*
X93900000Y-123090000D03*
X94900000Y-123090000D03*
X95900000Y-123090000D03*
D28*
X87600000Y-126965000D03*
X97200000Y-126965000D03*
D29*
X98292500Y-110020000D03*
X96642500Y-110020000D03*
D12*
X72912000Y-86119000D03*
X72912000Y-84569000D03*
D30*
X110000000Y-87250000D03*
X110000000Y-83750000D03*
D12*
X74690000Y-86119000D03*
X74690000Y-84569000D03*
D14*
X89500000Y-77900000D03*
X89500000Y-65400000D03*
X94500000Y-77900000D03*
X94500000Y-65400000D03*
D20*
X89300000Y-98992500D03*
X90950000Y-98992500D03*
D31*
X93287326Y-105640144D03*
X97937326Y-105640144D03*
X93287326Y-107790144D03*
X97937326Y-107790144D03*
X93437326Y-113920144D03*
X98087326Y-113920144D03*
X93437326Y-116070144D03*
X98087326Y-116070144D03*
D11*
X88045000Y-119660000D03*
X86495000Y-119660000D03*
D32*
X66535600Y-121100003D03*
X82334400Y-121100003D03*
D33*
X81350000Y-95310000D03*
X81350000Y-96860000D03*
D19*
X85710000Y-106170000D03*
X87260000Y-106170000D03*
D34*
X93440000Y-110080000D03*
X93440000Y-111730000D03*
D12*
X112710000Y-87245000D03*
X112710000Y-85695000D03*
D29*
X71210000Y-111265000D03*
X69560000Y-111265000D03*
D14*
X104820000Y-77900000D03*
X104820000Y-65400000D03*
X109820000Y-77900000D03*
X109820000Y-65400000D03*
D12*
X118425000Y-87245000D03*
X118425000Y-85695000D03*
X97950000Y-103775000D03*
X97950000Y-102225000D03*
D35*
X83180000Y-110660000D03*
X83180000Y-109390000D03*
X83180000Y-108120000D03*
X83180000Y-106850000D03*
X83180000Y-105580000D03*
X83180000Y-104310000D03*
X83180000Y-103040000D03*
X83180000Y-101770000D03*
X73880000Y-101770000D03*
X73880000Y-103040000D03*
X73880000Y-104310000D03*
X73880000Y-105580000D03*
X73880000Y-106850000D03*
X73880000Y-108120000D03*
X73880000Y-109390000D03*
X73880000Y-110660000D03*
D36*
X79110000Y-88420000D03*
X76810000Y-88420000D03*
D37*
X76810000Y-94720000D03*
D36*
X74510000Y-88420000D03*
D33*
X83160000Y-95310000D03*
X83160000Y-96860000D03*
D29*
X71210000Y-109035000D03*
X69560000Y-109035000D03*
M02*
