%TF.GenerationSoftware,KiCad,Pcbnew,7.0.1*%
%TF.CreationDate,2023-04-16T16:24:30+07:00*%
%TF.ProjectId,chargerV1,63686172-6765-4725-9631-2e6b69636164,rev?*%
%TF.SameCoordinates,Original*%
%TF.FileFunction,Drillmap*%
%TF.FilePolarity,Positive*%
%FSLAX45Y45*%
G04 Gerber Fmt 4.5, Leading zero omitted, Abs format (unit mm)*
G04 Created by KiCad (PCBNEW 7.0.1) date 2023-04-16 16:24:30*
%MOMM*%
%LPD*%
G01*
G04 APERTURE LIST*
%ADD10C,0.100000*%
%ADD11C,0.200000*%
%ADD12C,0.040000*%
%ADD13C,0.050000*%
%ADD14C,0.060000*%
%ADD15C,0.220000*%
G04 APERTURE END LIST*
D10*
X11553000Y-6471000D02*
G75*
G03*
X11363000Y-6281000I-190000J0D01*
G01*
X6020000Y-13030000D02*
X6020000Y-8424000D01*
X6020000Y-13030000D02*
G75*
G03*
X6272000Y-13282000I252000J0D01*
G01*
X13022000Y-10883000D02*
X13022000Y-13030000D01*
X6264000Y-8180000D02*
X7436000Y-8180000D01*
X10611997Y-8180023D02*
G75*
G03*
X10611997Y-8080017I3J50003D01*
G01*
X12770000Y-13282000D02*
G75*
G03*
X13022000Y-13030000I0J252000D01*
G01*
X13022000Y-9032000D02*
X12332625Y-9032000D01*
X13022000Y-8432000D02*
X13022000Y-9032000D01*
X7938003Y-8079977D02*
G75*
G03*
X7938003Y-8179983I-3J-50003D01*
G01*
X10612000Y-8179983D02*
X7938000Y-8179983D01*
X6830000Y-6471000D02*
X6830000Y-7889983D01*
X7436000Y-8180000D02*
G75*
G03*
X7436000Y-8080000I0J50000D01*
G01*
X7436000Y-8080000D02*
X7020000Y-8080000D01*
X11553000Y-6471000D02*
X11553000Y-7889983D01*
X7020000Y-6281000D02*
G75*
G03*
X6830000Y-6471000I0J-190000D01*
G01*
X13022000Y-8432000D02*
G75*
G03*
X12770000Y-8180000I-252000J0D01*
G01*
X12332625Y-9032000D02*
X12332625Y-10883000D01*
X11363000Y-8079980D02*
G75*
G03*
X11553000Y-7889983I0J190000D01*
G01*
X11114000Y-8180000D02*
X12770000Y-8180000D01*
X7020000Y-6281000D02*
X11363000Y-6281000D01*
X12332625Y-10883000D02*
X13022000Y-10883000D01*
X7938003Y-8079983D02*
X10611997Y-8079983D01*
X12770000Y-13282000D02*
X6272000Y-13282000D01*
X6264000Y-8180000D02*
G75*
G03*
X6020000Y-8424000I0J-244000D01*
G01*
X11114000Y-8080000D02*
G75*
G03*
X11114000Y-8180000I0J-50000D01*
G01*
X11114000Y-8080000D02*
X11363000Y-8080000D01*
X6829997Y-7889983D02*
G75*
G03*
X7020000Y-8079983I190003J3D01*
G01*
D11*
D12*
X6136000Y-8791000D02*
X6176000Y-8831000D01*
X6176000Y-8791000D02*
X6136000Y-8831000D01*
X6137000Y-10242000D02*
X6177000Y-10282000D01*
X6177000Y-10242000D02*
X6137000Y-10282000D01*
X6137000Y-10479579D02*
X6177000Y-10519579D01*
X6177000Y-10479579D02*
X6137000Y-10519579D01*
X6137000Y-10717158D02*
X6177000Y-10757158D01*
X6177000Y-10717158D02*
X6137000Y-10757158D01*
X6137000Y-10954736D02*
X6177000Y-10994736D01*
X6177000Y-10954736D02*
X6137000Y-10994736D01*
X6137000Y-11192315D02*
X6177000Y-11232315D01*
X6177000Y-11192315D02*
X6137000Y-11232315D01*
X6137000Y-11429894D02*
X6177000Y-11469894D01*
X6177000Y-11429894D02*
X6137000Y-11469894D01*
X6137000Y-11667473D02*
X6177000Y-11707473D01*
X6177000Y-11667473D02*
X6137000Y-11707473D01*
X6137000Y-11905052D02*
X6177000Y-11945052D01*
X6177000Y-11905052D02*
X6137000Y-11945052D01*
X6137000Y-12142630D02*
X6177000Y-12182630D01*
X6177000Y-12142630D02*
X6137000Y-12182630D01*
X6137000Y-12380209D02*
X6177000Y-12420209D01*
X6177000Y-12380209D02*
X6137000Y-12420209D01*
X6287000Y-8791000D02*
X6327000Y-8831000D01*
X6327000Y-8791000D02*
X6287000Y-8831000D01*
X6389000Y-10242000D02*
X6429000Y-10282000D01*
X6429000Y-10242000D02*
X6389000Y-10282000D01*
X6389000Y-10479579D02*
X6429000Y-10519579D01*
X6429000Y-10479579D02*
X6389000Y-10519579D01*
X6389000Y-10717158D02*
X6429000Y-10757158D01*
X6429000Y-10717158D02*
X6389000Y-10757158D01*
X6389000Y-10954736D02*
X6429000Y-10994736D01*
X6429000Y-10954736D02*
X6389000Y-10994736D01*
X6389000Y-11192315D02*
X6429000Y-11232315D01*
X6429000Y-11192315D02*
X6389000Y-11232315D01*
X6389000Y-11429894D02*
X6429000Y-11469894D01*
X6429000Y-11429894D02*
X6389000Y-11469894D01*
X6389000Y-11667473D02*
X6429000Y-11707473D01*
X6429000Y-11667473D02*
X6389000Y-11707473D01*
X6438000Y-8791000D02*
X6478000Y-8831000D01*
X6478000Y-8791000D02*
X6438000Y-8831000D01*
X6597000Y-8268000D02*
X6637000Y-8308000D01*
X6637000Y-8268000D02*
X6597000Y-8308000D01*
X6597000Y-8450500D02*
X6637000Y-8490500D01*
X6637000Y-8450500D02*
X6597000Y-8490500D01*
X6597000Y-8633000D02*
X6637000Y-8673000D01*
X6637000Y-8633000D02*
X6597000Y-8673000D01*
X6756000Y-10691000D02*
X6796000Y-10731000D01*
X6796000Y-10691000D02*
X6756000Y-10731000D01*
X6756000Y-11907000D02*
X6796000Y-11947000D01*
X6796000Y-11907000D02*
X6756000Y-11947000D01*
X6768000Y-8268000D02*
X6808000Y-8308000D01*
X6808000Y-8268000D02*
X6768000Y-8308000D01*
X6768000Y-8450500D02*
X6808000Y-8490500D01*
X6808000Y-8450500D02*
X6768000Y-8490500D01*
X6768000Y-8633000D02*
X6808000Y-8673000D01*
X6808000Y-8633000D02*
X6768000Y-8673000D01*
X6774264Y-13151000D02*
X6814264Y-13191000D01*
X6814264Y-13151000D02*
X6774264Y-13191000D01*
X7028105Y-13151000D02*
X7068105Y-13191000D01*
X7068105Y-13151000D02*
X7028105Y-13191000D01*
X7050000Y-8268000D02*
X7090000Y-8308000D01*
X7090000Y-8268000D02*
X7050000Y-8308000D01*
X7271000Y-12132474D02*
X7311000Y-12172474D01*
X7311000Y-12132474D02*
X7271000Y-12172474D01*
X7271000Y-12386316D02*
X7311000Y-12426316D01*
X7311000Y-12386316D02*
X7271000Y-12426316D01*
X7271000Y-12640158D02*
X7311000Y-12680158D01*
X7311000Y-12640158D02*
X7271000Y-12680158D01*
X7281947Y-13151000D02*
X7321947Y-13191000D01*
X7321947Y-13151000D02*
X7281947Y-13191000D01*
X7333238Y-8268000D02*
X7373238Y-8308000D01*
X7373238Y-8268000D02*
X7333238Y-8308000D01*
X7398000Y-6733000D02*
X7438000Y-6773000D01*
X7438000Y-6733000D02*
X7398000Y-6773000D01*
X7535789Y-13151000D02*
X7575789Y-13191000D01*
X7575789Y-13151000D02*
X7535789Y-13191000D01*
X7616476Y-8268000D02*
X7656476Y-8308000D01*
X7656476Y-8268000D02*
X7616476Y-8308000D01*
X7680000Y-10395000D02*
X7720000Y-10435000D01*
X7720000Y-10395000D02*
X7680000Y-10435000D01*
X7680500Y-10534000D02*
X7720500Y-10574000D01*
X7720500Y-10534000D02*
X7680500Y-10574000D01*
X7788000Y-12853000D02*
X7828000Y-12893000D01*
X7828000Y-12853000D02*
X7788000Y-12893000D01*
X7789631Y-13151000D02*
X7829631Y-13191000D01*
X7829631Y-13151000D02*
X7789631Y-13191000D01*
X7824500Y-10395000D02*
X7864500Y-10435000D01*
X7864500Y-10395000D02*
X7824500Y-10435000D01*
X7825000Y-10534000D02*
X7865000Y-10574000D01*
X7865000Y-10534000D02*
X7825000Y-10574000D01*
X7899714Y-8268000D02*
X7939714Y-8308000D01*
X7939714Y-8268000D02*
X7899714Y-8308000D01*
X7969000Y-10395000D02*
X8009000Y-10435000D01*
X8009000Y-10395000D02*
X7969000Y-10435000D01*
X7969500Y-10534000D02*
X8009500Y-10574000D01*
X8009500Y-10534000D02*
X7969500Y-10574000D01*
X8041842Y-12853000D02*
X8081842Y-12893000D01*
X8081842Y-12853000D02*
X8041842Y-12893000D01*
X8043473Y-13151000D02*
X8083473Y-13191000D01*
X8083473Y-13151000D02*
X8043473Y-13191000D01*
X8182952Y-8268000D02*
X8222952Y-8308000D01*
X8222952Y-8268000D02*
X8182952Y-8308000D01*
X8295684Y-12853000D02*
X8335684Y-12893000D01*
X8335684Y-12853000D02*
X8295684Y-12893000D01*
X8297315Y-13151000D02*
X8337315Y-13191000D01*
X8337315Y-13151000D02*
X8297315Y-13191000D01*
X8345000Y-7278000D02*
X8385000Y-7318000D01*
X8385000Y-7278000D02*
X8345000Y-7318000D01*
X8345000Y-7378000D02*
X8385000Y-7418000D01*
X8385000Y-7378000D02*
X8345000Y-7418000D01*
X8345000Y-7478000D02*
X8385000Y-7518000D01*
X8385000Y-7478000D02*
X8345000Y-7518000D01*
X8370434Y-9269000D02*
X8410434Y-9309000D01*
X8410434Y-9269000D02*
X8370434Y-9309000D01*
X8466190Y-8268000D02*
X8506190Y-8308000D01*
X8506190Y-8268000D02*
X8466190Y-8308000D01*
X8476000Y-7278000D02*
X8516000Y-7318000D01*
X8516000Y-7278000D02*
X8476000Y-7318000D01*
X8476000Y-7378000D02*
X8516000Y-7418000D01*
X8516000Y-7378000D02*
X8476000Y-7418000D01*
X8476000Y-7478000D02*
X8516000Y-7518000D01*
X8516000Y-7478000D02*
X8476000Y-7518000D01*
X8494000Y-9269000D02*
X8534000Y-9309000D01*
X8534000Y-9269000D02*
X8494000Y-9309000D01*
X8549526Y-12853000D02*
X8589526Y-12893000D01*
X8589526Y-12853000D02*
X8549526Y-12893000D01*
X8551157Y-13151000D02*
X8591157Y-13191000D01*
X8591157Y-13151000D02*
X8551157Y-13191000D01*
X8681000Y-11310500D02*
X8721000Y-11350500D01*
X8721000Y-11310500D02*
X8681000Y-11350500D01*
X8681000Y-11455000D02*
X8721000Y-11495000D01*
X8721000Y-11455000D02*
X8681000Y-11495000D01*
X8681000Y-11599500D02*
X8721000Y-11639500D01*
X8721000Y-11599500D02*
X8681000Y-11639500D01*
X8749428Y-8268000D02*
X8789428Y-8308000D01*
X8789428Y-8268000D02*
X8749428Y-8308000D01*
X8803368Y-12853000D02*
X8843368Y-12893000D01*
X8843368Y-12853000D02*
X8803368Y-12893000D01*
X8804999Y-13151000D02*
X8844999Y-13191000D01*
X8844999Y-13151000D02*
X8804999Y-13191000D01*
X8820000Y-11310000D02*
X8860000Y-11350000D01*
X8860000Y-11310000D02*
X8820000Y-11350000D01*
X8820000Y-11454500D02*
X8860000Y-11494500D01*
X8860000Y-11454500D02*
X8820000Y-11494500D01*
X8820000Y-11599000D02*
X8860000Y-11639000D01*
X8860000Y-11599000D02*
X8820000Y-11639000D01*
X8845000Y-9333000D02*
X8885000Y-9373000D01*
X8885000Y-9333000D02*
X8845000Y-9373000D01*
X8845000Y-9453000D02*
X8885000Y-9493000D01*
X8885000Y-9453000D02*
X8845000Y-9493000D01*
X8930000Y-6713000D02*
X8970000Y-6753000D01*
X8970000Y-6713000D02*
X8930000Y-6753000D01*
X9032666Y-8268000D02*
X9072666Y-8308000D01*
X9072666Y-8268000D02*
X9032666Y-8308000D01*
X9050000Y-9332000D02*
X9090000Y-9372000D01*
X9090000Y-9332000D02*
X9050000Y-9372000D01*
X9050000Y-9452000D02*
X9090000Y-9492000D01*
X9090000Y-9452000D02*
X9050000Y-9492000D01*
X9058841Y-13151000D02*
X9098841Y-13191000D01*
X9098841Y-13151000D02*
X9058841Y-13191000D01*
X9170000Y-12147000D02*
X9210000Y-12187000D01*
X9210000Y-12147000D02*
X9170000Y-12187000D01*
X9212000Y-9266000D02*
X9252000Y-9306000D01*
X9252000Y-9266000D02*
X9212000Y-9306000D01*
X9312683Y-13151000D02*
X9352683Y-13191000D01*
X9352683Y-13151000D02*
X9312683Y-13191000D01*
X9315904Y-8268000D02*
X9355904Y-8308000D01*
X9355904Y-8268000D02*
X9315904Y-8308000D01*
X9340000Y-9266000D02*
X9380000Y-9306000D01*
X9380000Y-9266000D02*
X9340000Y-9306000D01*
X9466000Y-9266000D02*
X9506000Y-9306000D01*
X9506000Y-9266000D02*
X9466000Y-9306000D01*
X9483000Y-10940000D02*
X9523000Y-10980000D01*
X9523000Y-10940000D02*
X9483000Y-10980000D01*
X9483000Y-11068000D02*
X9523000Y-11108000D01*
X9523000Y-11068000D02*
X9483000Y-11108000D01*
X9483000Y-11193000D02*
X9523000Y-11233000D01*
X9523000Y-11193000D02*
X9483000Y-11233000D01*
X9566525Y-13151000D02*
X9606525Y-13191000D01*
X9606525Y-13151000D02*
X9566525Y-13191000D01*
X9599142Y-8268000D02*
X9639142Y-8308000D01*
X9639142Y-8268000D02*
X9599142Y-8308000D01*
X9621000Y-12864000D02*
X9661000Y-12904000D01*
X9661000Y-12864000D02*
X9621000Y-12904000D01*
X9768250Y-12864000D02*
X9808250Y-12904000D01*
X9808250Y-12864000D02*
X9768250Y-12904000D01*
X9820366Y-13151000D02*
X9860366Y-13191000D01*
X9860366Y-13151000D02*
X9820366Y-13191000D01*
X9870033Y-10544000D02*
X9910033Y-10584000D01*
X9910033Y-10544000D02*
X9870033Y-10584000D01*
X9872000Y-7300000D02*
X9912000Y-7340000D01*
X9912000Y-7300000D02*
X9872000Y-7340000D01*
X9872000Y-7400000D02*
X9912000Y-7440000D01*
X9912000Y-7400000D02*
X9872000Y-7440000D01*
X9872000Y-7500000D02*
X9912000Y-7540000D01*
X9912000Y-7500000D02*
X9872000Y-7540000D01*
X9882380Y-8268000D02*
X9922380Y-8308000D01*
X9922380Y-8268000D02*
X9882380Y-8308000D01*
X9889000Y-11372014D02*
X9929000Y-11412014D01*
X9929000Y-11372014D02*
X9889000Y-11412014D01*
X9915500Y-12864000D02*
X9955500Y-12904000D01*
X9955500Y-12864000D02*
X9915500Y-12904000D01*
X9965000Y-8563000D02*
X10005000Y-8603000D01*
X10005000Y-8563000D02*
X9965000Y-8603000D01*
X10003000Y-7300000D02*
X10043000Y-7340000D01*
X10043000Y-7300000D02*
X10003000Y-7340000D01*
X10003000Y-7400000D02*
X10043000Y-7440000D01*
X10043000Y-7400000D02*
X10003000Y-7440000D01*
X10003000Y-7500000D02*
X10043000Y-7540000D01*
X10043000Y-7500000D02*
X10003000Y-7540000D01*
X10036000Y-9159000D02*
X10076000Y-9199000D01*
X10076000Y-9159000D02*
X10036000Y-9199000D01*
X10037000Y-9287000D02*
X10077000Y-9327000D01*
X10077000Y-9287000D02*
X10037000Y-9327000D01*
X10037000Y-9415000D02*
X10077000Y-9455000D01*
X10077000Y-9415000D02*
X10037000Y-9455000D01*
X10037000Y-9543000D02*
X10077000Y-9583000D01*
X10077000Y-9543000D02*
X10037000Y-9583000D01*
X10062750Y-12864000D02*
X10102750Y-12904000D01*
X10102750Y-12864000D02*
X10062750Y-12904000D01*
X10074209Y-13151000D02*
X10114209Y-13191000D01*
X10114209Y-13151000D02*
X10074209Y-13191000D01*
X10091000Y-10053000D02*
X10131000Y-10093000D01*
X10131000Y-10053000D02*
X10091000Y-10093000D01*
X10142000Y-8532000D02*
X10182000Y-8572000D01*
X10182000Y-8532000D02*
X10142000Y-8572000D01*
X10209000Y-9929000D02*
X10249000Y-9969000D01*
X10249000Y-9929000D02*
X10209000Y-9969000D01*
X10210000Y-12864000D02*
X10250000Y-12904000D01*
X10250000Y-12864000D02*
X10210000Y-12904000D01*
X10260000Y-9029000D02*
X10300000Y-9069000D01*
X10300000Y-9029000D02*
X10260000Y-9069000D01*
X10261000Y-9143000D02*
X10301000Y-9183000D01*
X10301000Y-9143000D02*
X10261000Y-9183000D01*
X10261000Y-9256000D02*
X10301000Y-9296000D01*
X10301000Y-9256000D02*
X10261000Y-9296000D01*
X10308000Y-8532000D02*
X10348000Y-8572000D01*
X10348000Y-8532000D02*
X10308000Y-8572000D01*
X10448000Y-11044000D02*
X10488000Y-11084000D01*
X10488000Y-11044000D02*
X10448000Y-11084000D01*
X10462000Y-6733000D02*
X10502000Y-6773000D01*
X10502000Y-6733000D02*
X10462000Y-6773000D01*
X10534500Y-10934000D02*
X10574500Y-10974000D01*
X10574500Y-10934000D02*
X10534500Y-10974000D01*
X10673000Y-11146000D02*
X10713000Y-11186000D01*
X10713000Y-11146000D02*
X10673000Y-11186000D01*
X10674000Y-11248000D02*
X10714000Y-11288000D01*
X10714000Y-11248000D02*
X10674000Y-11288000D01*
X10736000Y-11798000D02*
X10776000Y-11838000D01*
X10776000Y-11798000D02*
X10736000Y-11838000D01*
X10763000Y-9195550D02*
X10803000Y-9235550D01*
X10803000Y-9195550D02*
X10763000Y-9235550D01*
X10773000Y-11146000D02*
X10813000Y-11186000D01*
X10813000Y-11146000D02*
X10773000Y-11186000D01*
X10774000Y-11248000D02*
X10814000Y-11288000D01*
X10814000Y-11248000D02*
X10774000Y-11288000D01*
X10789000Y-10567000D02*
X10829000Y-10607000D01*
X10829000Y-10567000D02*
X10789000Y-10607000D01*
X10888000Y-9194000D02*
X10928000Y-9234000D01*
X10928000Y-9194000D02*
X10888000Y-9234000D01*
X10913814Y-10668368D02*
X10953814Y-10708368D01*
X10953814Y-10668368D02*
X10913814Y-10708368D01*
X10957000Y-11529000D02*
X10997000Y-11569000D01*
X10997000Y-11529000D02*
X10957000Y-11569000D01*
X11023000Y-9196000D02*
X11063000Y-9236000D01*
X11063000Y-9196000D02*
X11023000Y-9236000D01*
X11070000Y-12275000D02*
X11110000Y-12315000D01*
X11110000Y-12275000D02*
X11070000Y-12315000D01*
X11070000Y-13011000D02*
X11110000Y-13051000D01*
X11110000Y-13011000D02*
X11070000Y-13051000D01*
X11169500Y-10964000D02*
X11209500Y-11004000D01*
X11209500Y-10964000D02*
X11169500Y-11004000D01*
X11177000Y-11529000D02*
X11217000Y-11569000D01*
X11217000Y-11529000D02*
X11177000Y-11569000D01*
X11296500Y-10968000D02*
X11336500Y-11008000D01*
X11336500Y-10968000D02*
X11296500Y-11008000D01*
X11463000Y-11254000D02*
X11503000Y-11294000D01*
X11503000Y-11254000D02*
X11463000Y-11294000D01*
X11464000Y-11356000D02*
X11504000Y-11396000D01*
X11504000Y-11356000D02*
X11464000Y-11396000D01*
X11551000Y-10682000D02*
X11591000Y-10722000D01*
X11591000Y-10682000D02*
X11551000Y-10722000D01*
X11563000Y-11254000D02*
X11603000Y-11294000D01*
X11603000Y-11254000D02*
X11563000Y-11294000D01*
X11564000Y-11356000D02*
X11604000Y-11396000D01*
X11604000Y-11356000D02*
X11564000Y-11396000D01*
X11931000Y-10678000D02*
X11971000Y-10718000D01*
X11971000Y-10678000D02*
X11931000Y-10718000D01*
X11986000Y-8564000D02*
X12026000Y-8604000D01*
X12026000Y-8564000D02*
X11986000Y-8604000D01*
X12001200Y-8277000D02*
X12041200Y-8317000D01*
X12041200Y-8277000D02*
X12001200Y-8317000D01*
X12058000Y-10960000D02*
X12098000Y-11000000D01*
X12098000Y-10960000D02*
X12058000Y-11000000D01*
X12108000Y-8609000D02*
X12148000Y-8649000D01*
X12148000Y-8609000D02*
X12108000Y-8649000D01*
X12159000Y-11893000D02*
X12199000Y-11933000D01*
X12199000Y-11893000D02*
X12159000Y-11933000D01*
X12160000Y-12193000D02*
X12200000Y-12233000D01*
X12200000Y-12193000D02*
X12160000Y-12233000D01*
X12178650Y-8277000D02*
X12218650Y-8317000D01*
X12218650Y-8277000D02*
X12178650Y-8317000D01*
X12183000Y-8742000D02*
X12223000Y-8782000D01*
X12223000Y-8742000D02*
X12183000Y-8782000D01*
X12220000Y-12673000D02*
X12260000Y-12713000D01*
X12260000Y-12673000D02*
X12220000Y-12713000D01*
X12220000Y-12814333D02*
X12260000Y-12854333D01*
X12260000Y-12814333D02*
X12220000Y-12854333D01*
X12221000Y-12955667D02*
X12261000Y-12995667D01*
X12261000Y-12955667D02*
X12221000Y-12995667D01*
X12221000Y-13097000D02*
X12261000Y-13137000D01*
X12261000Y-13097000D02*
X12221000Y-13137000D01*
X12356100Y-8277000D02*
X12396100Y-8317000D01*
X12396100Y-8277000D02*
X12356100Y-8317000D01*
X12365000Y-12673000D02*
X12405000Y-12713000D01*
X12405000Y-12673000D02*
X12365000Y-12713000D01*
X12365000Y-12814333D02*
X12405000Y-12854333D01*
X12405000Y-12814333D02*
X12365000Y-12854333D01*
X12366000Y-12955667D02*
X12406000Y-12995667D01*
X12406000Y-12955667D02*
X12366000Y-12995667D01*
X12366000Y-13097000D02*
X12406000Y-13137000D01*
X12406000Y-13097000D02*
X12366000Y-13137000D01*
X12533550Y-8277000D02*
X12573550Y-8317000D01*
X12573550Y-8277000D02*
X12533550Y-8317000D01*
X12711000Y-8277000D02*
X12751000Y-8317000D01*
X12751000Y-8277000D02*
X12711000Y-8317000D01*
X6125000Y-13030000D02*
G75*
G03*
X6125000Y-13030000I-20000J0D01*
G01*
X6127327Y-8432327D02*
G75*
G03*
X6127327Y-8432327I-20000J0D01*
G01*
X6173327Y-12913327D02*
G75*
G03*
X6173327Y-12913327I-20000J0D01*
G01*
X6173327Y-13146673D02*
G75*
G03*
X6173327Y-13146673I-20000J0D01*
G01*
X6175655Y-8315655D02*
G75*
G03*
X6175655Y-8315655I-20000J0D01*
G01*
X6175655Y-8549000D02*
G75*
G03*
X6175655Y-8549000I-20000J0D01*
G01*
X6290000Y-12865000D02*
G75*
G03*
X6290000Y-12865000I-20000J0D01*
G01*
X6290000Y-13195000D02*
G75*
G03*
X6290000Y-13195000I-20000J0D01*
G01*
X6292327Y-8267327D02*
G75*
G03*
X6292327Y-8267327I-20000J0D01*
G01*
X6292327Y-8597327D02*
G75*
G03*
X6292327Y-8597327I-20000J0D01*
G01*
X6406673Y-12913327D02*
G75*
G03*
X6406673Y-12913327I-20000J0D01*
G01*
X6406673Y-13146673D02*
G75*
G03*
X6406673Y-13146673I-20000J0D01*
G01*
X6409000Y-8315655D02*
G75*
G03*
X6409000Y-8315655I-20000J0D01*
G01*
X6409000Y-8549000D02*
G75*
G03*
X6409000Y-8549000I-20000J0D01*
G01*
X6455000Y-13030000D02*
G75*
G03*
X6455000Y-13030000I-20000J0D01*
G01*
X6457327Y-8432327D02*
G75*
G03*
X6457327Y-8432327I-20000J0D01*
G01*
X12624000Y-13028000D02*
G75*
G03*
X12624000Y-13028000I-20000J0D01*
G01*
X12672327Y-12911327D02*
G75*
G03*
X12672327Y-12911327I-20000J0D01*
G01*
X12672327Y-13144673D02*
G75*
G03*
X12672327Y-13144673I-20000J0D01*
G01*
X12789000Y-12863000D02*
G75*
G03*
X12789000Y-12863000I-20000J0D01*
G01*
X12789000Y-13193000D02*
G75*
G03*
X12789000Y-13193000I-20000J0D01*
G01*
X12905673Y-12911327D02*
G75*
G03*
X12905673Y-12911327I-20000J0D01*
G01*
X12905673Y-13144673D02*
G75*
G03*
X12905673Y-13144673I-20000J0D01*
G01*
X12954000Y-13028000D02*
G75*
G03*
X12954000Y-13028000I-20000J0D01*
G01*
D13*
X6144500Y-9047000D02*
X6144500Y-9097000D01*
X6119500Y-9072000D02*
X6169500Y-9072000D01*
D11*
X6164500Y-9047000D02*
X6124500Y-9047000D01*
X6124500Y-9047000D02*
G75*
G03*
X6124500Y-9097000I0J-25000D01*
G01*
X6124500Y-9097000D02*
X6164500Y-9097000D01*
X6164500Y-9097000D02*
G75*
G03*
X6164500Y-9047000I0J25000D01*
G01*
D13*
X6144500Y-9911000D02*
X6144500Y-9961000D01*
X6119500Y-9936000D02*
X6169500Y-9936000D01*
D11*
X6164500Y-9911000D02*
X6124500Y-9911000D01*
X6124500Y-9911000D02*
G75*
G03*
X6124500Y-9961000I0J-25000D01*
G01*
X6124500Y-9961000D02*
X6164500Y-9961000D01*
X6164500Y-9961000D02*
G75*
G03*
X6164500Y-9911000I0J25000D01*
G01*
D13*
X6562500Y-9047000D02*
X6562500Y-9097000D01*
X6537500Y-9072000D02*
X6587500Y-9072000D01*
D11*
X6587500Y-9047000D02*
X6537500Y-9047000D01*
X6537500Y-9047000D02*
G75*
G03*
X6537500Y-9097000I0J-25000D01*
G01*
X6537500Y-9097000D02*
X6587500Y-9097000D01*
X6587500Y-9097000D02*
G75*
G03*
X6587500Y-9047000I0J25000D01*
G01*
D13*
X6562500Y-9911000D02*
X6562500Y-9961000D01*
X6537500Y-9936000D02*
X6587500Y-9936000D01*
D11*
X6587500Y-9911000D02*
X6537500Y-9911000D01*
X6537500Y-9911000D02*
G75*
G03*
X6537500Y-9961000I0J-25000D01*
G01*
X6537500Y-9961000D02*
X6587500Y-9961000D01*
X6587500Y-9961000D02*
G75*
G03*
X6587500Y-9911000I0J25000D01*
G01*
D14*
X6943213Y-9506713D02*
X6943213Y-9464287D01*
X6900787Y-9464287D01*
X6900787Y-9506713D01*
X6943213Y-9506713D01*
X6943213Y-9678213D02*
X6943213Y-9635787D01*
X6900787Y-9635787D01*
X6900787Y-9678213D01*
X6943213Y-9678213D01*
X6945213Y-9335213D02*
X6945213Y-9292787D01*
X6902787Y-9292787D01*
X6902787Y-9335213D01*
X6945213Y-9335213D01*
X7094213Y-9506713D02*
X7094213Y-9464287D01*
X7051787Y-9464287D01*
X7051787Y-9506713D01*
X7094213Y-9506713D01*
X7094213Y-9678213D02*
X7094213Y-9635787D01*
X7051787Y-9635787D01*
X7051787Y-9678213D01*
X7094213Y-9678213D01*
X7096213Y-9335213D02*
X7096213Y-9292787D01*
X7053787Y-9292787D01*
X7053787Y-9335213D01*
X7096213Y-9335213D01*
X7193213Y-8786213D02*
X7193213Y-8743787D01*
X7150787Y-8743787D01*
X7150787Y-8786213D01*
X7193213Y-8786213D01*
X7195213Y-8969213D02*
X7195213Y-8926787D01*
X7152787Y-8926787D01*
X7152787Y-8969213D01*
X7195213Y-8969213D01*
X8676213Y-12183213D02*
X8676213Y-12140787D01*
X8633787Y-12140787D01*
X8633787Y-12183213D01*
X8676213Y-12183213D01*
X8676213Y-12348213D02*
X8676213Y-12305787D01*
X8633787Y-12305787D01*
X8633787Y-12348213D01*
X8676213Y-12348213D01*
X8823213Y-12183213D02*
X8823213Y-12140787D01*
X8780787Y-12140787D01*
X8780787Y-12183213D01*
X8823213Y-12183213D01*
X11340500Y-9796500D02*
X11370500Y-9766500D01*
X11340500Y-9736500D01*
X11310500Y-9766500D01*
X11340500Y-9796500D01*
X11341500Y-9926500D02*
X11371500Y-9896500D01*
X11341500Y-9866500D01*
X11311500Y-9896500D01*
X11341500Y-9926500D01*
X11343500Y-10062500D02*
X11373500Y-10032500D01*
X11343500Y-10002500D01*
X11313500Y-10032500D01*
X11343500Y-10062500D01*
X11470500Y-9796500D02*
X11500500Y-9766500D01*
X11470500Y-9736500D01*
X11440500Y-9766500D01*
X11470500Y-9796500D01*
X11471500Y-9926500D02*
X11501500Y-9896500D01*
X11471500Y-9866500D01*
X11441500Y-9896500D01*
X11471500Y-9926500D01*
X11473500Y-10062500D02*
X11503500Y-10032500D01*
X11473500Y-10002500D01*
X11443500Y-10032500D01*
X11473500Y-10062500D01*
X11599500Y-9791500D02*
X11629500Y-9761500D01*
X11599500Y-9731500D01*
X11569500Y-9761500D01*
X11599500Y-9791500D01*
X11600500Y-9921500D02*
X11630500Y-9891500D01*
X11600500Y-9861500D01*
X11570500Y-9891500D01*
X11600500Y-9921500D01*
X11602500Y-10057500D02*
X11632500Y-10027500D01*
X11602500Y-9997500D01*
X11572500Y-10027500D01*
X11602500Y-10057500D01*
D15*
X6160000Y-12920000D02*
X6380000Y-13140000D01*
X6380000Y-12920000D02*
X6160000Y-13140000D01*
X6380000Y-13030000D02*
G75*
G03*
X6380000Y-13030000I-110000J0D01*
G01*
X6162327Y-8322327D02*
X6382327Y-8542327D01*
X6382327Y-8322327D02*
X6162327Y-8542327D01*
X6382327Y-8432327D02*
G75*
G03*
X6382327Y-8432327I-110000J0D01*
G01*
X12659000Y-12918000D02*
X12879000Y-13138000D01*
X12879000Y-12918000D02*
X12659000Y-13138000D01*
X12879000Y-13028000D02*
G75*
G03*
X12879000Y-13028000I-110000J0D01*
G01*
D11*
X6262619Y-13599524D02*
X6262619Y-13399524D01*
X6262619Y-13399524D02*
X6310238Y-13399524D01*
X6310238Y-13399524D02*
X6338809Y-13409048D01*
X6338809Y-13409048D02*
X6357857Y-13428095D01*
X6357857Y-13428095D02*
X6367381Y-13447143D01*
X6367381Y-13447143D02*
X6376905Y-13485238D01*
X6376905Y-13485238D02*
X6376905Y-13513809D01*
X6376905Y-13513809D02*
X6367381Y-13551905D01*
X6367381Y-13551905D02*
X6357857Y-13570952D01*
X6357857Y-13570952D02*
X6338809Y-13590000D01*
X6338809Y-13590000D02*
X6310238Y-13599524D01*
X6310238Y-13599524D02*
X6262619Y-13599524D01*
X6462619Y-13599524D02*
X6462619Y-13466190D01*
X6462619Y-13504286D02*
X6472143Y-13485238D01*
X6472143Y-13485238D02*
X6481667Y-13475714D01*
X6481667Y-13475714D02*
X6500714Y-13466190D01*
X6500714Y-13466190D02*
X6519762Y-13466190D01*
X6586428Y-13599524D02*
X6586428Y-13466190D01*
X6586428Y-13399524D02*
X6576905Y-13409048D01*
X6576905Y-13409048D02*
X6586428Y-13418571D01*
X6586428Y-13418571D02*
X6595952Y-13409048D01*
X6595952Y-13409048D02*
X6586428Y-13399524D01*
X6586428Y-13399524D02*
X6586428Y-13418571D01*
X6710238Y-13599524D02*
X6691190Y-13590000D01*
X6691190Y-13590000D02*
X6681667Y-13570952D01*
X6681667Y-13570952D02*
X6681667Y-13399524D01*
X6815000Y-13599524D02*
X6795952Y-13590000D01*
X6795952Y-13590000D02*
X6786428Y-13570952D01*
X6786428Y-13570952D02*
X6786428Y-13399524D01*
X7043571Y-13599524D02*
X7043571Y-13399524D01*
X7043571Y-13399524D02*
X7110238Y-13542381D01*
X7110238Y-13542381D02*
X7176905Y-13399524D01*
X7176905Y-13399524D02*
X7176905Y-13599524D01*
X7357857Y-13599524D02*
X7357857Y-13494762D01*
X7357857Y-13494762D02*
X7348333Y-13475714D01*
X7348333Y-13475714D02*
X7329286Y-13466190D01*
X7329286Y-13466190D02*
X7291190Y-13466190D01*
X7291190Y-13466190D02*
X7272143Y-13475714D01*
X7357857Y-13590000D02*
X7338809Y-13599524D01*
X7338809Y-13599524D02*
X7291190Y-13599524D01*
X7291190Y-13599524D02*
X7272143Y-13590000D01*
X7272143Y-13590000D02*
X7262619Y-13570952D01*
X7262619Y-13570952D02*
X7262619Y-13551905D01*
X7262619Y-13551905D02*
X7272143Y-13532857D01*
X7272143Y-13532857D02*
X7291190Y-13523333D01*
X7291190Y-13523333D02*
X7338809Y-13523333D01*
X7338809Y-13523333D02*
X7357857Y-13513809D01*
X7453095Y-13466190D02*
X7453095Y-13666190D01*
X7453095Y-13475714D02*
X7472143Y-13466190D01*
X7472143Y-13466190D02*
X7510238Y-13466190D01*
X7510238Y-13466190D02*
X7529286Y-13475714D01*
X7529286Y-13475714D02*
X7538809Y-13485238D01*
X7538809Y-13485238D02*
X7548333Y-13504286D01*
X7548333Y-13504286D02*
X7548333Y-13561428D01*
X7548333Y-13561428D02*
X7538809Y-13580476D01*
X7538809Y-13580476D02*
X7529286Y-13590000D01*
X7529286Y-13590000D02*
X7510238Y-13599524D01*
X7510238Y-13599524D02*
X7472143Y-13599524D01*
X7472143Y-13599524D02*
X7453095Y-13590000D01*
X7634048Y-13580476D02*
X7643571Y-13590000D01*
X7643571Y-13590000D02*
X7634048Y-13599524D01*
X7634048Y-13599524D02*
X7624524Y-13590000D01*
X7624524Y-13590000D02*
X7634048Y-13580476D01*
X7634048Y-13580476D02*
X7634048Y-13599524D01*
X7634048Y-13475714D02*
X7643571Y-13485238D01*
X7643571Y-13485238D02*
X7634048Y-13494762D01*
X7634048Y-13494762D02*
X7624524Y-13485238D01*
X7624524Y-13485238D02*
X7634048Y-13475714D01*
X7634048Y-13475714D02*
X7634048Y-13494762D01*
D12*
X5975000Y-13907000D02*
X6015000Y-13947000D01*
X6015000Y-13907000D02*
X5975000Y-13947000D01*
D11*
X6300714Y-13819524D02*
X6319762Y-13819524D01*
X6319762Y-13819524D02*
X6338809Y-13829048D01*
X6338809Y-13829048D02*
X6348333Y-13838571D01*
X6348333Y-13838571D02*
X6357857Y-13857619D01*
X6357857Y-13857619D02*
X6367381Y-13895714D01*
X6367381Y-13895714D02*
X6367381Y-13943333D01*
X6367381Y-13943333D02*
X6357857Y-13981428D01*
X6357857Y-13981428D02*
X6348333Y-14000476D01*
X6348333Y-14000476D02*
X6338809Y-14010000D01*
X6338809Y-14010000D02*
X6319762Y-14019524D01*
X6319762Y-14019524D02*
X6300714Y-14019524D01*
X6300714Y-14019524D02*
X6281667Y-14010000D01*
X6281667Y-14010000D02*
X6272143Y-14000476D01*
X6272143Y-14000476D02*
X6262619Y-13981428D01*
X6262619Y-13981428D02*
X6253095Y-13943333D01*
X6253095Y-13943333D02*
X6253095Y-13895714D01*
X6253095Y-13895714D02*
X6262619Y-13857619D01*
X6262619Y-13857619D02*
X6272143Y-13838571D01*
X6272143Y-13838571D02*
X6281667Y-13829048D01*
X6281667Y-13829048D02*
X6300714Y-13819524D01*
X6453095Y-14000476D02*
X6462619Y-14010000D01*
X6462619Y-14010000D02*
X6453095Y-14019524D01*
X6453095Y-14019524D02*
X6443571Y-14010000D01*
X6443571Y-14010000D02*
X6453095Y-14000476D01*
X6453095Y-14000476D02*
X6453095Y-14019524D01*
X6634048Y-13886190D02*
X6634048Y-14019524D01*
X6586428Y-13810000D02*
X6538809Y-13952857D01*
X6538809Y-13952857D02*
X6662619Y-13952857D01*
X6776905Y-13819524D02*
X6795952Y-13819524D01*
X6795952Y-13819524D02*
X6815000Y-13829048D01*
X6815000Y-13829048D02*
X6824524Y-13838571D01*
X6824524Y-13838571D02*
X6834048Y-13857619D01*
X6834048Y-13857619D02*
X6843571Y-13895714D01*
X6843571Y-13895714D02*
X6843571Y-13943333D01*
X6843571Y-13943333D02*
X6834048Y-13981428D01*
X6834048Y-13981428D02*
X6824524Y-14000476D01*
X6824524Y-14000476D02*
X6815000Y-14010000D01*
X6815000Y-14010000D02*
X6795952Y-14019524D01*
X6795952Y-14019524D02*
X6776905Y-14019524D01*
X6776905Y-14019524D02*
X6757857Y-14010000D01*
X6757857Y-14010000D02*
X6748333Y-14000476D01*
X6748333Y-14000476D02*
X6738809Y-13981428D01*
X6738809Y-13981428D02*
X6729286Y-13943333D01*
X6729286Y-13943333D02*
X6729286Y-13895714D01*
X6729286Y-13895714D02*
X6738809Y-13857619D01*
X6738809Y-13857619D02*
X6748333Y-13838571D01*
X6748333Y-13838571D02*
X6757857Y-13829048D01*
X6757857Y-13829048D02*
X6776905Y-13819524D01*
X6967381Y-13819524D02*
X6986429Y-13819524D01*
X6986429Y-13819524D02*
X7005476Y-13829048D01*
X7005476Y-13829048D02*
X7015000Y-13838571D01*
X7015000Y-13838571D02*
X7024524Y-13857619D01*
X7024524Y-13857619D02*
X7034048Y-13895714D01*
X7034048Y-13895714D02*
X7034048Y-13943333D01*
X7034048Y-13943333D02*
X7024524Y-13981428D01*
X7024524Y-13981428D02*
X7015000Y-14000476D01*
X7015000Y-14000476D02*
X7005476Y-14010000D01*
X7005476Y-14010000D02*
X6986429Y-14019524D01*
X6986429Y-14019524D02*
X6967381Y-14019524D01*
X6967381Y-14019524D02*
X6948333Y-14010000D01*
X6948333Y-14010000D02*
X6938809Y-14000476D01*
X6938809Y-14000476D02*
X6929286Y-13981428D01*
X6929286Y-13981428D02*
X6919762Y-13943333D01*
X6919762Y-13943333D02*
X6919762Y-13895714D01*
X6919762Y-13895714D02*
X6929286Y-13857619D01*
X6929286Y-13857619D02*
X6938809Y-13838571D01*
X6938809Y-13838571D02*
X6948333Y-13829048D01*
X6948333Y-13829048D02*
X6967381Y-13819524D01*
X7119762Y-14019524D02*
X7119762Y-13886190D01*
X7119762Y-13905238D02*
X7129286Y-13895714D01*
X7129286Y-13895714D02*
X7148333Y-13886190D01*
X7148333Y-13886190D02*
X7176905Y-13886190D01*
X7176905Y-13886190D02*
X7195952Y-13895714D01*
X7195952Y-13895714D02*
X7205476Y-13914762D01*
X7205476Y-13914762D02*
X7205476Y-14019524D01*
X7205476Y-13914762D02*
X7215000Y-13895714D01*
X7215000Y-13895714D02*
X7234048Y-13886190D01*
X7234048Y-13886190D02*
X7262619Y-13886190D01*
X7262619Y-13886190D02*
X7281667Y-13895714D01*
X7281667Y-13895714D02*
X7291190Y-13914762D01*
X7291190Y-13914762D02*
X7291190Y-14019524D01*
X7386429Y-14019524D02*
X7386429Y-13886190D01*
X7386429Y-13905238D02*
X7395952Y-13895714D01*
X7395952Y-13895714D02*
X7415000Y-13886190D01*
X7415000Y-13886190D02*
X7443571Y-13886190D01*
X7443571Y-13886190D02*
X7462619Y-13895714D01*
X7462619Y-13895714D02*
X7472143Y-13914762D01*
X7472143Y-13914762D02*
X7472143Y-14019524D01*
X7472143Y-13914762D02*
X7481667Y-13895714D01*
X7481667Y-13895714D02*
X7500714Y-13886190D01*
X7500714Y-13886190D02*
X7529286Y-13886190D01*
X7529286Y-13886190D02*
X7548333Y-13895714D01*
X7548333Y-13895714D02*
X7557857Y-13914762D01*
X7557857Y-13914762D02*
X7557857Y-14019524D01*
X7948333Y-13810000D02*
X7776905Y-14067143D01*
X8205476Y-13819524D02*
X8224524Y-13819524D01*
X8224524Y-13819524D02*
X8243572Y-13829048D01*
X8243572Y-13829048D02*
X8253095Y-13838571D01*
X8253095Y-13838571D02*
X8262619Y-13857619D01*
X8262619Y-13857619D02*
X8272143Y-13895714D01*
X8272143Y-13895714D02*
X8272143Y-13943333D01*
X8272143Y-13943333D02*
X8262619Y-13981428D01*
X8262619Y-13981428D02*
X8253095Y-14000476D01*
X8253095Y-14000476D02*
X8243572Y-14010000D01*
X8243572Y-14010000D02*
X8224524Y-14019524D01*
X8224524Y-14019524D02*
X8205476Y-14019524D01*
X8205476Y-14019524D02*
X8186429Y-14010000D01*
X8186429Y-14010000D02*
X8176905Y-14000476D01*
X8176905Y-14000476D02*
X8167381Y-13981428D01*
X8167381Y-13981428D02*
X8157857Y-13943333D01*
X8157857Y-13943333D02*
X8157857Y-13895714D01*
X8157857Y-13895714D02*
X8167381Y-13857619D01*
X8167381Y-13857619D02*
X8176905Y-13838571D01*
X8176905Y-13838571D02*
X8186429Y-13829048D01*
X8186429Y-13829048D02*
X8205476Y-13819524D01*
X8357857Y-14000476D02*
X8367381Y-14010000D01*
X8367381Y-14010000D02*
X8357857Y-14019524D01*
X8357857Y-14019524D02*
X8348333Y-14010000D01*
X8348333Y-14010000D02*
X8357857Y-14000476D01*
X8357857Y-14000476D02*
X8357857Y-14019524D01*
X8491191Y-13819524D02*
X8510238Y-13819524D01*
X8510238Y-13819524D02*
X8529286Y-13829048D01*
X8529286Y-13829048D02*
X8538810Y-13838571D01*
X8538810Y-13838571D02*
X8548334Y-13857619D01*
X8548334Y-13857619D02*
X8557857Y-13895714D01*
X8557857Y-13895714D02*
X8557857Y-13943333D01*
X8557857Y-13943333D02*
X8548334Y-13981428D01*
X8548334Y-13981428D02*
X8538810Y-14000476D01*
X8538810Y-14000476D02*
X8529286Y-14010000D01*
X8529286Y-14010000D02*
X8510238Y-14019524D01*
X8510238Y-14019524D02*
X8491191Y-14019524D01*
X8491191Y-14019524D02*
X8472143Y-14010000D01*
X8472143Y-14010000D02*
X8462619Y-14000476D01*
X8462619Y-14000476D02*
X8453095Y-13981428D01*
X8453095Y-13981428D02*
X8443572Y-13943333D01*
X8443572Y-13943333D02*
X8443572Y-13895714D01*
X8443572Y-13895714D02*
X8453095Y-13857619D01*
X8453095Y-13857619D02*
X8462619Y-13838571D01*
X8462619Y-13838571D02*
X8472143Y-13829048D01*
X8472143Y-13829048D02*
X8491191Y-13819524D01*
X8748334Y-14019524D02*
X8634048Y-14019524D01*
X8691191Y-14019524D02*
X8691191Y-13819524D01*
X8691191Y-13819524D02*
X8672143Y-13848095D01*
X8672143Y-13848095D02*
X8653095Y-13867143D01*
X8653095Y-13867143D02*
X8634048Y-13876667D01*
X8929286Y-13819524D02*
X8834048Y-13819524D01*
X8834048Y-13819524D02*
X8824524Y-13914762D01*
X8824524Y-13914762D02*
X8834048Y-13905238D01*
X8834048Y-13905238D02*
X8853095Y-13895714D01*
X8853095Y-13895714D02*
X8900715Y-13895714D01*
X8900715Y-13895714D02*
X8919762Y-13905238D01*
X8919762Y-13905238D02*
X8929286Y-13914762D01*
X8929286Y-13914762D02*
X8938810Y-13933809D01*
X8938810Y-13933809D02*
X8938810Y-13981428D01*
X8938810Y-13981428D02*
X8929286Y-14000476D01*
X8929286Y-14000476D02*
X8919762Y-14010000D01*
X8919762Y-14010000D02*
X8900715Y-14019524D01*
X8900715Y-14019524D02*
X8853095Y-14019524D01*
X8853095Y-14019524D02*
X8834048Y-14010000D01*
X8834048Y-14010000D02*
X8824524Y-14000476D01*
X9005476Y-13819524D02*
X9138810Y-13819524D01*
X9138810Y-13819524D02*
X9053095Y-14019524D01*
X9205476Y-13819524D02*
X9205476Y-13857619D01*
X9281667Y-13819524D02*
X9281667Y-13857619D01*
X9576905Y-14095714D02*
X9567381Y-14086190D01*
X9567381Y-14086190D02*
X9548334Y-14057619D01*
X9548334Y-14057619D02*
X9538810Y-14038571D01*
X9538810Y-14038571D02*
X9529286Y-14010000D01*
X9529286Y-14010000D02*
X9519762Y-13962381D01*
X9519762Y-13962381D02*
X9519762Y-13924286D01*
X9519762Y-13924286D02*
X9529286Y-13876667D01*
X9529286Y-13876667D02*
X9538810Y-13848095D01*
X9538810Y-13848095D02*
X9548334Y-13829048D01*
X9548334Y-13829048D02*
X9567381Y-13800476D01*
X9567381Y-13800476D02*
X9576905Y-13790952D01*
X9757857Y-14019524D02*
X9643572Y-14019524D01*
X9700715Y-14019524D02*
X9700715Y-13819524D01*
X9700715Y-13819524D02*
X9681667Y-13848095D01*
X9681667Y-13848095D02*
X9662619Y-13867143D01*
X9662619Y-13867143D02*
X9643572Y-13876667D01*
X9929286Y-13819524D02*
X9891191Y-13819524D01*
X9891191Y-13819524D02*
X9872143Y-13829048D01*
X9872143Y-13829048D02*
X9862619Y-13838571D01*
X9862619Y-13838571D02*
X9843572Y-13867143D01*
X9843572Y-13867143D02*
X9834048Y-13905238D01*
X9834048Y-13905238D02*
X9834048Y-13981428D01*
X9834048Y-13981428D02*
X9843572Y-14000476D01*
X9843572Y-14000476D02*
X9853096Y-14010000D01*
X9853096Y-14010000D02*
X9872143Y-14019524D01*
X9872143Y-14019524D02*
X9910238Y-14019524D01*
X9910238Y-14019524D02*
X9929286Y-14010000D01*
X9929286Y-14010000D02*
X9938810Y-14000476D01*
X9938810Y-14000476D02*
X9948334Y-13981428D01*
X9948334Y-13981428D02*
X9948334Y-13933809D01*
X9948334Y-13933809D02*
X9938810Y-13914762D01*
X9938810Y-13914762D02*
X9929286Y-13905238D01*
X9929286Y-13905238D02*
X9910238Y-13895714D01*
X9910238Y-13895714D02*
X9872143Y-13895714D01*
X9872143Y-13895714D02*
X9853096Y-13905238D01*
X9853096Y-13905238D02*
X9843572Y-13914762D01*
X9843572Y-13914762D02*
X9834048Y-13933809D01*
X10015000Y-13819524D02*
X10138810Y-13819524D01*
X10138810Y-13819524D02*
X10072143Y-13895714D01*
X10072143Y-13895714D02*
X10100715Y-13895714D01*
X10100715Y-13895714D02*
X10119762Y-13905238D01*
X10119762Y-13905238D02*
X10129286Y-13914762D01*
X10129286Y-13914762D02*
X10138810Y-13933809D01*
X10138810Y-13933809D02*
X10138810Y-13981428D01*
X10138810Y-13981428D02*
X10129286Y-14000476D01*
X10129286Y-14000476D02*
X10119762Y-14010000D01*
X10119762Y-14010000D02*
X10100715Y-14019524D01*
X10100715Y-14019524D02*
X10043572Y-14019524D01*
X10043572Y-14019524D02*
X10024524Y-14010000D01*
X10024524Y-14010000D02*
X10015000Y-14000476D01*
X10376905Y-14019524D02*
X10376905Y-13819524D01*
X10462619Y-14019524D02*
X10462619Y-13914762D01*
X10462619Y-13914762D02*
X10453096Y-13895714D01*
X10453096Y-13895714D02*
X10434048Y-13886190D01*
X10434048Y-13886190D02*
X10405477Y-13886190D01*
X10405477Y-13886190D02*
X10386429Y-13895714D01*
X10386429Y-13895714D02*
X10376905Y-13905238D01*
X10586429Y-14019524D02*
X10567381Y-14010000D01*
X10567381Y-14010000D02*
X10557858Y-14000476D01*
X10557858Y-14000476D02*
X10548334Y-13981428D01*
X10548334Y-13981428D02*
X10548334Y-13924286D01*
X10548334Y-13924286D02*
X10557858Y-13905238D01*
X10557858Y-13905238D02*
X10567381Y-13895714D01*
X10567381Y-13895714D02*
X10586429Y-13886190D01*
X10586429Y-13886190D02*
X10615000Y-13886190D01*
X10615000Y-13886190D02*
X10634048Y-13895714D01*
X10634048Y-13895714D02*
X10643572Y-13905238D01*
X10643572Y-13905238D02*
X10653096Y-13924286D01*
X10653096Y-13924286D02*
X10653096Y-13981428D01*
X10653096Y-13981428D02*
X10643572Y-14000476D01*
X10643572Y-14000476D02*
X10634048Y-14010000D01*
X10634048Y-14010000D02*
X10615000Y-14019524D01*
X10615000Y-14019524D02*
X10586429Y-14019524D01*
X10767381Y-14019524D02*
X10748334Y-14010000D01*
X10748334Y-14010000D02*
X10738810Y-13990952D01*
X10738810Y-13990952D02*
X10738810Y-13819524D01*
X10919762Y-14010000D02*
X10900715Y-14019524D01*
X10900715Y-14019524D02*
X10862619Y-14019524D01*
X10862619Y-14019524D02*
X10843572Y-14010000D01*
X10843572Y-14010000D02*
X10834048Y-13990952D01*
X10834048Y-13990952D02*
X10834048Y-13914762D01*
X10834048Y-13914762D02*
X10843572Y-13895714D01*
X10843572Y-13895714D02*
X10862619Y-13886190D01*
X10862619Y-13886190D02*
X10900715Y-13886190D01*
X10900715Y-13886190D02*
X10919762Y-13895714D01*
X10919762Y-13895714D02*
X10929286Y-13914762D01*
X10929286Y-13914762D02*
X10929286Y-13933809D01*
X10929286Y-13933809D02*
X10834048Y-13952857D01*
X11005477Y-14010000D02*
X11024524Y-14019524D01*
X11024524Y-14019524D02*
X11062619Y-14019524D01*
X11062619Y-14019524D02*
X11081667Y-14010000D01*
X11081667Y-14010000D02*
X11091191Y-13990952D01*
X11091191Y-13990952D02*
X11091191Y-13981428D01*
X11091191Y-13981428D02*
X11081667Y-13962381D01*
X11081667Y-13962381D02*
X11062619Y-13952857D01*
X11062619Y-13952857D02*
X11034048Y-13952857D01*
X11034048Y-13952857D02*
X11015000Y-13943333D01*
X11015000Y-13943333D02*
X11005477Y-13924286D01*
X11005477Y-13924286D02*
X11005477Y-13914762D01*
X11005477Y-13914762D02*
X11015000Y-13895714D01*
X11015000Y-13895714D02*
X11034048Y-13886190D01*
X11034048Y-13886190D02*
X11062619Y-13886190D01*
X11062619Y-13886190D02*
X11081667Y-13895714D01*
X11157858Y-14095714D02*
X11167381Y-14086190D01*
X11167381Y-14086190D02*
X11186429Y-14057619D01*
X11186429Y-14057619D02*
X11195953Y-14038571D01*
X11195953Y-14038571D02*
X11205477Y-14010000D01*
X11205477Y-14010000D02*
X11215000Y-13962381D01*
X11215000Y-13962381D02*
X11215000Y-13924286D01*
X11215000Y-13924286D02*
X11205477Y-13876667D01*
X11205477Y-13876667D02*
X11195953Y-13848095D01*
X11195953Y-13848095D02*
X11186429Y-13829048D01*
X11186429Y-13829048D02*
X11167381Y-13800476D01*
X11167381Y-13800476D02*
X11157858Y-13790952D01*
D12*
X6015000Y-14191000D02*
G75*
G03*
X6015000Y-14191000I-20000J0D01*
G01*
D11*
X6300714Y-14083524D02*
X6319762Y-14083524D01*
X6319762Y-14083524D02*
X6338809Y-14093048D01*
X6338809Y-14093048D02*
X6348333Y-14102571D01*
X6348333Y-14102571D02*
X6357857Y-14121619D01*
X6357857Y-14121619D02*
X6367381Y-14159714D01*
X6367381Y-14159714D02*
X6367381Y-14207333D01*
X6367381Y-14207333D02*
X6357857Y-14245428D01*
X6357857Y-14245428D02*
X6348333Y-14264476D01*
X6348333Y-14264476D02*
X6338809Y-14274000D01*
X6338809Y-14274000D02*
X6319762Y-14283524D01*
X6319762Y-14283524D02*
X6300714Y-14283524D01*
X6300714Y-14283524D02*
X6281667Y-14274000D01*
X6281667Y-14274000D02*
X6272143Y-14264476D01*
X6272143Y-14264476D02*
X6262619Y-14245428D01*
X6262619Y-14245428D02*
X6253095Y-14207333D01*
X6253095Y-14207333D02*
X6253095Y-14159714D01*
X6253095Y-14159714D02*
X6262619Y-14121619D01*
X6262619Y-14121619D02*
X6272143Y-14102571D01*
X6272143Y-14102571D02*
X6281667Y-14093048D01*
X6281667Y-14093048D02*
X6300714Y-14083524D01*
X6453095Y-14264476D02*
X6462619Y-14274000D01*
X6462619Y-14274000D02*
X6453095Y-14283524D01*
X6453095Y-14283524D02*
X6443571Y-14274000D01*
X6443571Y-14274000D02*
X6453095Y-14264476D01*
X6453095Y-14264476D02*
X6453095Y-14283524D01*
X6634048Y-14150190D02*
X6634048Y-14283524D01*
X6586428Y-14074000D02*
X6538809Y-14216857D01*
X6538809Y-14216857D02*
X6662619Y-14216857D01*
X6776905Y-14083524D02*
X6795952Y-14083524D01*
X6795952Y-14083524D02*
X6815000Y-14093048D01*
X6815000Y-14093048D02*
X6824524Y-14102571D01*
X6824524Y-14102571D02*
X6834048Y-14121619D01*
X6834048Y-14121619D02*
X6843571Y-14159714D01*
X6843571Y-14159714D02*
X6843571Y-14207333D01*
X6843571Y-14207333D02*
X6834048Y-14245428D01*
X6834048Y-14245428D02*
X6824524Y-14264476D01*
X6824524Y-14264476D02*
X6815000Y-14274000D01*
X6815000Y-14274000D02*
X6795952Y-14283524D01*
X6795952Y-14283524D02*
X6776905Y-14283524D01*
X6776905Y-14283524D02*
X6757857Y-14274000D01*
X6757857Y-14274000D02*
X6748333Y-14264476D01*
X6748333Y-14264476D02*
X6738809Y-14245428D01*
X6738809Y-14245428D02*
X6729286Y-14207333D01*
X6729286Y-14207333D02*
X6729286Y-14159714D01*
X6729286Y-14159714D02*
X6738809Y-14121619D01*
X6738809Y-14121619D02*
X6748333Y-14102571D01*
X6748333Y-14102571D02*
X6757857Y-14093048D01*
X6757857Y-14093048D02*
X6776905Y-14083524D01*
X6967381Y-14083524D02*
X6986429Y-14083524D01*
X6986429Y-14083524D02*
X7005476Y-14093048D01*
X7005476Y-14093048D02*
X7015000Y-14102571D01*
X7015000Y-14102571D02*
X7024524Y-14121619D01*
X7024524Y-14121619D02*
X7034048Y-14159714D01*
X7034048Y-14159714D02*
X7034048Y-14207333D01*
X7034048Y-14207333D02*
X7024524Y-14245428D01*
X7024524Y-14245428D02*
X7015000Y-14264476D01*
X7015000Y-14264476D02*
X7005476Y-14274000D01*
X7005476Y-14274000D02*
X6986429Y-14283524D01*
X6986429Y-14283524D02*
X6967381Y-14283524D01*
X6967381Y-14283524D02*
X6948333Y-14274000D01*
X6948333Y-14274000D02*
X6938809Y-14264476D01*
X6938809Y-14264476D02*
X6929286Y-14245428D01*
X6929286Y-14245428D02*
X6919762Y-14207333D01*
X6919762Y-14207333D02*
X6919762Y-14159714D01*
X6919762Y-14159714D02*
X6929286Y-14121619D01*
X6929286Y-14121619D02*
X6938809Y-14102571D01*
X6938809Y-14102571D02*
X6948333Y-14093048D01*
X6948333Y-14093048D02*
X6967381Y-14083524D01*
X7119762Y-14283524D02*
X7119762Y-14150190D01*
X7119762Y-14169238D02*
X7129286Y-14159714D01*
X7129286Y-14159714D02*
X7148333Y-14150190D01*
X7148333Y-14150190D02*
X7176905Y-14150190D01*
X7176905Y-14150190D02*
X7195952Y-14159714D01*
X7195952Y-14159714D02*
X7205476Y-14178762D01*
X7205476Y-14178762D02*
X7205476Y-14283524D01*
X7205476Y-14178762D02*
X7215000Y-14159714D01*
X7215000Y-14159714D02*
X7234048Y-14150190D01*
X7234048Y-14150190D02*
X7262619Y-14150190D01*
X7262619Y-14150190D02*
X7281667Y-14159714D01*
X7281667Y-14159714D02*
X7291190Y-14178762D01*
X7291190Y-14178762D02*
X7291190Y-14283524D01*
X7386429Y-14283524D02*
X7386429Y-14150190D01*
X7386429Y-14169238D02*
X7395952Y-14159714D01*
X7395952Y-14159714D02*
X7415000Y-14150190D01*
X7415000Y-14150190D02*
X7443571Y-14150190D01*
X7443571Y-14150190D02*
X7462619Y-14159714D01*
X7462619Y-14159714D02*
X7472143Y-14178762D01*
X7472143Y-14178762D02*
X7472143Y-14283524D01*
X7472143Y-14178762D02*
X7481667Y-14159714D01*
X7481667Y-14159714D02*
X7500714Y-14150190D01*
X7500714Y-14150190D02*
X7529286Y-14150190D01*
X7529286Y-14150190D02*
X7548333Y-14159714D01*
X7548333Y-14159714D02*
X7557857Y-14178762D01*
X7557857Y-14178762D02*
X7557857Y-14283524D01*
X7948333Y-14074000D02*
X7776905Y-14331143D01*
X8205476Y-14083524D02*
X8224524Y-14083524D01*
X8224524Y-14083524D02*
X8243572Y-14093048D01*
X8243572Y-14093048D02*
X8253095Y-14102571D01*
X8253095Y-14102571D02*
X8262619Y-14121619D01*
X8262619Y-14121619D02*
X8272143Y-14159714D01*
X8272143Y-14159714D02*
X8272143Y-14207333D01*
X8272143Y-14207333D02*
X8262619Y-14245428D01*
X8262619Y-14245428D02*
X8253095Y-14264476D01*
X8253095Y-14264476D02*
X8243572Y-14274000D01*
X8243572Y-14274000D02*
X8224524Y-14283524D01*
X8224524Y-14283524D02*
X8205476Y-14283524D01*
X8205476Y-14283524D02*
X8186429Y-14274000D01*
X8186429Y-14274000D02*
X8176905Y-14264476D01*
X8176905Y-14264476D02*
X8167381Y-14245428D01*
X8167381Y-14245428D02*
X8157857Y-14207333D01*
X8157857Y-14207333D02*
X8157857Y-14159714D01*
X8157857Y-14159714D02*
X8167381Y-14121619D01*
X8167381Y-14121619D02*
X8176905Y-14102571D01*
X8176905Y-14102571D02*
X8186429Y-14093048D01*
X8186429Y-14093048D02*
X8205476Y-14083524D01*
X8357857Y-14264476D02*
X8367381Y-14274000D01*
X8367381Y-14274000D02*
X8357857Y-14283524D01*
X8357857Y-14283524D02*
X8348333Y-14274000D01*
X8348333Y-14274000D02*
X8357857Y-14264476D01*
X8357857Y-14264476D02*
X8357857Y-14283524D01*
X8491191Y-14083524D02*
X8510238Y-14083524D01*
X8510238Y-14083524D02*
X8529286Y-14093048D01*
X8529286Y-14093048D02*
X8538810Y-14102571D01*
X8538810Y-14102571D02*
X8548334Y-14121619D01*
X8548334Y-14121619D02*
X8557857Y-14159714D01*
X8557857Y-14159714D02*
X8557857Y-14207333D01*
X8557857Y-14207333D02*
X8548334Y-14245428D01*
X8548334Y-14245428D02*
X8538810Y-14264476D01*
X8538810Y-14264476D02*
X8529286Y-14274000D01*
X8529286Y-14274000D02*
X8510238Y-14283524D01*
X8510238Y-14283524D02*
X8491191Y-14283524D01*
X8491191Y-14283524D02*
X8472143Y-14274000D01*
X8472143Y-14274000D02*
X8462619Y-14264476D01*
X8462619Y-14264476D02*
X8453095Y-14245428D01*
X8453095Y-14245428D02*
X8443572Y-14207333D01*
X8443572Y-14207333D02*
X8443572Y-14159714D01*
X8443572Y-14159714D02*
X8453095Y-14121619D01*
X8453095Y-14121619D02*
X8462619Y-14102571D01*
X8462619Y-14102571D02*
X8472143Y-14093048D01*
X8472143Y-14093048D02*
X8491191Y-14083524D01*
X8748334Y-14283524D02*
X8634048Y-14283524D01*
X8691191Y-14283524D02*
X8691191Y-14083524D01*
X8691191Y-14083524D02*
X8672143Y-14112095D01*
X8672143Y-14112095D02*
X8653095Y-14131143D01*
X8653095Y-14131143D02*
X8634048Y-14140667D01*
X8929286Y-14083524D02*
X8834048Y-14083524D01*
X8834048Y-14083524D02*
X8824524Y-14178762D01*
X8824524Y-14178762D02*
X8834048Y-14169238D01*
X8834048Y-14169238D02*
X8853095Y-14159714D01*
X8853095Y-14159714D02*
X8900715Y-14159714D01*
X8900715Y-14159714D02*
X8919762Y-14169238D01*
X8919762Y-14169238D02*
X8929286Y-14178762D01*
X8929286Y-14178762D02*
X8938810Y-14197809D01*
X8938810Y-14197809D02*
X8938810Y-14245428D01*
X8938810Y-14245428D02*
X8929286Y-14264476D01*
X8929286Y-14264476D02*
X8919762Y-14274000D01*
X8919762Y-14274000D02*
X8900715Y-14283524D01*
X8900715Y-14283524D02*
X8853095Y-14283524D01*
X8853095Y-14283524D02*
X8834048Y-14274000D01*
X8834048Y-14274000D02*
X8824524Y-14264476D01*
X9005476Y-14083524D02*
X9138810Y-14083524D01*
X9138810Y-14083524D02*
X9053095Y-14283524D01*
X9205476Y-14083524D02*
X9205476Y-14121619D01*
X9281667Y-14083524D02*
X9281667Y-14121619D01*
X9576905Y-14359714D02*
X9567381Y-14350190D01*
X9567381Y-14350190D02*
X9548334Y-14321619D01*
X9548334Y-14321619D02*
X9538810Y-14302571D01*
X9538810Y-14302571D02*
X9529286Y-14274000D01*
X9529286Y-14274000D02*
X9519762Y-14226381D01*
X9519762Y-14226381D02*
X9519762Y-14188286D01*
X9519762Y-14188286D02*
X9529286Y-14140667D01*
X9529286Y-14140667D02*
X9538810Y-14112095D01*
X9538810Y-14112095D02*
X9548334Y-14093048D01*
X9548334Y-14093048D02*
X9567381Y-14064476D01*
X9567381Y-14064476D02*
X9576905Y-14054952D01*
X9643572Y-14102571D02*
X9653096Y-14093048D01*
X9653096Y-14093048D02*
X9672143Y-14083524D01*
X9672143Y-14083524D02*
X9719762Y-14083524D01*
X9719762Y-14083524D02*
X9738810Y-14093048D01*
X9738810Y-14093048D02*
X9748334Y-14102571D01*
X9748334Y-14102571D02*
X9757857Y-14121619D01*
X9757857Y-14121619D02*
X9757857Y-14140667D01*
X9757857Y-14140667D02*
X9748334Y-14169238D01*
X9748334Y-14169238D02*
X9634048Y-14283524D01*
X9634048Y-14283524D02*
X9757857Y-14283524D01*
X9929286Y-14150190D02*
X9929286Y-14283524D01*
X9881667Y-14074000D02*
X9834048Y-14216857D01*
X9834048Y-14216857D02*
X9957857Y-14216857D01*
X10186429Y-14283524D02*
X10186429Y-14083524D01*
X10272143Y-14283524D02*
X10272143Y-14178762D01*
X10272143Y-14178762D02*
X10262619Y-14159714D01*
X10262619Y-14159714D02*
X10243572Y-14150190D01*
X10243572Y-14150190D02*
X10215000Y-14150190D01*
X10215000Y-14150190D02*
X10195953Y-14159714D01*
X10195953Y-14159714D02*
X10186429Y-14169238D01*
X10395953Y-14283524D02*
X10376905Y-14274000D01*
X10376905Y-14274000D02*
X10367381Y-14264476D01*
X10367381Y-14264476D02*
X10357858Y-14245428D01*
X10357858Y-14245428D02*
X10357858Y-14188286D01*
X10357858Y-14188286D02*
X10367381Y-14169238D01*
X10367381Y-14169238D02*
X10376905Y-14159714D01*
X10376905Y-14159714D02*
X10395953Y-14150190D01*
X10395953Y-14150190D02*
X10424524Y-14150190D01*
X10424524Y-14150190D02*
X10443572Y-14159714D01*
X10443572Y-14159714D02*
X10453096Y-14169238D01*
X10453096Y-14169238D02*
X10462619Y-14188286D01*
X10462619Y-14188286D02*
X10462619Y-14245428D01*
X10462619Y-14245428D02*
X10453096Y-14264476D01*
X10453096Y-14264476D02*
X10443572Y-14274000D01*
X10443572Y-14274000D02*
X10424524Y-14283524D01*
X10424524Y-14283524D02*
X10395953Y-14283524D01*
X10576905Y-14283524D02*
X10557858Y-14274000D01*
X10557858Y-14274000D02*
X10548334Y-14254952D01*
X10548334Y-14254952D02*
X10548334Y-14083524D01*
X10729286Y-14274000D02*
X10710239Y-14283524D01*
X10710239Y-14283524D02*
X10672143Y-14283524D01*
X10672143Y-14283524D02*
X10653096Y-14274000D01*
X10653096Y-14274000D02*
X10643572Y-14254952D01*
X10643572Y-14254952D02*
X10643572Y-14178762D01*
X10643572Y-14178762D02*
X10653096Y-14159714D01*
X10653096Y-14159714D02*
X10672143Y-14150190D01*
X10672143Y-14150190D02*
X10710239Y-14150190D01*
X10710239Y-14150190D02*
X10729286Y-14159714D01*
X10729286Y-14159714D02*
X10738810Y-14178762D01*
X10738810Y-14178762D02*
X10738810Y-14197809D01*
X10738810Y-14197809D02*
X10643572Y-14216857D01*
X10815000Y-14274000D02*
X10834048Y-14283524D01*
X10834048Y-14283524D02*
X10872143Y-14283524D01*
X10872143Y-14283524D02*
X10891191Y-14274000D01*
X10891191Y-14274000D02*
X10900715Y-14254952D01*
X10900715Y-14254952D02*
X10900715Y-14245428D01*
X10900715Y-14245428D02*
X10891191Y-14226381D01*
X10891191Y-14226381D02*
X10872143Y-14216857D01*
X10872143Y-14216857D02*
X10843572Y-14216857D01*
X10843572Y-14216857D02*
X10824524Y-14207333D01*
X10824524Y-14207333D02*
X10815000Y-14188286D01*
X10815000Y-14188286D02*
X10815000Y-14178762D01*
X10815000Y-14178762D02*
X10824524Y-14159714D01*
X10824524Y-14159714D02*
X10843572Y-14150190D01*
X10843572Y-14150190D02*
X10872143Y-14150190D01*
X10872143Y-14150190D02*
X10891191Y-14159714D01*
X10967381Y-14359714D02*
X10976905Y-14350190D01*
X10976905Y-14350190D02*
X10995953Y-14321619D01*
X10995953Y-14321619D02*
X11005477Y-14302571D01*
X11005477Y-14302571D02*
X11015000Y-14274000D01*
X11015000Y-14274000D02*
X11024524Y-14226381D01*
X11024524Y-14226381D02*
X11024524Y-14188286D01*
X11024524Y-14188286D02*
X11015000Y-14140667D01*
X11015000Y-14140667D02*
X11005477Y-14112095D01*
X11005477Y-14112095D02*
X10995953Y-14093048D01*
X10995953Y-14093048D02*
X10976905Y-14064476D01*
X10976905Y-14064476D02*
X10967381Y-14054952D01*
D13*
X5990000Y-14430000D02*
X5990000Y-14480000D01*
X5965000Y-14455000D02*
X6015000Y-14455000D01*
D11*
X6300714Y-14347524D02*
X6319762Y-14347524D01*
X6319762Y-14347524D02*
X6338809Y-14357048D01*
X6338809Y-14357048D02*
X6348333Y-14366571D01*
X6348333Y-14366571D02*
X6357857Y-14385619D01*
X6357857Y-14385619D02*
X6367381Y-14423714D01*
X6367381Y-14423714D02*
X6367381Y-14471333D01*
X6367381Y-14471333D02*
X6357857Y-14509428D01*
X6357857Y-14509428D02*
X6348333Y-14528476D01*
X6348333Y-14528476D02*
X6338809Y-14538000D01*
X6338809Y-14538000D02*
X6319762Y-14547524D01*
X6319762Y-14547524D02*
X6300714Y-14547524D01*
X6300714Y-14547524D02*
X6281667Y-14538000D01*
X6281667Y-14538000D02*
X6272143Y-14528476D01*
X6272143Y-14528476D02*
X6262619Y-14509428D01*
X6262619Y-14509428D02*
X6253095Y-14471333D01*
X6253095Y-14471333D02*
X6253095Y-14423714D01*
X6253095Y-14423714D02*
X6262619Y-14385619D01*
X6262619Y-14385619D02*
X6272143Y-14366571D01*
X6272143Y-14366571D02*
X6281667Y-14357048D01*
X6281667Y-14357048D02*
X6300714Y-14347524D01*
X6453095Y-14528476D02*
X6462619Y-14538000D01*
X6462619Y-14538000D02*
X6453095Y-14547524D01*
X6453095Y-14547524D02*
X6443571Y-14538000D01*
X6443571Y-14538000D02*
X6453095Y-14528476D01*
X6453095Y-14528476D02*
X6453095Y-14547524D01*
X6643571Y-14347524D02*
X6548333Y-14347524D01*
X6548333Y-14347524D02*
X6538809Y-14442762D01*
X6538809Y-14442762D02*
X6548333Y-14433238D01*
X6548333Y-14433238D02*
X6567381Y-14423714D01*
X6567381Y-14423714D02*
X6615000Y-14423714D01*
X6615000Y-14423714D02*
X6634048Y-14433238D01*
X6634048Y-14433238D02*
X6643571Y-14442762D01*
X6643571Y-14442762D02*
X6653095Y-14461809D01*
X6653095Y-14461809D02*
X6653095Y-14509428D01*
X6653095Y-14509428D02*
X6643571Y-14528476D01*
X6643571Y-14528476D02*
X6634048Y-14538000D01*
X6634048Y-14538000D02*
X6615000Y-14547524D01*
X6615000Y-14547524D02*
X6567381Y-14547524D01*
X6567381Y-14547524D02*
X6548333Y-14538000D01*
X6548333Y-14538000D02*
X6538809Y-14528476D01*
X6776905Y-14347524D02*
X6795952Y-14347524D01*
X6795952Y-14347524D02*
X6815000Y-14357048D01*
X6815000Y-14357048D02*
X6824524Y-14366571D01*
X6824524Y-14366571D02*
X6834048Y-14385619D01*
X6834048Y-14385619D02*
X6843571Y-14423714D01*
X6843571Y-14423714D02*
X6843571Y-14471333D01*
X6843571Y-14471333D02*
X6834048Y-14509428D01*
X6834048Y-14509428D02*
X6824524Y-14528476D01*
X6824524Y-14528476D02*
X6815000Y-14538000D01*
X6815000Y-14538000D02*
X6795952Y-14547524D01*
X6795952Y-14547524D02*
X6776905Y-14547524D01*
X6776905Y-14547524D02*
X6757857Y-14538000D01*
X6757857Y-14538000D02*
X6748333Y-14528476D01*
X6748333Y-14528476D02*
X6738809Y-14509428D01*
X6738809Y-14509428D02*
X6729286Y-14471333D01*
X6729286Y-14471333D02*
X6729286Y-14423714D01*
X6729286Y-14423714D02*
X6738809Y-14385619D01*
X6738809Y-14385619D02*
X6748333Y-14366571D01*
X6748333Y-14366571D02*
X6757857Y-14357048D01*
X6757857Y-14357048D02*
X6776905Y-14347524D01*
X6967381Y-14347524D02*
X6986429Y-14347524D01*
X6986429Y-14347524D02*
X7005476Y-14357048D01*
X7005476Y-14357048D02*
X7015000Y-14366571D01*
X7015000Y-14366571D02*
X7024524Y-14385619D01*
X7024524Y-14385619D02*
X7034048Y-14423714D01*
X7034048Y-14423714D02*
X7034048Y-14471333D01*
X7034048Y-14471333D02*
X7024524Y-14509428D01*
X7024524Y-14509428D02*
X7015000Y-14528476D01*
X7015000Y-14528476D02*
X7005476Y-14538000D01*
X7005476Y-14538000D02*
X6986429Y-14547524D01*
X6986429Y-14547524D02*
X6967381Y-14547524D01*
X6967381Y-14547524D02*
X6948333Y-14538000D01*
X6948333Y-14538000D02*
X6938809Y-14528476D01*
X6938809Y-14528476D02*
X6929286Y-14509428D01*
X6929286Y-14509428D02*
X6919762Y-14471333D01*
X6919762Y-14471333D02*
X6919762Y-14423714D01*
X6919762Y-14423714D02*
X6929286Y-14385619D01*
X6929286Y-14385619D02*
X6938809Y-14366571D01*
X6938809Y-14366571D02*
X6948333Y-14357048D01*
X6948333Y-14357048D02*
X6967381Y-14347524D01*
X7119762Y-14547524D02*
X7119762Y-14414190D01*
X7119762Y-14433238D02*
X7129286Y-14423714D01*
X7129286Y-14423714D02*
X7148333Y-14414190D01*
X7148333Y-14414190D02*
X7176905Y-14414190D01*
X7176905Y-14414190D02*
X7195952Y-14423714D01*
X7195952Y-14423714D02*
X7205476Y-14442762D01*
X7205476Y-14442762D02*
X7205476Y-14547524D01*
X7205476Y-14442762D02*
X7215000Y-14423714D01*
X7215000Y-14423714D02*
X7234048Y-14414190D01*
X7234048Y-14414190D02*
X7262619Y-14414190D01*
X7262619Y-14414190D02*
X7281667Y-14423714D01*
X7281667Y-14423714D02*
X7291190Y-14442762D01*
X7291190Y-14442762D02*
X7291190Y-14547524D01*
X7386429Y-14547524D02*
X7386429Y-14414190D01*
X7386429Y-14433238D02*
X7395952Y-14423714D01*
X7395952Y-14423714D02*
X7415000Y-14414190D01*
X7415000Y-14414190D02*
X7443571Y-14414190D01*
X7443571Y-14414190D02*
X7462619Y-14423714D01*
X7462619Y-14423714D02*
X7472143Y-14442762D01*
X7472143Y-14442762D02*
X7472143Y-14547524D01*
X7472143Y-14442762D02*
X7481667Y-14423714D01*
X7481667Y-14423714D02*
X7500714Y-14414190D01*
X7500714Y-14414190D02*
X7529286Y-14414190D01*
X7529286Y-14414190D02*
X7548333Y-14423714D01*
X7548333Y-14423714D02*
X7557857Y-14442762D01*
X7557857Y-14442762D02*
X7557857Y-14547524D01*
X7948333Y-14338000D02*
X7776905Y-14595143D01*
X8205476Y-14347524D02*
X8224524Y-14347524D01*
X8224524Y-14347524D02*
X8243572Y-14357048D01*
X8243572Y-14357048D02*
X8253095Y-14366571D01*
X8253095Y-14366571D02*
X8262619Y-14385619D01*
X8262619Y-14385619D02*
X8272143Y-14423714D01*
X8272143Y-14423714D02*
X8272143Y-14471333D01*
X8272143Y-14471333D02*
X8262619Y-14509428D01*
X8262619Y-14509428D02*
X8253095Y-14528476D01*
X8253095Y-14528476D02*
X8243572Y-14538000D01*
X8243572Y-14538000D02*
X8224524Y-14547524D01*
X8224524Y-14547524D02*
X8205476Y-14547524D01*
X8205476Y-14547524D02*
X8186429Y-14538000D01*
X8186429Y-14538000D02*
X8176905Y-14528476D01*
X8176905Y-14528476D02*
X8167381Y-14509428D01*
X8167381Y-14509428D02*
X8157857Y-14471333D01*
X8157857Y-14471333D02*
X8157857Y-14423714D01*
X8157857Y-14423714D02*
X8167381Y-14385619D01*
X8167381Y-14385619D02*
X8176905Y-14366571D01*
X8176905Y-14366571D02*
X8186429Y-14357048D01*
X8186429Y-14357048D02*
X8205476Y-14347524D01*
X8357857Y-14528476D02*
X8367381Y-14538000D01*
X8367381Y-14538000D02*
X8357857Y-14547524D01*
X8357857Y-14547524D02*
X8348333Y-14538000D01*
X8348333Y-14538000D02*
X8357857Y-14528476D01*
X8357857Y-14528476D02*
X8357857Y-14547524D01*
X8491191Y-14347524D02*
X8510238Y-14347524D01*
X8510238Y-14347524D02*
X8529286Y-14357048D01*
X8529286Y-14357048D02*
X8538810Y-14366571D01*
X8538810Y-14366571D02*
X8548334Y-14385619D01*
X8548334Y-14385619D02*
X8557857Y-14423714D01*
X8557857Y-14423714D02*
X8557857Y-14471333D01*
X8557857Y-14471333D02*
X8548334Y-14509428D01*
X8548334Y-14509428D02*
X8538810Y-14528476D01*
X8538810Y-14528476D02*
X8529286Y-14538000D01*
X8529286Y-14538000D02*
X8510238Y-14547524D01*
X8510238Y-14547524D02*
X8491191Y-14547524D01*
X8491191Y-14547524D02*
X8472143Y-14538000D01*
X8472143Y-14538000D02*
X8462619Y-14528476D01*
X8462619Y-14528476D02*
X8453095Y-14509428D01*
X8453095Y-14509428D02*
X8443572Y-14471333D01*
X8443572Y-14471333D02*
X8443572Y-14423714D01*
X8443572Y-14423714D02*
X8453095Y-14385619D01*
X8453095Y-14385619D02*
X8462619Y-14366571D01*
X8462619Y-14366571D02*
X8472143Y-14357048D01*
X8472143Y-14357048D02*
X8491191Y-14347524D01*
X8748334Y-14547524D02*
X8634048Y-14547524D01*
X8691191Y-14547524D02*
X8691191Y-14347524D01*
X8691191Y-14347524D02*
X8672143Y-14376095D01*
X8672143Y-14376095D02*
X8653095Y-14395143D01*
X8653095Y-14395143D02*
X8634048Y-14404667D01*
X8843572Y-14547524D02*
X8881667Y-14547524D01*
X8881667Y-14547524D02*
X8900715Y-14538000D01*
X8900715Y-14538000D02*
X8910238Y-14528476D01*
X8910238Y-14528476D02*
X8929286Y-14499905D01*
X8929286Y-14499905D02*
X8938810Y-14461809D01*
X8938810Y-14461809D02*
X8938810Y-14385619D01*
X8938810Y-14385619D02*
X8929286Y-14366571D01*
X8929286Y-14366571D02*
X8919762Y-14357048D01*
X8919762Y-14357048D02*
X8900715Y-14347524D01*
X8900715Y-14347524D02*
X8862619Y-14347524D01*
X8862619Y-14347524D02*
X8843572Y-14357048D01*
X8843572Y-14357048D02*
X8834048Y-14366571D01*
X8834048Y-14366571D02*
X8824524Y-14385619D01*
X8824524Y-14385619D02*
X8824524Y-14433238D01*
X8824524Y-14433238D02*
X8834048Y-14452286D01*
X8834048Y-14452286D02*
X8843572Y-14461809D01*
X8843572Y-14461809D02*
X8862619Y-14471333D01*
X8862619Y-14471333D02*
X8900715Y-14471333D01*
X8900715Y-14471333D02*
X8919762Y-14461809D01*
X8919762Y-14461809D02*
X8929286Y-14452286D01*
X8929286Y-14452286D02*
X8938810Y-14433238D01*
X9005476Y-14347524D02*
X9138810Y-14347524D01*
X9138810Y-14347524D02*
X9053095Y-14547524D01*
X9205476Y-14347524D02*
X9205476Y-14385619D01*
X9281667Y-14347524D02*
X9281667Y-14385619D01*
X9576905Y-14623714D02*
X9567381Y-14614190D01*
X9567381Y-14614190D02*
X9548334Y-14585619D01*
X9548334Y-14585619D02*
X9538810Y-14566571D01*
X9538810Y-14566571D02*
X9529286Y-14538000D01*
X9529286Y-14538000D02*
X9519762Y-14490381D01*
X9519762Y-14490381D02*
X9519762Y-14452286D01*
X9519762Y-14452286D02*
X9529286Y-14404667D01*
X9529286Y-14404667D02*
X9538810Y-14376095D01*
X9538810Y-14376095D02*
X9548334Y-14357048D01*
X9548334Y-14357048D02*
X9567381Y-14328476D01*
X9567381Y-14328476D02*
X9576905Y-14318952D01*
X9691191Y-14347524D02*
X9710238Y-14347524D01*
X9710238Y-14347524D02*
X9729286Y-14357048D01*
X9729286Y-14357048D02*
X9738810Y-14366571D01*
X9738810Y-14366571D02*
X9748334Y-14385619D01*
X9748334Y-14385619D02*
X9757857Y-14423714D01*
X9757857Y-14423714D02*
X9757857Y-14471333D01*
X9757857Y-14471333D02*
X9748334Y-14509428D01*
X9748334Y-14509428D02*
X9738810Y-14528476D01*
X9738810Y-14528476D02*
X9729286Y-14538000D01*
X9729286Y-14538000D02*
X9710238Y-14547524D01*
X9710238Y-14547524D02*
X9691191Y-14547524D01*
X9691191Y-14547524D02*
X9672143Y-14538000D01*
X9672143Y-14538000D02*
X9662619Y-14528476D01*
X9662619Y-14528476D02*
X9653096Y-14509428D01*
X9653096Y-14509428D02*
X9643572Y-14471333D01*
X9643572Y-14471333D02*
X9643572Y-14423714D01*
X9643572Y-14423714D02*
X9653096Y-14385619D01*
X9653096Y-14385619D02*
X9662619Y-14366571D01*
X9662619Y-14366571D02*
X9672143Y-14357048D01*
X9672143Y-14357048D02*
X9691191Y-14347524D01*
X9995953Y-14547524D02*
X9995953Y-14347524D01*
X10081667Y-14547524D02*
X10081667Y-14442762D01*
X10081667Y-14442762D02*
X10072143Y-14423714D01*
X10072143Y-14423714D02*
X10053096Y-14414190D01*
X10053096Y-14414190D02*
X10024524Y-14414190D01*
X10024524Y-14414190D02*
X10005477Y-14423714D01*
X10005477Y-14423714D02*
X9995953Y-14433238D01*
X10205477Y-14547524D02*
X10186429Y-14538000D01*
X10186429Y-14538000D02*
X10176905Y-14528476D01*
X10176905Y-14528476D02*
X10167381Y-14509428D01*
X10167381Y-14509428D02*
X10167381Y-14452286D01*
X10167381Y-14452286D02*
X10176905Y-14433238D01*
X10176905Y-14433238D02*
X10186429Y-14423714D01*
X10186429Y-14423714D02*
X10205477Y-14414190D01*
X10205477Y-14414190D02*
X10234048Y-14414190D01*
X10234048Y-14414190D02*
X10253096Y-14423714D01*
X10253096Y-14423714D02*
X10262619Y-14433238D01*
X10262619Y-14433238D02*
X10272143Y-14452286D01*
X10272143Y-14452286D02*
X10272143Y-14509428D01*
X10272143Y-14509428D02*
X10262619Y-14528476D01*
X10262619Y-14528476D02*
X10253096Y-14538000D01*
X10253096Y-14538000D02*
X10234048Y-14547524D01*
X10234048Y-14547524D02*
X10205477Y-14547524D01*
X10386429Y-14547524D02*
X10367381Y-14538000D01*
X10367381Y-14538000D02*
X10357858Y-14518952D01*
X10357858Y-14518952D02*
X10357858Y-14347524D01*
X10538810Y-14538000D02*
X10519762Y-14547524D01*
X10519762Y-14547524D02*
X10481667Y-14547524D01*
X10481667Y-14547524D02*
X10462619Y-14538000D01*
X10462619Y-14538000D02*
X10453096Y-14518952D01*
X10453096Y-14518952D02*
X10453096Y-14442762D01*
X10453096Y-14442762D02*
X10462619Y-14423714D01*
X10462619Y-14423714D02*
X10481667Y-14414190D01*
X10481667Y-14414190D02*
X10519762Y-14414190D01*
X10519762Y-14414190D02*
X10538810Y-14423714D01*
X10538810Y-14423714D02*
X10548334Y-14442762D01*
X10548334Y-14442762D02*
X10548334Y-14461809D01*
X10548334Y-14461809D02*
X10453096Y-14480857D01*
X10624524Y-14538000D02*
X10643572Y-14547524D01*
X10643572Y-14547524D02*
X10681667Y-14547524D01*
X10681667Y-14547524D02*
X10700715Y-14538000D01*
X10700715Y-14538000D02*
X10710239Y-14518952D01*
X10710239Y-14518952D02*
X10710239Y-14509428D01*
X10710239Y-14509428D02*
X10700715Y-14490381D01*
X10700715Y-14490381D02*
X10681667Y-14480857D01*
X10681667Y-14480857D02*
X10653096Y-14480857D01*
X10653096Y-14480857D02*
X10634048Y-14471333D01*
X10634048Y-14471333D02*
X10624524Y-14452286D01*
X10624524Y-14452286D02*
X10624524Y-14442762D01*
X10624524Y-14442762D02*
X10634048Y-14423714D01*
X10634048Y-14423714D02*
X10653096Y-14414190D01*
X10653096Y-14414190D02*
X10681667Y-14414190D01*
X10681667Y-14414190D02*
X10700715Y-14423714D01*
X10948334Y-14471333D02*
X11100715Y-14471333D01*
X11024524Y-14547524D02*
X11024524Y-14395143D01*
X11434048Y-14414190D02*
X11434048Y-14547524D01*
X11386429Y-14338000D02*
X11338810Y-14480857D01*
X11338810Y-14480857D02*
X11462619Y-14480857D01*
X11681667Y-14538000D02*
X11700715Y-14547524D01*
X11700715Y-14547524D02*
X11738810Y-14547524D01*
X11738810Y-14547524D02*
X11757858Y-14538000D01*
X11757858Y-14538000D02*
X11767381Y-14518952D01*
X11767381Y-14518952D02*
X11767381Y-14509428D01*
X11767381Y-14509428D02*
X11757858Y-14490381D01*
X11757858Y-14490381D02*
X11738810Y-14480857D01*
X11738810Y-14480857D02*
X11710239Y-14480857D01*
X11710239Y-14480857D02*
X11691191Y-14471333D01*
X11691191Y-14471333D02*
X11681667Y-14452286D01*
X11681667Y-14452286D02*
X11681667Y-14442762D01*
X11681667Y-14442762D02*
X11691191Y-14423714D01*
X11691191Y-14423714D02*
X11710239Y-14414190D01*
X11710239Y-14414190D02*
X11738810Y-14414190D01*
X11738810Y-14414190D02*
X11757858Y-14423714D01*
X11881667Y-14547524D02*
X11862620Y-14538000D01*
X11862620Y-14538000D02*
X11853096Y-14518952D01*
X11853096Y-14518952D02*
X11853096Y-14347524D01*
X11986429Y-14547524D02*
X11967381Y-14538000D01*
X11967381Y-14538000D02*
X11957858Y-14528476D01*
X11957858Y-14528476D02*
X11948334Y-14509428D01*
X11948334Y-14509428D02*
X11948334Y-14452286D01*
X11948334Y-14452286D02*
X11957858Y-14433238D01*
X11957858Y-14433238D02*
X11967381Y-14423714D01*
X11967381Y-14423714D02*
X11986429Y-14414190D01*
X11986429Y-14414190D02*
X12015001Y-14414190D01*
X12015001Y-14414190D02*
X12034048Y-14423714D01*
X12034048Y-14423714D02*
X12043572Y-14433238D01*
X12043572Y-14433238D02*
X12053096Y-14452286D01*
X12053096Y-14452286D02*
X12053096Y-14509428D01*
X12053096Y-14509428D02*
X12043572Y-14528476D01*
X12043572Y-14528476D02*
X12034048Y-14538000D01*
X12034048Y-14538000D02*
X12015001Y-14547524D01*
X12015001Y-14547524D02*
X11986429Y-14547524D01*
X12110239Y-14414190D02*
X12186429Y-14414190D01*
X12138810Y-14347524D02*
X12138810Y-14518952D01*
X12138810Y-14518952D02*
X12148334Y-14538000D01*
X12148334Y-14538000D02*
X12167381Y-14547524D01*
X12167381Y-14547524D02*
X12186429Y-14547524D01*
X12243572Y-14538000D02*
X12262620Y-14547524D01*
X12262620Y-14547524D02*
X12300715Y-14547524D01*
X12300715Y-14547524D02*
X12319762Y-14538000D01*
X12319762Y-14538000D02*
X12329286Y-14518952D01*
X12329286Y-14518952D02*
X12329286Y-14509428D01*
X12329286Y-14509428D02*
X12319762Y-14490381D01*
X12319762Y-14490381D02*
X12300715Y-14480857D01*
X12300715Y-14480857D02*
X12272143Y-14480857D01*
X12272143Y-14480857D02*
X12253096Y-14471333D01*
X12253096Y-14471333D02*
X12243572Y-14452286D01*
X12243572Y-14452286D02*
X12243572Y-14442762D01*
X12243572Y-14442762D02*
X12253096Y-14423714D01*
X12253096Y-14423714D02*
X12272143Y-14414190D01*
X12272143Y-14414190D02*
X12300715Y-14414190D01*
X12300715Y-14414190D02*
X12319762Y-14423714D01*
X12395953Y-14623714D02*
X12405477Y-14614190D01*
X12405477Y-14614190D02*
X12424524Y-14585619D01*
X12424524Y-14585619D02*
X12434048Y-14566571D01*
X12434048Y-14566571D02*
X12443572Y-14538000D01*
X12443572Y-14538000D02*
X12453096Y-14490381D01*
X12453096Y-14490381D02*
X12453096Y-14452286D01*
X12453096Y-14452286D02*
X12443572Y-14404667D01*
X12443572Y-14404667D02*
X12434048Y-14376095D01*
X12434048Y-14376095D02*
X12424524Y-14357048D01*
X12424524Y-14357048D02*
X12405477Y-14328476D01*
X12405477Y-14328476D02*
X12395953Y-14318952D01*
D14*
X6006213Y-14740213D02*
X6006213Y-14697787D01*
X5963787Y-14697787D01*
X5963787Y-14740213D01*
X6006213Y-14740213D01*
D11*
X6300714Y-14611524D02*
X6319762Y-14611524D01*
X6319762Y-14611524D02*
X6338809Y-14621048D01*
X6338809Y-14621048D02*
X6348333Y-14630571D01*
X6348333Y-14630571D02*
X6357857Y-14649619D01*
X6357857Y-14649619D02*
X6367381Y-14687714D01*
X6367381Y-14687714D02*
X6367381Y-14735333D01*
X6367381Y-14735333D02*
X6357857Y-14773428D01*
X6357857Y-14773428D02*
X6348333Y-14792476D01*
X6348333Y-14792476D02*
X6338809Y-14802000D01*
X6338809Y-14802000D02*
X6319762Y-14811524D01*
X6319762Y-14811524D02*
X6300714Y-14811524D01*
X6300714Y-14811524D02*
X6281667Y-14802000D01*
X6281667Y-14802000D02*
X6272143Y-14792476D01*
X6272143Y-14792476D02*
X6262619Y-14773428D01*
X6262619Y-14773428D02*
X6253095Y-14735333D01*
X6253095Y-14735333D02*
X6253095Y-14687714D01*
X6253095Y-14687714D02*
X6262619Y-14649619D01*
X6262619Y-14649619D02*
X6272143Y-14630571D01*
X6272143Y-14630571D02*
X6281667Y-14621048D01*
X6281667Y-14621048D02*
X6300714Y-14611524D01*
X6453095Y-14792476D02*
X6462619Y-14802000D01*
X6462619Y-14802000D02*
X6453095Y-14811524D01*
X6453095Y-14811524D02*
X6443571Y-14802000D01*
X6443571Y-14802000D02*
X6453095Y-14792476D01*
X6453095Y-14792476D02*
X6453095Y-14811524D01*
X6634048Y-14611524D02*
X6595952Y-14611524D01*
X6595952Y-14611524D02*
X6576905Y-14621048D01*
X6576905Y-14621048D02*
X6567381Y-14630571D01*
X6567381Y-14630571D02*
X6548333Y-14659143D01*
X6548333Y-14659143D02*
X6538809Y-14697238D01*
X6538809Y-14697238D02*
X6538809Y-14773428D01*
X6538809Y-14773428D02*
X6548333Y-14792476D01*
X6548333Y-14792476D02*
X6557857Y-14802000D01*
X6557857Y-14802000D02*
X6576905Y-14811524D01*
X6576905Y-14811524D02*
X6615000Y-14811524D01*
X6615000Y-14811524D02*
X6634048Y-14802000D01*
X6634048Y-14802000D02*
X6643571Y-14792476D01*
X6643571Y-14792476D02*
X6653095Y-14773428D01*
X6653095Y-14773428D02*
X6653095Y-14725809D01*
X6653095Y-14725809D02*
X6643571Y-14706762D01*
X6643571Y-14706762D02*
X6634048Y-14697238D01*
X6634048Y-14697238D02*
X6615000Y-14687714D01*
X6615000Y-14687714D02*
X6576905Y-14687714D01*
X6576905Y-14687714D02*
X6557857Y-14697238D01*
X6557857Y-14697238D02*
X6548333Y-14706762D01*
X6548333Y-14706762D02*
X6538809Y-14725809D01*
X6776905Y-14611524D02*
X6795952Y-14611524D01*
X6795952Y-14611524D02*
X6815000Y-14621048D01*
X6815000Y-14621048D02*
X6824524Y-14630571D01*
X6824524Y-14630571D02*
X6834048Y-14649619D01*
X6834048Y-14649619D02*
X6843571Y-14687714D01*
X6843571Y-14687714D02*
X6843571Y-14735333D01*
X6843571Y-14735333D02*
X6834048Y-14773428D01*
X6834048Y-14773428D02*
X6824524Y-14792476D01*
X6824524Y-14792476D02*
X6815000Y-14802000D01*
X6815000Y-14802000D02*
X6795952Y-14811524D01*
X6795952Y-14811524D02*
X6776905Y-14811524D01*
X6776905Y-14811524D02*
X6757857Y-14802000D01*
X6757857Y-14802000D02*
X6748333Y-14792476D01*
X6748333Y-14792476D02*
X6738809Y-14773428D01*
X6738809Y-14773428D02*
X6729286Y-14735333D01*
X6729286Y-14735333D02*
X6729286Y-14687714D01*
X6729286Y-14687714D02*
X6738809Y-14649619D01*
X6738809Y-14649619D02*
X6748333Y-14630571D01*
X6748333Y-14630571D02*
X6757857Y-14621048D01*
X6757857Y-14621048D02*
X6776905Y-14611524D01*
X6967381Y-14611524D02*
X6986429Y-14611524D01*
X6986429Y-14611524D02*
X7005476Y-14621048D01*
X7005476Y-14621048D02*
X7015000Y-14630571D01*
X7015000Y-14630571D02*
X7024524Y-14649619D01*
X7024524Y-14649619D02*
X7034048Y-14687714D01*
X7034048Y-14687714D02*
X7034048Y-14735333D01*
X7034048Y-14735333D02*
X7024524Y-14773428D01*
X7024524Y-14773428D02*
X7015000Y-14792476D01*
X7015000Y-14792476D02*
X7005476Y-14802000D01*
X7005476Y-14802000D02*
X6986429Y-14811524D01*
X6986429Y-14811524D02*
X6967381Y-14811524D01*
X6967381Y-14811524D02*
X6948333Y-14802000D01*
X6948333Y-14802000D02*
X6938809Y-14792476D01*
X6938809Y-14792476D02*
X6929286Y-14773428D01*
X6929286Y-14773428D02*
X6919762Y-14735333D01*
X6919762Y-14735333D02*
X6919762Y-14687714D01*
X6919762Y-14687714D02*
X6929286Y-14649619D01*
X6929286Y-14649619D02*
X6938809Y-14630571D01*
X6938809Y-14630571D02*
X6948333Y-14621048D01*
X6948333Y-14621048D02*
X6967381Y-14611524D01*
X7119762Y-14811524D02*
X7119762Y-14678190D01*
X7119762Y-14697238D02*
X7129286Y-14687714D01*
X7129286Y-14687714D02*
X7148333Y-14678190D01*
X7148333Y-14678190D02*
X7176905Y-14678190D01*
X7176905Y-14678190D02*
X7195952Y-14687714D01*
X7195952Y-14687714D02*
X7205476Y-14706762D01*
X7205476Y-14706762D02*
X7205476Y-14811524D01*
X7205476Y-14706762D02*
X7215000Y-14687714D01*
X7215000Y-14687714D02*
X7234048Y-14678190D01*
X7234048Y-14678190D02*
X7262619Y-14678190D01*
X7262619Y-14678190D02*
X7281667Y-14687714D01*
X7281667Y-14687714D02*
X7291190Y-14706762D01*
X7291190Y-14706762D02*
X7291190Y-14811524D01*
X7386429Y-14811524D02*
X7386429Y-14678190D01*
X7386429Y-14697238D02*
X7395952Y-14687714D01*
X7395952Y-14687714D02*
X7415000Y-14678190D01*
X7415000Y-14678190D02*
X7443571Y-14678190D01*
X7443571Y-14678190D02*
X7462619Y-14687714D01*
X7462619Y-14687714D02*
X7472143Y-14706762D01*
X7472143Y-14706762D02*
X7472143Y-14811524D01*
X7472143Y-14706762D02*
X7481667Y-14687714D01*
X7481667Y-14687714D02*
X7500714Y-14678190D01*
X7500714Y-14678190D02*
X7529286Y-14678190D01*
X7529286Y-14678190D02*
X7548333Y-14687714D01*
X7548333Y-14687714D02*
X7557857Y-14706762D01*
X7557857Y-14706762D02*
X7557857Y-14811524D01*
X7948333Y-14602000D02*
X7776905Y-14859143D01*
X8205476Y-14611524D02*
X8224524Y-14611524D01*
X8224524Y-14611524D02*
X8243572Y-14621048D01*
X8243572Y-14621048D02*
X8253095Y-14630571D01*
X8253095Y-14630571D02*
X8262619Y-14649619D01*
X8262619Y-14649619D02*
X8272143Y-14687714D01*
X8272143Y-14687714D02*
X8272143Y-14735333D01*
X8272143Y-14735333D02*
X8262619Y-14773428D01*
X8262619Y-14773428D02*
X8253095Y-14792476D01*
X8253095Y-14792476D02*
X8243572Y-14802000D01*
X8243572Y-14802000D02*
X8224524Y-14811524D01*
X8224524Y-14811524D02*
X8205476Y-14811524D01*
X8205476Y-14811524D02*
X8186429Y-14802000D01*
X8186429Y-14802000D02*
X8176905Y-14792476D01*
X8176905Y-14792476D02*
X8167381Y-14773428D01*
X8167381Y-14773428D02*
X8157857Y-14735333D01*
X8157857Y-14735333D02*
X8157857Y-14687714D01*
X8157857Y-14687714D02*
X8167381Y-14649619D01*
X8167381Y-14649619D02*
X8176905Y-14630571D01*
X8176905Y-14630571D02*
X8186429Y-14621048D01*
X8186429Y-14621048D02*
X8205476Y-14611524D01*
X8357857Y-14792476D02*
X8367381Y-14802000D01*
X8367381Y-14802000D02*
X8357857Y-14811524D01*
X8357857Y-14811524D02*
X8348333Y-14802000D01*
X8348333Y-14802000D02*
X8357857Y-14792476D01*
X8357857Y-14792476D02*
X8357857Y-14811524D01*
X8491191Y-14611524D02*
X8510238Y-14611524D01*
X8510238Y-14611524D02*
X8529286Y-14621048D01*
X8529286Y-14621048D02*
X8538810Y-14630571D01*
X8538810Y-14630571D02*
X8548334Y-14649619D01*
X8548334Y-14649619D02*
X8557857Y-14687714D01*
X8557857Y-14687714D02*
X8557857Y-14735333D01*
X8557857Y-14735333D02*
X8548334Y-14773428D01*
X8548334Y-14773428D02*
X8538810Y-14792476D01*
X8538810Y-14792476D02*
X8529286Y-14802000D01*
X8529286Y-14802000D02*
X8510238Y-14811524D01*
X8510238Y-14811524D02*
X8491191Y-14811524D01*
X8491191Y-14811524D02*
X8472143Y-14802000D01*
X8472143Y-14802000D02*
X8462619Y-14792476D01*
X8462619Y-14792476D02*
X8453095Y-14773428D01*
X8453095Y-14773428D02*
X8443572Y-14735333D01*
X8443572Y-14735333D02*
X8443572Y-14687714D01*
X8443572Y-14687714D02*
X8453095Y-14649619D01*
X8453095Y-14649619D02*
X8462619Y-14630571D01*
X8462619Y-14630571D02*
X8472143Y-14621048D01*
X8472143Y-14621048D02*
X8491191Y-14611524D01*
X8634048Y-14630571D02*
X8643572Y-14621048D01*
X8643572Y-14621048D02*
X8662619Y-14611524D01*
X8662619Y-14611524D02*
X8710238Y-14611524D01*
X8710238Y-14611524D02*
X8729286Y-14621048D01*
X8729286Y-14621048D02*
X8738810Y-14630571D01*
X8738810Y-14630571D02*
X8748334Y-14649619D01*
X8748334Y-14649619D02*
X8748334Y-14668667D01*
X8748334Y-14668667D02*
X8738810Y-14697238D01*
X8738810Y-14697238D02*
X8624524Y-14811524D01*
X8624524Y-14811524D02*
X8748334Y-14811524D01*
X8815000Y-14611524D02*
X8938810Y-14611524D01*
X8938810Y-14611524D02*
X8872143Y-14687714D01*
X8872143Y-14687714D02*
X8900715Y-14687714D01*
X8900715Y-14687714D02*
X8919762Y-14697238D01*
X8919762Y-14697238D02*
X8929286Y-14706762D01*
X8929286Y-14706762D02*
X8938810Y-14725809D01*
X8938810Y-14725809D02*
X8938810Y-14773428D01*
X8938810Y-14773428D02*
X8929286Y-14792476D01*
X8929286Y-14792476D02*
X8919762Y-14802000D01*
X8919762Y-14802000D02*
X8900715Y-14811524D01*
X8900715Y-14811524D02*
X8843572Y-14811524D01*
X8843572Y-14811524D02*
X8824524Y-14802000D01*
X8824524Y-14802000D02*
X8815000Y-14792476D01*
X9110238Y-14611524D02*
X9072143Y-14611524D01*
X9072143Y-14611524D02*
X9053095Y-14621048D01*
X9053095Y-14621048D02*
X9043572Y-14630571D01*
X9043572Y-14630571D02*
X9024524Y-14659143D01*
X9024524Y-14659143D02*
X9015000Y-14697238D01*
X9015000Y-14697238D02*
X9015000Y-14773428D01*
X9015000Y-14773428D02*
X9024524Y-14792476D01*
X9024524Y-14792476D02*
X9034048Y-14802000D01*
X9034048Y-14802000D02*
X9053095Y-14811524D01*
X9053095Y-14811524D02*
X9091191Y-14811524D01*
X9091191Y-14811524D02*
X9110238Y-14802000D01*
X9110238Y-14802000D02*
X9119762Y-14792476D01*
X9119762Y-14792476D02*
X9129286Y-14773428D01*
X9129286Y-14773428D02*
X9129286Y-14725809D01*
X9129286Y-14725809D02*
X9119762Y-14706762D01*
X9119762Y-14706762D02*
X9110238Y-14697238D01*
X9110238Y-14697238D02*
X9091191Y-14687714D01*
X9091191Y-14687714D02*
X9053095Y-14687714D01*
X9053095Y-14687714D02*
X9034048Y-14697238D01*
X9034048Y-14697238D02*
X9024524Y-14706762D01*
X9024524Y-14706762D02*
X9015000Y-14725809D01*
X9205476Y-14611524D02*
X9205476Y-14649619D01*
X9281667Y-14611524D02*
X9281667Y-14649619D01*
X9576905Y-14887714D02*
X9567381Y-14878190D01*
X9567381Y-14878190D02*
X9548334Y-14849619D01*
X9548334Y-14849619D02*
X9538810Y-14830571D01*
X9538810Y-14830571D02*
X9529286Y-14802000D01*
X9529286Y-14802000D02*
X9519762Y-14754381D01*
X9519762Y-14754381D02*
X9519762Y-14716286D01*
X9519762Y-14716286D02*
X9529286Y-14668667D01*
X9529286Y-14668667D02*
X9538810Y-14640095D01*
X9538810Y-14640095D02*
X9548334Y-14621048D01*
X9548334Y-14621048D02*
X9567381Y-14592476D01*
X9567381Y-14592476D02*
X9576905Y-14582952D01*
X9757857Y-14811524D02*
X9643572Y-14811524D01*
X9700715Y-14811524D02*
X9700715Y-14611524D01*
X9700715Y-14611524D02*
X9681667Y-14640095D01*
X9681667Y-14640095D02*
X9662619Y-14659143D01*
X9662619Y-14659143D02*
X9643572Y-14668667D01*
X9948334Y-14811524D02*
X9834048Y-14811524D01*
X9891191Y-14811524D02*
X9891191Y-14611524D01*
X9891191Y-14611524D02*
X9872143Y-14640095D01*
X9872143Y-14640095D02*
X9853096Y-14659143D01*
X9853096Y-14659143D02*
X9834048Y-14668667D01*
X10186429Y-14811524D02*
X10186429Y-14611524D01*
X10272143Y-14811524D02*
X10272143Y-14706762D01*
X10272143Y-14706762D02*
X10262619Y-14687714D01*
X10262619Y-14687714D02*
X10243572Y-14678190D01*
X10243572Y-14678190D02*
X10215000Y-14678190D01*
X10215000Y-14678190D02*
X10195953Y-14687714D01*
X10195953Y-14687714D02*
X10186429Y-14697238D01*
X10395953Y-14811524D02*
X10376905Y-14802000D01*
X10376905Y-14802000D02*
X10367381Y-14792476D01*
X10367381Y-14792476D02*
X10357858Y-14773428D01*
X10357858Y-14773428D02*
X10357858Y-14716286D01*
X10357858Y-14716286D02*
X10367381Y-14697238D01*
X10367381Y-14697238D02*
X10376905Y-14687714D01*
X10376905Y-14687714D02*
X10395953Y-14678190D01*
X10395953Y-14678190D02*
X10424524Y-14678190D01*
X10424524Y-14678190D02*
X10443572Y-14687714D01*
X10443572Y-14687714D02*
X10453096Y-14697238D01*
X10453096Y-14697238D02*
X10462619Y-14716286D01*
X10462619Y-14716286D02*
X10462619Y-14773428D01*
X10462619Y-14773428D02*
X10453096Y-14792476D01*
X10453096Y-14792476D02*
X10443572Y-14802000D01*
X10443572Y-14802000D02*
X10424524Y-14811524D01*
X10424524Y-14811524D02*
X10395953Y-14811524D01*
X10576905Y-14811524D02*
X10557858Y-14802000D01*
X10557858Y-14802000D02*
X10548334Y-14782952D01*
X10548334Y-14782952D02*
X10548334Y-14611524D01*
X10729286Y-14802000D02*
X10710239Y-14811524D01*
X10710239Y-14811524D02*
X10672143Y-14811524D01*
X10672143Y-14811524D02*
X10653096Y-14802000D01*
X10653096Y-14802000D02*
X10643572Y-14782952D01*
X10643572Y-14782952D02*
X10643572Y-14706762D01*
X10643572Y-14706762D02*
X10653096Y-14687714D01*
X10653096Y-14687714D02*
X10672143Y-14678190D01*
X10672143Y-14678190D02*
X10710239Y-14678190D01*
X10710239Y-14678190D02*
X10729286Y-14687714D01*
X10729286Y-14687714D02*
X10738810Y-14706762D01*
X10738810Y-14706762D02*
X10738810Y-14725809D01*
X10738810Y-14725809D02*
X10643572Y-14744857D01*
X10815000Y-14802000D02*
X10834048Y-14811524D01*
X10834048Y-14811524D02*
X10872143Y-14811524D01*
X10872143Y-14811524D02*
X10891191Y-14802000D01*
X10891191Y-14802000D02*
X10900715Y-14782952D01*
X10900715Y-14782952D02*
X10900715Y-14773428D01*
X10900715Y-14773428D02*
X10891191Y-14754381D01*
X10891191Y-14754381D02*
X10872143Y-14744857D01*
X10872143Y-14744857D02*
X10843572Y-14744857D01*
X10843572Y-14744857D02*
X10824524Y-14735333D01*
X10824524Y-14735333D02*
X10815000Y-14716286D01*
X10815000Y-14716286D02*
X10815000Y-14706762D01*
X10815000Y-14706762D02*
X10824524Y-14687714D01*
X10824524Y-14687714D02*
X10843572Y-14678190D01*
X10843572Y-14678190D02*
X10872143Y-14678190D01*
X10872143Y-14678190D02*
X10891191Y-14687714D01*
X10967381Y-14887714D02*
X10976905Y-14878190D01*
X10976905Y-14878190D02*
X10995953Y-14849619D01*
X10995953Y-14849619D02*
X11005477Y-14830571D01*
X11005477Y-14830571D02*
X11015000Y-14802000D01*
X11015000Y-14802000D02*
X11024524Y-14754381D01*
X11024524Y-14754381D02*
X11024524Y-14716286D01*
X11024524Y-14716286D02*
X11015000Y-14668667D01*
X11015000Y-14668667D02*
X11005477Y-14640095D01*
X11005477Y-14640095D02*
X10995953Y-14621048D01*
X10995953Y-14621048D02*
X10976905Y-14592476D01*
X10976905Y-14592476D02*
X10967381Y-14582952D01*
D14*
X5985000Y-15013000D02*
X6015000Y-14983000D01*
X5985000Y-14953000D01*
X5955000Y-14983000D01*
X5985000Y-15013000D01*
D11*
X6300714Y-14875524D02*
X6319762Y-14875524D01*
X6319762Y-14875524D02*
X6338809Y-14885048D01*
X6338809Y-14885048D02*
X6348333Y-14894571D01*
X6348333Y-14894571D02*
X6357857Y-14913619D01*
X6357857Y-14913619D02*
X6367381Y-14951714D01*
X6367381Y-14951714D02*
X6367381Y-14999333D01*
X6367381Y-14999333D02*
X6357857Y-15037428D01*
X6357857Y-15037428D02*
X6348333Y-15056476D01*
X6348333Y-15056476D02*
X6338809Y-15066000D01*
X6338809Y-15066000D02*
X6319762Y-15075524D01*
X6319762Y-15075524D02*
X6300714Y-15075524D01*
X6300714Y-15075524D02*
X6281667Y-15066000D01*
X6281667Y-15066000D02*
X6272143Y-15056476D01*
X6272143Y-15056476D02*
X6262619Y-15037428D01*
X6262619Y-15037428D02*
X6253095Y-14999333D01*
X6253095Y-14999333D02*
X6253095Y-14951714D01*
X6253095Y-14951714D02*
X6262619Y-14913619D01*
X6262619Y-14913619D02*
X6272143Y-14894571D01*
X6272143Y-14894571D02*
X6281667Y-14885048D01*
X6281667Y-14885048D02*
X6300714Y-14875524D01*
X6453095Y-15056476D02*
X6462619Y-15066000D01*
X6462619Y-15066000D02*
X6453095Y-15075524D01*
X6453095Y-15075524D02*
X6443571Y-15066000D01*
X6443571Y-15066000D02*
X6453095Y-15056476D01*
X6453095Y-15056476D02*
X6453095Y-15075524D01*
X6634048Y-14875524D02*
X6595952Y-14875524D01*
X6595952Y-14875524D02*
X6576905Y-14885048D01*
X6576905Y-14885048D02*
X6567381Y-14894571D01*
X6567381Y-14894571D02*
X6548333Y-14923143D01*
X6548333Y-14923143D02*
X6538809Y-14961238D01*
X6538809Y-14961238D02*
X6538809Y-15037428D01*
X6538809Y-15037428D02*
X6548333Y-15056476D01*
X6548333Y-15056476D02*
X6557857Y-15066000D01*
X6557857Y-15066000D02*
X6576905Y-15075524D01*
X6576905Y-15075524D02*
X6615000Y-15075524D01*
X6615000Y-15075524D02*
X6634048Y-15066000D01*
X6634048Y-15066000D02*
X6643571Y-15056476D01*
X6643571Y-15056476D02*
X6653095Y-15037428D01*
X6653095Y-15037428D02*
X6653095Y-14989809D01*
X6653095Y-14989809D02*
X6643571Y-14970762D01*
X6643571Y-14970762D02*
X6634048Y-14961238D01*
X6634048Y-14961238D02*
X6615000Y-14951714D01*
X6615000Y-14951714D02*
X6576905Y-14951714D01*
X6576905Y-14951714D02*
X6557857Y-14961238D01*
X6557857Y-14961238D02*
X6548333Y-14970762D01*
X6548333Y-14970762D02*
X6538809Y-14989809D01*
X6776905Y-14875524D02*
X6795952Y-14875524D01*
X6795952Y-14875524D02*
X6815000Y-14885048D01*
X6815000Y-14885048D02*
X6824524Y-14894571D01*
X6824524Y-14894571D02*
X6834048Y-14913619D01*
X6834048Y-14913619D02*
X6843571Y-14951714D01*
X6843571Y-14951714D02*
X6843571Y-14999333D01*
X6843571Y-14999333D02*
X6834048Y-15037428D01*
X6834048Y-15037428D02*
X6824524Y-15056476D01*
X6824524Y-15056476D02*
X6815000Y-15066000D01*
X6815000Y-15066000D02*
X6795952Y-15075524D01*
X6795952Y-15075524D02*
X6776905Y-15075524D01*
X6776905Y-15075524D02*
X6757857Y-15066000D01*
X6757857Y-15066000D02*
X6748333Y-15056476D01*
X6748333Y-15056476D02*
X6738809Y-15037428D01*
X6738809Y-15037428D02*
X6729286Y-14999333D01*
X6729286Y-14999333D02*
X6729286Y-14951714D01*
X6729286Y-14951714D02*
X6738809Y-14913619D01*
X6738809Y-14913619D02*
X6748333Y-14894571D01*
X6748333Y-14894571D02*
X6757857Y-14885048D01*
X6757857Y-14885048D02*
X6776905Y-14875524D01*
X6967381Y-14875524D02*
X6986429Y-14875524D01*
X6986429Y-14875524D02*
X7005476Y-14885048D01*
X7005476Y-14885048D02*
X7015000Y-14894571D01*
X7015000Y-14894571D02*
X7024524Y-14913619D01*
X7024524Y-14913619D02*
X7034048Y-14951714D01*
X7034048Y-14951714D02*
X7034048Y-14999333D01*
X7034048Y-14999333D02*
X7024524Y-15037428D01*
X7024524Y-15037428D02*
X7015000Y-15056476D01*
X7015000Y-15056476D02*
X7005476Y-15066000D01*
X7005476Y-15066000D02*
X6986429Y-15075524D01*
X6986429Y-15075524D02*
X6967381Y-15075524D01*
X6967381Y-15075524D02*
X6948333Y-15066000D01*
X6948333Y-15066000D02*
X6938809Y-15056476D01*
X6938809Y-15056476D02*
X6929286Y-15037428D01*
X6929286Y-15037428D02*
X6919762Y-14999333D01*
X6919762Y-14999333D02*
X6919762Y-14951714D01*
X6919762Y-14951714D02*
X6929286Y-14913619D01*
X6929286Y-14913619D02*
X6938809Y-14894571D01*
X6938809Y-14894571D02*
X6948333Y-14885048D01*
X6948333Y-14885048D02*
X6967381Y-14875524D01*
X7119762Y-15075524D02*
X7119762Y-14942190D01*
X7119762Y-14961238D02*
X7129286Y-14951714D01*
X7129286Y-14951714D02*
X7148333Y-14942190D01*
X7148333Y-14942190D02*
X7176905Y-14942190D01*
X7176905Y-14942190D02*
X7195952Y-14951714D01*
X7195952Y-14951714D02*
X7205476Y-14970762D01*
X7205476Y-14970762D02*
X7205476Y-15075524D01*
X7205476Y-14970762D02*
X7215000Y-14951714D01*
X7215000Y-14951714D02*
X7234048Y-14942190D01*
X7234048Y-14942190D02*
X7262619Y-14942190D01*
X7262619Y-14942190D02*
X7281667Y-14951714D01*
X7281667Y-14951714D02*
X7291190Y-14970762D01*
X7291190Y-14970762D02*
X7291190Y-15075524D01*
X7386429Y-15075524D02*
X7386429Y-14942190D01*
X7386429Y-14961238D02*
X7395952Y-14951714D01*
X7395952Y-14951714D02*
X7415000Y-14942190D01*
X7415000Y-14942190D02*
X7443571Y-14942190D01*
X7443571Y-14942190D02*
X7462619Y-14951714D01*
X7462619Y-14951714D02*
X7472143Y-14970762D01*
X7472143Y-14970762D02*
X7472143Y-15075524D01*
X7472143Y-14970762D02*
X7481667Y-14951714D01*
X7481667Y-14951714D02*
X7500714Y-14942190D01*
X7500714Y-14942190D02*
X7529286Y-14942190D01*
X7529286Y-14942190D02*
X7548333Y-14951714D01*
X7548333Y-14951714D02*
X7557857Y-14970762D01*
X7557857Y-14970762D02*
X7557857Y-15075524D01*
X7948333Y-14866000D02*
X7776905Y-15123143D01*
X8205476Y-14875524D02*
X8224524Y-14875524D01*
X8224524Y-14875524D02*
X8243572Y-14885048D01*
X8243572Y-14885048D02*
X8253095Y-14894571D01*
X8253095Y-14894571D02*
X8262619Y-14913619D01*
X8262619Y-14913619D02*
X8272143Y-14951714D01*
X8272143Y-14951714D02*
X8272143Y-14999333D01*
X8272143Y-14999333D02*
X8262619Y-15037428D01*
X8262619Y-15037428D02*
X8253095Y-15056476D01*
X8253095Y-15056476D02*
X8243572Y-15066000D01*
X8243572Y-15066000D02*
X8224524Y-15075524D01*
X8224524Y-15075524D02*
X8205476Y-15075524D01*
X8205476Y-15075524D02*
X8186429Y-15066000D01*
X8186429Y-15066000D02*
X8176905Y-15056476D01*
X8176905Y-15056476D02*
X8167381Y-15037428D01*
X8167381Y-15037428D02*
X8157857Y-14999333D01*
X8157857Y-14999333D02*
X8157857Y-14951714D01*
X8157857Y-14951714D02*
X8167381Y-14913619D01*
X8167381Y-14913619D02*
X8176905Y-14894571D01*
X8176905Y-14894571D02*
X8186429Y-14885048D01*
X8186429Y-14885048D02*
X8205476Y-14875524D01*
X8357857Y-15056476D02*
X8367381Y-15066000D01*
X8367381Y-15066000D02*
X8357857Y-15075524D01*
X8357857Y-15075524D02*
X8348333Y-15066000D01*
X8348333Y-15066000D02*
X8357857Y-15056476D01*
X8357857Y-15056476D02*
X8357857Y-15075524D01*
X8491191Y-14875524D02*
X8510238Y-14875524D01*
X8510238Y-14875524D02*
X8529286Y-14885048D01*
X8529286Y-14885048D02*
X8538810Y-14894571D01*
X8538810Y-14894571D02*
X8548334Y-14913619D01*
X8548334Y-14913619D02*
X8557857Y-14951714D01*
X8557857Y-14951714D02*
X8557857Y-14999333D01*
X8557857Y-14999333D02*
X8548334Y-15037428D01*
X8548334Y-15037428D02*
X8538810Y-15056476D01*
X8538810Y-15056476D02*
X8529286Y-15066000D01*
X8529286Y-15066000D02*
X8510238Y-15075524D01*
X8510238Y-15075524D02*
X8491191Y-15075524D01*
X8491191Y-15075524D02*
X8472143Y-15066000D01*
X8472143Y-15066000D02*
X8462619Y-15056476D01*
X8462619Y-15056476D02*
X8453095Y-15037428D01*
X8453095Y-15037428D02*
X8443572Y-14999333D01*
X8443572Y-14999333D02*
X8443572Y-14951714D01*
X8443572Y-14951714D02*
X8453095Y-14913619D01*
X8453095Y-14913619D02*
X8462619Y-14894571D01*
X8462619Y-14894571D02*
X8472143Y-14885048D01*
X8472143Y-14885048D02*
X8491191Y-14875524D01*
X8634048Y-14894571D02*
X8643572Y-14885048D01*
X8643572Y-14885048D02*
X8662619Y-14875524D01*
X8662619Y-14875524D02*
X8710238Y-14875524D01*
X8710238Y-14875524D02*
X8729286Y-14885048D01*
X8729286Y-14885048D02*
X8738810Y-14894571D01*
X8738810Y-14894571D02*
X8748334Y-14913619D01*
X8748334Y-14913619D02*
X8748334Y-14932667D01*
X8748334Y-14932667D02*
X8738810Y-14961238D01*
X8738810Y-14961238D02*
X8624524Y-15075524D01*
X8624524Y-15075524D02*
X8748334Y-15075524D01*
X8815000Y-14875524D02*
X8938810Y-14875524D01*
X8938810Y-14875524D02*
X8872143Y-14951714D01*
X8872143Y-14951714D02*
X8900715Y-14951714D01*
X8900715Y-14951714D02*
X8919762Y-14961238D01*
X8919762Y-14961238D02*
X8929286Y-14970762D01*
X8929286Y-14970762D02*
X8938810Y-14989809D01*
X8938810Y-14989809D02*
X8938810Y-15037428D01*
X8938810Y-15037428D02*
X8929286Y-15056476D01*
X8929286Y-15056476D02*
X8919762Y-15066000D01*
X8919762Y-15066000D02*
X8900715Y-15075524D01*
X8900715Y-15075524D02*
X8843572Y-15075524D01*
X8843572Y-15075524D02*
X8824524Y-15066000D01*
X8824524Y-15066000D02*
X8815000Y-15056476D01*
X9110238Y-14875524D02*
X9072143Y-14875524D01*
X9072143Y-14875524D02*
X9053095Y-14885048D01*
X9053095Y-14885048D02*
X9043572Y-14894571D01*
X9043572Y-14894571D02*
X9024524Y-14923143D01*
X9024524Y-14923143D02*
X9015000Y-14961238D01*
X9015000Y-14961238D02*
X9015000Y-15037428D01*
X9015000Y-15037428D02*
X9024524Y-15056476D01*
X9024524Y-15056476D02*
X9034048Y-15066000D01*
X9034048Y-15066000D02*
X9053095Y-15075524D01*
X9053095Y-15075524D02*
X9091191Y-15075524D01*
X9091191Y-15075524D02*
X9110238Y-15066000D01*
X9110238Y-15066000D02*
X9119762Y-15056476D01*
X9119762Y-15056476D02*
X9129286Y-15037428D01*
X9129286Y-15037428D02*
X9129286Y-14989809D01*
X9129286Y-14989809D02*
X9119762Y-14970762D01*
X9119762Y-14970762D02*
X9110238Y-14961238D01*
X9110238Y-14961238D02*
X9091191Y-14951714D01*
X9091191Y-14951714D02*
X9053095Y-14951714D01*
X9053095Y-14951714D02*
X9034048Y-14961238D01*
X9034048Y-14961238D02*
X9024524Y-14970762D01*
X9024524Y-14970762D02*
X9015000Y-14989809D01*
X9205476Y-14875524D02*
X9205476Y-14913619D01*
X9281667Y-14875524D02*
X9281667Y-14913619D01*
X9576905Y-15151714D02*
X9567381Y-15142190D01*
X9567381Y-15142190D02*
X9548334Y-15113619D01*
X9548334Y-15113619D02*
X9538810Y-15094571D01*
X9538810Y-15094571D02*
X9529286Y-15066000D01*
X9529286Y-15066000D02*
X9519762Y-15018381D01*
X9519762Y-15018381D02*
X9519762Y-14980286D01*
X9519762Y-14980286D02*
X9529286Y-14932667D01*
X9529286Y-14932667D02*
X9538810Y-14904095D01*
X9538810Y-14904095D02*
X9548334Y-14885048D01*
X9548334Y-14885048D02*
X9567381Y-14856476D01*
X9567381Y-14856476D02*
X9576905Y-14846952D01*
X9662619Y-15075524D02*
X9700715Y-15075524D01*
X9700715Y-15075524D02*
X9719762Y-15066000D01*
X9719762Y-15066000D02*
X9729286Y-15056476D01*
X9729286Y-15056476D02*
X9748334Y-15027905D01*
X9748334Y-15027905D02*
X9757857Y-14989809D01*
X9757857Y-14989809D02*
X9757857Y-14913619D01*
X9757857Y-14913619D02*
X9748334Y-14894571D01*
X9748334Y-14894571D02*
X9738810Y-14885048D01*
X9738810Y-14885048D02*
X9719762Y-14875524D01*
X9719762Y-14875524D02*
X9681667Y-14875524D01*
X9681667Y-14875524D02*
X9662619Y-14885048D01*
X9662619Y-14885048D02*
X9653096Y-14894571D01*
X9653096Y-14894571D02*
X9643572Y-14913619D01*
X9643572Y-14913619D02*
X9643572Y-14961238D01*
X9643572Y-14961238D02*
X9653096Y-14980286D01*
X9653096Y-14980286D02*
X9662619Y-14989809D01*
X9662619Y-14989809D02*
X9681667Y-14999333D01*
X9681667Y-14999333D02*
X9719762Y-14999333D01*
X9719762Y-14999333D02*
X9738810Y-14989809D01*
X9738810Y-14989809D02*
X9748334Y-14980286D01*
X9748334Y-14980286D02*
X9757857Y-14961238D01*
X9995953Y-15075524D02*
X9995953Y-14875524D01*
X10081667Y-15075524D02*
X10081667Y-14970762D01*
X10081667Y-14970762D02*
X10072143Y-14951714D01*
X10072143Y-14951714D02*
X10053096Y-14942190D01*
X10053096Y-14942190D02*
X10024524Y-14942190D01*
X10024524Y-14942190D02*
X10005477Y-14951714D01*
X10005477Y-14951714D02*
X9995953Y-14961238D01*
X10205477Y-15075524D02*
X10186429Y-15066000D01*
X10186429Y-15066000D02*
X10176905Y-15056476D01*
X10176905Y-15056476D02*
X10167381Y-15037428D01*
X10167381Y-15037428D02*
X10167381Y-14980286D01*
X10167381Y-14980286D02*
X10176905Y-14961238D01*
X10176905Y-14961238D02*
X10186429Y-14951714D01*
X10186429Y-14951714D02*
X10205477Y-14942190D01*
X10205477Y-14942190D02*
X10234048Y-14942190D01*
X10234048Y-14942190D02*
X10253096Y-14951714D01*
X10253096Y-14951714D02*
X10262619Y-14961238D01*
X10262619Y-14961238D02*
X10272143Y-14980286D01*
X10272143Y-14980286D02*
X10272143Y-15037428D01*
X10272143Y-15037428D02*
X10262619Y-15056476D01*
X10262619Y-15056476D02*
X10253096Y-15066000D01*
X10253096Y-15066000D02*
X10234048Y-15075524D01*
X10234048Y-15075524D02*
X10205477Y-15075524D01*
X10386429Y-15075524D02*
X10367381Y-15066000D01*
X10367381Y-15066000D02*
X10357858Y-15046952D01*
X10357858Y-15046952D02*
X10357858Y-14875524D01*
X10538810Y-15066000D02*
X10519762Y-15075524D01*
X10519762Y-15075524D02*
X10481667Y-15075524D01*
X10481667Y-15075524D02*
X10462619Y-15066000D01*
X10462619Y-15066000D02*
X10453096Y-15046952D01*
X10453096Y-15046952D02*
X10453096Y-14970762D01*
X10453096Y-14970762D02*
X10462619Y-14951714D01*
X10462619Y-14951714D02*
X10481667Y-14942190D01*
X10481667Y-14942190D02*
X10519762Y-14942190D01*
X10519762Y-14942190D02*
X10538810Y-14951714D01*
X10538810Y-14951714D02*
X10548334Y-14970762D01*
X10548334Y-14970762D02*
X10548334Y-14989809D01*
X10548334Y-14989809D02*
X10453096Y-15008857D01*
X10624524Y-15066000D02*
X10643572Y-15075524D01*
X10643572Y-15075524D02*
X10681667Y-15075524D01*
X10681667Y-15075524D02*
X10700715Y-15066000D01*
X10700715Y-15066000D02*
X10710239Y-15046952D01*
X10710239Y-15046952D02*
X10710239Y-15037428D01*
X10710239Y-15037428D02*
X10700715Y-15018381D01*
X10700715Y-15018381D02*
X10681667Y-15008857D01*
X10681667Y-15008857D02*
X10653096Y-15008857D01*
X10653096Y-15008857D02*
X10634048Y-14999333D01*
X10634048Y-14999333D02*
X10624524Y-14980286D01*
X10624524Y-14980286D02*
X10624524Y-14970762D01*
X10624524Y-14970762D02*
X10634048Y-14951714D01*
X10634048Y-14951714D02*
X10653096Y-14942190D01*
X10653096Y-14942190D02*
X10681667Y-14942190D01*
X10681667Y-14942190D02*
X10700715Y-14951714D01*
X10776905Y-15151714D02*
X10786429Y-15142190D01*
X10786429Y-15142190D02*
X10805477Y-15113619D01*
X10805477Y-15113619D02*
X10815000Y-15094571D01*
X10815000Y-15094571D02*
X10824524Y-15066000D01*
X10824524Y-15066000D02*
X10834048Y-15018381D01*
X10834048Y-15018381D02*
X10834048Y-14980286D01*
X10834048Y-14980286D02*
X10824524Y-14932667D01*
X10824524Y-14932667D02*
X10815000Y-14904095D01*
X10815000Y-14904095D02*
X10805477Y-14885048D01*
X10805477Y-14885048D02*
X10786429Y-14856476D01*
X10786429Y-14856476D02*
X10776905Y-14846952D01*
X5815000Y-15147000D02*
X6015000Y-15347000D01*
X6015000Y-15147000D02*
X5815000Y-15347000D01*
X6015000Y-15247000D02*
G75*
G03*
X6015000Y-15247000I-100000J0D01*
G01*
X6253095Y-15158571D02*
X6262619Y-15149048D01*
X6262619Y-15149048D02*
X6281667Y-15139524D01*
X6281667Y-15139524D02*
X6329286Y-15139524D01*
X6329286Y-15139524D02*
X6348333Y-15149048D01*
X6348333Y-15149048D02*
X6357857Y-15158571D01*
X6357857Y-15158571D02*
X6367381Y-15177619D01*
X6367381Y-15177619D02*
X6367381Y-15196667D01*
X6367381Y-15196667D02*
X6357857Y-15225238D01*
X6357857Y-15225238D02*
X6243571Y-15339524D01*
X6243571Y-15339524D02*
X6367381Y-15339524D01*
X6453095Y-15320476D02*
X6462619Y-15330000D01*
X6462619Y-15330000D02*
X6453095Y-15339524D01*
X6453095Y-15339524D02*
X6443571Y-15330000D01*
X6443571Y-15330000D02*
X6453095Y-15320476D01*
X6453095Y-15320476D02*
X6453095Y-15339524D01*
X6538809Y-15158571D02*
X6548333Y-15149048D01*
X6548333Y-15149048D02*
X6567381Y-15139524D01*
X6567381Y-15139524D02*
X6615000Y-15139524D01*
X6615000Y-15139524D02*
X6634048Y-15149048D01*
X6634048Y-15149048D02*
X6643571Y-15158571D01*
X6643571Y-15158571D02*
X6653095Y-15177619D01*
X6653095Y-15177619D02*
X6653095Y-15196667D01*
X6653095Y-15196667D02*
X6643571Y-15225238D01*
X6643571Y-15225238D02*
X6529286Y-15339524D01*
X6529286Y-15339524D02*
X6653095Y-15339524D01*
X6776905Y-15139524D02*
X6795952Y-15139524D01*
X6795952Y-15139524D02*
X6815000Y-15149048D01*
X6815000Y-15149048D02*
X6824524Y-15158571D01*
X6824524Y-15158571D02*
X6834048Y-15177619D01*
X6834048Y-15177619D02*
X6843571Y-15215714D01*
X6843571Y-15215714D02*
X6843571Y-15263333D01*
X6843571Y-15263333D02*
X6834048Y-15301428D01*
X6834048Y-15301428D02*
X6824524Y-15320476D01*
X6824524Y-15320476D02*
X6815000Y-15330000D01*
X6815000Y-15330000D02*
X6795952Y-15339524D01*
X6795952Y-15339524D02*
X6776905Y-15339524D01*
X6776905Y-15339524D02*
X6757857Y-15330000D01*
X6757857Y-15330000D02*
X6748333Y-15320476D01*
X6748333Y-15320476D02*
X6738809Y-15301428D01*
X6738809Y-15301428D02*
X6729286Y-15263333D01*
X6729286Y-15263333D02*
X6729286Y-15215714D01*
X6729286Y-15215714D02*
X6738809Y-15177619D01*
X6738809Y-15177619D02*
X6748333Y-15158571D01*
X6748333Y-15158571D02*
X6757857Y-15149048D01*
X6757857Y-15149048D02*
X6776905Y-15139524D01*
X6967381Y-15139524D02*
X6986429Y-15139524D01*
X6986429Y-15139524D02*
X7005476Y-15149048D01*
X7005476Y-15149048D02*
X7015000Y-15158571D01*
X7015000Y-15158571D02*
X7024524Y-15177619D01*
X7024524Y-15177619D02*
X7034048Y-15215714D01*
X7034048Y-15215714D02*
X7034048Y-15263333D01*
X7034048Y-15263333D02*
X7024524Y-15301428D01*
X7024524Y-15301428D02*
X7015000Y-15320476D01*
X7015000Y-15320476D02*
X7005476Y-15330000D01*
X7005476Y-15330000D02*
X6986429Y-15339524D01*
X6986429Y-15339524D02*
X6967381Y-15339524D01*
X6967381Y-15339524D02*
X6948333Y-15330000D01*
X6948333Y-15330000D02*
X6938809Y-15320476D01*
X6938809Y-15320476D02*
X6929286Y-15301428D01*
X6929286Y-15301428D02*
X6919762Y-15263333D01*
X6919762Y-15263333D02*
X6919762Y-15215714D01*
X6919762Y-15215714D02*
X6929286Y-15177619D01*
X6929286Y-15177619D02*
X6938809Y-15158571D01*
X6938809Y-15158571D02*
X6948333Y-15149048D01*
X6948333Y-15149048D02*
X6967381Y-15139524D01*
X7119762Y-15339524D02*
X7119762Y-15206190D01*
X7119762Y-15225238D02*
X7129286Y-15215714D01*
X7129286Y-15215714D02*
X7148333Y-15206190D01*
X7148333Y-15206190D02*
X7176905Y-15206190D01*
X7176905Y-15206190D02*
X7195952Y-15215714D01*
X7195952Y-15215714D02*
X7205476Y-15234762D01*
X7205476Y-15234762D02*
X7205476Y-15339524D01*
X7205476Y-15234762D02*
X7215000Y-15215714D01*
X7215000Y-15215714D02*
X7234048Y-15206190D01*
X7234048Y-15206190D02*
X7262619Y-15206190D01*
X7262619Y-15206190D02*
X7281667Y-15215714D01*
X7281667Y-15215714D02*
X7291190Y-15234762D01*
X7291190Y-15234762D02*
X7291190Y-15339524D01*
X7386429Y-15339524D02*
X7386429Y-15206190D01*
X7386429Y-15225238D02*
X7395952Y-15215714D01*
X7395952Y-15215714D02*
X7415000Y-15206190D01*
X7415000Y-15206190D02*
X7443571Y-15206190D01*
X7443571Y-15206190D02*
X7462619Y-15215714D01*
X7462619Y-15215714D02*
X7472143Y-15234762D01*
X7472143Y-15234762D02*
X7472143Y-15339524D01*
X7472143Y-15234762D02*
X7481667Y-15215714D01*
X7481667Y-15215714D02*
X7500714Y-15206190D01*
X7500714Y-15206190D02*
X7529286Y-15206190D01*
X7529286Y-15206190D02*
X7548333Y-15215714D01*
X7548333Y-15215714D02*
X7557857Y-15234762D01*
X7557857Y-15234762D02*
X7557857Y-15339524D01*
X7948333Y-15130000D02*
X7776905Y-15387143D01*
X8205476Y-15139524D02*
X8224524Y-15139524D01*
X8224524Y-15139524D02*
X8243572Y-15149048D01*
X8243572Y-15149048D02*
X8253095Y-15158571D01*
X8253095Y-15158571D02*
X8262619Y-15177619D01*
X8262619Y-15177619D02*
X8272143Y-15215714D01*
X8272143Y-15215714D02*
X8272143Y-15263333D01*
X8272143Y-15263333D02*
X8262619Y-15301428D01*
X8262619Y-15301428D02*
X8253095Y-15320476D01*
X8253095Y-15320476D02*
X8243572Y-15330000D01*
X8243572Y-15330000D02*
X8224524Y-15339524D01*
X8224524Y-15339524D02*
X8205476Y-15339524D01*
X8205476Y-15339524D02*
X8186429Y-15330000D01*
X8186429Y-15330000D02*
X8176905Y-15320476D01*
X8176905Y-15320476D02*
X8167381Y-15301428D01*
X8167381Y-15301428D02*
X8157857Y-15263333D01*
X8157857Y-15263333D02*
X8157857Y-15215714D01*
X8157857Y-15215714D02*
X8167381Y-15177619D01*
X8167381Y-15177619D02*
X8176905Y-15158571D01*
X8176905Y-15158571D02*
X8186429Y-15149048D01*
X8186429Y-15149048D02*
X8205476Y-15139524D01*
X8357857Y-15320476D02*
X8367381Y-15330000D01*
X8367381Y-15330000D02*
X8357857Y-15339524D01*
X8357857Y-15339524D02*
X8348333Y-15330000D01*
X8348333Y-15330000D02*
X8357857Y-15320476D01*
X8357857Y-15320476D02*
X8357857Y-15339524D01*
X8491191Y-15139524D02*
X8510238Y-15139524D01*
X8510238Y-15139524D02*
X8529286Y-15149048D01*
X8529286Y-15149048D02*
X8538810Y-15158571D01*
X8538810Y-15158571D02*
X8548334Y-15177619D01*
X8548334Y-15177619D02*
X8557857Y-15215714D01*
X8557857Y-15215714D02*
X8557857Y-15263333D01*
X8557857Y-15263333D02*
X8548334Y-15301428D01*
X8548334Y-15301428D02*
X8538810Y-15320476D01*
X8538810Y-15320476D02*
X8529286Y-15330000D01*
X8529286Y-15330000D02*
X8510238Y-15339524D01*
X8510238Y-15339524D02*
X8491191Y-15339524D01*
X8491191Y-15339524D02*
X8472143Y-15330000D01*
X8472143Y-15330000D02*
X8462619Y-15320476D01*
X8462619Y-15320476D02*
X8453095Y-15301428D01*
X8453095Y-15301428D02*
X8443572Y-15263333D01*
X8443572Y-15263333D02*
X8443572Y-15215714D01*
X8443572Y-15215714D02*
X8453095Y-15177619D01*
X8453095Y-15177619D02*
X8462619Y-15158571D01*
X8462619Y-15158571D02*
X8472143Y-15149048D01*
X8472143Y-15149048D02*
X8491191Y-15139524D01*
X8672143Y-15225238D02*
X8653095Y-15215714D01*
X8653095Y-15215714D02*
X8643572Y-15206190D01*
X8643572Y-15206190D02*
X8634048Y-15187143D01*
X8634048Y-15187143D02*
X8634048Y-15177619D01*
X8634048Y-15177619D02*
X8643572Y-15158571D01*
X8643572Y-15158571D02*
X8653095Y-15149048D01*
X8653095Y-15149048D02*
X8672143Y-15139524D01*
X8672143Y-15139524D02*
X8710238Y-15139524D01*
X8710238Y-15139524D02*
X8729286Y-15149048D01*
X8729286Y-15149048D02*
X8738810Y-15158571D01*
X8738810Y-15158571D02*
X8748334Y-15177619D01*
X8748334Y-15177619D02*
X8748334Y-15187143D01*
X8748334Y-15187143D02*
X8738810Y-15206190D01*
X8738810Y-15206190D02*
X8729286Y-15215714D01*
X8729286Y-15215714D02*
X8710238Y-15225238D01*
X8710238Y-15225238D02*
X8672143Y-15225238D01*
X8672143Y-15225238D02*
X8653095Y-15234762D01*
X8653095Y-15234762D02*
X8643572Y-15244286D01*
X8643572Y-15244286D02*
X8634048Y-15263333D01*
X8634048Y-15263333D02*
X8634048Y-15301428D01*
X8634048Y-15301428D02*
X8643572Y-15320476D01*
X8643572Y-15320476D02*
X8653095Y-15330000D01*
X8653095Y-15330000D02*
X8672143Y-15339524D01*
X8672143Y-15339524D02*
X8710238Y-15339524D01*
X8710238Y-15339524D02*
X8729286Y-15330000D01*
X8729286Y-15330000D02*
X8738810Y-15320476D01*
X8738810Y-15320476D02*
X8748334Y-15301428D01*
X8748334Y-15301428D02*
X8748334Y-15263333D01*
X8748334Y-15263333D02*
X8738810Y-15244286D01*
X8738810Y-15244286D02*
X8729286Y-15234762D01*
X8729286Y-15234762D02*
X8710238Y-15225238D01*
X8919762Y-15139524D02*
X8881667Y-15139524D01*
X8881667Y-15139524D02*
X8862619Y-15149048D01*
X8862619Y-15149048D02*
X8853095Y-15158571D01*
X8853095Y-15158571D02*
X8834048Y-15187143D01*
X8834048Y-15187143D02*
X8824524Y-15225238D01*
X8824524Y-15225238D02*
X8824524Y-15301428D01*
X8824524Y-15301428D02*
X8834048Y-15320476D01*
X8834048Y-15320476D02*
X8843572Y-15330000D01*
X8843572Y-15330000D02*
X8862619Y-15339524D01*
X8862619Y-15339524D02*
X8900715Y-15339524D01*
X8900715Y-15339524D02*
X8919762Y-15330000D01*
X8919762Y-15330000D02*
X8929286Y-15320476D01*
X8929286Y-15320476D02*
X8938810Y-15301428D01*
X8938810Y-15301428D02*
X8938810Y-15253809D01*
X8938810Y-15253809D02*
X8929286Y-15234762D01*
X8929286Y-15234762D02*
X8919762Y-15225238D01*
X8919762Y-15225238D02*
X8900715Y-15215714D01*
X8900715Y-15215714D02*
X8862619Y-15215714D01*
X8862619Y-15215714D02*
X8843572Y-15225238D01*
X8843572Y-15225238D02*
X8834048Y-15234762D01*
X8834048Y-15234762D02*
X8824524Y-15253809D01*
X9110238Y-15139524D02*
X9072143Y-15139524D01*
X9072143Y-15139524D02*
X9053095Y-15149048D01*
X9053095Y-15149048D02*
X9043572Y-15158571D01*
X9043572Y-15158571D02*
X9024524Y-15187143D01*
X9024524Y-15187143D02*
X9015000Y-15225238D01*
X9015000Y-15225238D02*
X9015000Y-15301428D01*
X9015000Y-15301428D02*
X9024524Y-15320476D01*
X9024524Y-15320476D02*
X9034048Y-15330000D01*
X9034048Y-15330000D02*
X9053095Y-15339524D01*
X9053095Y-15339524D02*
X9091191Y-15339524D01*
X9091191Y-15339524D02*
X9110238Y-15330000D01*
X9110238Y-15330000D02*
X9119762Y-15320476D01*
X9119762Y-15320476D02*
X9129286Y-15301428D01*
X9129286Y-15301428D02*
X9129286Y-15253809D01*
X9129286Y-15253809D02*
X9119762Y-15234762D01*
X9119762Y-15234762D02*
X9110238Y-15225238D01*
X9110238Y-15225238D02*
X9091191Y-15215714D01*
X9091191Y-15215714D02*
X9053095Y-15215714D01*
X9053095Y-15215714D02*
X9034048Y-15225238D01*
X9034048Y-15225238D02*
X9024524Y-15234762D01*
X9024524Y-15234762D02*
X9015000Y-15253809D01*
X9205476Y-15139524D02*
X9205476Y-15177619D01*
X9281667Y-15139524D02*
X9281667Y-15177619D01*
X9576905Y-15415714D02*
X9567381Y-15406190D01*
X9567381Y-15406190D02*
X9548334Y-15377619D01*
X9548334Y-15377619D02*
X9538810Y-15358571D01*
X9538810Y-15358571D02*
X9529286Y-15330000D01*
X9529286Y-15330000D02*
X9519762Y-15282381D01*
X9519762Y-15282381D02*
X9519762Y-15244286D01*
X9519762Y-15244286D02*
X9529286Y-15196667D01*
X9529286Y-15196667D02*
X9538810Y-15168095D01*
X9538810Y-15168095D02*
X9548334Y-15149048D01*
X9548334Y-15149048D02*
X9567381Y-15120476D01*
X9567381Y-15120476D02*
X9576905Y-15110952D01*
X9634048Y-15139524D02*
X9757857Y-15139524D01*
X9757857Y-15139524D02*
X9691191Y-15215714D01*
X9691191Y-15215714D02*
X9719762Y-15215714D01*
X9719762Y-15215714D02*
X9738810Y-15225238D01*
X9738810Y-15225238D02*
X9748334Y-15234762D01*
X9748334Y-15234762D02*
X9757857Y-15253809D01*
X9757857Y-15253809D02*
X9757857Y-15301428D01*
X9757857Y-15301428D02*
X9748334Y-15320476D01*
X9748334Y-15320476D02*
X9738810Y-15330000D01*
X9738810Y-15330000D02*
X9719762Y-15339524D01*
X9719762Y-15339524D02*
X9662619Y-15339524D01*
X9662619Y-15339524D02*
X9643572Y-15330000D01*
X9643572Y-15330000D02*
X9634048Y-15320476D01*
X9995953Y-15339524D02*
X9995953Y-15139524D01*
X10081667Y-15339524D02*
X10081667Y-15234762D01*
X10081667Y-15234762D02*
X10072143Y-15215714D01*
X10072143Y-15215714D02*
X10053096Y-15206190D01*
X10053096Y-15206190D02*
X10024524Y-15206190D01*
X10024524Y-15206190D02*
X10005477Y-15215714D01*
X10005477Y-15215714D02*
X9995953Y-15225238D01*
X10205477Y-15339524D02*
X10186429Y-15330000D01*
X10186429Y-15330000D02*
X10176905Y-15320476D01*
X10176905Y-15320476D02*
X10167381Y-15301428D01*
X10167381Y-15301428D02*
X10167381Y-15244286D01*
X10167381Y-15244286D02*
X10176905Y-15225238D01*
X10176905Y-15225238D02*
X10186429Y-15215714D01*
X10186429Y-15215714D02*
X10205477Y-15206190D01*
X10205477Y-15206190D02*
X10234048Y-15206190D01*
X10234048Y-15206190D02*
X10253096Y-15215714D01*
X10253096Y-15215714D02*
X10262619Y-15225238D01*
X10262619Y-15225238D02*
X10272143Y-15244286D01*
X10272143Y-15244286D02*
X10272143Y-15301428D01*
X10272143Y-15301428D02*
X10262619Y-15320476D01*
X10262619Y-15320476D02*
X10253096Y-15330000D01*
X10253096Y-15330000D02*
X10234048Y-15339524D01*
X10234048Y-15339524D02*
X10205477Y-15339524D01*
X10386429Y-15339524D02*
X10367381Y-15330000D01*
X10367381Y-15330000D02*
X10357858Y-15310952D01*
X10357858Y-15310952D02*
X10357858Y-15139524D01*
X10538810Y-15330000D02*
X10519762Y-15339524D01*
X10519762Y-15339524D02*
X10481667Y-15339524D01*
X10481667Y-15339524D02*
X10462619Y-15330000D01*
X10462619Y-15330000D02*
X10453096Y-15310952D01*
X10453096Y-15310952D02*
X10453096Y-15234762D01*
X10453096Y-15234762D02*
X10462619Y-15215714D01*
X10462619Y-15215714D02*
X10481667Y-15206190D01*
X10481667Y-15206190D02*
X10519762Y-15206190D01*
X10519762Y-15206190D02*
X10538810Y-15215714D01*
X10538810Y-15215714D02*
X10548334Y-15234762D01*
X10548334Y-15234762D02*
X10548334Y-15253809D01*
X10548334Y-15253809D02*
X10453096Y-15272857D01*
X10624524Y-15330000D02*
X10643572Y-15339524D01*
X10643572Y-15339524D02*
X10681667Y-15339524D01*
X10681667Y-15339524D02*
X10700715Y-15330000D01*
X10700715Y-15330000D02*
X10710239Y-15310952D01*
X10710239Y-15310952D02*
X10710239Y-15301428D01*
X10710239Y-15301428D02*
X10700715Y-15282381D01*
X10700715Y-15282381D02*
X10681667Y-15272857D01*
X10681667Y-15272857D02*
X10653096Y-15272857D01*
X10653096Y-15272857D02*
X10634048Y-15263333D01*
X10634048Y-15263333D02*
X10624524Y-15244286D01*
X10624524Y-15244286D02*
X10624524Y-15234762D01*
X10624524Y-15234762D02*
X10634048Y-15215714D01*
X10634048Y-15215714D02*
X10653096Y-15206190D01*
X10653096Y-15206190D02*
X10681667Y-15206190D01*
X10681667Y-15206190D02*
X10700715Y-15215714D01*
X10776905Y-15415714D02*
X10786429Y-15406190D01*
X10786429Y-15406190D02*
X10805477Y-15377619D01*
X10805477Y-15377619D02*
X10815000Y-15358571D01*
X10815000Y-15358571D02*
X10824524Y-15330000D01*
X10824524Y-15330000D02*
X10834048Y-15282381D01*
X10834048Y-15282381D02*
X10834048Y-15244286D01*
X10834048Y-15244286D02*
X10824524Y-15196667D01*
X10824524Y-15196667D02*
X10815000Y-15168095D01*
X10815000Y-15168095D02*
X10805477Y-15149048D01*
X10805477Y-15149048D02*
X10786429Y-15120476D01*
X10786429Y-15120476D02*
X10776905Y-15110952D01*
M02*
