G04 #@! TF.GenerationSoftware,KiCad,Pcbnew,7.0.1*
G04 #@! TF.CreationDate,2023-04-16T16:23:16+07:00*
G04 #@! TF.ProjectId,chargerV1,63686172-6765-4725-9631-2e6b69636164,rev?*
G04 #@! TF.SameCoordinates,Original*
G04 #@! TF.FileFunction,Copper,L2,Bot*
G04 #@! TF.FilePolarity,Positive*
%FSLAX46Y46*%
G04 Gerber Fmt 4.6, Leading zero omitted, Abs format (unit mm)*
G04 Created by KiCad (PCBNEW 7.0.1) date 2023-04-16 16:23:16*
%MOMM*%
%LPD*%
G01*
G04 APERTURE LIST*
G04 Aperture macros list*
%AMRoundRect*
0 Rectangle with rounded corners*
0 $1 Rounding radius*
0 $2 $3 $4 $5 $6 $7 $8 $9 X,Y pos of 4 corners*
0 Add a 4 corners polygon primitive as box body*
4,1,4,$2,$3,$4,$5,$6,$7,$8,$9,$2,$3,0*
0 Add four circle primitives for the rounded corners*
1,1,$1+$1,$2,$3*
1,1,$1+$1,$4,$5*
1,1,$1+$1,$6,$7*
1,1,$1+$1,$8,$9*
0 Add four rect primitives between the rounded corners*
20,1,$1+$1,$2,$3,$4,$5,0*
20,1,$1+$1,$4,$5,$6,$7,0*
20,1,$1+$1,$6,$7,$8,$9,0*
20,1,$1+$1,$8,$9,$2,$3,0*%
G04 Aperture macros list end*
G04 #@! TA.AperFunction,ComponentPad*
%ADD10O,2.100000X1.000000*%
G04 #@! TD*
G04 #@! TA.AperFunction,ComponentPad*
%ADD11O,1.600000X1.000000*%
G04 #@! TD*
G04 #@! TA.AperFunction,ComponentPad*
%ADD12C,1.000000*%
G04 #@! TD*
G04 #@! TA.AperFunction,ComponentPad*
%ADD13C,0.700000*%
G04 #@! TD*
G04 #@! TA.AperFunction,ComponentPad*
%ADD14C,4.400000*%
G04 #@! TD*
G04 #@! TA.AperFunction,SMDPad,CuDef*
%ADD15RoundRect,0.150000X-0.625000X0.150000X-0.625000X-0.150000X0.625000X-0.150000X0.625000X0.150000X0*%
G04 #@! TD*
G04 #@! TA.AperFunction,SMDPad,CuDef*
%ADD16RoundRect,0.250000X-0.650000X0.350000X-0.650000X-0.350000X0.650000X-0.350000X0.650000X0.350000X0*%
G04 #@! TD*
G04 #@! TA.AperFunction,SMDPad,CuDef*
%ADD17R,2.100000X0.750000*%
G04 #@! TD*
G04 #@! TA.AperFunction,ViaPad*
%ADD18C,0.800000*%
G04 #@! TD*
G04 #@! TA.AperFunction,ViaPad*
%ADD19C,1.000000*%
G04 #@! TD*
G04 #@! TA.AperFunction,Conductor*
%ADD20C,0.600000*%
G04 #@! TD*
G04 #@! TA.AperFunction,Conductor*
%ADD21C,1.200000*%
G04 #@! TD*
G04 #@! TA.AperFunction,Conductor*
%ADD22C,0.250000*%
G04 #@! TD*
G04 APERTURE END LIST*
D10*
X65625000Y-90720000D03*
D11*
X61445000Y-90720000D03*
D10*
X65625000Y-99360000D03*
D11*
X61445000Y-99360000D03*
D12*
X115995000Y-97615000D03*
X114705000Y-97665000D03*
X113405000Y-97665000D03*
X116005000Y-98915000D03*
X114715000Y-98965000D03*
X113415000Y-98965000D03*
X116025000Y-100275000D03*
X114735000Y-100325000D03*
X113435000Y-100325000D03*
D13*
X61050000Y-130300000D03*
X61533274Y-129133274D03*
X61533274Y-131466726D03*
X62700000Y-128650000D03*
D14*
X62700000Y-130300000D03*
D13*
X62700000Y-131950000D03*
X63866726Y-129133274D03*
X63866726Y-131466726D03*
X64350000Y-130300000D03*
X126040000Y-130280000D03*
X126523274Y-129113274D03*
X126523274Y-131446726D03*
X127690000Y-128630000D03*
D14*
X127690000Y-130280000D03*
D13*
X127690000Y-131930000D03*
X128856726Y-129113274D03*
X128856726Y-131446726D03*
X129340000Y-130280000D03*
X61073274Y-84323274D03*
X61556548Y-83156548D03*
X61556548Y-85490000D03*
X62723274Y-82673274D03*
D14*
X62723274Y-84323274D03*
D13*
X62723274Y-85973274D03*
X63890000Y-83156548D03*
X63890000Y-85490000D03*
X64373274Y-84323274D03*
D15*
X92240000Y-70300000D03*
X92240000Y-71300000D03*
X92240000Y-72300000D03*
X92240000Y-73300000D03*
D16*
X96115000Y-69000000D03*
X96115000Y-74600000D03*
D17*
X74100000Y-87500000D03*
X77700000Y-87500000D03*
X74100000Y-88770000D03*
X77700000Y-88770000D03*
X74100000Y-90040000D03*
X77700000Y-90040000D03*
X74100000Y-91310000D03*
X77700000Y-91310000D03*
X74100000Y-92580000D03*
X77700000Y-92580000D03*
D18*
X123860000Y-131170000D03*
X61570000Y-114498940D03*
X63070000Y-88110000D03*
X83650000Y-72980000D03*
X98920000Y-73200000D03*
X122400000Y-126930000D03*
X100570000Y-93070000D03*
X99850000Y-85830000D03*
X90526660Y-82880000D03*
X61570000Y-109747364D03*
X122410000Y-131170000D03*
X90700000Y-94720000D03*
X80618419Y-128730000D03*
X67942636Y-131710000D03*
X85711569Y-131710000D03*
X88249988Y-131710000D03*
X95865245Y-131710000D03*
X87010000Y-113305000D03*
X95030000Y-110880000D03*
X101620000Y-85520000D03*
X64090000Y-104995788D03*
X78450000Y-105540000D03*
X100942092Y-131710000D03*
X64580000Y-88110000D03*
X64090000Y-112123152D03*
X77000000Y-104150000D03*
X61570000Y-107371576D03*
X78445000Y-104150000D03*
X100570000Y-94350000D03*
X87694280Y-82880000D03*
X84960000Y-72980000D03*
X114830000Y-112740000D03*
X88650000Y-94730000D03*
X66170000Y-82880000D03*
X64090000Y-102620000D03*
X83650000Y-73980000D03*
X127310000Y-82970000D03*
X83173150Y-131710000D03*
X73019474Y-131710000D03*
X78080000Y-128730000D03*
X73532380Y-82880000D03*
X88233676Y-128730000D03*
X99023800Y-82880000D03*
X88400000Y-113300000D03*
X106940000Y-112680000D03*
X102810000Y-92760000D03*
X83156838Y-128730000D03*
X100827500Y-128840000D03*
X67880000Y-82880000D03*
X98920000Y-74200000D03*
X100230000Y-73200000D03*
X120060000Y-85840000D03*
X98920000Y-75200000D03*
X100570000Y-95630000D03*
X122030000Y-87620000D03*
X107930000Y-111660000D03*
X83650000Y-74980000D03*
X121280000Y-86290000D03*
X122400000Y-128343333D03*
X121986500Y-82970000D03*
X100230000Y-75200000D03*
X115840000Y-113760000D03*
X106930000Y-111660000D03*
X88400000Y-116190000D03*
X64090000Y-109747364D03*
X72910000Y-126601581D03*
X84960000Y-74980000D03*
X98403664Y-131710000D03*
X87010000Y-116195000D03*
X123761000Y-82970000D03*
X61570000Y-124002092D03*
X76364760Y-82880000D03*
X102300000Y-128840000D03*
X103280000Y-85520000D03*
X114840000Y-113760000D03*
X64090000Y-114498940D03*
X102800000Y-90490000D03*
X100560000Y-91790000D03*
X67880000Y-84705000D03*
X100230000Y-74200000D03*
X96191420Y-82880000D03*
X90700000Y-93520000D03*
X66170000Y-84705000D03*
X84960000Y-73980000D03*
X99355000Y-128840000D03*
X88650000Y-93530000D03*
X79197140Y-82880000D03*
X97882500Y-128840000D03*
X70700000Y-82880000D03*
X77005000Y-105540000D03*
X79890000Y-104150000D03*
X93359040Y-82880000D03*
X122410000Y-129756666D03*
X93326826Y-131710000D03*
X61570000Y-119250516D03*
X82029520Y-82880000D03*
X66170000Y-86530000D03*
X120212000Y-82970000D03*
X87010000Y-114750000D03*
X85695257Y-128730000D03*
X95030000Y-112130000D03*
X125535500Y-82970000D03*
X88400000Y-114745000D03*
X80634731Y-131710000D03*
X61560000Y-88110000D03*
X123860000Y-129756666D03*
X75557893Y-131710000D03*
X123850000Y-128343333D03*
X61570000Y-104995788D03*
X64090000Y-116874728D03*
X61570000Y-102620000D03*
X96410000Y-128840000D03*
X115830000Y-112740000D03*
X61570000Y-116874728D03*
X90788407Y-131710000D03*
X78096312Y-131710000D03*
X72910000Y-124063162D03*
X67880000Y-86530000D03*
X64090000Y-107371576D03*
X61570000Y-121626304D03*
X102810000Y-91630000D03*
X72910000Y-121524743D03*
X107940000Y-112680000D03*
X61570000Y-112123152D03*
X123850000Y-126930000D03*
X95030000Y-109600000D03*
X70481055Y-131710000D03*
X79895000Y-105540000D03*
X84861900Y-82880000D03*
X110900000Y-122950000D03*
X110900000Y-130310000D03*
D19*
X69220000Y-96570000D03*
X71720000Y-87650000D03*
X88020000Y-121620000D03*
X86550000Y-123270000D03*
X69240000Y-93140000D03*
X69220000Y-94855000D03*
X70730000Y-96570000D03*
X70730000Y-94855000D03*
X70750000Y-93140000D03*
X71740000Y-89480000D03*
X86550000Y-121620000D03*
D18*
X105545000Y-109540000D03*
X98900326Y-105640000D03*
X121790000Y-119130000D03*
X99090000Y-113920144D03*
X121800000Y-122130000D03*
X92320000Y-92860000D03*
X110430000Y-92160000D03*
X109080000Y-92140000D03*
X93600000Y-92860000D03*
X94860000Y-92860000D03*
X107830000Y-92155500D03*
X91900000Y-121670000D03*
X104680000Y-110640000D03*
X101110000Y-100730000D03*
X115710000Y-107020000D03*
X83904341Y-92890000D03*
X85140000Y-92890000D03*
X102290000Y-99490000D03*
X119510000Y-106980000D03*
X109338135Y-106883684D03*
X108090000Y-105870000D03*
X104820000Y-67530000D03*
X89500000Y-67330000D03*
X74180000Y-67530000D03*
X111895000Y-109840000D03*
X109770000Y-115490000D03*
X113165000Y-109880000D03*
X107560000Y-118180000D03*
X111970000Y-115490000D03*
X120780000Y-109800000D03*
X67760000Y-107110000D03*
X67760000Y-119270000D03*
D20*
X110900000Y-122950000D02*
X110900000Y-130310000D01*
D21*
X86550000Y-123270000D02*
X86550000Y-120290509D01*
X70610000Y-93918242D02*
X70610000Y-116240000D01*
X73240000Y-118870000D02*
X85129491Y-118870000D01*
X86550000Y-120290509D02*
G75*
G03*
X85129491Y-118870000I-1420500J9D01*
G01*
X70610000Y-116240000D02*
G75*
G03*
X73240000Y-118870000I2630000J0D01*
G01*
D22*
X121182053Y-119130000D02*
X121790000Y-119130000D01*
X98900326Y-105640000D02*
X98902015Y-105641689D01*
X100743184Y-109540000D02*
X105545000Y-109540000D01*
X106500000Y-119210000D02*
X114626203Y-119210000D01*
X117716396Y-120490000D02*
X118756325Y-120490000D01*
X98902015Y-105641689D02*
X98902015Y-107828318D01*
X120060000Y-119950000D02*
X120666416Y-119343584D01*
X105545000Y-118160000D02*
X105545000Y-109540000D01*
X105545000Y-118160000D02*
X105545000Y-118255000D01*
X98901942Y-107828323D02*
G75*
G03*
X100743184Y-109539999I1843058J136423D01*
G01*
X116630001Y-120039999D02*
G75*
G03*
X117716396Y-120490000I1086399J1086399D01*
G01*
X121182053Y-119129961D02*
G75*
G03*
X120666416Y-119343584I47J-729239D01*
G01*
X116629999Y-120040001D02*
G75*
G03*
X114626203Y-119210000I-2003799J-2003799D01*
G01*
X118756325Y-120490010D02*
G75*
G03*
X120060000Y-119950000I-25J1843710D01*
G01*
X105545000Y-118255000D02*
G75*
G03*
X106500000Y-119210000I955000J0D01*
G01*
X116180000Y-121360000D02*
X116002167Y-121182168D01*
X113800000Y-120270000D02*
X101360000Y-120270000D01*
X99089826Y-117999826D02*
X99089826Y-113920318D01*
X121800000Y-122130000D02*
X118038944Y-122130000D01*
X116002160Y-121182175D02*
G75*
G03*
X113800000Y-120270000I-2202160J-2202125D01*
G01*
X99089800Y-117999826D02*
G75*
G03*
X101360000Y-120270000I2270200J26D01*
G01*
X99090000Y-113920126D02*
G75*
G03*
X99089827Y-113920318I0J-174D01*
G01*
X116179987Y-121360013D02*
G75*
G03*
X118038944Y-122130000I1858913J1858913D01*
G01*
X110430000Y-96429920D02*
X110430000Y-92160000D01*
X93990000Y-98350000D02*
X108509920Y-98350000D01*
X92320000Y-92860000D02*
X92320000Y-96680000D01*
X108509920Y-98350000D02*
G75*
G03*
X110430000Y-96429920I-20J1920100D01*
G01*
X92320000Y-96680000D02*
G75*
G03*
X93990000Y-98350000I1670000J0D01*
G01*
X95820000Y-97560000D02*
X107808325Y-97560000D01*
X109080000Y-96288325D02*
X109080000Y-92140000D01*
X93600000Y-92860000D02*
X93600000Y-95340000D01*
X107808325Y-97560000D02*
G75*
G03*
X109080000Y-96288325I-25J1271700D01*
G01*
X93600000Y-95340000D02*
G75*
G03*
X95820000Y-97560000I2220000J0D01*
G01*
X94860000Y-94370000D02*
X94860000Y-92860000D01*
X107830000Y-95935120D02*
X107830000Y-92155500D01*
X97220000Y-96730000D02*
X107035120Y-96730000D01*
X107035120Y-96730000D02*
G75*
G03*
X107830000Y-95935120I-20J794900D01*
G01*
X94860000Y-94370000D02*
G75*
G03*
X97220000Y-96730000I2360000J0D01*
G01*
X95350000Y-114040000D02*
X95350000Y-120407484D01*
X94206891Y-121658009D02*
X91911991Y-121658009D01*
X104679995Y-112242682D02*
X104679995Y-110640005D01*
X103812666Y-113110000D02*
X96280000Y-113110000D01*
X104680000Y-110640000D02*
G75*
G03*
X104680000Y-110640000I0J0D01*
G01*
X91911991Y-121658000D02*
G75*
G03*
X91900000Y-121670000I9J-12000D01*
G01*
X103812666Y-113109995D02*
G75*
G03*
X104679995Y-112242682I34J867295D01*
G01*
X94206887Y-121657962D02*
G75*
G03*
X95349999Y-120407484I-114687J1252562D01*
G01*
X96280000Y-113110000D02*
G75*
G03*
X95350000Y-114040000I0J-930000D01*
G01*
X83904341Y-92890000D02*
X83904341Y-99174341D01*
X111577901Y-107020000D02*
X115710000Y-107020000D01*
X85460000Y-100730000D02*
X107680000Y-100730000D01*
X108950000Y-102000000D02*
X108950000Y-104392099D01*
X83904300Y-99174341D02*
G75*
G03*
X85460000Y-100730000I1555700J41D01*
G01*
X108950000Y-104392099D02*
G75*
G03*
X111577901Y-107020000I2627900J-1D01*
G01*
X108950000Y-102000000D02*
G75*
G03*
X107680000Y-100730000I-1270000J0D01*
G01*
X110180000Y-101760000D02*
X110180000Y-103550000D01*
X119510000Y-106355403D02*
X119510000Y-106980000D01*
X86690000Y-99490000D02*
X107910000Y-99490000D01*
X85140000Y-97940000D02*
X85140000Y-92890000D01*
X112070000Y-105440000D02*
X118594597Y-105440000D01*
X119510000Y-106355403D02*
G75*
G03*
X118594597Y-105440000I-915400J3D01*
G01*
X110180000Y-101760000D02*
G75*
G03*
X107910000Y-99490000I-2270000J0D01*
G01*
X110180000Y-103550000D02*
G75*
G03*
X112070000Y-105440000I1890000J0D01*
G01*
X85140000Y-97940000D02*
G75*
G03*
X86690000Y-99490000I1550000J0D01*
G01*
X101730000Y-104085188D02*
X101730000Y-105414630D01*
X75360000Y-102760000D02*
X100404812Y-102760000D01*
X72000000Y-91730000D02*
X72000000Y-99400000D01*
X109338135Y-106883684D02*
X103199054Y-106883684D01*
X73946200Y-91290000D02*
X72440000Y-91290000D01*
X73946200Y-91310000D02*
X73946200Y-91290000D01*
X101730000Y-104085188D02*
G75*
G03*
X100404812Y-102760000I-1325200J-12D01*
G01*
X72000000Y-99400000D02*
G75*
G03*
X75360000Y-102760000I3360000J0D01*
G01*
X101730016Y-105414630D02*
G75*
G03*
X103199054Y-106883684I1469084J30D01*
G01*
X72440000Y-91290000D02*
G75*
G03*
X72000000Y-91730000I0J-440000D01*
G01*
X73946200Y-98690831D02*
X73946200Y-92580000D01*
X103640000Y-104658657D02*
X103640000Y-103373881D01*
X102016119Y-101750000D02*
X77005369Y-101750000D01*
X108090000Y-105870000D02*
X104851343Y-105870000D01*
X103640000Y-104658657D02*
G75*
G03*
X104851343Y-105870000I1211300J-43D01*
G01*
X103640000Y-103373881D02*
G75*
G03*
X102016119Y-101750000I-1623900J-19D01*
G01*
X73946200Y-98690831D02*
G75*
G03*
X77005369Y-101750000I3059200J31D01*
G01*
X104820000Y-67530000D02*
X104820000Y-69628052D01*
X92240000Y-71300000D02*
X103148052Y-71300000D01*
X103148052Y-71300000D02*
G75*
G03*
X104820000Y-69628052I48J1671900D01*
G01*
X89500000Y-67330000D02*
X89500000Y-71676751D01*
X92240000Y-72300000D02*
X90123249Y-72300000D01*
X89500000Y-71676751D02*
G75*
G03*
X90123249Y-72300000I623200J-49D01*
G01*
X92240000Y-73300000D02*
X88432497Y-73300000D01*
X74180000Y-69153645D02*
X74180000Y-67530000D01*
X83121228Y-71100000D02*
X76126355Y-71100000D01*
X74180000Y-69153645D02*
G75*
G03*
X76126355Y-71100000I1946400J45D01*
G01*
X85969992Y-72280008D02*
G75*
G03*
X83121228Y-71100000I-2848792J-2848792D01*
G01*
X85970001Y-72279999D02*
G75*
G03*
X88432497Y-73300000I2462499J2462499D01*
G01*
X111895000Y-109840000D02*
X111898722Y-109843722D01*
X109770000Y-110407658D02*
X109770000Y-115490000D01*
X110337658Y-109840000D02*
X111895000Y-109840000D01*
X110337658Y-109840000D02*
G75*
G03*
X109770000Y-110407658I42J-567700D01*
G01*
X111532112Y-111180000D02*
X112413640Y-111180000D01*
X110910000Y-117093870D02*
X110910000Y-111802112D01*
X113165000Y-110428640D02*
X113165000Y-109880000D01*
X107560000Y-118180000D02*
X109823870Y-118180000D01*
X109823870Y-118180000D02*
G75*
G03*
X110910000Y-117093870I30J1086100D01*
G01*
X112413640Y-111180000D02*
G75*
G03*
X113165000Y-110428640I-40J751400D01*
G01*
X111532112Y-111180000D02*
G75*
G03*
X110910000Y-111802112I-12J-622100D01*
G01*
X118940812Y-115490000D02*
X111970000Y-115490000D01*
X120780000Y-109800000D02*
X120780000Y-113650812D01*
X118940812Y-115490000D02*
G75*
G03*
X120780000Y-113650812I-12J1839200D01*
G01*
D20*
X67760000Y-107110000D02*
X67760000Y-119270000D01*
G04 #@! TA.AperFunction,Conductor*
G36*
X113635313Y-63010880D02*
G01*
X113861234Y-63027037D01*
X113882267Y-63030061D01*
X114098397Y-63077078D01*
X114118781Y-63083063D01*
X114237579Y-63127372D01*
X114326013Y-63160356D01*
X114345351Y-63169188D01*
X114539466Y-63275183D01*
X114557347Y-63286674D01*
X114734404Y-63419217D01*
X114750471Y-63433139D01*
X114906860Y-63589528D01*
X114920782Y-63605595D01*
X115053323Y-63782649D01*
X115064816Y-63800533D01*
X115170811Y-63994648D01*
X115179643Y-64013986D01*
X115256934Y-64221212D01*
X115262923Y-64241609D01*
X115309937Y-64457726D01*
X115312962Y-64478769D01*
X115329120Y-64704686D01*
X115329500Y-64715316D01*
X115329500Y-78894510D01*
X115329120Y-78905142D01*
X115312958Y-79131063D01*
X115309932Y-79152105D01*
X115262918Y-79368210D01*
X115256929Y-79388609D01*
X115179634Y-79595834D01*
X115170802Y-79615171D01*
X115064806Y-79809282D01*
X115053313Y-79827165D01*
X114920773Y-80004215D01*
X114906851Y-80020282D01*
X114750458Y-80176673D01*
X114734398Y-80190588D01*
X114604585Y-80287764D01*
X114557345Y-80323127D01*
X114539461Y-80334620D01*
X114345343Y-80440615D01*
X114326006Y-80449446D01*
X114118781Y-80526736D01*
X114098383Y-80532725D01*
X113882271Y-80579737D01*
X113861229Y-80582762D01*
X113634851Y-80598953D01*
X113624221Y-80599333D01*
X113560904Y-80599333D01*
X113560065Y-80599500D01*
X111046534Y-80599500D01*
X111042096Y-80600000D01*
X106217156Y-80600000D01*
X106214148Y-80599661D01*
X106160788Y-80599664D01*
X106157848Y-80599333D01*
X106142557Y-80599333D01*
X79441832Y-80599333D01*
X79441520Y-80599270D01*
X79287651Y-80599261D01*
X79281092Y-80600000D01*
X74457904Y-80600000D01*
X74453466Y-80599500D01*
X74438927Y-80599500D01*
X74382590Y-80599500D01*
X70269935Y-80599500D01*
X70269096Y-80599333D01*
X70239882Y-80599333D01*
X70205316Y-80599333D01*
X70194687Y-80598953D01*
X69968767Y-80582795D01*
X69947724Y-80579770D01*
X69731603Y-80532756D01*
X69711211Y-80526768D01*
X69503982Y-80449477D01*
X69484644Y-80440646D01*
X69290524Y-80334650D01*
X69272640Y-80323156D01*
X69095584Y-80190616D01*
X69079523Y-80176700D01*
X69001322Y-80098501D01*
X68923123Y-80020303D01*
X68909201Y-80004237D01*
X68776658Y-79827184D01*
X68765165Y-79809300D01*
X68659167Y-79615186D01*
X68650335Y-79595848D01*
X68650330Y-79595834D01*
X68573037Y-79388610D01*
X68567052Y-79368226D01*
X68520033Y-79152101D01*
X68517010Y-79131076D01*
X68500879Y-78905602D01*
X68500500Y-78894971D01*
X68500500Y-67530000D01*
X73374434Y-67530000D01*
X73394632Y-67709256D01*
X73418782Y-67778271D01*
X73421929Y-67788409D01*
X73435144Y-67837039D01*
X73644874Y-68391848D01*
X73654500Y-68444534D01*
X73654500Y-69063599D01*
X73654497Y-69063619D01*
X73654500Y-69138358D01*
X73654500Y-69189599D01*
X73654502Y-69303176D01*
X73690553Y-69600026D01*
X73762122Y-69890374D01*
X73868167Y-70169982D01*
X74007136Y-70434760D01*
X74130470Y-70613437D01*
X74177010Y-70680861D01*
X74375308Y-70904692D01*
X74599139Y-71102990D01*
X74604801Y-71106898D01*
X74845239Y-71272863D01*
X75110017Y-71411832D01*
X75110021Y-71411833D01*
X75110022Y-71411834D01*
X75389624Y-71517877D01*
X75679970Y-71589446D01*
X75828397Y-71607471D01*
X75976822Y-71625497D01*
X75976825Y-71625497D01*
X76029944Y-71625497D01*
X76029956Y-71625500D01*
X76126343Y-71625500D01*
X76195526Y-71625502D01*
X76195527Y-71625501D01*
X76216381Y-71625502D01*
X76216402Y-71625500D01*
X83052041Y-71625500D01*
X83117576Y-71625500D01*
X83124887Y-71625679D01*
X83457302Y-71642012D01*
X83471830Y-71643442D01*
X83797445Y-71691745D01*
X83811776Y-71694596D01*
X84131068Y-71774576D01*
X84145051Y-71778817D01*
X84454988Y-71889716D01*
X84468467Y-71895299D01*
X84766042Y-72036044D01*
X84778922Y-72042928D01*
X85061271Y-72212162D01*
X85073401Y-72220267D01*
X85337791Y-72416352D01*
X85349091Y-72425625D01*
X85593529Y-72647172D01*
X85595862Y-72649286D01*
X85601159Y-72654329D01*
X85660299Y-72713469D01*
X85660309Y-72713477D01*
X85703892Y-72757059D01*
X85722155Y-72775322D01*
X85990259Y-73000289D01*
X86276951Y-73201032D01*
X86580047Y-73376025D01*
X86897242Y-73523936D01*
X87226121Y-73643638D01*
X87395151Y-73688929D01*
X87564184Y-73734222D01*
X87736515Y-73764608D01*
X87908850Y-73794996D01*
X88257504Y-73825499D01*
X88342916Y-73825499D01*
X88342924Y-73825500D01*
X88432497Y-73825500D01*
X88501680Y-73825501D01*
X88501684Y-73825500D01*
X91042099Y-73825500D01*
X91099406Y-73836961D01*
X91113713Y-73842922D01*
X91397106Y-73961002D01*
X91436278Y-73972926D01*
X91448868Y-73976759D01*
X91460135Y-73980688D01*
X91483436Y-73989877D01*
X91527667Y-73995188D01*
X91571897Y-74000500D01*
X91571898Y-74000500D01*
X92908102Y-74000500D01*
X92908103Y-74000500D01*
X92996564Y-73989877D01*
X93019860Y-73980690D01*
X93137342Y-73934361D01*
X93257922Y-73842922D01*
X93349361Y-73722342D01*
X93404877Y-73581564D01*
X93415500Y-73493102D01*
X93415500Y-73106898D01*
X93404877Y-73018436D01*
X93349361Y-72877658D01*
X93341848Y-72858606D01*
X93343867Y-72857809D01*
X93331939Y-72831975D01*
X93331939Y-72768025D01*
X93343867Y-72742190D01*
X93341848Y-72741394D01*
X93404877Y-72581564D01*
X93415500Y-72493103D01*
X93415500Y-72106897D01*
X93402590Y-71999387D01*
X93405103Y-71999085D01*
X93399634Y-71958004D01*
X93424538Y-71890669D01*
X93478040Y-71842796D01*
X93547718Y-71825500D01*
X103148037Y-71825500D01*
X103280960Y-71825503D01*
X103544869Y-71793465D01*
X103802991Y-71729849D01*
X104051563Y-71635583D01*
X104286959Y-71512041D01*
X104505747Y-71361024D01*
X104704736Y-71184736D01*
X104881024Y-70985747D01*
X105032041Y-70766959D01*
X105155583Y-70531563D01*
X105249849Y-70282991D01*
X105313465Y-70024869D01*
X105345503Y-69760960D01*
X105345500Y-69628037D01*
X105345500Y-69624616D01*
X105345500Y-68444534D01*
X105355126Y-68391849D01*
X105564852Y-67837047D01*
X105564852Y-67837046D01*
X105564855Y-67837039D01*
X105578073Y-67788391D01*
X105581196Y-67778332D01*
X105605368Y-67709255D01*
X105625565Y-67530000D01*
X105605368Y-67350745D01*
X105545789Y-67180478D01*
X105449816Y-67027738D01*
X105322262Y-66900184D01*
X105169522Y-66804211D01*
X104999255Y-66744632D01*
X104966287Y-66740917D01*
X104820000Y-66724434D01*
X104658897Y-66742586D01*
X104640745Y-66744632D01*
X104555611Y-66774421D01*
X104470477Y-66804211D01*
X104317737Y-66900184D01*
X104190184Y-67027737D01*
X104094211Y-67180477D01*
X104034632Y-67350746D01*
X104014434Y-67530000D01*
X104034632Y-67709256D01*
X104058782Y-67778271D01*
X104061929Y-67788409D01*
X104075144Y-67837039D01*
X104284874Y-68391848D01*
X104294500Y-68444534D01*
X104294500Y-69538008D01*
X104294497Y-69538028D01*
X104294499Y-69621566D01*
X104293932Y-69634552D01*
X104278224Y-69814154D01*
X104273715Y-69839733D01*
X104228744Y-70007580D01*
X104219861Y-70031988D01*
X104146424Y-70189479D01*
X104133437Y-70211972D01*
X104033774Y-70354308D01*
X104017079Y-70374205D01*
X103894205Y-70497079D01*
X103874308Y-70513774D01*
X103731972Y-70613437D01*
X103709479Y-70626424D01*
X103551988Y-70699861D01*
X103527580Y-70708744D01*
X103359733Y-70753715D01*
X103334154Y-70758224D01*
X103154552Y-70773932D01*
X103141566Y-70774499D01*
X103058028Y-70774497D01*
X103058008Y-70774500D01*
X93437900Y-70774500D01*
X93380592Y-70763038D01*
X93082899Y-70638998D01*
X93031116Y-70623235D01*
X93019845Y-70619304D01*
X92996562Y-70610122D01*
X92908103Y-70599500D01*
X92908102Y-70599500D01*
X91571898Y-70599500D01*
X91571897Y-70599500D01*
X91483435Y-70610122D01*
X91342660Y-70665638D01*
X91342659Y-70665638D01*
X91342658Y-70665639D01*
X91222078Y-70757078D01*
X91130639Y-70877658D01*
X91130638Y-70877659D01*
X91130638Y-70877660D01*
X91075122Y-71018435D01*
X91064500Y-71106897D01*
X91064500Y-71493103D01*
X91077410Y-71600613D01*
X91074896Y-71600914D01*
X91080366Y-71641996D01*
X91055462Y-71709331D01*
X91001960Y-71757204D01*
X90932282Y-71774500D01*
X90212367Y-71774500D01*
X90212307Y-71774492D01*
X90174516Y-71774495D01*
X90117489Y-71763155D01*
X90069144Y-71730853D01*
X90036843Y-71682507D01*
X90025504Y-71625479D01*
X90025506Y-71607609D01*
X90025505Y-71607606D01*
X90025507Y-71587692D01*
X90025500Y-71587633D01*
X90025500Y-68244535D01*
X90035126Y-68191849D01*
X90244852Y-67637047D01*
X90244852Y-67637046D01*
X90244855Y-67637039D01*
X90258073Y-67588391D01*
X90261196Y-67578332D01*
X90285368Y-67509255D01*
X90305565Y-67330000D01*
X90285368Y-67150745D01*
X90225789Y-66980478D01*
X90129816Y-66827738D01*
X90002262Y-66700184D01*
X89849522Y-66604211D01*
X89679255Y-66544632D01*
X89646287Y-66540917D01*
X89500000Y-66524434D01*
X89338897Y-66542586D01*
X89320745Y-66544632D01*
X89235611Y-66574421D01*
X89150477Y-66604211D01*
X88997737Y-66700184D01*
X88870184Y-66827737D01*
X88774211Y-66980477D01*
X88714632Y-67150746D01*
X88694434Y-67330000D01*
X88714632Y-67509256D01*
X88738782Y-67578271D01*
X88741929Y-67588409D01*
X88755144Y-67637039D01*
X88964874Y-68191848D01*
X88974500Y-68244534D01*
X88974500Y-71676710D01*
X88974492Y-71777218D01*
X89009387Y-71975185D01*
X89078128Y-72164075D01*
X89078130Y-72164080D01*
X89178634Y-72338168D01*
X89307844Y-72492156D01*
X89330731Y-72511360D01*
X89373105Y-72569684D01*
X89383139Y-72641075D01*
X89358482Y-72708820D01*
X89304906Y-72757059D01*
X89234955Y-72774500D01*
X88436164Y-72774500D01*
X88428852Y-72774320D01*
X88149963Y-72760618D01*
X88135412Y-72759185D01*
X87862862Y-72718756D01*
X87848521Y-72715904D01*
X87581225Y-72648950D01*
X87567232Y-72644705D01*
X87307801Y-72551878D01*
X87294292Y-72546282D01*
X87045184Y-72428463D01*
X87032289Y-72421571D01*
X87023582Y-72416352D01*
X86795944Y-72279911D01*
X86783814Y-72271806D01*
X86562478Y-72107652D01*
X86551176Y-72098376D01*
X86344297Y-71910873D01*
X86339000Y-71905830D01*
X86279542Y-71846372D01*
X86279464Y-71846311D01*
X86200972Y-71767819D01*
X86031363Y-71625500D01*
X85896328Y-71512192D01*
X85570562Y-71284088D01*
X85226156Y-71085244D01*
X84865730Y-70917173D01*
X84831439Y-70904692D01*
X84492032Y-70781156D01*
X84107885Y-70678222D01*
X83716252Y-70609164D01*
X83320074Y-70574500D01*
X83193457Y-70574500D01*
X83193456Y-70574500D01*
X83121232Y-70574500D01*
X83052047Y-70574499D01*
X83033710Y-70574499D01*
X83033702Y-70574500D01*
X76132218Y-70574500D01*
X76120524Y-70574040D01*
X75915791Y-70557922D01*
X75892700Y-70554265D01*
X75698695Y-70507686D01*
X75676465Y-70500462D01*
X75492144Y-70424111D01*
X75471318Y-70413500D01*
X75374727Y-70354308D01*
X75301204Y-70309251D01*
X75282296Y-70295514D01*
X75130587Y-70165942D01*
X75114056Y-70149411D01*
X75003678Y-70020175D01*
X74984484Y-69997701D01*
X74970749Y-69978798D01*
X74866496Y-69808676D01*
X74855890Y-69787860D01*
X74779534Y-69603527D01*
X74772315Y-69581311D01*
X74725734Y-69387299D01*
X74722077Y-69364207D01*
X74717272Y-69303176D01*
X74705960Y-69159475D01*
X74705500Y-69147782D01*
X74705500Y-68444535D01*
X74715126Y-68391849D01*
X74924852Y-67837047D01*
X74924852Y-67837046D01*
X74924855Y-67837039D01*
X74938073Y-67788391D01*
X74941196Y-67778332D01*
X74965368Y-67709255D01*
X74985565Y-67530000D01*
X74965368Y-67350745D01*
X74905789Y-67180478D01*
X74809816Y-67027738D01*
X74682262Y-66900184D01*
X74529522Y-66804211D01*
X74359255Y-66744632D01*
X74326287Y-66740917D01*
X74180000Y-66724434D01*
X74018897Y-66742586D01*
X74000745Y-66744632D01*
X73915611Y-66774421D01*
X73830477Y-66804211D01*
X73677737Y-66900184D01*
X73550184Y-67027737D01*
X73454211Y-67180477D01*
X73394632Y-67350746D01*
X73374434Y-67530000D01*
X68500500Y-67530000D01*
X68500500Y-64715316D01*
X68500880Y-64704687D01*
X68517037Y-64478770D01*
X68517038Y-64478769D01*
X68517037Y-64478763D01*
X68520060Y-64457734D01*
X68567078Y-64241599D01*
X68573062Y-64221222D01*
X68650357Y-64013983D01*
X68659188Y-63994648D01*
X68765183Y-63800533D01*
X68776670Y-63782658D01*
X68909222Y-63605588D01*
X68923132Y-63589535D01*
X69079535Y-63433132D01*
X69095588Y-63419222D01*
X69272658Y-63286670D01*
X69290529Y-63275185D01*
X69400962Y-63214883D01*
X69484648Y-63169188D01*
X69503983Y-63160357D01*
X69711222Y-63083062D01*
X69731599Y-63077078D01*
X69947734Y-63030060D01*
X69968763Y-63027037D01*
X70194686Y-63010880D01*
X70205316Y-63010500D01*
X70239882Y-63010500D01*
X113590118Y-63010500D01*
X113624684Y-63010500D01*
X113635313Y-63010880D01*
G37*
G04 #@! TD.AperFunction*
G04 #@! TA.AperFunction,Conductor*
G36*
X104958080Y-113244784D02*
G01*
X105003260Y-113297683D01*
X105019500Y-113365327D01*
X105019500Y-118360890D01*
X105049637Y-118570504D01*
X105109301Y-118773701D01*
X105196832Y-118965368D01*
X105197277Y-118966341D01*
X105311771Y-119144497D01*
X105450454Y-119304546D01*
X105610503Y-119443229D01*
X105610505Y-119443230D01*
X105652399Y-119470154D01*
X105703624Y-119525967D01*
X105720782Y-119599755D01*
X105699439Y-119672443D01*
X105645111Y-119725241D01*
X105571843Y-119744500D01*
X101365316Y-119744500D01*
X101354687Y-119744120D01*
X101326021Y-119742069D01*
X101122337Y-119727502D01*
X101101294Y-119724477D01*
X100878879Y-119676093D01*
X100858483Y-119670104D01*
X100645211Y-119590559D01*
X100625872Y-119581727D01*
X100426104Y-119472646D01*
X100408220Y-119461153D01*
X100226002Y-119324748D01*
X100209936Y-119310827D01*
X100048985Y-119149878D01*
X100035063Y-119133811D01*
X99961647Y-119035740D01*
X99898654Y-118951592D01*
X99887170Y-118933724D01*
X99778075Y-118733936D01*
X99769245Y-118714599D01*
X99762463Y-118696417D01*
X99689700Y-118501336D01*
X99683714Y-118480952D01*
X99635324Y-118258519D01*
X99632300Y-118237480D01*
X99628188Y-118180000D01*
X99615706Y-118005495D01*
X99615326Y-117994864D01*
X99615326Y-114834705D01*
X99624965Y-114781984D01*
X99643898Y-114731937D01*
X99834814Y-114227281D01*
X99848073Y-114178531D01*
X99851188Y-114168498D01*
X99875368Y-114099399D01*
X99895565Y-113920144D01*
X99882161Y-113801180D01*
X99888260Y-113739253D01*
X99919123Y-113685215D01*
X99969366Y-113648495D01*
X100030224Y-113635500D01*
X103859993Y-113635500D01*
X103860033Y-113635496D01*
X103922265Y-113635499D01*
X104138806Y-113601210D01*
X104347317Y-113533467D01*
X104542662Y-113433939D01*
X104720032Y-113305076D01*
X104765141Y-113259967D01*
X104824458Y-113223619D01*
X104893810Y-113218162D01*
X104958080Y-113244784D01*
G37*
G04 #@! TD.AperFunction*
G04 #@! TA.AperFunction,Conductor*
G36*
X128116156Y-82042439D02*
G01*
X128246247Y-82066278D01*
X128263691Y-82070579D01*
X128513901Y-82148548D01*
X128530717Y-82154925D01*
X128738644Y-82248506D01*
X128769711Y-82262488D01*
X128785642Y-82270850D01*
X129009911Y-82406425D01*
X129024708Y-82416637D01*
X129231025Y-82578276D01*
X129244483Y-82590199D01*
X129429800Y-82775516D01*
X129441724Y-82788975D01*
X129603359Y-82995288D01*
X129613574Y-83010088D01*
X129749149Y-83234357D01*
X129757511Y-83250288D01*
X129865072Y-83489278D01*
X129871452Y-83506102D01*
X129949418Y-83756301D01*
X129953724Y-83773771D01*
X130000963Y-84031547D01*
X130003132Y-84049408D01*
X130019228Y-84315503D01*
X130019500Y-84324500D01*
X130019500Y-85446000D01*
X130008158Y-85503020D01*
X129975859Y-85551359D01*
X129927520Y-85583658D01*
X129870500Y-85595000D01*
X123775000Y-85595000D01*
X123775000Y-89970500D01*
X123763658Y-90027520D01*
X123731359Y-90075859D01*
X123683020Y-90108158D01*
X123626000Y-90119500D01*
X123280486Y-90119500D01*
X123274731Y-90122271D01*
X123243249Y-90133287D01*
X123237017Y-90134709D01*
X123232018Y-90138696D01*
X123203784Y-90156437D01*
X123198025Y-90159210D01*
X123194039Y-90164209D01*
X123170459Y-90187789D01*
X123165460Y-90191775D01*
X123162687Y-90197534D01*
X123144946Y-90225768D01*
X123140959Y-90230767D01*
X123139537Y-90236999D01*
X123128521Y-90268481D01*
X123125750Y-90274236D01*
X123125750Y-108875763D01*
X123128519Y-108881513D01*
X123139536Y-108912998D01*
X123140958Y-108919229D01*
X123144940Y-108924222D01*
X123162691Y-108952471D01*
X123165285Y-108957857D01*
X123165462Y-108958224D01*
X123170452Y-108962203D01*
X123194044Y-108985795D01*
X123198026Y-108990788D01*
X123203772Y-108993555D01*
X123232023Y-109011306D01*
X123237019Y-109015290D01*
X123237020Y-109015290D01*
X123237021Y-109015291D01*
X123243242Y-109016711D01*
X123274736Y-109027731D01*
X123280486Y-109030500D01*
X123280487Y-109030500D01*
X123303660Y-109030500D01*
X123372013Y-109030500D01*
X123626000Y-109030500D01*
X123683020Y-109041842D01*
X123731359Y-109074141D01*
X123763658Y-109122480D01*
X123775000Y-109179500D01*
X123775000Y-113595000D01*
X129870500Y-113595000D01*
X129927520Y-113606342D01*
X129975859Y-113638641D01*
X130008158Y-113686980D01*
X130019500Y-113744000D01*
X130019500Y-128604932D01*
X130001587Y-128675765D01*
X129952154Y-128729566D01*
X129883087Y-128753399D01*
X129810995Y-128741534D01*
X129753210Y-128696823D01*
X129640062Y-128552400D01*
X129417599Y-128329937D01*
X129169950Y-128135917D01*
X128900725Y-127973165D01*
X128613831Y-127844044D01*
X128313477Y-127750450D01*
X128004030Y-127693741D01*
X127690000Y-127674747D01*
X127375969Y-127693741D01*
X127066522Y-127750450D01*
X126766168Y-127844044D01*
X126479274Y-127973165D01*
X126210049Y-128135917D01*
X125962400Y-128329937D01*
X125739937Y-128552400D01*
X125545917Y-128800049D01*
X125383165Y-129069274D01*
X125254044Y-129356168D01*
X125160450Y-129656522D01*
X125103741Y-129965969D01*
X125084747Y-130279999D01*
X125103741Y-130594030D01*
X125160450Y-130903477D01*
X125254044Y-131203831D01*
X125383165Y-131490725D01*
X125545917Y-131759950D01*
X125739937Y-132007599D01*
X125962400Y-132230062D01*
X126119587Y-132353210D01*
X126164298Y-132410995D01*
X126176163Y-132483087D01*
X126152330Y-132552154D01*
X126098529Y-132601587D01*
X126027696Y-132619500D01*
X64387832Y-132619500D01*
X64316999Y-132601587D01*
X64263198Y-132552154D01*
X64239365Y-132483087D01*
X64251230Y-132410994D01*
X64295941Y-132353210D01*
X64427599Y-132250062D01*
X64427602Y-132250060D01*
X64650060Y-132027602D01*
X64844081Y-131779952D01*
X65006837Y-131510721D01*
X65135954Y-131223835D01*
X65229549Y-130923478D01*
X65286258Y-130614029D01*
X65304648Y-130309998D01*
X110094434Y-130309998D01*
X110110080Y-130448859D01*
X110114632Y-130489255D01*
X110174211Y-130659522D01*
X110270184Y-130812262D01*
X110397738Y-130939816D01*
X110550478Y-131035789D01*
X110720745Y-131095368D01*
X110900000Y-131115565D01*
X111079255Y-131095368D01*
X111249522Y-131035789D01*
X111402262Y-130939816D01*
X111529816Y-130812262D01*
X111625789Y-130659522D01*
X111685368Y-130489255D01*
X111705565Y-130310000D01*
X111701506Y-130273980D01*
X111700591Y-130254801D01*
X111700729Y-130246579D01*
X111602814Y-129463264D01*
X111603063Y-129463232D01*
X111600500Y-129439452D01*
X111600500Y-128112473D01*
X114260796Y-128112473D01*
X114290246Y-128279490D01*
X114357420Y-128435218D01*
X114458697Y-128571258D01*
X114498829Y-128604932D01*
X114588617Y-128680273D01*
X114740175Y-128756388D01*
X114905201Y-128795500D01*
X115032253Y-128795500D01*
X115032256Y-128795500D01*
X115158451Y-128780750D01*
X115317820Y-128722744D01*
X115459517Y-128629549D01*
X115575902Y-128506188D01*
X115660701Y-128359312D01*
X115709342Y-128196839D01*
X115719203Y-128027529D01*
X115719202Y-128027528D01*
X115719203Y-128027526D01*
X115689753Y-127860509D01*
X115622579Y-127704781D01*
X115521302Y-127568741D01*
X115443885Y-127503781D01*
X115391383Y-127459727D01*
X115239825Y-127383612D01*
X115074799Y-127344500D01*
X114947744Y-127344500D01*
X114884646Y-127351875D01*
X114821546Y-127359250D01*
X114662182Y-127417254D01*
X114520483Y-127510451D01*
X114404095Y-127633815D01*
X114319300Y-127780683D01*
X114270658Y-127943161D01*
X114260796Y-128112473D01*
X111600500Y-128112473D01*
X111600500Y-123820548D01*
X111603063Y-123796767D01*
X111602814Y-123796736D01*
X111700729Y-123013419D01*
X111700591Y-123005198D01*
X111701506Y-122986019D01*
X111705565Y-122950000D01*
X111685368Y-122770745D01*
X111625789Y-122600478D01*
X111529816Y-122447738D01*
X111402262Y-122320184D01*
X111249522Y-122224211D01*
X111079255Y-122164632D01*
X111046287Y-122160917D01*
X110900000Y-122144434D01*
X110738897Y-122162586D01*
X110720745Y-122164632D01*
X110636610Y-122194072D01*
X110550477Y-122224211D01*
X110397737Y-122320184D01*
X110270184Y-122447737D01*
X110174211Y-122600477D01*
X110154957Y-122655502D01*
X110118457Y-122759816D01*
X110114632Y-122770746D01*
X110094434Y-122950001D01*
X110098491Y-122986008D01*
X110099407Y-123005184D01*
X110099269Y-123013410D01*
X110197186Y-123796736D01*
X110196936Y-123796767D01*
X110199500Y-123820548D01*
X110199500Y-129439445D01*
X110196936Y-129463230D01*
X110197185Y-129463262D01*
X110099269Y-130246587D01*
X110099407Y-130254816D01*
X110098491Y-130273990D01*
X110094434Y-130309998D01*
X65304648Y-130309998D01*
X65305253Y-130300000D01*
X65286258Y-129985971D01*
X65282592Y-129965969D01*
X65229549Y-129676522D01*
X65135955Y-129376168D01*
X65126954Y-129356168D01*
X65006837Y-129089279D01*
X64844081Y-128820048D01*
X64813293Y-128780750D01*
X64650062Y-128572400D01*
X64427599Y-128349937D01*
X64179950Y-128155917D01*
X64108085Y-128112473D01*
X106260796Y-128112473D01*
X106290246Y-128279490D01*
X106357420Y-128435218D01*
X106458697Y-128571258D01*
X106498829Y-128604932D01*
X106588617Y-128680273D01*
X106740175Y-128756388D01*
X106905201Y-128795500D01*
X107032253Y-128795500D01*
X107032256Y-128795500D01*
X107158451Y-128780750D01*
X107317820Y-128722744D01*
X107459517Y-128629549D01*
X107575902Y-128506188D01*
X107660701Y-128359312D01*
X107709342Y-128196839D01*
X107719203Y-128027529D01*
X107719202Y-128027528D01*
X107719203Y-128027526D01*
X107689753Y-127860509D01*
X107622579Y-127704781D01*
X107521302Y-127568741D01*
X107443885Y-127503781D01*
X107391383Y-127459727D01*
X107239825Y-127383612D01*
X107074799Y-127344500D01*
X106947744Y-127344500D01*
X106884646Y-127351875D01*
X106821546Y-127359250D01*
X106662182Y-127417254D01*
X106520483Y-127510451D01*
X106404095Y-127633815D01*
X106319300Y-127780683D01*
X106270658Y-127943161D01*
X106260796Y-128112473D01*
X64108085Y-128112473D01*
X63910725Y-127993165D01*
X63623831Y-127864044D01*
X63323477Y-127770450D01*
X63014030Y-127713741D01*
X62700000Y-127694747D01*
X62385969Y-127713741D01*
X62076522Y-127770450D01*
X61776168Y-127864044D01*
X61489274Y-127993165D01*
X61220049Y-128155917D01*
X60972400Y-128349937D01*
X60749942Y-128572395D01*
X60749940Y-128572398D01*
X60666789Y-128678532D01*
X60609006Y-128723242D01*
X60536913Y-128735107D01*
X60467846Y-128711274D01*
X60418413Y-128657473D01*
X60400500Y-128586640D01*
X60400500Y-121194649D01*
X69788000Y-121194649D01*
X69827356Y-121379806D01*
X69904349Y-121552733D01*
X70015612Y-121705874D01*
X70156284Y-121832536D01*
X70320216Y-121927182D01*
X70500244Y-121985677D01*
X70641308Y-122000503D01*
X70735691Y-122000503D01*
X70735692Y-122000503D01*
X70876756Y-121985677D01*
X71056784Y-121927182D01*
X71220716Y-121832536D01*
X71361388Y-121705874D01*
X71472651Y-121552733D01*
X71549644Y-121379806D01*
X71589000Y-121194649D01*
X71589000Y-121143939D01*
X77427168Y-121143939D01*
X77457634Y-121316714D01*
X77480853Y-121370540D01*
X77527123Y-121477807D01*
X77631890Y-121618533D01*
X77766286Y-121731305D01*
X77923067Y-121810043D01*
X78093779Y-121850503D01*
X78225204Y-121850503D01*
X78225209Y-121850503D01*
X78355755Y-121835244D01*
X78363196Y-121832536D01*
X78438186Y-121805241D01*
X78520617Y-121775240D01*
X78667196Y-121678833D01*
X78787592Y-121551221D01*
X78875312Y-121399284D01*
X78877446Y-121392158D01*
X78900032Y-121316714D01*
X78925630Y-121231213D01*
X78935831Y-121056068D01*
X78934673Y-121049503D01*
X78905365Y-120883291D01*
X78878150Y-120820200D01*
X78835877Y-120722199D01*
X78731110Y-120581473D01*
X78596714Y-120468701D01*
X78596713Y-120468700D01*
X78439935Y-120389964D01*
X78439934Y-120389963D01*
X78439933Y-120389963D01*
X78269221Y-120349503D01*
X78137791Y-120349503D01*
X78065265Y-120357980D01*
X78007241Y-120364762D01*
X77842385Y-120424764D01*
X77695804Y-120521173D01*
X77575408Y-120648785D01*
X77487686Y-120800723D01*
X77437370Y-120968791D01*
X77427168Y-121143939D01*
X71589000Y-121143939D01*
X71589000Y-121005357D01*
X71549644Y-120820200D01*
X71472651Y-120647273D01*
X71361388Y-120494132D01*
X71284349Y-120424766D01*
X71220716Y-120367470D01*
X71075211Y-120283463D01*
X71056784Y-120272824D01*
X71056783Y-120272823D01*
X71056782Y-120272823D01*
X70876757Y-120214329D01*
X70806224Y-120206916D01*
X70735692Y-120199503D01*
X70641308Y-120199503D01*
X70624734Y-120201245D01*
X70500242Y-120214329D01*
X70320217Y-120272823D01*
X70156283Y-120367470D01*
X70015613Y-120494130D01*
X69904348Y-120647274D01*
X69827356Y-120820199D01*
X69813946Y-120883291D01*
X69788000Y-121005357D01*
X69788000Y-121194649D01*
X60400500Y-121194649D01*
X60400500Y-119269998D01*
X66954434Y-119269998D01*
X66964321Y-119357741D01*
X66974632Y-119449255D01*
X67034211Y-119619522D01*
X67130184Y-119772262D01*
X67257738Y-119899816D01*
X67410478Y-119995789D01*
X67580745Y-120055368D01*
X67760000Y-120075565D01*
X67939255Y-120055368D01*
X68109522Y-119995789D01*
X68262262Y-119899816D01*
X68389816Y-119772262D01*
X68485789Y-119619522D01*
X68545368Y-119449255D01*
X68565565Y-119270000D01*
X68561506Y-119233980D01*
X68560591Y-119214801D01*
X68560729Y-119206579D01*
X68462814Y-118423264D01*
X68463063Y-118423232D01*
X68460500Y-118399452D01*
X68460500Y-107980548D01*
X68463063Y-107956767D01*
X68462814Y-107956736D01*
X68560729Y-107173419D01*
X68560591Y-107165198D01*
X68561506Y-107146019D01*
X68565565Y-107110000D01*
X68545368Y-106930745D01*
X68485789Y-106760478D01*
X68389816Y-106607738D01*
X68262262Y-106480184D01*
X68109522Y-106384211D01*
X67939255Y-106324632D01*
X67906287Y-106320917D01*
X67760000Y-106304434D01*
X67598897Y-106322586D01*
X67580745Y-106324632D01*
X67522591Y-106344981D01*
X67410477Y-106384211D01*
X67257737Y-106480184D01*
X67130184Y-106607737D01*
X67034211Y-106760477D01*
X66974632Y-106930746D01*
X66954434Y-107110001D01*
X66958491Y-107146008D01*
X66959407Y-107165184D01*
X66959269Y-107173410D01*
X67057186Y-107956736D01*
X67056936Y-107956767D01*
X67059500Y-107980548D01*
X67059500Y-118399445D01*
X67056936Y-118423230D01*
X67057185Y-118423262D01*
X66959269Y-119206587D01*
X66959407Y-119214816D01*
X66958491Y-119233990D01*
X66954434Y-119269998D01*
X60400500Y-119269998D01*
X60400500Y-97930000D01*
X64364533Y-97930000D01*
X64384312Y-98080235D01*
X64442302Y-98220233D01*
X64534548Y-98340451D01*
X64626795Y-98411234D01*
X64654767Y-98432698D01*
X64794764Y-98490687D01*
X64822893Y-98494390D01*
X64907277Y-98505500D01*
X64907280Y-98505500D01*
X64982720Y-98505500D01*
X64982723Y-98505500D01*
X65050229Y-98496612D01*
X65095236Y-98490687D01*
X65235233Y-98432698D01*
X65355451Y-98340451D01*
X65447698Y-98220233D01*
X65505687Y-98080236D01*
X65525466Y-97930000D01*
X65505687Y-97779764D01*
X65447698Y-97639767D01*
X65439457Y-97629027D01*
X68205500Y-97629027D01*
X68219293Y-97733886D01*
X68219295Y-97733892D01*
X68235882Y-97795848D01*
X68276330Y-97893584D01*
X68340678Y-97977535D01*
X68386002Y-98022915D01*
X68469873Y-98087367D01*
X68567560Y-98127935D01*
X68629494Y-98144598D01*
X68734341Y-98158523D01*
X69460685Y-98159425D01*
X69535107Y-98179449D01*
X69589569Y-98233978D01*
X69609500Y-98308425D01*
X69609500Y-116147290D01*
X69609500Y-116240000D01*
X69609500Y-116418355D01*
X69631352Y-116640225D01*
X69644464Y-116773350D01*
X69714055Y-117123206D01*
X69817601Y-117464551D01*
X69954110Y-117794114D01*
X70122258Y-118108698D01*
X70320439Y-118405294D01*
X70546731Y-118681033D01*
X70798966Y-118933268D01*
X70839261Y-118966337D01*
X71056350Y-119144497D01*
X71074705Y-119159560D01*
X71371301Y-119357741D01*
X71685885Y-119525889D01*
X71685889Y-119525891D01*
X72015446Y-119662398D01*
X72222613Y-119725241D01*
X72356793Y-119765944D01*
X72356795Y-119765944D01*
X72356797Y-119765945D01*
X72706653Y-119835536D01*
X73061645Y-119870500D01*
X73138259Y-119870500D01*
X73240000Y-119870500D01*
X73332710Y-119870500D01*
X85036787Y-119870500D01*
X85119734Y-119870500D01*
X85139181Y-119871775D01*
X85155109Y-119873871D01*
X85218755Y-119882250D01*
X85256322Y-119892316D01*
X85321376Y-119919262D01*
X85355061Y-119938710D01*
X85410922Y-119981574D01*
X85438425Y-120009077D01*
X85481289Y-120064938D01*
X85500738Y-120098625D01*
X85527682Y-120163675D01*
X85537749Y-120201245D01*
X85547172Y-120272823D01*
X85548225Y-120280817D01*
X85549500Y-120300266D01*
X85549500Y-120778757D01*
X85547661Y-120802096D01*
X85543772Y-120826611D01*
X85540027Y-120858191D01*
X85538473Y-120877864D01*
X85538206Y-120884632D01*
X85537269Y-120908337D01*
X85537214Y-120909719D01*
X85536582Y-123579899D01*
X85537824Y-123611682D01*
X85539370Y-123631396D01*
X85539761Y-123634709D01*
X85543108Y-123663048D01*
X85550263Y-123708285D01*
X85557995Y-123757171D01*
X85565882Y-123790047D01*
X85569345Y-123804487D01*
X85572843Y-123819066D01*
X85585012Y-123856543D01*
X85585015Y-123856551D01*
X85585016Y-123856553D01*
X85609360Y-123915354D01*
X85609362Y-123915357D01*
X85648052Y-123991322D01*
X85681287Y-124045577D01*
X85704465Y-124077488D01*
X85745782Y-124125876D01*
X85806058Y-124186167D01*
X85854443Y-124227502D01*
X85854501Y-124227544D01*
X85886342Y-124250682D01*
X85940601Y-124283938D01*
X86016557Y-124322646D01*
X86050367Y-124336652D01*
X86075352Y-124347003D01*
X86075357Y-124347004D01*
X86075358Y-124347005D01*
X86112853Y-124359189D01*
X86174724Y-124374045D01*
X86221781Y-124381499D01*
X86268836Y-124388954D01*
X86276233Y-124389829D01*
X86300456Y-124392697D01*
X86320168Y-124394249D01*
X86349626Y-124395406D01*
X86351995Y-124395500D01*
X86351996Y-124395500D01*
X88899097Y-124395500D01*
X88899099Y-124395500D01*
X88904399Y-124395291D01*
X88930913Y-124394250D01*
X88950620Y-124392699D01*
X88982238Y-124388957D01*
X89076345Y-124374052D01*
X89138221Y-124359196D01*
X89175712Y-124347014D01*
X89209302Y-124333100D01*
X89234489Y-124322668D01*
X89234532Y-124322646D01*
X89310442Y-124283968D01*
X89364703Y-124250716D01*
X89396595Y-124227544D01*
X89444973Y-124186225D01*
X89505239Y-124125959D01*
X89546558Y-124077581D01*
X89569730Y-124045689D01*
X89602982Y-123991428D01*
X89641679Y-123915481D01*
X89641679Y-123915480D01*
X89641682Y-123915475D01*
X89666026Y-123856703D01*
X89677774Y-123820548D01*
X89678210Y-123819207D01*
X89693065Y-123757334D01*
X89707970Y-123663232D01*
X89711714Y-123631603D01*
X89713265Y-123611891D01*
X89714514Y-123580083D01*
X89714514Y-121669999D01*
X91094434Y-121669999D01*
X91106883Y-121780478D01*
X91114632Y-121849255D01*
X91174211Y-122019522D01*
X91270184Y-122172262D01*
X91397738Y-122299816D01*
X91550478Y-122395789D01*
X91720745Y-122455368D01*
X91900000Y-122475565D01*
X92079255Y-122455368D01*
X92148308Y-122431204D01*
X92156058Y-122428729D01*
X92213725Y-122412048D01*
X92761372Y-122194071D01*
X92816473Y-122183509D01*
X94149247Y-122183509D01*
X94174526Y-122185668D01*
X94185911Y-122187629D01*
X94224120Y-122184130D01*
X94237709Y-122183509D01*
X94242835Y-122183509D01*
X94242840Y-122183509D01*
X94264540Y-122180526D01*
X94271122Y-122179772D01*
X94374268Y-122170294D01*
X94608124Y-122116609D01*
X94832682Y-122032083D01*
X95043895Y-121918241D01*
X95237956Y-121777134D01*
X95411368Y-121611306D01*
X95561005Y-121423743D01*
X95684171Y-121217828D01*
X95778646Y-120997271D01*
X95842727Y-120766048D01*
X95875260Y-120528324D01*
X95875314Y-120500685D01*
X95875500Y-120499360D01*
X95875500Y-120407754D01*
X95875515Y-120398622D01*
X95875614Y-120339171D01*
X95875612Y-120339167D01*
X95875644Y-120320346D01*
X95875500Y-120319241D01*
X95875500Y-114049763D01*
X95876775Y-114030315D01*
X95886722Y-113954758D01*
X95896789Y-113917186D01*
X95922003Y-113856315D01*
X95922188Y-113855868D01*
X95941631Y-113822190D01*
X95982034Y-113769536D01*
X96009538Y-113742033D01*
X96034289Y-113723041D01*
X96062190Y-113701631D01*
X96095868Y-113682188D01*
X96157188Y-113656788D01*
X96194755Y-113646722D01*
X96270315Y-113636774D01*
X96289763Y-113635500D01*
X96349183Y-113635500D01*
X98149776Y-113635500D01*
X98210634Y-113648495D01*
X98260877Y-113685215D01*
X98291740Y-113739253D01*
X98297838Y-113801180D01*
X98292944Y-113844627D01*
X98284435Y-113920144D01*
X98304631Y-114099397D01*
X98328778Y-114168407D01*
X98331931Y-114178570D01*
X98345107Y-114227091D01*
X98345108Y-114227096D01*
X98345110Y-114227100D01*
X98352707Y-114247210D01*
X98554712Y-114781937D01*
X98564326Y-114834593D01*
X98564326Y-117912303D01*
X98564325Y-117912311D01*
X98564325Y-117938089D01*
X98564299Y-117938223D01*
X98564301Y-118156833D01*
X98599461Y-118468862D01*
X98669338Y-118774995D01*
X98773050Y-119071376D01*
X98909292Y-119354282D01*
X98965182Y-119443229D01*
X99076355Y-119620156D01*
X99196998Y-119771435D01*
X99270947Y-119864164D01*
X99272135Y-119865653D01*
X99494171Y-120087686D01*
X99494175Y-120087689D01*
X99739668Y-120283462D01*
X100005540Y-120450519D01*
X100005545Y-120450522D01*
X100288454Y-120586763D01*
X100584837Y-120690471D01*
X100890968Y-120760343D01*
X101158639Y-120790502D01*
X101202997Y-120795500D01*
X101202998Y-120795500D01*
X101287772Y-120795500D01*
X101360000Y-120795500D01*
X101429183Y-120795500D01*
X113730817Y-120795500D01*
X113795813Y-120795500D01*
X113804166Y-120795733D01*
X114081516Y-120811309D01*
X114098093Y-120813177D01*
X114367817Y-120859006D01*
X114384106Y-120862723D01*
X114647001Y-120938463D01*
X114662765Y-120943980D01*
X114763509Y-120985710D01*
X114915516Y-121048674D01*
X114930571Y-121055924D01*
X115132881Y-121167738D01*
X115170013Y-121188260D01*
X115184161Y-121197150D01*
X115407287Y-121355469D01*
X115420341Y-121365879D01*
X115560065Y-121490746D01*
X115627573Y-121551076D01*
X115633646Y-121556817D01*
X115679500Y-121602671D01*
X115759494Y-121682664D01*
X115764761Y-121687931D01*
X115764813Y-121688009D01*
X115808402Y-121731597D01*
X115808402Y-121731598D01*
X115886846Y-121810041D01*
X115917982Y-121841177D01*
X116157564Y-122037797D01*
X116275514Y-122116607D01*
X116415273Y-122209990D01*
X116688615Y-122356092D01*
X116863970Y-122428725D01*
X116974953Y-122474695D01*
X116974955Y-122474695D01*
X116974961Y-122474698D01*
X117271554Y-122564665D01*
X117575538Y-122625128D01*
X117883984Y-122655502D01*
X118038953Y-122655500D01*
X120885465Y-122655500D01*
X120938151Y-122665126D01*
X121492955Y-122874854D01*
X121516025Y-122881122D01*
X121541579Y-122888066D01*
X121551698Y-122891207D01*
X121620745Y-122915368D01*
X121781847Y-122933519D01*
X121799999Y-122935565D01*
X121799999Y-122935564D01*
X121800000Y-122935565D01*
X121979255Y-122915368D01*
X122149522Y-122855789D01*
X122302262Y-122759816D01*
X122429816Y-122632262D01*
X122525789Y-122479522D01*
X122585368Y-122309255D01*
X122605565Y-122130000D01*
X122585368Y-121950745D01*
X122525789Y-121780478D01*
X122429816Y-121627738D01*
X122302262Y-121500184D01*
X122149522Y-121404211D01*
X121979255Y-121344632D01*
X121942949Y-121340541D01*
X121799999Y-121324434D01*
X121620747Y-121344631D01*
X121551715Y-121368785D01*
X121541584Y-121371929D01*
X121492961Y-121385143D01*
X120938152Y-121594874D01*
X120885466Y-121604500D01*
X118128995Y-121604500D01*
X118128974Y-121604497D01*
X118043119Y-121604499D01*
X118034764Y-121604265D01*
X117811776Y-121591746D01*
X117795172Y-121589875D01*
X117579123Y-121553170D01*
X117562832Y-121549452D01*
X117352248Y-121488786D01*
X117336476Y-121483267D01*
X117134017Y-121399407D01*
X117118963Y-121392158D01*
X116927158Y-121286153D01*
X116913009Y-121277263D01*
X116734280Y-121150449D01*
X116721217Y-121140031D01*
X116592945Y-121025401D01*
X116553027Y-120967437D01*
X116544167Y-120897618D01*
X116568341Y-120831520D01*
X116620156Y-120783892D01*
X116688051Y-120765359D01*
X116756879Y-120780056D01*
X116878462Y-120838607D01*
X116926099Y-120861548D01*
X117144690Y-120938036D01*
X117370471Y-120989570D01*
X117574669Y-121012578D01*
X117600600Y-121015500D01*
X117716395Y-121015500D01*
X117785578Y-121015501D01*
X117785582Y-121015500D01*
X118687145Y-121015500D01*
X118687149Y-121015501D01*
X118694603Y-121015500D01*
X118694654Y-121015510D01*
X118756332Y-121015509D01*
X118756332Y-121015510D01*
X118889382Y-121015508D01*
X119153808Y-120985711D01*
X119413235Y-120926496D01*
X119664401Y-120838607D01*
X119904147Y-120723150D01*
X120129460Y-120581575D01*
X120293799Y-120450519D01*
X120337502Y-120415667D01*
X120341584Y-120411585D01*
X120366183Y-120386984D01*
X120366189Y-120386980D01*
X120380510Y-120372658D01*
X120380512Y-120372658D01*
X120973251Y-119779917D01*
X120973294Y-119779886D01*
X120993361Y-119759815D01*
X121009880Y-119743292D01*
X121062866Y-119709153D01*
X121125228Y-119699976D01*
X121185804Y-119717405D01*
X121302021Y-119779886D01*
X121419874Y-119843246D01*
X121428594Y-119848322D01*
X121438137Y-119854318D01*
X121440478Y-119855789D01*
X121610745Y-119915368D01*
X121790000Y-119935565D01*
X121969255Y-119915368D01*
X122139522Y-119855789D01*
X122292262Y-119759816D01*
X122419816Y-119632262D01*
X122515789Y-119479522D01*
X122575368Y-119309255D01*
X122595565Y-119130000D01*
X122575368Y-118950745D01*
X122515789Y-118780478D01*
X122419816Y-118627738D01*
X122292262Y-118500184D01*
X122139522Y-118404211D01*
X121969255Y-118344632D01*
X121936287Y-118340917D01*
X121790000Y-118324434D01*
X121628897Y-118342586D01*
X121610745Y-118344632D01*
X121568961Y-118359253D01*
X121440478Y-118404210D01*
X121428609Y-118411668D01*
X121419898Y-118416738D01*
X121087743Y-118595314D01*
X121040506Y-118611242D01*
X120888199Y-118635376D01*
X120700375Y-118696417D01*
X120524399Y-118786096D01*
X120364631Y-118902190D01*
X120364629Y-118902191D01*
X120364629Y-118902192D01*
X120301462Y-118965368D01*
X120301461Y-118965368D01*
X120301460Y-118965369D01*
X119737335Y-119529495D01*
X119737334Y-119529496D01*
X119691863Y-119574966D01*
X119684748Y-119581630D01*
X119566119Y-119685665D01*
X119550656Y-119697530D01*
X119423531Y-119782473D01*
X119406653Y-119792217D01*
X119269518Y-119859846D01*
X119251511Y-119867305D01*
X119106740Y-119916449D01*
X119087915Y-119921494D01*
X118937952Y-119951325D01*
X118918629Y-119953869D01*
X118761337Y-119964181D01*
X118751590Y-119964500D01*
X117722256Y-119964500D01*
X117710565Y-119964041D01*
X117569944Y-119952973D01*
X117546851Y-119949315D01*
X117415416Y-119917760D01*
X117393180Y-119910535D01*
X117268291Y-119858804D01*
X117247464Y-119848193D01*
X117132198Y-119777557D01*
X117113297Y-119763825D01*
X117006017Y-119672198D01*
X116997433Y-119664263D01*
X116939699Y-119606529D01*
X116939690Y-119606522D01*
X116884888Y-119551720D01*
X116833860Y-119509843D01*
X116629746Y-119342332D01*
X116355309Y-119158958D01*
X116355306Y-119158956D01*
X116355301Y-119158953D01*
X116064221Y-119003368D01*
X115759281Y-118877058D01*
X115443428Y-118781244D01*
X115119704Y-118716852D01*
X114791240Y-118684500D01*
X114791235Y-118684500D01*
X114698431Y-118684500D01*
X114626204Y-118684500D01*
X114557019Y-118684499D01*
X114538682Y-118684499D01*
X114538674Y-118684500D01*
X110837234Y-118684500D01*
X110763965Y-118665241D01*
X110709638Y-118612443D01*
X110688295Y-118539754D01*
X110705454Y-118465965D01*
X110756680Y-118410152D01*
X110792157Y-118387353D01*
X110966384Y-118236384D01*
X111117353Y-118062157D01*
X111241989Y-117868216D01*
X111337754Y-117658512D01*
X111402700Y-117437314D01*
X111435503Y-117209123D01*
X111435500Y-117093855D01*
X111435500Y-117093448D01*
X111435500Y-116361058D01*
X111452122Y-116292670D01*
X111498278Y-116239540D01*
X111563671Y-116213521D01*
X111633709Y-116220418D01*
X111790745Y-116275368D01*
X111970000Y-116295565D01*
X112149255Y-116275368D01*
X112218332Y-116251196D01*
X112228391Y-116248073D01*
X112277039Y-116234855D01*
X112277494Y-116234683D01*
X112831849Y-116025126D01*
X112884535Y-116015500D01*
X118871628Y-116015500D01*
X118871632Y-116015501D01*
X118940815Y-116015500D01*
X118976761Y-116015500D01*
X119006397Y-116015500D01*
X119006401Y-116015499D01*
X119083848Y-116015499D01*
X119083852Y-116015499D01*
X119367840Y-115981015D01*
X119645600Y-115912552D01*
X119913083Y-115811108D01*
X120166389Y-115678162D01*
X120401822Y-115515654D01*
X120615952Y-115325952D01*
X120805654Y-115111822D01*
X120968162Y-114876389D01*
X121101108Y-114623083D01*
X121202552Y-114355600D01*
X121271015Y-114077840D01*
X121305499Y-113793852D01*
X121305499Y-113752680D01*
X121305500Y-113752676D01*
X121305500Y-113617301D01*
X121305500Y-113601210D01*
X121305501Y-113581632D01*
X121305500Y-113581630D01*
X121305501Y-113563299D01*
X121305500Y-113563283D01*
X121305500Y-110714535D01*
X121315126Y-110661849D01*
X121524852Y-110107047D01*
X121524852Y-110107046D01*
X121524855Y-110107039D01*
X121538073Y-110058391D01*
X121541196Y-110048332D01*
X121565368Y-109979255D01*
X121585565Y-109800000D01*
X121565368Y-109620745D01*
X121505789Y-109450478D01*
X121409816Y-109297738D01*
X121282262Y-109170184D01*
X121129522Y-109074211D01*
X120959255Y-109014632D01*
X120926287Y-109010917D01*
X120780000Y-108994434D01*
X120618897Y-109012586D01*
X120600745Y-109014632D01*
X120534715Y-109037737D01*
X120430477Y-109074211D01*
X120277737Y-109170184D01*
X120150184Y-109297737D01*
X120054211Y-109450477D01*
X120054211Y-109450478D01*
X119999259Y-109607524D01*
X119994632Y-109620746D01*
X119974434Y-109800000D01*
X119994632Y-109979256D01*
X120018782Y-110048271D01*
X120021929Y-110058409D01*
X120035144Y-110107039D01*
X120244874Y-110661848D01*
X120254500Y-110714534D01*
X120254500Y-113644950D01*
X120254041Y-113656642D01*
X120239244Y-113844627D01*
X120235586Y-113867719D01*
X120192938Y-114045358D01*
X120185713Y-114067594D01*
X120115800Y-114236379D01*
X120105185Y-114257211D01*
X120009733Y-114412974D01*
X119995990Y-114431890D01*
X119877341Y-114570809D01*
X119860809Y-114587341D01*
X119721890Y-114705990D01*
X119702974Y-114719733D01*
X119547211Y-114815185D01*
X119526379Y-114825800D01*
X119357594Y-114895713D01*
X119335358Y-114902938D01*
X119157719Y-114945586D01*
X119134627Y-114949244D01*
X118965467Y-114962559D01*
X118946639Y-114964041D01*
X118934950Y-114964500D01*
X112884533Y-114964500D01*
X112831847Y-114954874D01*
X112374492Y-114781984D01*
X112295444Y-114752102D01*
X112295346Y-114752064D01*
X112277035Y-114745143D01*
X112228436Y-114731937D01*
X112218299Y-114728790D01*
X112149257Y-114704632D01*
X111970000Y-114684434D01*
X111808897Y-114702586D01*
X111790745Y-114704632D01*
X111633709Y-114759581D01*
X111563671Y-114766479D01*
X111498278Y-114740460D01*
X111452122Y-114687330D01*
X111435500Y-114618942D01*
X111435500Y-111892161D01*
X111435502Y-111892140D01*
X111435501Y-111871286D01*
X111435502Y-111871285D01*
X111435501Y-111854506D01*
X111446841Y-111797485D01*
X111479142Y-111749142D01*
X111527485Y-111716841D01*
X111584506Y-111705501D01*
X111601285Y-111705502D01*
X111601286Y-111705501D01*
X111622140Y-111705502D01*
X111622161Y-111705500D01*
X112324945Y-111705500D01*
X112324983Y-111705504D01*
X112344481Y-111705503D01*
X112344485Y-111705504D01*
X112413664Y-111705500D01*
X112413669Y-111705500D01*
X112460961Y-111705500D01*
X112460987Y-111705497D01*
X112514155Y-111705495D01*
X112712654Y-111674047D01*
X112903791Y-111611936D01*
X113082859Y-111520692D01*
X113245449Y-111402560D01*
X113387560Y-111260449D01*
X113505692Y-111097859D01*
X113596936Y-110918791D01*
X113659047Y-110727654D01*
X113680952Y-110589386D01*
X113701381Y-110534352D01*
X113767555Y-110427313D01*
X113831329Y-110324155D01*
X113831745Y-110323488D01*
X113890789Y-110229522D01*
X113914718Y-110161132D01*
X113918623Y-110151157D01*
X113918632Y-110151123D01*
X113918635Y-110151117D01*
X113918674Y-110150972D01*
X113921822Y-110140831D01*
X113950368Y-110059255D01*
X113970565Y-109880000D01*
X113950368Y-109700745D01*
X113890789Y-109530478D01*
X113794816Y-109377738D01*
X113667262Y-109250184D01*
X113514522Y-109154211D01*
X113344255Y-109094632D01*
X113307949Y-109090541D01*
X113164999Y-109074434D01*
X113002228Y-109092774D01*
X112985745Y-109094632D01*
X112906160Y-109122480D01*
X112815477Y-109154211D01*
X112662737Y-109250184D01*
X112655359Y-109257563D01*
X112607020Y-109289862D01*
X112550000Y-109301204D01*
X112492980Y-109289862D01*
X112444641Y-109257563D01*
X112397262Y-109210184D01*
X112244522Y-109114211D01*
X112074255Y-109054632D01*
X112037949Y-109050541D01*
X111894999Y-109034434D01*
X111715747Y-109054631D01*
X111646715Y-109078785D01*
X111636584Y-109081929D01*
X111587961Y-109095143D01*
X111033152Y-109304874D01*
X110980466Y-109314500D01*
X110426779Y-109314500D01*
X110426719Y-109314492D01*
X110337619Y-109314500D01*
X110293009Y-109314500D01*
X110292963Y-109314502D01*
X110241986Y-109314505D01*
X110053626Y-109347729D01*
X109912323Y-109399166D01*
X109873896Y-109413155D01*
X109873894Y-109413155D01*
X109873894Y-109413156D01*
X109708256Y-109508793D01*
X109561738Y-109631738D01*
X109438793Y-109778256D01*
X109343156Y-109943894D01*
X109277729Y-110123626D01*
X109244505Y-110311987D01*
X109244505Y-110318129D01*
X109244500Y-110318177D01*
X109244500Y-110407619D01*
X109244492Y-110496719D01*
X109244500Y-110496779D01*
X109244500Y-114575466D01*
X109234874Y-114628152D01*
X109025143Y-115182961D01*
X109011929Y-115231584D01*
X109008785Y-115241715D01*
X108984631Y-115310747D01*
X108964434Y-115489999D01*
X108967325Y-115515653D01*
X108984632Y-115669255D01*
X109044211Y-115839522D01*
X109140184Y-115992262D01*
X109267738Y-116119816D01*
X109420478Y-116215789D01*
X109590745Y-116275368D01*
X109770000Y-116295565D01*
X109949255Y-116275368D01*
X110119522Y-116215789D01*
X110156225Y-116192726D01*
X110215500Y-116171236D01*
X110278352Y-116176183D01*
X110333533Y-116206680D01*
X110371161Y-116257268D01*
X110384500Y-116318888D01*
X110384500Y-117003825D01*
X110384497Y-117003845D01*
X110384499Y-117085522D01*
X110383563Y-117102200D01*
X110372325Y-117201954D01*
X110364902Y-117234480D01*
X110334532Y-117321277D01*
X110320056Y-117351339D01*
X110271127Y-117429211D01*
X110250323Y-117455299D01*
X110185299Y-117520323D01*
X110159211Y-117541127D01*
X110081339Y-117590056D01*
X110051277Y-117604532D01*
X109964480Y-117634902D01*
X109931954Y-117642325D01*
X109832200Y-117653563D01*
X109815522Y-117654499D01*
X109733845Y-117654497D01*
X109733825Y-117654500D01*
X108474533Y-117654500D01*
X108421847Y-117644874D01*
X108119029Y-117530402D01*
X107885444Y-117442102D01*
X107885346Y-117442064D01*
X107867035Y-117435143D01*
X107818436Y-117421937D01*
X107808299Y-117418790D01*
X107739257Y-117394632D01*
X107560000Y-117374434D01*
X107398897Y-117392586D01*
X107380745Y-117394632D01*
X107306696Y-117420543D01*
X107210477Y-117454211D01*
X107057737Y-117550184D01*
X106930184Y-117677737D01*
X106834211Y-117830477D01*
X106808204Y-117904802D01*
X106774952Y-117999832D01*
X106774632Y-118000746D01*
X106754434Y-118180000D01*
X106770709Y-118324434D01*
X106774632Y-118359255D01*
X106806954Y-118451627D01*
X106819083Y-118486289D01*
X106825981Y-118556329D01*
X106799962Y-118621722D01*
X106746832Y-118667878D01*
X106678444Y-118684500D01*
X106509764Y-118684500D01*
X106490315Y-118683225D01*
X106408285Y-118672425D01*
X106370714Y-118662358D01*
X106303372Y-118634464D01*
X106269687Y-118615016D01*
X106244011Y-118595314D01*
X106211856Y-118570640D01*
X106184359Y-118543143D01*
X106139982Y-118485310D01*
X106120535Y-118451627D01*
X106092640Y-118384282D01*
X106082574Y-118346713D01*
X106071775Y-118264684D01*
X106070500Y-118245236D01*
X106070500Y-110454535D01*
X106080126Y-110401849D01*
X106289852Y-109847047D01*
X106289852Y-109847046D01*
X106289855Y-109847039D01*
X106303073Y-109798391D01*
X106306196Y-109788332D01*
X106330368Y-109719255D01*
X106350565Y-109540000D01*
X106330368Y-109360745D01*
X106270789Y-109190478D01*
X106174816Y-109037738D01*
X106047262Y-108910184D01*
X105894522Y-108814211D01*
X105724255Y-108754632D01*
X105687949Y-108750541D01*
X105544999Y-108734434D01*
X105365747Y-108754631D01*
X105296715Y-108778785D01*
X105286584Y-108781929D01*
X105237961Y-108795143D01*
X104683152Y-109004874D01*
X104630466Y-109014500D01*
X100749363Y-109014500D01*
X100738083Y-109014072D01*
X100557737Y-109000380D01*
X100535720Y-108997040D01*
X100364815Y-108957857D01*
X100343545Y-108951274D01*
X100180387Y-108887057D01*
X100160333Y-108877375D01*
X100008577Y-108789565D01*
X99990193Y-108777007D01*
X99853200Y-108667545D01*
X99836894Y-108652385D01*
X99717761Y-108523744D01*
X99703894Y-108506323D01*
X99605256Y-108361357D01*
X99594140Y-108342061D01*
X99560487Y-108272014D01*
X99518210Y-108184016D01*
X99510099Y-108163291D01*
X99458570Y-107995689D01*
X99453636Y-107973976D01*
X99429159Y-107810567D01*
X99427515Y-107788495D01*
X99427515Y-106553676D01*
X99437030Y-106501285D01*
X99614169Y-106029676D01*
X99645514Y-105946223D01*
X99658354Y-105898594D01*
X99661578Y-105888172D01*
X99662200Y-105886395D01*
X99685694Y-105819255D01*
X99705891Y-105640000D01*
X99685694Y-105460745D01*
X99626115Y-105290478D01*
X99530142Y-105137738D01*
X99402588Y-105010184D01*
X99249848Y-104914211D01*
X99079581Y-104854632D01*
X99042500Y-104850454D01*
X98900326Y-104834434D01*
X98739223Y-104852586D01*
X98721071Y-104854632D01*
X98635937Y-104884421D01*
X98550803Y-104914211D01*
X98398063Y-105010184D01*
X98270510Y-105137737D01*
X98174537Y-105290477D01*
X98159741Y-105332763D01*
X98115014Y-105460587D01*
X98114958Y-105460746D01*
X98094760Y-105640000D01*
X98114958Y-105819257D01*
X98139151Y-105888399D01*
X98142206Y-105898199D01*
X98155861Y-105947989D01*
X98254655Y-106207406D01*
X98307047Y-106344981D01*
X98366759Y-106501774D01*
X98376515Y-106554802D01*
X98376515Y-107764752D01*
X98373892Y-107792587D01*
X98372840Y-107798115D01*
X98376108Y-107842242D01*
X98376515Y-107853244D01*
X98376515Y-107864271D01*
X98378389Y-107877911D01*
X98379365Y-107887130D01*
X98388025Y-108003453D01*
X98422556Y-108184022D01*
X98439384Y-108272014D01*
X98521239Y-108532903D01*
X98632508Y-108782668D01*
X98690978Y-108881513D01*
X98771716Y-109018003D01*
X98829878Y-109094632D01*
X98937028Y-109235803D01*
X99126253Y-109433179D01*
X99336888Y-109607524D01*
X99566147Y-109756532D01*
X99811000Y-109878230D01*
X100068206Y-109971011D01*
X100334364Y-110033646D01*
X100605953Y-110065307D01*
X100650077Y-110065368D01*
X100651021Y-110065500D01*
X100742668Y-110065500D01*
X100811851Y-110065568D01*
X100811853Y-110065567D01*
X100830971Y-110065586D01*
X100831631Y-110065500D01*
X103825979Y-110065500D01*
X103887600Y-110078839D01*
X103938188Y-110116469D01*
X103968685Y-110171651D01*
X103973630Y-110234505D01*
X103959156Y-110274421D01*
X103959756Y-110274631D01*
X103954210Y-110290478D01*
X103954211Y-110290478D01*
X103895775Y-110457480D01*
X103894632Y-110460746D01*
X103874434Y-110640000D01*
X103894632Y-110819256D01*
X103918782Y-110888271D01*
X103921929Y-110898409D01*
X103935144Y-110947039D01*
X104144869Y-111501834D01*
X104154495Y-111554520D01*
X104154495Y-112152633D01*
X104154492Y-112152653D01*
X104154494Y-112232925D01*
X104153220Y-112252374D01*
X104145410Y-112311708D01*
X104135341Y-112349285D01*
X104116208Y-112395474D01*
X104096761Y-112429156D01*
X104066324Y-112468823D01*
X104038818Y-112496330D01*
X103999153Y-112526765D01*
X103965466Y-112546213D01*
X103919278Y-112565343D01*
X103881706Y-112575410D01*
X103822329Y-112583225D01*
X103802880Y-112584499D01*
X103723567Y-112584496D01*
X103723537Y-112584500D01*
X96349183Y-112584500D01*
X96280000Y-112584500D01*
X96165450Y-112584500D01*
X95972299Y-112615091D01*
X95939163Y-112620340D01*
X95721286Y-112691132D01*
X95517153Y-112795144D01*
X95331803Y-112929808D01*
X95169808Y-113091803D01*
X95035144Y-113277153D01*
X94931132Y-113481286D01*
X94860340Y-113699163D01*
X94860338Y-113699170D01*
X94860339Y-113699170D01*
X94824500Y-113925450D01*
X94824500Y-113925454D01*
X94824500Y-120398622D01*
X94823644Y-120414567D01*
X94809676Y-120544344D01*
X94803046Y-120575034D01*
X94764628Y-120691613D01*
X94751715Y-120720229D01*
X94689720Y-120826169D01*
X94671097Y-120851444D01*
X94588280Y-120942038D01*
X94564773Y-120962850D01*
X94464813Y-121034078D01*
X94437464Y-121049503D01*
X94324797Y-121098202D01*
X94294825Y-121107554D01*
X94215461Y-121123383D01*
X94184138Y-121129631D01*
X94154996Y-121132509D01*
X92808451Y-121132509D01*
X92757881Y-121123665D01*
X92526513Y-121040184D01*
X92201178Y-120922798D01*
X92159184Y-120912024D01*
X92147000Y-120908337D01*
X92116366Y-120897618D01*
X92079255Y-120884632D01*
X92061102Y-120882586D01*
X91900000Y-120864434D01*
X91738897Y-120882586D01*
X91720745Y-120884632D01*
X91648485Y-120909917D01*
X91550477Y-120944211D01*
X91397737Y-121040184D01*
X91270184Y-121167737D01*
X91174211Y-121320477D01*
X91153451Y-121379806D01*
X91114632Y-121490745D01*
X91112774Y-121507228D01*
X91094434Y-121669999D01*
X89714514Y-121669999D01*
X89714514Y-120909917D01*
X89713264Y-120878108D01*
X89711713Y-120858397D01*
X89707970Y-120826770D01*
X89693065Y-120732667D01*
X89678211Y-120670796D01*
X89666029Y-120633304D01*
X89641679Y-120574518D01*
X89602982Y-120498571D01*
X89569730Y-120444310D01*
X89548917Y-120415665D01*
X89546556Y-120412415D01*
X89505241Y-120364042D01*
X89444970Y-120303771D01*
X89396597Y-120262456D01*
X89382144Y-120251955D01*
X89364703Y-120239283D01*
X89323983Y-120214329D01*
X89310436Y-120206027D01*
X89234497Y-120167334D01*
X89175710Y-120142984D01*
X89138206Y-120130798D01*
X89076350Y-120115948D01*
X88982231Y-120101041D01*
X88950622Y-120097301D01*
X88930900Y-120095749D01*
X88899098Y-120094500D01*
X88899097Y-120094500D01*
X87676485Y-120094500D01*
X87607241Y-120077433D01*
X87553860Y-120030142D01*
X87528571Y-119963460D01*
X87515198Y-119853317D01*
X87445107Y-119568938D01*
X87341248Y-119295081D01*
X87270121Y-119159560D01*
X87205135Y-119035738D01*
X87038758Y-118794699D01*
X87038756Y-118794696D01*
X86844534Y-118575466D01*
X86625304Y-118381244D01*
X86625300Y-118381241D01*
X86384261Y-118214864D01*
X86124918Y-118078751D01*
X85851063Y-117974893D01*
X85701738Y-117938089D01*
X85566683Y-117904802D01*
X85275929Y-117869499D01*
X85275925Y-117869499D01*
X85129485Y-117869500D01*
X73245317Y-117869500D01*
X73234687Y-117869120D01*
X73018729Y-117853674D01*
X72997687Y-117850649D01*
X72791326Y-117805758D01*
X72770927Y-117799768D01*
X72573066Y-117725969D01*
X72553729Y-117717138D01*
X72368380Y-117615930D01*
X72350496Y-117604437D01*
X72181435Y-117477880D01*
X72165368Y-117463958D01*
X72016041Y-117314631D01*
X72002119Y-117298564D01*
X71875562Y-117129503D01*
X71864069Y-117111619D01*
X71762861Y-116926270D01*
X71754030Y-116906933D01*
X71704205Y-116773347D01*
X71680228Y-116709062D01*
X71674241Y-116688673D01*
X71629348Y-116482304D01*
X71626326Y-116461276D01*
X71610880Y-116245312D01*
X71610500Y-116234683D01*
X71610500Y-101222547D01*
X71624806Y-101158841D01*
X71664975Y-101107368D01*
X71723296Y-101078012D01*
X71788569Y-101076410D01*
X71848259Y-101102869D01*
X71890906Y-101152309D01*
X72023273Y-101399952D01*
X72235373Y-101717381D01*
X72477560Y-102012487D01*
X72747512Y-102282439D01*
X72821731Y-102343349D01*
X73042619Y-102524627D01*
X73070266Y-102543100D01*
X73360047Y-102736726D01*
X73696727Y-102916684D01*
X73696731Y-102916686D01*
X74049436Y-103062782D01*
X74319702Y-103144766D01*
X74414758Y-103173601D01*
X74414760Y-103173601D01*
X74414762Y-103173602D01*
X74789191Y-103248081D01*
X75169118Y-103285500D01*
X75287772Y-103285500D01*
X75360000Y-103285500D01*
X75429183Y-103285500D01*
X100335624Y-103285500D01*
X100397490Y-103285500D01*
X100412095Y-103286218D01*
X100482004Y-103293103D01*
X100546212Y-103299428D01*
X100574858Y-103305125D01*
X100696793Y-103342115D01*
X100723774Y-103353291D01*
X100762306Y-103373887D01*
X100836150Y-103413358D01*
X100860431Y-103429582D01*
X100958935Y-103510422D01*
X100979577Y-103531064D01*
X101060414Y-103629563D01*
X101076641Y-103653849D01*
X101136707Y-103766223D01*
X101147885Y-103793209D01*
X101184873Y-103915140D01*
X101190571Y-103943787D01*
X101203782Y-104077904D01*
X101204500Y-104092510D01*
X101204500Y-105324581D01*
X101204497Y-105324601D01*
X101204500Y-105414640D01*
X101204500Y-105460344D01*
X101204516Y-105460587D01*
X101204517Y-105545367D01*
X101238346Y-105802287D01*
X101238649Y-105804586D01*
X101242580Y-105819255D01*
X101306322Y-106057133D01*
X101322116Y-106095261D01*
X101406378Y-106298684D01*
X101455757Y-106384211D01*
X101537106Y-106525112D01*
X101696272Y-106732541D01*
X101881143Y-106917414D01*
X102088567Y-107076579D01*
X102146449Y-107109998D01*
X102314996Y-107207312D01*
X102556547Y-107307371D01*
X102809092Y-107375047D01*
X103068310Y-107409180D01*
X103099799Y-107409180D01*
X103099818Y-107409184D01*
X103199038Y-107409184D01*
X103268221Y-107409187D01*
X103268223Y-107409186D01*
X103288156Y-107409187D01*
X103288187Y-107409184D01*
X108423600Y-107409184D01*
X108476286Y-107418810D01*
X109031090Y-107628538D01*
X109054160Y-107634806D01*
X109079714Y-107641750D01*
X109089833Y-107644891D01*
X109158880Y-107669052D01*
X109319982Y-107687203D01*
X109338134Y-107689249D01*
X109338134Y-107689248D01*
X109338135Y-107689249D01*
X109517390Y-107669052D01*
X109687657Y-107609473D01*
X109840397Y-107513500D01*
X109967951Y-107385946D01*
X110026288Y-107293102D01*
X110076666Y-107244087D01*
X110143910Y-107223620D01*
X110213052Y-107236256D01*
X110446272Y-107340093D01*
X110760621Y-107442231D01*
X111083923Y-107510951D01*
X111412638Y-107545501D01*
X111577901Y-107545500D01*
X111647085Y-107545500D01*
X114795465Y-107545500D01*
X114848151Y-107555126D01*
X115402955Y-107764854D01*
X115426025Y-107771122D01*
X115451579Y-107778066D01*
X115461698Y-107781207D01*
X115530745Y-107805368D01*
X115691847Y-107823519D01*
X115709999Y-107825565D01*
X115709999Y-107825564D01*
X115710000Y-107825565D01*
X115889255Y-107805368D01*
X116059522Y-107745789D01*
X116212262Y-107649816D01*
X116339816Y-107522262D01*
X116435789Y-107369522D01*
X116495368Y-107199255D01*
X116515565Y-107020000D01*
X116495368Y-106840745D01*
X116435789Y-106670478D01*
X116339816Y-106517738D01*
X116212262Y-106390184D01*
X116059522Y-106294211D01*
X115947857Y-106255137D01*
X115889760Y-106217871D01*
X115854690Y-106158419D01*
X115850175Y-106089542D01*
X115877185Y-106026021D01*
X115929922Y-105981488D01*
X115997070Y-105965500D01*
X118525411Y-105965500D01*
X118525415Y-105965501D01*
X118584836Y-105965500D01*
X118604270Y-105966773D01*
X118676073Y-105976225D01*
X118713629Y-105986288D01*
X118771431Y-106010231D01*
X118805108Y-106029674D01*
X118854742Y-106067760D01*
X118882239Y-106095257D01*
X118920323Y-106144888D01*
X118939771Y-106178574D01*
X118948821Y-106200423D01*
X118960026Y-106263829D01*
X118943432Y-106326042D01*
X118794654Y-106612903D01*
X118788553Y-106623566D01*
X118784212Y-106630475D01*
X118784212Y-106630476D01*
X118784211Y-106630478D01*
X118738723Y-106760477D01*
X118724632Y-106800746D01*
X118704434Y-106979999D01*
X118715317Y-107076581D01*
X118724632Y-107159255D01*
X118784211Y-107329522D01*
X118880184Y-107482262D01*
X119007738Y-107609816D01*
X119160478Y-107705789D01*
X119330745Y-107765368D01*
X119493516Y-107783707D01*
X119509999Y-107785565D01*
X119509999Y-107785564D01*
X119510000Y-107785565D01*
X119689255Y-107765368D01*
X119859522Y-107705789D01*
X120012262Y-107609816D01*
X120139816Y-107482262D01*
X120235789Y-107329522D01*
X120295368Y-107159255D01*
X120315565Y-106980000D01*
X120295368Y-106800745D01*
X120235789Y-106630478D01*
X120231438Y-106623553D01*
X120225331Y-106612881D01*
X120125150Y-106419722D01*
X120047727Y-106270442D01*
X120032833Y-106225158D01*
X120000021Y-106017992D01*
X119929936Y-105802288D01*
X119826969Y-105600205D01*
X119693658Y-105416717D01*
X119533283Y-105256342D01*
X119349795Y-105123031D01*
X119147712Y-105020064D01*
X118932008Y-104949979D01*
X118707997Y-104914499D01*
X118707993Y-104914499D01*
X118594595Y-104914500D01*
X112075858Y-104914500D01*
X112064168Y-104914041D01*
X112048654Y-104912820D01*
X111868231Y-104898620D01*
X111845139Y-104894962D01*
X111659750Y-104850454D01*
X111637513Y-104843229D01*
X111461365Y-104770266D01*
X111440533Y-104759652D01*
X111277962Y-104660029D01*
X111259046Y-104646285D01*
X111192550Y-104589492D01*
X111114069Y-104522462D01*
X111097537Y-104505930D01*
X110973711Y-104360949D01*
X110959970Y-104342037D01*
X110860344Y-104179461D01*
X110849735Y-104158639D01*
X110776770Y-103982486D01*
X110769545Y-103960249D01*
X110725037Y-103774860D01*
X110721379Y-103751767D01*
X110719143Y-103723361D01*
X110705959Y-103555832D01*
X110705500Y-103544142D01*
X110705500Y-101603007D01*
X110692193Y-101484903D01*
X110670345Y-101290998D01*
X110600477Y-100984887D01*
X110496775Y-100688523D01*
X110360542Y-100405633D01*
X110193493Y-100139775D01*
X109997727Y-99894293D01*
X109775707Y-99672273D01*
X109772124Y-99669416D01*
X109530225Y-99476507D01*
X109264364Y-99309456D01*
X108981482Y-99173227D01*
X108981478Y-99173225D01*
X108981477Y-99173225D01*
X108870587Y-99134423D01*
X108814591Y-99099294D01*
X108779302Y-99043400D01*
X108771665Y-98977740D01*
X108793183Y-98915238D01*
X108839622Y-98868195D01*
X108901834Y-98845871D01*
X108951557Y-98839834D01*
X109238818Y-98769028D01*
X109515451Y-98664114D01*
X109777421Y-98526620D01*
X110020907Y-98358552D01*
X110242361Y-98162361D01*
X110438552Y-97940907D01*
X110606620Y-97697421D01*
X110744114Y-97435451D01*
X110849028Y-97158818D01*
X110919834Y-96871557D01*
X110951221Y-96613082D01*
X110955499Y-96577857D01*
X110955500Y-96429926D01*
X110955500Y-96406126D01*
X110955501Y-96360742D01*
X110955500Y-96360738D01*
X110955500Y-93074535D01*
X110965126Y-93021849D01*
X111174852Y-92467047D01*
X111174852Y-92467046D01*
X111174855Y-92467039D01*
X111188073Y-92418391D01*
X111191196Y-92408332D01*
X111215368Y-92339255D01*
X111235565Y-92160000D01*
X111215368Y-91980745D01*
X111155789Y-91810478D01*
X111059816Y-91657738D01*
X110932262Y-91530184D01*
X110779522Y-91434211D01*
X110609255Y-91374632D01*
X110569316Y-91370132D01*
X110430000Y-91354434D01*
X110268897Y-91372586D01*
X110250745Y-91374632D01*
X110165611Y-91404421D01*
X110080477Y-91434211D01*
X109927737Y-91530184D01*
X109870359Y-91587563D01*
X109822020Y-91619862D01*
X109765000Y-91631204D01*
X109707980Y-91619862D01*
X109659641Y-91587563D01*
X109582262Y-91510184D01*
X109429522Y-91414211D01*
X109259255Y-91354632D01*
X109217559Y-91349934D01*
X109080000Y-91334434D01*
X108918897Y-91352586D01*
X108900745Y-91354632D01*
X108815611Y-91384421D01*
X108730477Y-91414211D01*
X108577737Y-91510184D01*
X108552609Y-91535313D01*
X108504270Y-91567612D01*
X108447250Y-91578954D01*
X108390230Y-91567612D01*
X108341891Y-91535313D01*
X108332262Y-91525684D01*
X108179522Y-91429711D01*
X108179521Y-91429710D01*
X108009255Y-91370132D01*
X107976287Y-91366417D01*
X107830000Y-91349934D01*
X107668897Y-91368086D01*
X107650745Y-91370132D01*
X107565611Y-91399921D01*
X107480477Y-91429711D01*
X107327737Y-91525684D01*
X107200184Y-91653237D01*
X107104211Y-91805977D01*
X107102636Y-91810478D01*
X107055566Y-91944999D01*
X107044632Y-91976246D01*
X107024434Y-92155500D01*
X107044632Y-92334756D01*
X107068782Y-92403771D01*
X107071929Y-92413909D01*
X107085144Y-92462539D01*
X107294874Y-93017348D01*
X107304500Y-93070034D01*
X107304500Y-95923379D01*
X107302665Y-95946689D01*
X107300759Y-95958724D01*
X107295005Y-95995046D01*
X107280599Y-96039380D01*
X107263762Y-96072423D01*
X107236362Y-96110135D01*
X107210135Y-96136362D01*
X107172423Y-96163762D01*
X107139380Y-96180599D01*
X107095045Y-96195005D01*
X107046689Y-96202665D01*
X107023379Y-96204500D01*
X97224878Y-96204500D01*
X97215133Y-96204181D01*
X96990295Y-96189444D01*
X96970971Y-96186900D01*
X96754777Y-96143896D01*
X96735952Y-96138852D01*
X96527211Y-96067994D01*
X96509204Y-96060535D01*
X96311509Y-95963043D01*
X96294630Y-95953298D01*
X96111348Y-95830833D01*
X96095885Y-95818968D01*
X95930155Y-95673625D01*
X95916374Y-95659844D01*
X95771031Y-95494114D01*
X95759166Y-95478651D01*
X95636701Y-95295369D01*
X95626956Y-95278490D01*
X95529464Y-95080795D01*
X95522005Y-95062788D01*
X95451147Y-94854047D01*
X95446103Y-94835222D01*
X95403099Y-94619028D01*
X95400555Y-94599704D01*
X95385819Y-94374867D01*
X95385500Y-94365122D01*
X95385500Y-93774535D01*
X95395126Y-93721849D01*
X95604852Y-93167047D01*
X95604852Y-93167046D01*
X95604855Y-93167039D01*
X95618073Y-93118391D01*
X95621196Y-93108332D01*
X95645368Y-93039255D01*
X95665565Y-92860000D01*
X95645368Y-92680745D01*
X95585789Y-92510478D01*
X95489816Y-92357738D01*
X95362262Y-92230184D01*
X95209522Y-92134211D01*
X95039255Y-92074632D01*
X95006287Y-92070917D01*
X94860000Y-92054434D01*
X94698897Y-92072586D01*
X94680745Y-92074632D01*
X94652730Y-92084435D01*
X94510477Y-92134211D01*
X94357737Y-92230184D01*
X94335359Y-92252563D01*
X94287020Y-92284862D01*
X94230000Y-92296204D01*
X94172980Y-92284862D01*
X94124641Y-92252563D01*
X94102262Y-92230184D01*
X93949522Y-92134211D01*
X93949521Y-92134210D01*
X93779255Y-92074632D01*
X93746287Y-92070917D01*
X93600000Y-92054434D01*
X93438897Y-92072586D01*
X93420745Y-92074632D01*
X93392730Y-92084435D01*
X93250477Y-92134211D01*
X93097737Y-92230184D01*
X93065359Y-92262563D01*
X93017020Y-92294862D01*
X92960000Y-92306204D01*
X92902980Y-92294862D01*
X92854641Y-92262563D01*
X92822262Y-92230184D01*
X92669522Y-92134211D01*
X92669521Y-92134210D01*
X92499255Y-92074632D01*
X92466287Y-92070917D01*
X92320000Y-92054434D01*
X92158897Y-92072586D01*
X92140745Y-92074632D01*
X92112730Y-92084435D01*
X91970477Y-92134211D01*
X91817737Y-92230184D01*
X91690184Y-92357737D01*
X91594211Y-92510477D01*
X91576725Y-92560451D01*
X91544447Y-92652697D01*
X91534632Y-92680746D01*
X91514434Y-92860000D01*
X91534632Y-93039256D01*
X91558782Y-93108271D01*
X91561929Y-93118409D01*
X91575144Y-93167039D01*
X91784874Y-93721848D01*
X91794500Y-93774534D01*
X91794500Y-96610817D01*
X91794500Y-96680000D01*
X91794500Y-96812803D01*
X91825904Y-97071442D01*
X91826516Y-97076478D01*
X91890079Y-97334362D01*
X91974951Y-97558153D01*
X91984264Y-97582708D01*
X92107698Y-97817891D01*
X92258580Y-98036481D01*
X92297343Y-98080236D01*
X92434708Y-98235291D01*
X92510250Y-98302214D01*
X92633519Y-98411420D01*
X92852109Y-98562302D01*
X93083163Y-98683569D01*
X93133034Y-98725990D01*
X93159906Y-98785696D01*
X93158587Y-98851158D01*
X93129333Y-98909734D01*
X93077792Y-98950114D01*
X93013917Y-98964500D01*
X86696505Y-98964500D01*
X86683519Y-98963933D01*
X86525083Y-98950072D01*
X86499507Y-98945562D01*
X86352188Y-98906088D01*
X86327789Y-98897207D01*
X86189563Y-98832751D01*
X86167073Y-98819766D01*
X86042142Y-98732289D01*
X86022245Y-98715594D01*
X85914405Y-98607754D01*
X85897710Y-98587857D01*
X85810233Y-98462926D01*
X85797249Y-98440440D01*
X85732789Y-98302204D01*
X85723913Y-98277817D01*
X85684434Y-98130483D01*
X85679928Y-98104923D01*
X85666067Y-97946480D01*
X85665500Y-97933495D01*
X85665500Y-93804535D01*
X85675126Y-93751849D01*
X85884852Y-93197047D01*
X85884852Y-93197046D01*
X85884855Y-93197039D01*
X85898073Y-93148391D01*
X85901196Y-93138332D01*
X85925368Y-93069255D01*
X85945565Y-92890000D01*
X85925368Y-92710745D01*
X85865789Y-92540478D01*
X85769816Y-92387738D01*
X85642262Y-92260184D01*
X85489522Y-92164211D01*
X85319255Y-92104632D01*
X85286287Y-92100917D01*
X85140000Y-92084434D01*
X84978897Y-92102586D01*
X84960745Y-92104632D01*
X84876213Y-92134211D01*
X84790477Y-92164211D01*
X84637736Y-92260185D01*
X84627527Y-92270394D01*
X84560732Y-92308957D01*
X84483605Y-92308956D01*
X84416811Y-92270392D01*
X84406603Y-92260184D01*
X84253863Y-92164211D01*
X84213247Y-92149999D01*
X84083596Y-92104632D01*
X84050628Y-92100917D01*
X83904341Y-92084434D01*
X83743238Y-92102586D01*
X83725086Y-92104632D01*
X83640554Y-92134211D01*
X83554818Y-92164211D01*
X83402078Y-92260184D01*
X83274525Y-92387737D01*
X83178552Y-92540477D01*
X83178552Y-92540478D01*
X83118994Y-92710687D01*
X83118973Y-92710746D01*
X83098775Y-92890000D01*
X83118973Y-93069256D01*
X83143123Y-93138271D01*
X83146270Y-93148409D01*
X83159485Y-93197039D01*
X83369215Y-93751848D01*
X83378841Y-93804534D01*
X83378841Y-99084295D01*
X83378838Y-99084315D01*
X83378838Y-99112599D01*
X83378799Y-99112798D01*
X83378802Y-99310760D01*
X83414419Y-99581242D01*
X83438048Y-99669418D01*
X83485034Y-99844757D01*
X83497974Y-99875995D01*
X83589440Y-100096804D01*
X83725850Y-100333062D01*
X83891933Y-100549499D01*
X84084839Y-100742399D01*
X84084843Y-100742402D01*
X84084844Y-100742403D01*
X84300717Y-100908045D01*
X84301286Y-100908481D01*
X84367072Y-100946462D01*
X84414626Y-100990036D01*
X84439309Y-101049625D01*
X84436496Y-101114063D01*
X84406714Y-101171275D01*
X84355543Y-101210540D01*
X84292573Y-101224500D01*
X77009876Y-101224500D01*
X77000878Y-101224228D01*
X76708970Y-101206568D01*
X76691109Y-101204399D01*
X76407894Y-101152495D01*
X76390424Y-101148189D01*
X76115531Y-101062527D01*
X76098708Y-101056147D01*
X75836135Y-100937971D01*
X75820204Y-100929609D01*
X75573808Y-100780657D01*
X75558999Y-100770436D01*
X75332338Y-100592857D01*
X75318871Y-100580926D01*
X75115273Y-100377328D01*
X75103342Y-100363861D01*
X74925763Y-100137200D01*
X74915542Y-100122391D01*
X74861658Y-100033256D01*
X74766589Y-99875993D01*
X74758228Y-99860064D01*
X74640052Y-99597491D01*
X74633672Y-99580668D01*
X74555814Y-99330817D01*
X74548009Y-99305772D01*
X74543704Y-99288305D01*
X74491798Y-99005079D01*
X74489632Y-98987239D01*
X74471972Y-98695321D01*
X74471700Y-98686324D01*
X74471700Y-93547012D01*
X74481475Y-93493932D01*
X74509517Y-93447819D01*
X74547452Y-93405300D01*
X74597717Y-93368519D01*
X74658630Y-93355499D01*
X75181517Y-93355499D01*
X75181518Y-93355499D01*
X75275304Y-93340646D01*
X75388342Y-93283050D01*
X75478050Y-93193342D01*
X75535646Y-93080304D01*
X75550500Y-92986519D01*
X75550500Y-92986517D01*
X76249500Y-92986517D01*
X76259129Y-93047312D01*
X76264354Y-93080304D01*
X76321950Y-93193342D01*
X76411658Y-93283050D01*
X76524696Y-93340646D01*
X76618481Y-93355500D01*
X78781518Y-93355499D01*
X78875304Y-93340646D01*
X78988342Y-93283050D01*
X79078050Y-93193342D01*
X79135646Y-93080304D01*
X79150500Y-92986519D01*
X79150499Y-92173482D01*
X79135646Y-92079696D01*
X79101480Y-92012642D01*
X79085241Y-91945000D01*
X79101482Y-91877354D01*
X79110443Y-91859767D01*
X79135646Y-91810304D01*
X79150500Y-91716519D01*
X79150499Y-90903482D01*
X79135646Y-90809696D01*
X79101480Y-90742642D01*
X79085241Y-90675000D01*
X79101482Y-90607354D01*
X79135645Y-90540305D01*
X79135646Y-90540304D01*
X79150500Y-90446519D01*
X79150499Y-89633482D01*
X79135646Y-89539696D01*
X79078050Y-89426658D01*
X78988342Y-89336950D01*
X78875304Y-89279354D01*
X78781519Y-89264500D01*
X78781516Y-89264500D01*
X76618482Y-89264500D01*
X76524696Y-89279354D01*
X76411657Y-89336950D01*
X76321950Y-89426657D01*
X76264354Y-89539695D01*
X76249500Y-89633483D01*
X76249500Y-90446517D01*
X76264354Y-90540304D01*
X76298518Y-90607354D01*
X76314758Y-90674999D01*
X76298518Y-90742643D01*
X76264354Y-90809693D01*
X76249500Y-90903483D01*
X76249500Y-91716517D01*
X76264354Y-91810304D01*
X76298518Y-91877354D01*
X76314758Y-91944999D01*
X76298518Y-92012643D01*
X76264354Y-92079693D01*
X76249500Y-92173483D01*
X76249500Y-92986517D01*
X75550500Y-92986517D01*
X75550499Y-92173482D01*
X75535646Y-92079696D01*
X75501480Y-92012642D01*
X75485241Y-91945000D01*
X75501482Y-91877354D01*
X75510443Y-91859767D01*
X75535646Y-91810304D01*
X75550500Y-91716519D01*
X75550499Y-90903482D01*
X75535646Y-90809696D01*
X75501480Y-90742642D01*
X75485241Y-90675000D01*
X75501482Y-90607354D01*
X75535645Y-90540305D01*
X75535646Y-90540304D01*
X75550500Y-90446519D01*
X75550499Y-89633482D01*
X75535646Y-89539696D01*
X75478050Y-89426658D01*
X75388342Y-89336950D01*
X75275304Y-89279354D01*
X75181519Y-89264500D01*
X75181517Y-89264500D01*
X73057551Y-89264500D01*
X73000429Y-89253116D01*
X72952036Y-89220703D01*
X72919767Y-89172214D01*
X72908552Y-89115059D01*
X72910181Y-88564586D01*
X72919834Y-88512266D01*
X72947254Y-88466673D01*
X72988939Y-88433622D01*
X72999993Y-88427714D01*
X73002906Y-88425767D01*
X73018105Y-88416861D01*
X73019372Y-88416216D01*
X73086969Y-88400000D01*
X75113028Y-88400000D01*
X75180622Y-88416214D01*
X75181905Y-88416868D01*
X75197077Y-88425757D01*
X75200012Y-88427718D01*
X75200019Y-88427722D01*
X75200021Y-88427723D01*
X75270116Y-88465191D01*
X75270120Y-88465193D01*
X75346193Y-88488269D01*
X75393333Y-88497645D01*
X75393651Y-88497709D01*
X75472750Y-88505500D01*
X75472755Y-88505500D01*
X76327245Y-88505500D01*
X76327250Y-88505500D01*
X76406348Y-88497709D01*
X76406352Y-88497708D01*
X76406354Y-88497708D01*
X76453807Y-88488269D01*
X76529882Y-88465192D01*
X76599993Y-88427714D01*
X76602906Y-88425767D01*
X76618105Y-88416861D01*
X76619372Y-88416216D01*
X76686969Y-88400000D01*
X78754003Y-88400000D01*
X78858947Y-88386184D01*
X78858949Y-88386183D01*
X78858952Y-88386183D01*
X78920952Y-88369570D01*
X79018750Y-88329060D01*
X79102732Y-88264619D01*
X79148119Y-88219232D01*
X79212560Y-88135250D01*
X79253070Y-88037452D01*
X79269683Y-87975452D01*
X79283500Y-87870500D01*
X79283500Y-86800800D01*
X79283500Y-86800797D01*
X79269684Y-86695852D01*
X79269683Y-86695848D01*
X79253070Y-86633848D01*
X79212560Y-86536050D01*
X79148119Y-86452068D01*
X79102732Y-86406681D01*
X79018750Y-86342240D01*
X78920952Y-86301730D01*
X78893171Y-86294286D01*
X78858947Y-86285115D01*
X78754003Y-86271300D01*
X78754000Y-86271300D01*
X69471101Y-86271300D01*
X69392346Y-86279021D01*
X69345098Y-86288375D01*
X69269349Y-86311241D01*
X69199483Y-86348385D01*
X69159356Y-86375041D01*
X69098036Y-86425043D01*
X68361936Y-87155866D01*
X68311089Y-87217426D01*
X68283974Y-87257769D01*
X68246171Y-87328110D01*
X68222885Y-87404504D01*
X68213362Y-87452159D01*
X68205500Y-87531623D01*
X68205500Y-97629027D01*
X65439457Y-97629027D01*
X65403911Y-97582703D01*
X65355451Y-97519548D01*
X65235233Y-97427302D01*
X65095234Y-97369312D01*
X64982723Y-97354500D01*
X64982720Y-97354500D01*
X64907280Y-97354500D01*
X64907277Y-97354500D01*
X64794765Y-97369312D01*
X64654766Y-97427302D01*
X64534548Y-97519548D01*
X64442302Y-97639766D01*
X64384312Y-97779764D01*
X64364533Y-97930000D01*
X60400500Y-97930000D01*
X60400500Y-92149999D01*
X64364533Y-92149999D01*
X64384312Y-92300235D01*
X64442302Y-92440233D01*
X64534548Y-92560451D01*
X64626794Y-92631234D01*
X64654767Y-92652698D01*
X64794764Y-92710687D01*
X64822892Y-92714390D01*
X64907277Y-92725500D01*
X64907280Y-92725500D01*
X64982720Y-92725500D01*
X64982723Y-92725500D01*
X65050229Y-92716612D01*
X65095236Y-92710687D01*
X65235233Y-92652698D01*
X65355451Y-92560451D01*
X65447698Y-92440233D01*
X65505687Y-92300236D01*
X65525466Y-92150000D01*
X65505687Y-91999764D01*
X65447698Y-91859767D01*
X65406423Y-91805977D01*
X65355451Y-91739548D01*
X65235233Y-91647302D01*
X65095234Y-91589312D01*
X64982723Y-91574500D01*
X64982720Y-91574500D01*
X64907280Y-91574500D01*
X64907277Y-91574500D01*
X64794765Y-91589312D01*
X64654766Y-91647302D01*
X64534548Y-91739548D01*
X64442302Y-91859766D01*
X64384312Y-91999764D01*
X64364533Y-92149999D01*
X60400500Y-92149999D01*
X60400500Y-86006927D01*
X60418413Y-85936094D01*
X60467846Y-85882293D01*
X60536913Y-85858460D01*
X60609006Y-85870325D01*
X60666789Y-85915034D01*
X60773212Y-86050873D01*
X60773216Y-86050878D01*
X60995674Y-86273336D01*
X61243323Y-86467356D01*
X61356954Y-86536048D01*
X61512553Y-86630111D01*
X61799439Y-86759228D01*
X61799441Y-86759228D01*
X61799442Y-86759229D01*
X62099796Y-86852823D01*
X62409243Y-86909532D01*
X62443133Y-86911581D01*
X62723274Y-86928527D01*
X63019392Y-86910615D01*
X63037304Y-86909532D01*
X63192027Y-86881177D01*
X63346752Y-86852823D01*
X63647109Y-86759228D01*
X63933995Y-86630111D01*
X64203226Y-86467355D01*
X64450876Y-86273334D01*
X64673334Y-86050876D01*
X64867355Y-85803226D01*
X65030111Y-85533995D01*
X65159228Y-85247109D01*
X65252823Y-84946752D01*
X65309532Y-84637303D01*
X65328527Y-84323274D01*
X65309532Y-84009245D01*
X65252823Y-83699796D01*
X65159228Y-83399439D01*
X65030111Y-83112553D01*
X64968169Y-83010088D01*
X64867356Y-82843323D01*
X64673336Y-82595674D01*
X64450878Y-82373216D01*
X64450877Y-82373215D01*
X64450876Y-82373214D01*
X64365452Y-82306289D01*
X64320743Y-82248506D01*
X64308878Y-82176413D01*
X64332711Y-82107346D01*
X64386512Y-82057913D01*
X64457345Y-82040000D01*
X128089307Y-82040000D01*
X128116156Y-82042439D01*
G37*
G04 #@! TD.AperFunction*
G04 #@! TA.AperFunction,Conductor*
G36*
X113169497Y-109880875D02*
G01*
X113521886Y-110027792D01*
X113527045Y-110031992D01*
X113529081Y-110038324D01*
X113527336Y-110044743D01*
X113293430Y-110423092D01*
X113289175Y-110427159D01*
X113283478Y-110428640D01*
X113046522Y-110428640D01*
X113040825Y-110427159D01*
X113036570Y-110423092D01*
X112802663Y-110044743D01*
X112800918Y-110038324D01*
X112802954Y-110031992D01*
X112808111Y-110027793D01*
X113160502Y-109880875D01*
X113165000Y-109879975D01*
X113169497Y-109880875D01*
G37*
G04 #@! TD.AperFunction*
G04 #@! TA.AperFunction,Conductor*
G36*
X121645115Y-121764649D02*
G01*
X121651280Y-121770890D01*
X121799123Y-122125498D01*
X121800024Y-122130000D01*
X121799123Y-122134502D01*
X121651280Y-122489109D01*
X121645115Y-122495350D01*
X121636344Y-122495551D01*
X121007563Y-122257859D01*
X121002075Y-122253567D01*
X121000000Y-122246915D01*
X121000000Y-122013085D01*
X121002075Y-122006433D01*
X121007563Y-122002141D01*
X121636345Y-121764448D01*
X121645115Y-121764649D01*
G37*
G04 #@! TD.AperFunction*
G04 #@! TA.AperFunction,Conductor*
G36*
X104684497Y-110640875D02*
G01*
X105039109Y-110788719D01*
X105045350Y-110794884D01*
X105045551Y-110803655D01*
X104807859Y-111432437D01*
X104803567Y-111437925D01*
X104796915Y-111440000D01*
X104563085Y-111440000D01*
X104556433Y-111437925D01*
X104552141Y-111432437D01*
X104314448Y-110803655D01*
X104314649Y-110794884D01*
X104320889Y-110788719D01*
X104675502Y-110640875D01*
X104680000Y-110639975D01*
X104684497Y-110640875D01*
G37*
G04 #@! TD.AperFunction*
G04 #@! TA.AperFunction,Conductor*
G36*
X88918807Y-120501551D02*
G01*
X89012909Y-120516455D01*
X89050402Y-120528637D01*
X89126349Y-120567334D01*
X89158241Y-120590506D01*
X89218507Y-120650772D01*
X89241679Y-120682664D01*
X89280376Y-120758611D01*
X89292558Y-120796103D01*
X89307463Y-120890206D01*
X89309014Y-120909917D01*
X89309014Y-123580083D01*
X89307463Y-123599795D01*
X89292558Y-123693897D01*
X89280376Y-123731388D01*
X89241679Y-123807335D01*
X89218507Y-123839227D01*
X89158241Y-123899493D01*
X89126349Y-123922665D01*
X89050402Y-123961362D01*
X89012911Y-123973544D01*
X88950002Y-123983508D01*
X88918804Y-123988449D01*
X88899097Y-123990000D01*
X86351996Y-123990000D01*
X86332284Y-123988448D01*
X86238170Y-123973539D01*
X86200675Y-123961355D01*
X86124719Y-123922647D01*
X86092822Y-123899468D01*
X86032552Y-123839183D01*
X86009383Y-123807284D01*
X85970693Y-123731320D01*
X85958517Y-123693822D01*
X85943629Y-123599697D01*
X85942083Y-123579986D01*
X85942714Y-120909807D01*
X85944269Y-120890118D01*
X85959192Y-120796027D01*
X85971376Y-120758549D01*
X86010085Y-120682610D01*
X86033250Y-120650736D01*
X86093529Y-120590472D01*
X86125406Y-120567317D01*
X86201354Y-120528626D01*
X86238835Y-120516451D01*
X86332923Y-120501550D01*
X86352631Y-120500000D01*
X88899097Y-120500000D01*
X88918807Y-120501551D01*
G37*
G04 #@! TD.AperFunction*
G04 #@! TA.AperFunction,Conductor*
G36*
X107740696Y-117820890D02*
G01*
X108352437Y-118052141D01*
X108357925Y-118056433D01*
X108360000Y-118063085D01*
X108360000Y-118296915D01*
X108357925Y-118303567D01*
X108352437Y-118307859D01*
X107723655Y-118545551D01*
X107714884Y-118545350D01*
X107708719Y-118539109D01*
X107560875Y-118184498D01*
X107559975Y-118179999D01*
X107560874Y-118175503D01*
X107708719Y-117820889D01*
X107714884Y-117814649D01*
X107723654Y-117814448D01*
X107740696Y-117820890D01*
G37*
G04 #@! TD.AperFunction*
G04 #@! TA.AperFunction,Conductor*
G36*
X105390115Y-109174649D02*
G01*
X105396280Y-109180890D01*
X105544123Y-109535497D01*
X105545024Y-109539999D01*
X105544123Y-109544501D01*
X105396280Y-109899109D01*
X105390115Y-109905350D01*
X105381344Y-109905551D01*
X104752563Y-109667859D01*
X104747075Y-109663567D01*
X104745000Y-109656915D01*
X104745000Y-109423085D01*
X104747075Y-109416433D01*
X104752563Y-109412141D01*
X105381345Y-109174448D01*
X105390115Y-109174649D01*
G37*
G04 #@! TD.AperFunction*
G04 #@! TA.AperFunction,Conductor*
G36*
X73055274Y-90936882D02*
G01*
X74069495Y-91298759D01*
X74075147Y-91303068D01*
X74077263Y-91309852D01*
X74075062Y-91316609D01*
X74069357Y-91320847D01*
X73055537Y-91668397D01*
X73050183Y-91668925D01*
X73045159Y-91667000D01*
X72680116Y-91418483D01*
X72676358Y-91414283D01*
X72675000Y-91408812D01*
X72675000Y-91171550D01*
X72676491Y-91165835D01*
X72680583Y-91161576D01*
X72777105Y-91102375D01*
X73045227Y-90937927D01*
X73050131Y-90936265D01*
X73055274Y-90936882D01*
G37*
G04 #@! TD.AperFunction*
G04 #@! TA.AperFunction,Conductor*
G36*
X92689886Y-121530220D02*
G01*
X92695490Y-121534502D01*
X92697615Y-121541226D01*
X92697615Y-121775073D01*
X92695598Y-121781641D01*
X92690242Y-121785943D01*
X92536002Y-121847334D01*
X92063768Y-122035294D01*
X92054901Y-122035206D01*
X92048642Y-122028925D01*
X91947339Y-121785944D01*
X91900875Y-121674498D01*
X91899975Y-121669999D01*
X91900874Y-121665503D01*
X92048785Y-121310731D01*
X92054868Y-121304527D01*
X92063552Y-121304229D01*
X92689886Y-121530220D01*
G37*
G04 #@! TD.AperFunction*
G04 #@! TA.AperFunction,Conductor*
G36*
X85144497Y-92890875D02*
G01*
X85499109Y-93038719D01*
X85505350Y-93044884D01*
X85505551Y-93053655D01*
X85267859Y-93682437D01*
X85263567Y-93687925D01*
X85256915Y-93690000D01*
X85023085Y-93690000D01*
X85016433Y-93687925D01*
X85012141Y-93682437D01*
X84774448Y-93053655D01*
X84774649Y-93044884D01*
X84780889Y-93038719D01*
X85135502Y-92890875D01*
X85140000Y-92889975D01*
X85144497Y-92890875D01*
G37*
G04 #@! TD.AperFunction*
G04 #@! TA.AperFunction,Conductor*
G36*
X111197414Y-129512929D02*
G01*
X111201281Y-129520249D01*
X111298360Y-130296882D01*
X111297336Y-130303315D01*
X111293031Y-130308204D01*
X111286779Y-130310033D01*
X110900029Y-130310999D01*
X110899971Y-130310999D01*
X110513220Y-130310033D01*
X110506968Y-130308204D01*
X110502663Y-130303315D01*
X110501639Y-130296884D01*
X110598718Y-129520249D01*
X110602586Y-129512929D01*
X110610329Y-129510000D01*
X111189671Y-129510000D01*
X111197414Y-129512929D01*
G37*
G04 #@! TD.AperFunction*
G04 #@! TA.AperFunction,Conductor*
G36*
X115555115Y-106654649D02*
G01*
X115561280Y-106660890D01*
X115709123Y-107015497D01*
X115710024Y-107019999D01*
X115709123Y-107024501D01*
X115561280Y-107379109D01*
X115555115Y-107385350D01*
X115546344Y-107385551D01*
X114917563Y-107147859D01*
X114912075Y-107143567D01*
X114910000Y-107136915D01*
X114910000Y-106903085D01*
X114912075Y-106896433D01*
X114917563Y-106892141D01*
X115546345Y-106654448D01*
X115555115Y-106654649D01*
G37*
G04 #@! TD.AperFunction*
G04 #@! TA.AperFunction,Conductor*
G36*
X111740115Y-109474649D02*
G01*
X111746280Y-109480890D01*
X111894123Y-109835497D01*
X111895024Y-109839999D01*
X111894123Y-109844501D01*
X111746280Y-110199109D01*
X111740115Y-110205350D01*
X111731344Y-110205551D01*
X111102563Y-109967859D01*
X111097075Y-109963567D01*
X111095000Y-109956915D01*
X111095000Y-109723085D01*
X111097075Y-109716433D01*
X111102563Y-109712141D01*
X111731345Y-109474448D01*
X111740115Y-109474649D01*
G37*
G04 #@! TD.AperFunction*
G04 #@! TA.AperFunction,Conductor*
G36*
X110434497Y-92160875D02*
G01*
X110789109Y-92308719D01*
X110795350Y-92314884D01*
X110795551Y-92323655D01*
X110557859Y-92952437D01*
X110553567Y-92957925D01*
X110546915Y-92960000D01*
X110313085Y-92960000D01*
X110306433Y-92957925D01*
X110302141Y-92952437D01*
X110064448Y-92323655D01*
X110064649Y-92314884D01*
X110070889Y-92308719D01*
X110425502Y-92160875D01*
X110430000Y-92159975D01*
X110434497Y-92160875D01*
G37*
G04 #@! TD.AperFunction*
G04 #@! TA.AperFunction,Conductor*
G36*
X121637889Y-118767340D02*
G01*
X121641895Y-118772364D01*
X121789123Y-119125498D01*
X121790024Y-119130000D01*
X121789123Y-119134502D01*
X121641895Y-119487635D01*
X121637889Y-119492659D01*
X121631833Y-119494810D01*
X121625556Y-119493438D01*
X121188213Y-119258312D01*
X121183710Y-119254010D01*
X121182053Y-119248007D01*
X121182053Y-119011993D01*
X121183710Y-119005990D01*
X121188213Y-119001688D01*
X121625557Y-118766560D01*
X121631833Y-118765189D01*
X121637889Y-118767340D01*
G37*
G04 #@! TD.AperFunction*
G04 #@! TA.AperFunction,Conductor*
G36*
X105549497Y-109540875D02*
G01*
X105904109Y-109688719D01*
X105910350Y-109694884D01*
X105910551Y-109703655D01*
X105672859Y-110332437D01*
X105668567Y-110337925D01*
X105661915Y-110340000D01*
X105428085Y-110340000D01*
X105421433Y-110337925D01*
X105417141Y-110332437D01*
X105179448Y-109703655D01*
X105179649Y-109694884D01*
X105185889Y-109688719D01*
X105540502Y-109540875D01*
X105545000Y-109539975D01*
X105549497Y-109540875D01*
G37*
G04 #@! TD.AperFunction*
G04 #@! TA.AperFunction,Conductor*
G36*
X107935115Y-105504649D02*
G01*
X107941280Y-105510890D01*
X108089123Y-105865498D01*
X108090024Y-105870000D01*
X108089123Y-105874502D01*
X107941280Y-106229109D01*
X107935115Y-106235350D01*
X107926344Y-106235551D01*
X107297563Y-105997859D01*
X107292075Y-105993567D01*
X107290000Y-105986915D01*
X107290000Y-105753085D01*
X107292075Y-105746433D01*
X107297563Y-105742141D01*
X107926345Y-105504448D01*
X107935115Y-105504649D01*
G37*
G04 #@! TD.AperFunction*
G04 #@! TA.AperFunction,Conductor*
G36*
X92324497Y-92860875D02*
G01*
X92679109Y-93008719D01*
X92685350Y-93014884D01*
X92685551Y-93023655D01*
X92447859Y-93652437D01*
X92443567Y-93657925D01*
X92436915Y-93660000D01*
X92203085Y-93660000D01*
X92196433Y-93657925D01*
X92192141Y-93652437D01*
X91954448Y-93023655D01*
X91954649Y-93014884D01*
X91960889Y-93008719D01*
X92315502Y-92860875D01*
X92320000Y-92859975D01*
X92324497Y-92860875D01*
G37*
G04 #@! TD.AperFunction*
G04 #@! TA.AperFunction,Conductor*
G36*
X107834498Y-92156375D02*
G01*
X108189109Y-92304219D01*
X108195350Y-92310384D01*
X108195551Y-92319155D01*
X107957859Y-92947937D01*
X107953567Y-92953425D01*
X107946915Y-92955500D01*
X107713085Y-92955500D01*
X107706433Y-92953425D01*
X107702141Y-92947937D01*
X107464448Y-92319155D01*
X107464649Y-92310384D01*
X107470889Y-92304219D01*
X107825503Y-92156374D01*
X107829999Y-92155475D01*
X107834498Y-92156375D01*
G37*
G04 #@! TD.AperFunction*
G04 #@! TA.AperFunction,Conductor*
G36*
X92926932Y-71013305D02*
G01*
X93307800Y-71172000D01*
X93313035Y-71176310D01*
X93315000Y-71182800D01*
X93315000Y-71417200D01*
X93313035Y-71423690D01*
X93307800Y-71428000D01*
X92926932Y-71586694D01*
X92922404Y-71587594D01*
X92917881Y-71586672D01*
X92516546Y-71417200D01*
X92264522Y-71310777D01*
X92258254Y-71304453D01*
X92258254Y-71295547D01*
X92264522Y-71289222D01*
X92917883Y-71013326D01*
X92922404Y-71012405D01*
X92926932Y-71013305D01*
G37*
G04 #@! TD.AperFunction*
G04 #@! TA.AperFunction,Conductor*
G36*
X91562118Y-72013327D02*
G01*
X92215476Y-72289222D01*
X92221745Y-72295547D01*
X92221745Y-72304453D01*
X92215476Y-72310778D01*
X91562118Y-72586672D01*
X91557595Y-72587594D01*
X91553067Y-72586694D01*
X91172200Y-72428000D01*
X91166965Y-72423690D01*
X91165000Y-72417200D01*
X91165000Y-72182800D01*
X91166965Y-72176310D01*
X91172200Y-72172000D01*
X91553069Y-72013304D01*
X91557595Y-72012405D01*
X91562118Y-72013327D01*
G37*
G04 #@! TD.AperFunction*
G04 #@! TA.AperFunction,Conductor*
G36*
X68146782Y-107109966D02*
G01*
X68153031Y-107111795D01*
X68157336Y-107116684D01*
X68158360Y-107123117D01*
X68061281Y-107899751D01*
X68057414Y-107907071D01*
X68049671Y-107910000D01*
X67470329Y-107910000D01*
X67462586Y-107907071D01*
X67458719Y-107899751D01*
X67442538Y-107770311D01*
X67361639Y-107123114D01*
X67362663Y-107116684D01*
X67366968Y-107111795D01*
X67373216Y-107109966D01*
X67760000Y-107109000D01*
X68146782Y-107109966D01*
G37*
G04 #@! TD.AperFunction*
G04 #@! TA.AperFunction,Conductor*
G36*
X109893567Y-114692075D02*
G01*
X109897859Y-114697563D01*
X110135551Y-115326344D01*
X110135350Y-115335115D01*
X110129109Y-115341280D01*
X109774502Y-115489123D01*
X109770000Y-115490024D01*
X109765498Y-115489123D01*
X109410890Y-115341280D01*
X109404649Y-115335115D01*
X109404448Y-115326345D01*
X109642141Y-114697562D01*
X109646433Y-114692075D01*
X109653085Y-114690000D01*
X109886915Y-114690000D01*
X109893567Y-114692075D01*
G37*
G04 #@! TD.AperFunction*
G04 #@! TA.AperFunction,Conductor*
G36*
X109084497Y-92140875D02*
G01*
X109439109Y-92288719D01*
X109445350Y-92294884D01*
X109445551Y-92303655D01*
X109207859Y-92932437D01*
X109203567Y-92937925D01*
X109196915Y-92940000D01*
X108963085Y-92940000D01*
X108956433Y-92937925D01*
X108952141Y-92932437D01*
X108714448Y-92303655D01*
X108714649Y-92294884D01*
X108720889Y-92288719D01*
X109075502Y-92140875D01*
X109080000Y-92139975D01*
X109084497Y-92140875D01*
G37*
G04 #@! TD.AperFunction*
G04 #@! TA.AperFunction,Conductor*
G36*
X111286782Y-122949966D02*
G01*
X111293031Y-122951795D01*
X111297336Y-122956684D01*
X111298360Y-122963117D01*
X111201281Y-123739751D01*
X111197414Y-123747071D01*
X111189671Y-123750000D01*
X110610329Y-123750000D01*
X110602586Y-123747071D01*
X110598719Y-123739751D01*
X110582538Y-123610311D01*
X110501639Y-122963114D01*
X110502663Y-122956684D01*
X110506968Y-122951795D01*
X110513216Y-122949966D01*
X110900000Y-122949000D01*
X111286782Y-122949966D01*
G37*
G04 #@! TD.AperFunction*
G04 #@! TA.AperFunction,Conductor*
G36*
X112150696Y-115130890D02*
G01*
X112762437Y-115362141D01*
X112767925Y-115366433D01*
X112770000Y-115373085D01*
X112770000Y-115606915D01*
X112767925Y-115613567D01*
X112762437Y-115617859D01*
X112133655Y-115855551D01*
X112124884Y-115855350D01*
X112118719Y-115849109D01*
X111970875Y-115494497D01*
X111969975Y-115490000D01*
X111970875Y-115485502D01*
X112118719Y-115130889D01*
X112124884Y-115124649D01*
X112133654Y-115124448D01*
X112150696Y-115130890D01*
G37*
G04 #@! TD.AperFunction*
G04 #@! TA.AperFunction,Conductor*
G36*
X119633965Y-106357105D02*
G01*
X119638274Y-106361716D01*
X119873695Y-106815635D01*
X119874978Y-106821875D01*
X119872802Y-106827862D01*
X119867811Y-106831821D01*
X119514502Y-106979123D01*
X119510000Y-106980024D01*
X119505498Y-106979123D01*
X119152188Y-106831821D01*
X119147197Y-106827862D01*
X119145021Y-106821875D01*
X119146303Y-106815636D01*
X119381725Y-106361716D01*
X119386035Y-106357105D01*
X119392112Y-106355403D01*
X119627888Y-106355403D01*
X119633965Y-106357105D01*
G37*
G04 #@! TD.AperFunction*
G04 #@! TA.AperFunction,Conductor*
G36*
X74102485Y-92584548D02*
G01*
X74107400Y-92588099D01*
X74296750Y-92820931D01*
X74399491Y-92947266D01*
X74402111Y-92954916D01*
X74399144Y-92962437D01*
X74074689Y-93326089D01*
X74070742Y-93328978D01*
X74065959Y-93330000D01*
X73828544Y-93330000D01*
X73822323Y-93328209D01*
X73818007Y-93323385D01*
X73644223Y-92963304D01*
X73643336Y-92955690D01*
X73647352Y-92949163D01*
X74090920Y-92586424D01*
X74096450Y-92583934D01*
X74102485Y-92584548D01*
G37*
G04 #@! TD.AperFunction*
G04 #@! TA.AperFunction,Conductor*
G36*
X99094497Y-113921019D02*
G01*
X99407399Y-114051473D01*
X99449106Y-114068862D01*
X99455348Y-114075029D01*
X99455547Y-114083801D01*
X99217686Y-114712549D01*
X99213393Y-114718035D01*
X99206743Y-114720109D01*
X98972913Y-114720109D01*
X98966260Y-114718034D01*
X98961968Y-114712544D01*
X98724445Y-114083798D01*
X98724647Y-114075028D01*
X98730887Y-114068864D01*
X99085502Y-113921019D01*
X99090000Y-113920119D01*
X99094497Y-113921019D01*
G37*
G04 #@! TD.AperFunction*
G04 #@! TA.AperFunction,Conductor*
G36*
X94864497Y-92860875D02*
G01*
X95219109Y-93008719D01*
X95225350Y-93014884D01*
X95225551Y-93023655D01*
X94987859Y-93652437D01*
X94983567Y-93657925D01*
X94976915Y-93660000D01*
X94743085Y-93660000D01*
X94736433Y-93657925D01*
X94732141Y-93652437D01*
X94494448Y-93023655D01*
X94494649Y-93014884D01*
X94500889Y-93008719D01*
X94855502Y-92860875D01*
X94860000Y-92859975D01*
X94864497Y-92860875D01*
G37*
G04 #@! TD.AperFunction*
G04 #@! TA.AperFunction,Conductor*
G36*
X104824497Y-67530875D02*
G01*
X105179109Y-67678719D01*
X105185350Y-67684884D01*
X105185551Y-67693655D01*
X104947859Y-68322437D01*
X104943567Y-68327925D01*
X104936915Y-68330000D01*
X104703085Y-68330000D01*
X104696433Y-68327925D01*
X104692141Y-68322437D01*
X104454448Y-67693655D01*
X104454649Y-67684884D01*
X104460889Y-67678719D01*
X104815502Y-67530875D01*
X104820000Y-67529975D01*
X104824497Y-67530875D01*
G37*
G04 #@! TD.AperFunction*
G04 #@! TA.AperFunction,Conductor*
G36*
X68057414Y-118472929D02*
G01*
X68061281Y-118480249D01*
X68158360Y-119256882D01*
X68157336Y-119263315D01*
X68153031Y-119268204D01*
X68146779Y-119270033D01*
X67760029Y-119270999D01*
X67759971Y-119270999D01*
X67373220Y-119270033D01*
X67366968Y-119268204D01*
X67362663Y-119263315D01*
X67361639Y-119256884D01*
X67458718Y-118480249D01*
X67462586Y-118472929D01*
X67470329Y-118470000D01*
X68049671Y-118470000D01*
X68057414Y-118472929D01*
G37*
G04 #@! TD.AperFunction*
G04 #@! TA.AperFunction,Conductor*
G36*
X93604497Y-92860875D02*
G01*
X93959109Y-93008719D01*
X93965350Y-93014884D01*
X93965551Y-93023655D01*
X93727859Y-93652437D01*
X93723567Y-93657925D01*
X93716915Y-93660000D01*
X93483085Y-93660000D01*
X93476433Y-93657925D01*
X93472141Y-93652437D01*
X93234448Y-93023655D01*
X93234649Y-93014884D01*
X93240889Y-93008719D01*
X93595502Y-92860875D01*
X93600000Y-92859975D01*
X93604497Y-92860875D01*
G37*
G04 #@! TD.AperFunction*
G04 #@! TA.AperFunction,Conductor*
G36*
X74184497Y-67530875D02*
G01*
X74539109Y-67678719D01*
X74545350Y-67684884D01*
X74545551Y-67693655D01*
X74307859Y-68322437D01*
X74303567Y-68327925D01*
X74296915Y-68330000D01*
X74063085Y-68330000D01*
X74056433Y-68327925D01*
X74052141Y-68322437D01*
X73814448Y-67693655D01*
X73814649Y-67684884D01*
X73820889Y-67678719D01*
X74175502Y-67530875D01*
X74180000Y-67529975D01*
X74184497Y-67530875D01*
G37*
G04 #@! TD.AperFunction*
G04 #@! TA.AperFunction,Conductor*
G36*
X98904823Y-105640875D02*
G01*
X99259457Y-105788728D01*
X99265693Y-105794882D01*
X99265908Y-105803641D01*
X99029864Y-106432078D01*
X99025573Y-106437582D01*
X99018911Y-106439664D01*
X98785079Y-106439664D01*
X98778439Y-106437597D01*
X98774145Y-106432128D01*
X98534810Y-105803671D01*
X98534995Y-105794887D01*
X98541240Y-105788709D01*
X98895828Y-105640875D01*
X98900326Y-105639975D01*
X98904823Y-105640875D01*
G37*
G04 #@! TD.AperFunction*
G04 #@! TA.AperFunction,Conductor*
G36*
X89504498Y-67330875D02*
G01*
X89859109Y-67478719D01*
X89865350Y-67484884D01*
X89865551Y-67493655D01*
X89627859Y-68122437D01*
X89623567Y-68127925D01*
X89616915Y-68130000D01*
X89383085Y-68130000D01*
X89376433Y-68127925D01*
X89372141Y-68122437D01*
X89134448Y-67493655D01*
X89134649Y-67484884D01*
X89140889Y-67478719D01*
X89495503Y-67330874D01*
X89499999Y-67329975D01*
X89504498Y-67330875D01*
G37*
G04 #@! TD.AperFunction*
G04 #@! TA.AperFunction,Conductor*
G36*
X120784497Y-109800875D02*
G01*
X121139109Y-109948719D01*
X121145350Y-109954884D01*
X121145551Y-109963655D01*
X120907859Y-110592437D01*
X120903567Y-110597925D01*
X120896915Y-110600000D01*
X120663085Y-110600000D01*
X120656433Y-110597925D01*
X120652141Y-110592437D01*
X120414448Y-109963655D01*
X120414649Y-109954884D01*
X120420889Y-109948719D01*
X120775502Y-109800875D01*
X120780000Y-109799975D01*
X120784497Y-109800875D01*
G37*
G04 #@! TD.AperFunction*
G04 #@! TA.AperFunction,Conductor*
G36*
X109183250Y-106518333D02*
G01*
X109189415Y-106524574D01*
X109337258Y-106879181D01*
X109338159Y-106883683D01*
X109337258Y-106888185D01*
X109189415Y-107242793D01*
X109183250Y-107249034D01*
X109174479Y-107249235D01*
X108545698Y-107011543D01*
X108540210Y-107007251D01*
X108538135Y-107000599D01*
X108538135Y-106766769D01*
X108540210Y-106760117D01*
X108545698Y-106755825D01*
X109174480Y-106518132D01*
X109183250Y-106518333D01*
G37*
G04 #@! TD.AperFunction*
G04 #@! TA.AperFunction,Conductor*
G36*
X91562118Y-73013327D02*
G01*
X92215476Y-73289222D01*
X92221745Y-73295547D01*
X92221745Y-73304453D01*
X92215476Y-73310778D01*
X91562118Y-73586672D01*
X91557595Y-73587594D01*
X91553067Y-73586694D01*
X91172200Y-73428000D01*
X91166965Y-73423690D01*
X91165000Y-73417200D01*
X91165000Y-73182800D01*
X91166965Y-73176310D01*
X91172200Y-73172000D01*
X91553069Y-73013304D01*
X91557595Y-73012405D01*
X91562118Y-73013327D01*
G37*
G04 #@! TD.AperFunction*
G04 #@! TA.AperFunction,Conductor*
G36*
X83908838Y-92890875D02*
G01*
X84263450Y-93038719D01*
X84269691Y-93044884D01*
X84269892Y-93053655D01*
X84032200Y-93682437D01*
X84027908Y-93687925D01*
X84021256Y-93690000D01*
X83787426Y-93690000D01*
X83780774Y-93687925D01*
X83776482Y-93682437D01*
X83538789Y-93053655D01*
X83538990Y-93044884D01*
X83545230Y-93038719D01*
X83899843Y-92890875D01*
X83904341Y-92889975D01*
X83908838Y-92890875D01*
G37*
G04 #@! TD.AperFunction*
G04 #@! TA.AperFunction,Conductor*
G36*
X78816000Y-86693413D02*
G01*
X78861387Y-86738800D01*
X78878000Y-86800800D01*
X78878000Y-87870500D01*
X78861387Y-87932500D01*
X78816000Y-87977887D01*
X78754000Y-87994500D01*
X76618485Y-87994500D01*
X76571588Y-88001927D01*
X76524696Y-88009354D01*
X76524694Y-88009354D01*
X76524693Y-88009355D01*
X76404821Y-88070432D01*
X76374698Y-88090561D01*
X76327245Y-88100000D01*
X75472755Y-88100000D01*
X75425302Y-88090561D01*
X75395181Y-88070434D01*
X75275302Y-88009353D01*
X75181521Y-87994500D01*
X73018485Y-87994500D01*
X72971588Y-88001927D01*
X72924696Y-88009354D01*
X72924694Y-88009354D01*
X72924693Y-88009355D01*
X72804821Y-88070432D01*
X72774698Y-88090561D01*
X72727245Y-88100000D01*
X72506055Y-88100000D01*
X72500431Y-90000344D01*
X72488014Y-90054065D01*
X72453534Y-90097092D01*
X71480000Y-90869999D01*
X71480000Y-90870000D01*
X71478806Y-91610456D01*
X71476923Y-91631782D01*
X71474500Y-91645528D01*
X71474500Y-94283928D01*
X71469104Y-97632466D01*
X71452399Y-97694426D01*
X71406957Y-97739738D01*
X71344950Y-97756266D01*
X69016641Y-97753374D01*
X68734845Y-97753023D01*
X68672911Y-97736360D01*
X68627587Y-97690980D01*
X68611000Y-97629024D01*
X68611000Y-87531624D01*
X68620524Y-87483965D01*
X68647635Y-87443628D01*
X69383736Y-86712804D01*
X69423854Y-86686154D01*
X69471101Y-86676800D01*
X78754000Y-86676800D01*
X78816000Y-86693413D01*
G37*
G04 #@! TD.AperFunction*
M02*
