%TF.GenerationSoftware,KiCad,Pcbnew,7.0.1*%
%TF.CreationDate,2023-04-16T16:24:30+07:00*%
%TF.ProjectId,chargerV1,63686172-6765-4725-9631-2e6b69636164,rev?*%
%TF.SameCoordinates,Original*%
%TF.FileFunction,Drillmap*%
%TF.FilePolarity,Positive*%
%FSLAX45Y45*%
G04 Gerber Fmt 4.5, Leading zero omitted, Abs format (unit mm)*
G04 Created by KiCad (PCBNEW 7.0.1) date 2023-04-16 16:24:30*
%MOMM*%
%LPD*%
G01*
G04 APERTURE LIST*
%ADD10C,0.100000*%
%ADD11C,0.200000*%
%ADD12C,0.065000*%
%ADD13C,0.095000*%
%ADD14C,0.130000*%
G04 APERTURE END LIST*
D10*
X11553000Y-6471000D02*
G75*
G03*
X11363000Y-6281000I-190000J0D01*
G01*
X6020000Y-13030000D02*
X6020000Y-8424000D01*
X6020000Y-13030000D02*
G75*
G03*
X6272000Y-13282000I252000J0D01*
G01*
X13022000Y-10883000D02*
X13022000Y-13030000D01*
X6264000Y-8180000D02*
X7436000Y-8180000D01*
X10611997Y-8180023D02*
G75*
G03*
X10611997Y-8080017I3J50003D01*
G01*
X12770000Y-13282000D02*
G75*
G03*
X13022000Y-13030000I0J252000D01*
G01*
X13022000Y-9032000D02*
X12332625Y-9032000D01*
X13022000Y-8432000D02*
X13022000Y-9032000D01*
X7938003Y-8079977D02*
G75*
G03*
X7938003Y-8179983I-3J-50003D01*
G01*
X10612000Y-8179983D02*
X7938000Y-8179983D01*
X6830000Y-6471000D02*
X6830000Y-7889983D01*
X7436000Y-8180000D02*
G75*
G03*
X7436000Y-8080000I0J50000D01*
G01*
X7436000Y-8080000D02*
X7020000Y-8080000D01*
X11553000Y-6471000D02*
X11553000Y-7889983D01*
X7020000Y-6281000D02*
G75*
G03*
X6830000Y-6471000I0J-190000D01*
G01*
X13022000Y-8432000D02*
G75*
G03*
X12770000Y-8180000I-252000J0D01*
G01*
X12332625Y-9032000D02*
X12332625Y-10883000D01*
X11363000Y-8079980D02*
G75*
G03*
X11553000Y-7889983I0J190000D01*
G01*
X11114000Y-8180000D02*
X12770000Y-8180000D01*
X7020000Y-6281000D02*
X11363000Y-6281000D01*
X12332625Y-10883000D02*
X13022000Y-10883000D01*
X7938003Y-8079983D02*
X10611997Y-8079983D01*
X12770000Y-13282000D02*
X6272000Y-13282000D01*
X6264000Y-8180000D02*
G75*
G03*
X6020000Y-8424000I0J-244000D01*
G01*
X11114000Y-8080000D02*
G75*
G03*
X11114000Y-8180000I0J-50000D01*
G01*
X11114000Y-8080000D02*
X11363000Y-8080000D01*
X6829997Y-7889983D02*
G75*
G03*
X7020000Y-8079983I190003J3D01*
G01*
D11*
D12*
X6462000Y-9182500D02*
X6527000Y-9247500D01*
X6527000Y-9182500D02*
X6462000Y-9247500D01*
X6462000Y-9760500D02*
X6527000Y-9825500D01*
X6527000Y-9760500D02*
X6462000Y-9825500D01*
D13*
X10746500Y-12807000D02*
G75*
G03*
X10746500Y-12807000I-47500J0D01*
G01*
X11546500Y-12807000D02*
G75*
G03*
X11546500Y-12807000I-47500J0D01*
G01*
D10*
X7818150Y-12060000D02*
X7818150Y-12160000D01*
X7768150Y-12110000D02*
X7868150Y-12110000D01*
D14*
X7114812Y-12155963D02*
X7114812Y-12064038D01*
X7022888Y-12064038D01*
X7022888Y-12155963D01*
X7114812Y-12155963D01*
D11*
X6262619Y-13599524D02*
X6262619Y-13399524D01*
X6262619Y-13399524D02*
X6310238Y-13399524D01*
X6310238Y-13399524D02*
X6338809Y-13409048D01*
X6338809Y-13409048D02*
X6357857Y-13428095D01*
X6357857Y-13428095D02*
X6367381Y-13447143D01*
X6367381Y-13447143D02*
X6376905Y-13485238D01*
X6376905Y-13485238D02*
X6376905Y-13513809D01*
X6376905Y-13513809D02*
X6367381Y-13551905D01*
X6367381Y-13551905D02*
X6357857Y-13570952D01*
X6357857Y-13570952D02*
X6338809Y-13590000D01*
X6338809Y-13590000D02*
X6310238Y-13599524D01*
X6310238Y-13599524D02*
X6262619Y-13599524D01*
X6462619Y-13599524D02*
X6462619Y-13466190D01*
X6462619Y-13504286D02*
X6472143Y-13485238D01*
X6472143Y-13485238D02*
X6481667Y-13475714D01*
X6481667Y-13475714D02*
X6500714Y-13466190D01*
X6500714Y-13466190D02*
X6519762Y-13466190D01*
X6586428Y-13599524D02*
X6586428Y-13466190D01*
X6586428Y-13399524D02*
X6576905Y-13409048D01*
X6576905Y-13409048D02*
X6586428Y-13418571D01*
X6586428Y-13418571D02*
X6595952Y-13409048D01*
X6595952Y-13409048D02*
X6586428Y-13399524D01*
X6586428Y-13399524D02*
X6586428Y-13418571D01*
X6710238Y-13599524D02*
X6691190Y-13590000D01*
X6691190Y-13590000D02*
X6681667Y-13570952D01*
X6681667Y-13570952D02*
X6681667Y-13399524D01*
X6815000Y-13599524D02*
X6795952Y-13590000D01*
X6795952Y-13590000D02*
X6786428Y-13570952D01*
X6786428Y-13570952D02*
X6786428Y-13399524D01*
X7043571Y-13599524D02*
X7043571Y-13399524D01*
X7043571Y-13399524D02*
X7110238Y-13542381D01*
X7110238Y-13542381D02*
X7176905Y-13399524D01*
X7176905Y-13399524D02*
X7176905Y-13599524D01*
X7357857Y-13599524D02*
X7357857Y-13494762D01*
X7357857Y-13494762D02*
X7348333Y-13475714D01*
X7348333Y-13475714D02*
X7329286Y-13466190D01*
X7329286Y-13466190D02*
X7291190Y-13466190D01*
X7291190Y-13466190D02*
X7272143Y-13475714D01*
X7357857Y-13590000D02*
X7338809Y-13599524D01*
X7338809Y-13599524D02*
X7291190Y-13599524D01*
X7291190Y-13599524D02*
X7272143Y-13590000D01*
X7272143Y-13590000D02*
X7262619Y-13570952D01*
X7262619Y-13570952D02*
X7262619Y-13551905D01*
X7262619Y-13551905D02*
X7272143Y-13532857D01*
X7272143Y-13532857D02*
X7291190Y-13523333D01*
X7291190Y-13523333D02*
X7338809Y-13523333D01*
X7338809Y-13523333D02*
X7357857Y-13513809D01*
X7453095Y-13466190D02*
X7453095Y-13666190D01*
X7453095Y-13475714D02*
X7472143Y-13466190D01*
X7472143Y-13466190D02*
X7510238Y-13466190D01*
X7510238Y-13466190D02*
X7529286Y-13475714D01*
X7529286Y-13475714D02*
X7538809Y-13485238D01*
X7538809Y-13485238D02*
X7548333Y-13504286D01*
X7548333Y-13504286D02*
X7548333Y-13561428D01*
X7548333Y-13561428D02*
X7538809Y-13580476D01*
X7538809Y-13580476D02*
X7529286Y-13590000D01*
X7529286Y-13590000D02*
X7510238Y-13599524D01*
X7510238Y-13599524D02*
X7472143Y-13599524D01*
X7472143Y-13599524D02*
X7453095Y-13590000D01*
X7634048Y-13580476D02*
X7643571Y-13590000D01*
X7643571Y-13590000D02*
X7634048Y-13599524D01*
X7634048Y-13599524D02*
X7624524Y-13590000D01*
X7624524Y-13590000D02*
X7634048Y-13580476D01*
X7634048Y-13580476D02*
X7634048Y-13599524D01*
X7634048Y-13475714D02*
X7643571Y-13485238D01*
X7643571Y-13485238D02*
X7634048Y-13494762D01*
X7634048Y-13494762D02*
X7624524Y-13485238D01*
X7624524Y-13485238D02*
X7634048Y-13475714D01*
X7634048Y-13475714D02*
X7634048Y-13494762D01*
D12*
X5950000Y-13894500D02*
X6015000Y-13959500D01*
X6015000Y-13894500D02*
X5950000Y-13959500D01*
D11*
X6300714Y-13819524D02*
X6319762Y-13819524D01*
X6319762Y-13819524D02*
X6338809Y-13829048D01*
X6338809Y-13829048D02*
X6348333Y-13838571D01*
X6348333Y-13838571D02*
X6357857Y-13857619D01*
X6357857Y-13857619D02*
X6367381Y-13895714D01*
X6367381Y-13895714D02*
X6367381Y-13943333D01*
X6367381Y-13943333D02*
X6357857Y-13981428D01*
X6357857Y-13981428D02*
X6348333Y-14000476D01*
X6348333Y-14000476D02*
X6338809Y-14010000D01*
X6338809Y-14010000D02*
X6319762Y-14019524D01*
X6319762Y-14019524D02*
X6300714Y-14019524D01*
X6300714Y-14019524D02*
X6281667Y-14010000D01*
X6281667Y-14010000D02*
X6272143Y-14000476D01*
X6272143Y-14000476D02*
X6262619Y-13981428D01*
X6262619Y-13981428D02*
X6253095Y-13943333D01*
X6253095Y-13943333D02*
X6253095Y-13895714D01*
X6253095Y-13895714D02*
X6262619Y-13857619D01*
X6262619Y-13857619D02*
X6272143Y-13838571D01*
X6272143Y-13838571D02*
X6281667Y-13829048D01*
X6281667Y-13829048D02*
X6300714Y-13819524D01*
X6453095Y-14000476D02*
X6462619Y-14010000D01*
X6462619Y-14010000D02*
X6453095Y-14019524D01*
X6453095Y-14019524D02*
X6443571Y-14010000D01*
X6443571Y-14010000D02*
X6453095Y-14000476D01*
X6453095Y-14000476D02*
X6453095Y-14019524D01*
X6634048Y-13819524D02*
X6595952Y-13819524D01*
X6595952Y-13819524D02*
X6576905Y-13829048D01*
X6576905Y-13829048D02*
X6567381Y-13838571D01*
X6567381Y-13838571D02*
X6548333Y-13867143D01*
X6548333Y-13867143D02*
X6538809Y-13905238D01*
X6538809Y-13905238D02*
X6538809Y-13981428D01*
X6538809Y-13981428D02*
X6548333Y-14000476D01*
X6548333Y-14000476D02*
X6557857Y-14010000D01*
X6557857Y-14010000D02*
X6576905Y-14019524D01*
X6576905Y-14019524D02*
X6615000Y-14019524D01*
X6615000Y-14019524D02*
X6634048Y-14010000D01*
X6634048Y-14010000D02*
X6643571Y-14000476D01*
X6643571Y-14000476D02*
X6653095Y-13981428D01*
X6653095Y-13981428D02*
X6653095Y-13933809D01*
X6653095Y-13933809D02*
X6643571Y-13914762D01*
X6643571Y-13914762D02*
X6634048Y-13905238D01*
X6634048Y-13905238D02*
X6615000Y-13895714D01*
X6615000Y-13895714D02*
X6576905Y-13895714D01*
X6576905Y-13895714D02*
X6557857Y-13905238D01*
X6557857Y-13905238D02*
X6548333Y-13914762D01*
X6548333Y-13914762D02*
X6538809Y-13933809D01*
X6834048Y-13819524D02*
X6738809Y-13819524D01*
X6738809Y-13819524D02*
X6729286Y-13914762D01*
X6729286Y-13914762D02*
X6738809Y-13905238D01*
X6738809Y-13905238D02*
X6757857Y-13895714D01*
X6757857Y-13895714D02*
X6805476Y-13895714D01*
X6805476Y-13895714D02*
X6824524Y-13905238D01*
X6824524Y-13905238D02*
X6834048Y-13914762D01*
X6834048Y-13914762D02*
X6843571Y-13933809D01*
X6843571Y-13933809D02*
X6843571Y-13981428D01*
X6843571Y-13981428D02*
X6834048Y-14000476D01*
X6834048Y-14000476D02*
X6824524Y-14010000D01*
X6824524Y-14010000D02*
X6805476Y-14019524D01*
X6805476Y-14019524D02*
X6757857Y-14019524D01*
X6757857Y-14019524D02*
X6738809Y-14010000D01*
X6738809Y-14010000D02*
X6729286Y-14000476D01*
X6967381Y-13819524D02*
X6986429Y-13819524D01*
X6986429Y-13819524D02*
X7005476Y-13829048D01*
X7005476Y-13829048D02*
X7015000Y-13838571D01*
X7015000Y-13838571D02*
X7024524Y-13857619D01*
X7024524Y-13857619D02*
X7034048Y-13895714D01*
X7034048Y-13895714D02*
X7034048Y-13943333D01*
X7034048Y-13943333D02*
X7024524Y-13981428D01*
X7024524Y-13981428D02*
X7015000Y-14000476D01*
X7015000Y-14000476D02*
X7005476Y-14010000D01*
X7005476Y-14010000D02*
X6986429Y-14019524D01*
X6986429Y-14019524D02*
X6967381Y-14019524D01*
X6967381Y-14019524D02*
X6948333Y-14010000D01*
X6948333Y-14010000D02*
X6938809Y-14000476D01*
X6938809Y-14000476D02*
X6929286Y-13981428D01*
X6929286Y-13981428D02*
X6919762Y-13943333D01*
X6919762Y-13943333D02*
X6919762Y-13895714D01*
X6919762Y-13895714D02*
X6929286Y-13857619D01*
X6929286Y-13857619D02*
X6938809Y-13838571D01*
X6938809Y-13838571D02*
X6948333Y-13829048D01*
X6948333Y-13829048D02*
X6967381Y-13819524D01*
X7119762Y-14019524D02*
X7119762Y-13886190D01*
X7119762Y-13905238D02*
X7129286Y-13895714D01*
X7129286Y-13895714D02*
X7148333Y-13886190D01*
X7148333Y-13886190D02*
X7176905Y-13886190D01*
X7176905Y-13886190D02*
X7195952Y-13895714D01*
X7195952Y-13895714D02*
X7205476Y-13914762D01*
X7205476Y-13914762D02*
X7205476Y-14019524D01*
X7205476Y-13914762D02*
X7215000Y-13895714D01*
X7215000Y-13895714D02*
X7234048Y-13886190D01*
X7234048Y-13886190D02*
X7262619Y-13886190D01*
X7262619Y-13886190D02*
X7281667Y-13895714D01*
X7281667Y-13895714D02*
X7291190Y-13914762D01*
X7291190Y-13914762D02*
X7291190Y-14019524D01*
X7386429Y-14019524D02*
X7386429Y-13886190D01*
X7386429Y-13905238D02*
X7395952Y-13895714D01*
X7395952Y-13895714D02*
X7415000Y-13886190D01*
X7415000Y-13886190D02*
X7443571Y-13886190D01*
X7443571Y-13886190D02*
X7462619Y-13895714D01*
X7462619Y-13895714D02*
X7472143Y-13914762D01*
X7472143Y-13914762D02*
X7472143Y-14019524D01*
X7472143Y-13914762D02*
X7481667Y-13895714D01*
X7481667Y-13895714D02*
X7500714Y-13886190D01*
X7500714Y-13886190D02*
X7529286Y-13886190D01*
X7529286Y-13886190D02*
X7548333Y-13895714D01*
X7548333Y-13895714D02*
X7557857Y-13914762D01*
X7557857Y-13914762D02*
X7557857Y-14019524D01*
X7948333Y-13810000D02*
X7776905Y-14067143D01*
X8205476Y-13819524D02*
X8224524Y-13819524D01*
X8224524Y-13819524D02*
X8243572Y-13829048D01*
X8243572Y-13829048D02*
X8253095Y-13838571D01*
X8253095Y-13838571D02*
X8262619Y-13857619D01*
X8262619Y-13857619D02*
X8272143Y-13895714D01*
X8272143Y-13895714D02*
X8272143Y-13943333D01*
X8272143Y-13943333D02*
X8262619Y-13981428D01*
X8262619Y-13981428D02*
X8253095Y-14000476D01*
X8253095Y-14000476D02*
X8243572Y-14010000D01*
X8243572Y-14010000D02*
X8224524Y-14019524D01*
X8224524Y-14019524D02*
X8205476Y-14019524D01*
X8205476Y-14019524D02*
X8186429Y-14010000D01*
X8186429Y-14010000D02*
X8176905Y-14000476D01*
X8176905Y-14000476D02*
X8167381Y-13981428D01*
X8167381Y-13981428D02*
X8157857Y-13943333D01*
X8157857Y-13943333D02*
X8157857Y-13895714D01*
X8157857Y-13895714D02*
X8167381Y-13857619D01*
X8167381Y-13857619D02*
X8176905Y-13838571D01*
X8176905Y-13838571D02*
X8186429Y-13829048D01*
X8186429Y-13829048D02*
X8205476Y-13819524D01*
X8357857Y-14000476D02*
X8367381Y-14010000D01*
X8367381Y-14010000D02*
X8357857Y-14019524D01*
X8357857Y-14019524D02*
X8348333Y-14010000D01*
X8348333Y-14010000D02*
X8357857Y-14000476D01*
X8357857Y-14000476D02*
X8357857Y-14019524D01*
X8491191Y-13819524D02*
X8510238Y-13819524D01*
X8510238Y-13819524D02*
X8529286Y-13829048D01*
X8529286Y-13829048D02*
X8538810Y-13838571D01*
X8538810Y-13838571D02*
X8548334Y-13857619D01*
X8548334Y-13857619D02*
X8557857Y-13895714D01*
X8557857Y-13895714D02*
X8557857Y-13943333D01*
X8557857Y-13943333D02*
X8548334Y-13981428D01*
X8548334Y-13981428D02*
X8538810Y-14000476D01*
X8538810Y-14000476D02*
X8529286Y-14010000D01*
X8529286Y-14010000D02*
X8510238Y-14019524D01*
X8510238Y-14019524D02*
X8491191Y-14019524D01*
X8491191Y-14019524D02*
X8472143Y-14010000D01*
X8472143Y-14010000D02*
X8462619Y-14000476D01*
X8462619Y-14000476D02*
X8453095Y-13981428D01*
X8453095Y-13981428D02*
X8443572Y-13943333D01*
X8443572Y-13943333D02*
X8443572Y-13895714D01*
X8443572Y-13895714D02*
X8453095Y-13857619D01*
X8453095Y-13857619D02*
X8462619Y-13838571D01*
X8462619Y-13838571D02*
X8472143Y-13829048D01*
X8472143Y-13829048D02*
X8491191Y-13819524D01*
X8634048Y-13838571D02*
X8643572Y-13829048D01*
X8643572Y-13829048D02*
X8662619Y-13819524D01*
X8662619Y-13819524D02*
X8710238Y-13819524D01*
X8710238Y-13819524D02*
X8729286Y-13829048D01*
X8729286Y-13829048D02*
X8738810Y-13838571D01*
X8738810Y-13838571D02*
X8748334Y-13857619D01*
X8748334Y-13857619D02*
X8748334Y-13876667D01*
X8748334Y-13876667D02*
X8738810Y-13905238D01*
X8738810Y-13905238D02*
X8624524Y-14019524D01*
X8624524Y-14019524D02*
X8748334Y-14019524D01*
X8929286Y-13819524D02*
X8834048Y-13819524D01*
X8834048Y-13819524D02*
X8824524Y-13914762D01*
X8824524Y-13914762D02*
X8834048Y-13905238D01*
X8834048Y-13905238D02*
X8853095Y-13895714D01*
X8853095Y-13895714D02*
X8900715Y-13895714D01*
X8900715Y-13895714D02*
X8919762Y-13905238D01*
X8919762Y-13905238D02*
X8929286Y-13914762D01*
X8929286Y-13914762D02*
X8938810Y-13933809D01*
X8938810Y-13933809D02*
X8938810Y-13981428D01*
X8938810Y-13981428D02*
X8929286Y-14000476D01*
X8929286Y-14000476D02*
X8919762Y-14010000D01*
X8919762Y-14010000D02*
X8900715Y-14019524D01*
X8900715Y-14019524D02*
X8853095Y-14019524D01*
X8853095Y-14019524D02*
X8834048Y-14010000D01*
X8834048Y-14010000D02*
X8824524Y-14000476D01*
X9110238Y-13819524D02*
X9072143Y-13819524D01*
X9072143Y-13819524D02*
X9053095Y-13829048D01*
X9053095Y-13829048D02*
X9043572Y-13838571D01*
X9043572Y-13838571D02*
X9024524Y-13867143D01*
X9024524Y-13867143D02*
X9015000Y-13905238D01*
X9015000Y-13905238D02*
X9015000Y-13981428D01*
X9015000Y-13981428D02*
X9024524Y-14000476D01*
X9024524Y-14000476D02*
X9034048Y-14010000D01*
X9034048Y-14010000D02*
X9053095Y-14019524D01*
X9053095Y-14019524D02*
X9091191Y-14019524D01*
X9091191Y-14019524D02*
X9110238Y-14010000D01*
X9110238Y-14010000D02*
X9119762Y-14000476D01*
X9119762Y-14000476D02*
X9129286Y-13981428D01*
X9129286Y-13981428D02*
X9129286Y-13933809D01*
X9129286Y-13933809D02*
X9119762Y-13914762D01*
X9119762Y-13914762D02*
X9110238Y-13905238D01*
X9110238Y-13905238D02*
X9091191Y-13895714D01*
X9091191Y-13895714D02*
X9053095Y-13895714D01*
X9053095Y-13895714D02*
X9034048Y-13905238D01*
X9034048Y-13905238D02*
X9024524Y-13914762D01*
X9024524Y-13914762D02*
X9015000Y-13933809D01*
X9205476Y-13819524D02*
X9205476Y-13857619D01*
X9281667Y-13819524D02*
X9281667Y-13857619D01*
X9576905Y-14095714D02*
X9567381Y-14086190D01*
X9567381Y-14086190D02*
X9548334Y-14057619D01*
X9548334Y-14057619D02*
X9538810Y-14038571D01*
X9538810Y-14038571D02*
X9529286Y-14010000D01*
X9529286Y-14010000D02*
X9519762Y-13962381D01*
X9519762Y-13962381D02*
X9519762Y-13924286D01*
X9519762Y-13924286D02*
X9529286Y-13876667D01*
X9529286Y-13876667D02*
X9538810Y-13848095D01*
X9538810Y-13848095D02*
X9548334Y-13829048D01*
X9548334Y-13829048D02*
X9567381Y-13800476D01*
X9567381Y-13800476D02*
X9576905Y-13790952D01*
X9643572Y-13838571D02*
X9653096Y-13829048D01*
X9653096Y-13829048D02*
X9672143Y-13819524D01*
X9672143Y-13819524D02*
X9719762Y-13819524D01*
X9719762Y-13819524D02*
X9738810Y-13829048D01*
X9738810Y-13829048D02*
X9748334Y-13838571D01*
X9748334Y-13838571D02*
X9757857Y-13857619D01*
X9757857Y-13857619D02*
X9757857Y-13876667D01*
X9757857Y-13876667D02*
X9748334Y-13905238D01*
X9748334Y-13905238D02*
X9634048Y-14019524D01*
X9634048Y-14019524D02*
X9757857Y-14019524D01*
X9995953Y-14019524D02*
X9995953Y-13819524D01*
X10081667Y-14019524D02*
X10081667Y-13914762D01*
X10081667Y-13914762D02*
X10072143Y-13895714D01*
X10072143Y-13895714D02*
X10053096Y-13886190D01*
X10053096Y-13886190D02*
X10024524Y-13886190D01*
X10024524Y-13886190D02*
X10005477Y-13895714D01*
X10005477Y-13895714D02*
X9995953Y-13905238D01*
X10205477Y-14019524D02*
X10186429Y-14010000D01*
X10186429Y-14010000D02*
X10176905Y-14000476D01*
X10176905Y-14000476D02*
X10167381Y-13981428D01*
X10167381Y-13981428D02*
X10167381Y-13924286D01*
X10167381Y-13924286D02*
X10176905Y-13905238D01*
X10176905Y-13905238D02*
X10186429Y-13895714D01*
X10186429Y-13895714D02*
X10205477Y-13886190D01*
X10205477Y-13886190D02*
X10234048Y-13886190D01*
X10234048Y-13886190D02*
X10253096Y-13895714D01*
X10253096Y-13895714D02*
X10262619Y-13905238D01*
X10262619Y-13905238D02*
X10272143Y-13924286D01*
X10272143Y-13924286D02*
X10272143Y-13981428D01*
X10272143Y-13981428D02*
X10262619Y-14000476D01*
X10262619Y-14000476D02*
X10253096Y-14010000D01*
X10253096Y-14010000D02*
X10234048Y-14019524D01*
X10234048Y-14019524D02*
X10205477Y-14019524D01*
X10386429Y-14019524D02*
X10367381Y-14010000D01*
X10367381Y-14010000D02*
X10357858Y-13990952D01*
X10357858Y-13990952D02*
X10357858Y-13819524D01*
X10538810Y-14010000D02*
X10519762Y-14019524D01*
X10519762Y-14019524D02*
X10481667Y-14019524D01*
X10481667Y-14019524D02*
X10462619Y-14010000D01*
X10462619Y-14010000D02*
X10453096Y-13990952D01*
X10453096Y-13990952D02*
X10453096Y-13914762D01*
X10453096Y-13914762D02*
X10462619Y-13895714D01*
X10462619Y-13895714D02*
X10481667Y-13886190D01*
X10481667Y-13886190D02*
X10519762Y-13886190D01*
X10519762Y-13886190D02*
X10538810Y-13895714D01*
X10538810Y-13895714D02*
X10548334Y-13914762D01*
X10548334Y-13914762D02*
X10548334Y-13933809D01*
X10548334Y-13933809D02*
X10453096Y-13952857D01*
X10624524Y-14010000D02*
X10643572Y-14019524D01*
X10643572Y-14019524D02*
X10681667Y-14019524D01*
X10681667Y-14019524D02*
X10700715Y-14010000D01*
X10700715Y-14010000D02*
X10710239Y-13990952D01*
X10710239Y-13990952D02*
X10710239Y-13981428D01*
X10710239Y-13981428D02*
X10700715Y-13962381D01*
X10700715Y-13962381D02*
X10681667Y-13952857D01*
X10681667Y-13952857D02*
X10653096Y-13952857D01*
X10653096Y-13952857D02*
X10634048Y-13943333D01*
X10634048Y-13943333D02*
X10624524Y-13924286D01*
X10624524Y-13924286D02*
X10624524Y-13914762D01*
X10624524Y-13914762D02*
X10634048Y-13895714D01*
X10634048Y-13895714D02*
X10653096Y-13886190D01*
X10653096Y-13886190D02*
X10681667Y-13886190D01*
X10681667Y-13886190D02*
X10700715Y-13895714D01*
X10776905Y-14095714D02*
X10786429Y-14086190D01*
X10786429Y-14086190D02*
X10805477Y-14057619D01*
X10805477Y-14057619D02*
X10815000Y-14038571D01*
X10815000Y-14038571D02*
X10824524Y-14010000D01*
X10824524Y-14010000D02*
X10834048Y-13962381D01*
X10834048Y-13962381D02*
X10834048Y-13924286D01*
X10834048Y-13924286D02*
X10824524Y-13876667D01*
X10824524Y-13876667D02*
X10815000Y-13848095D01*
X10815000Y-13848095D02*
X10805477Y-13829048D01*
X10805477Y-13829048D02*
X10786429Y-13800476D01*
X10786429Y-13800476D02*
X10776905Y-13790952D01*
X11138810Y-14095714D02*
X11129286Y-14086190D01*
X11129286Y-14086190D02*
X11110239Y-14057619D01*
X11110239Y-14057619D02*
X11100715Y-14038571D01*
X11100715Y-14038571D02*
X11091191Y-14010000D01*
X11091191Y-14010000D02*
X11081667Y-13962381D01*
X11081667Y-13962381D02*
X11081667Y-13924286D01*
X11081667Y-13924286D02*
X11091191Y-13876667D01*
X11091191Y-13876667D02*
X11100715Y-13848095D01*
X11100715Y-13848095D02*
X11110239Y-13829048D01*
X11110239Y-13829048D02*
X11129286Y-13800476D01*
X11129286Y-13800476D02*
X11138810Y-13790952D01*
X11215000Y-13886190D02*
X11215000Y-14019524D01*
X11215000Y-13905238D02*
X11224524Y-13895714D01*
X11224524Y-13895714D02*
X11243572Y-13886190D01*
X11243572Y-13886190D02*
X11272143Y-13886190D01*
X11272143Y-13886190D02*
X11291191Y-13895714D01*
X11291191Y-13895714D02*
X11300715Y-13914762D01*
X11300715Y-13914762D02*
X11300715Y-14019524D01*
X11424524Y-14019524D02*
X11405477Y-14010000D01*
X11405477Y-14010000D02*
X11395953Y-14000476D01*
X11395953Y-14000476D02*
X11386429Y-13981428D01*
X11386429Y-13981428D02*
X11386429Y-13924286D01*
X11386429Y-13924286D02*
X11395953Y-13905238D01*
X11395953Y-13905238D02*
X11405477Y-13895714D01*
X11405477Y-13895714D02*
X11424524Y-13886190D01*
X11424524Y-13886190D02*
X11453096Y-13886190D01*
X11453096Y-13886190D02*
X11472143Y-13895714D01*
X11472143Y-13895714D02*
X11481667Y-13905238D01*
X11481667Y-13905238D02*
X11491191Y-13924286D01*
X11491191Y-13924286D02*
X11491191Y-13981428D01*
X11491191Y-13981428D02*
X11481667Y-14000476D01*
X11481667Y-14000476D02*
X11472143Y-14010000D01*
X11472143Y-14010000D02*
X11453096Y-14019524D01*
X11453096Y-14019524D02*
X11424524Y-14019524D01*
X11548334Y-13886190D02*
X11624524Y-13886190D01*
X11576905Y-13819524D02*
X11576905Y-13990952D01*
X11576905Y-13990952D02*
X11586429Y-14010000D01*
X11586429Y-14010000D02*
X11605477Y-14019524D01*
X11605477Y-14019524D02*
X11624524Y-14019524D01*
X11843572Y-13886190D02*
X11843572Y-14086190D01*
X11843572Y-13895714D02*
X11862619Y-13886190D01*
X11862619Y-13886190D02*
X11900715Y-13886190D01*
X11900715Y-13886190D02*
X11919762Y-13895714D01*
X11919762Y-13895714D02*
X11929286Y-13905238D01*
X11929286Y-13905238D02*
X11938810Y-13924286D01*
X11938810Y-13924286D02*
X11938810Y-13981428D01*
X11938810Y-13981428D02*
X11929286Y-14000476D01*
X11929286Y-14000476D02*
X11919762Y-14010000D01*
X11919762Y-14010000D02*
X11900715Y-14019524D01*
X11900715Y-14019524D02*
X11862619Y-14019524D01*
X11862619Y-14019524D02*
X11843572Y-14010000D01*
X12053096Y-14019524D02*
X12034048Y-14010000D01*
X12034048Y-14010000D02*
X12024524Y-13990952D01*
X12024524Y-13990952D02*
X12024524Y-13819524D01*
X12215000Y-14019524D02*
X12215000Y-13914762D01*
X12215000Y-13914762D02*
X12205477Y-13895714D01*
X12205477Y-13895714D02*
X12186429Y-13886190D01*
X12186429Y-13886190D02*
X12148334Y-13886190D01*
X12148334Y-13886190D02*
X12129286Y-13895714D01*
X12215000Y-14010000D02*
X12195953Y-14019524D01*
X12195953Y-14019524D02*
X12148334Y-14019524D01*
X12148334Y-14019524D02*
X12129286Y-14010000D01*
X12129286Y-14010000D02*
X12119762Y-13990952D01*
X12119762Y-13990952D02*
X12119762Y-13971905D01*
X12119762Y-13971905D02*
X12129286Y-13952857D01*
X12129286Y-13952857D02*
X12148334Y-13943333D01*
X12148334Y-13943333D02*
X12195953Y-13943333D01*
X12195953Y-13943333D02*
X12215000Y-13933809D01*
X12281667Y-13886190D02*
X12357858Y-13886190D01*
X12310239Y-13819524D02*
X12310239Y-13990952D01*
X12310239Y-13990952D02*
X12319762Y-14010000D01*
X12319762Y-14010000D02*
X12338810Y-14019524D01*
X12338810Y-14019524D02*
X12357858Y-14019524D01*
X12500715Y-14010000D02*
X12481667Y-14019524D01*
X12481667Y-14019524D02*
X12443572Y-14019524D01*
X12443572Y-14019524D02*
X12424524Y-14010000D01*
X12424524Y-14010000D02*
X12415000Y-13990952D01*
X12415000Y-13990952D02*
X12415000Y-13914762D01*
X12415000Y-13914762D02*
X12424524Y-13895714D01*
X12424524Y-13895714D02*
X12443572Y-13886190D01*
X12443572Y-13886190D02*
X12481667Y-13886190D01*
X12481667Y-13886190D02*
X12500715Y-13895714D01*
X12500715Y-13895714D02*
X12510239Y-13914762D01*
X12510239Y-13914762D02*
X12510239Y-13933809D01*
X12510239Y-13933809D02*
X12415000Y-13952857D01*
X12681667Y-14019524D02*
X12681667Y-13819524D01*
X12681667Y-14010000D02*
X12662620Y-14019524D01*
X12662620Y-14019524D02*
X12624524Y-14019524D01*
X12624524Y-14019524D02*
X12605477Y-14010000D01*
X12605477Y-14010000D02*
X12595953Y-14000476D01*
X12595953Y-14000476D02*
X12586429Y-13981428D01*
X12586429Y-13981428D02*
X12586429Y-13924286D01*
X12586429Y-13924286D02*
X12595953Y-13905238D01*
X12595953Y-13905238D02*
X12605477Y-13895714D01*
X12605477Y-13895714D02*
X12624524Y-13886190D01*
X12624524Y-13886190D02*
X12662620Y-13886190D01*
X12662620Y-13886190D02*
X12681667Y-13895714D01*
X12757858Y-14095714D02*
X12767381Y-14086190D01*
X12767381Y-14086190D02*
X12786429Y-14057619D01*
X12786429Y-14057619D02*
X12795953Y-14038571D01*
X12795953Y-14038571D02*
X12805477Y-14010000D01*
X12805477Y-14010000D02*
X12815000Y-13962381D01*
X12815000Y-13962381D02*
X12815000Y-13924286D01*
X12815000Y-13924286D02*
X12805477Y-13876667D01*
X12805477Y-13876667D02*
X12795953Y-13848095D01*
X12795953Y-13848095D02*
X12786429Y-13829048D01*
X12786429Y-13829048D02*
X12767381Y-13800476D01*
X12767381Y-13800476D02*
X12757858Y-13790952D01*
D13*
X6015000Y-14191000D02*
G75*
G03*
X6015000Y-14191000I-47500J0D01*
G01*
D11*
X6300714Y-14083524D02*
X6319762Y-14083524D01*
X6319762Y-14083524D02*
X6338809Y-14093048D01*
X6338809Y-14093048D02*
X6348333Y-14102571D01*
X6348333Y-14102571D02*
X6357857Y-14121619D01*
X6357857Y-14121619D02*
X6367381Y-14159714D01*
X6367381Y-14159714D02*
X6367381Y-14207333D01*
X6367381Y-14207333D02*
X6357857Y-14245428D01*
X6357857Y-14245428D02*
X6348333Y-14264476D01*
X6348333Y-14264476D02*
X6338809Y-14274000D01*
X6338809Y-14274000D02*
X6319762Y-14283524D01*
X6319762Y-14283524D02*
X6300714Y-14283524D01*
X6300714Y-14283524D02*
X6281667Y-14274000D01*
X6281667Y-14274000D02*
X6272143Y-14264476D01*
X6272143Y-14264476D02*
X6262619Y-14245428D01*
X6262619Y-14245428D02*
X6253095Y-14207333D01*
X6253095Y-14207333D02*
X6253095Y-14159714D01*
X6253095Y-14159714D02*
X6262619Y-14121619D01*
X6262619Y-14121619D02*
X6272143Y-14102571D01*
X6272143Y-14102571D02*
X6281667Y-14093048D01*
X6281667Y-14093048D02*
X6300714Y-14083524D01*
X6453095Y-14264476D02*
X6462619Y-14274000D01*
X6462619Y-14274000D02*
X6453095Y-14283524D01*
X6453095Y-14283524D02*
X6443571Y-14274000D01*
X6443571Y-14274000D02*
X6453095Y-14264476D01*
X6453095Y-14264476D02*
X6453095Y-14283524D01*
X6557857Y-14283524D02*
X6595952Y-14283524D01*
X6595952Y-14283524D02*
X6615000Y-14274000D01*
X6615000Y-14274000D02*
X6624524Y-14264476D01*
X6624524Y-14264476D02*
X6643571Y-14235905D01*
X6643571Y-14235905D02*
X6653095Y-14197809D01*
X6653095Y-14197809D02*
X6653095Y-14121619D01*
X6653095Y-14121619D02*
X6643571Y-14102571D01*
X6643571Y-14102571D02*
X6634048Y-14093048D01*
X6634048Y-14093048D02*
X6615000Y-14083524D01*
X6615000Y-14083524D02*
X6576905Y-14083524D01*
X6576905Y-14083524D02*
X6557857Y-14093048D01*
X6557857Y-14093048D02*
X6548333Y-14102571D01*
X6548333Y-14102571D02*
X6538809Y-14121619D01*
X6538809Y-14121619D02*
X6538809Y-14169238D01*
X6538809Y-14169238D02*
X6548333Y-14188286D01*
X6548333Y-14188286D02*
X6557857Y-14197809D01*
X6557857Y-14197809D02*
X6576905Y-14207333D01*
X6576905Y-14207333D02*
X6615000Y-14207333D01*
X6615000Y-14207333D02*
X6634048Y-14197809D01*
X6634048Y-14197809D02*
X6643571Y-14188286D01*
X6643571Y-14188286D02*
X6653095Y-14169238D01*
X6834048Y-14083524D02*
X6738809Y-14083524D01*
X6738809Y-14083524D02*
X6729286Y-14178762D01*
X6729286Y-14178762D02*
X6738809Y-14169238D01*
X6738809Y-14169238D02*
X6757857Y-14159714D01*
X6757857Y-14159714D02*
X6805476Y-14159714D01*
X6805476Y-14159714D02*
X6824524Y-14169238D01*
X6824524Y-14169238D02*
X6834048Y-14178762D01*
X6834048Y-14178762D02*
X6843571Y-14197809D01*
X6843571Y-14197809D02*
X6843571Y-14245428D01*
X6843571Y-14245428D02*
X6834048Y-14264476D01*
X6834048Y-14264476D02*
X6824524Y-14274000D01*
X6824524Y-14274000D02*
X6805476Y-14283524D01*
X6805476Y-14283524D02*
X6757857Y-14283524D01*
X6757857Y-14283524D02*
X6738809Y-14274000D01*
X6738809Y-14274000D02*
X6729286Y-14264476D01*
X6967381Y-14083524D02*
X6986429Y-14083524D01*
X6986429Y-14083524D02*
X7005476Y-14093048D01*
X7005476Y-14093048D02*
X7015000Y-14102571D01*
X7015000Y-14102571D02*
X7024524Y-14121619D01*
X7024524Y-14121619D02*
X7034048Y-14159714D01*
X7034048Y-14159714D02*
X7034048Y-14207333D01*
X7034048Y-14207333D02*
X7024524Y-14245428D01*
X7024524Y-14245428D02*
X7015000Y-14264476D01*
X7015000Y-14264476D02*
X7005476Y-14274000D01*
X7005476Y-14274000D02*
X6986429Y-14283524D01*
X6986429Y-14283524D02*
X6967381Y-14283524D01*
X6967381Y-14283524D02*
X6948333Y-14274000D01*
X6948333Y-14274000D02*
X6938809Y-14264476D01*
X6938809Y-14264476D02*
X6929286Y-14245428D01*
X6929286Y-14245428D02*
X6919762Y-14207333D01*
X6919762Y-14207333D02*
X6919762Y-14159714D01*
X6919762Y-14159714D02*
X6929286Y-14121619D01*
X6929286Y-14121619D02*
X6938809Y-14102571D01*
X6938809Y-14102571D02*
X6948333Y-14093048D01*
X6948333Y-14093048D02*
X6967381Y-14083524D01*
X7119762Y-14283524D02*
X7119762Y-14150190D01*
X7119762Y-14169238D02*
X7129286Y-14159714D01*
X7129286Y-14159714D02*
X7148333Y-14150190D01*
X7148333Y-14150190D02*
X7176905Y-14150190D01*
X7176905Y-14150190D02*
X7195952Y-14159714D01*
X7195952Y-14159714D02*
X7205476Y-14178762D01*
X7205476Y-14178762D02*
X7205476Y-14283524D01*
X7205476Y-14178762D02*
X7215000Y-14159714D01*
X7215000Y-14159714D02*
X7234048Y-14150190D01*
X7234048Y-14150190D02*
X7262619Y-14150190D01*
X7262619Y-14150190D02*
X7281667Y-14159714D01*
X7281667Y-14159714D02*
X7291190Y-14178762D01*
X7291190Y-14178762D02*
X7291190Y-14283524D01*
X7386429Y-14283524D02*
X7386429Y-14150190D01*
X7386429Y-14169238D02*
X7395952Y-14159714D01*
X7395952Y-14159714D02*
X7415000Y-14150190D01*
X7415000Y-14150190D02*
X7443571Y-14150190D01*
X7443571Y-14150190D02*
X7462619Y-14159714D01*
X7462619Y-14159714D02*
X7472143Y-14178762D01*
X7472143Y-14178762D02*
X7472143Y-14283524D01*
X7472143Y-14178762D02*
X7481667Y-14159714D01*
X7481667Y-14159714D02*
X7500714Y-14150190D01*
X7500714Y-14150190D02*
X7529286Y-14150190D01*
X7529286Y-14150190D02*
X7548333Y-14159714D01*
X7548333Y-14159714D02*
X7557857Y-14178762D01*
X7557857Y-14178762D02*
X7557857Y-14283524D01*
X7948333Y-14074000D02*
X7776905Y-14331143D01*
X8205476Y-14083524D02*
X8224524Y-14083524D01*
X8224524Y-14083524D02*
X8243572Y-14093048D01*
X8243572Y-14093048D02*
X8253095Y-14102571D01*
X8253095Y-14102571D02*
X8262619Y-14121619D01*
X8262619Y-14121619D02*
X8272143Y-14159714D01*
X8272143Y-14159714D02*
X8272143Y-14207333D01*
X8272143Y-14207333D02*
X8262619Y-14245428D01*
X8262619Y-14245428D02*
X8253095Y-14264476D01*
X8253095Y-14264476D02*
X8243572Y-14274000D01*
X8243572Y-14274000D02*
X8224524Y-14283524D01*
X8224524Y-14283524D02*
X8205476Y-14283524D01*
X8205476Y-14283524D02*
X8186429Y-14274000D01*
X8186429Y-14274000D02*
X8176905Y-14264476D01*
X8176905Y-14264476D02*
X8167381Y-14245428D01*
X8167381Y-14245428D02*
X8157857Y-14207333D01*
X8157857Y-14207333D02*
X8157857Y-14159714D01*
X8157857Y-14159714D02*
X8167381Y-14121619D01*
X8167381Y-14121619D02*
X8176905Y-14102571D01*
X8176905Y-14102571D02*
X8186429Y-14093048D01*
X8186429Y-14093048D02*
X8205476Y-14083524D01*
X8357857Y-14264476D02*
X8367381Y-14274000D01*
X8367381Y-14274000D02*
X8357857Y-14283524D01*
X8357857Y-14283524D02*
X8348333Y-14274000D01*
X8348333Y-14274000D02*
X8357857Y-14264476D01*
X8357857Y-14264476D02*
X8357857Y-14283524D01*
X8491191Y-14083524D02*
X8510238Y-14083524D01*
X8510238Y-14083524D02*
X8529286Y-14093048D01*
X8529286Y-14093048D02*
X8538810Y-14102571D01*
X8538810Y-14102571D02*
X8548334Y-14121619D01*
X8548334Y-14121619D02*
X8557857Y-14159714D01*
X8557857Y-14159714D02*
X8557857Y-14207333D01*
X8557857Y-14207333D02*
X8548334Y-14245428D01*
X8548334Y-14245428D02*
X8538810Y-14264476D01*
X8538810Y-14264476D02*
X8529286Y-14274000D01*
X8529286Y-14274000D02*
X8510238Y-14283524D01*
X8510238Y-14283524D02*
X8491191Y-14283524D01*
X8491191Y-14283524D02*
X8472143Y-14274000D01*
X8472143Y-14274000D02*
X8462619Y-14264476D01*
X8462619Y-14264476D02*
X8453095Y-14245428D01*
X8453095Y-14245428D02*
X8443572Y-14207333D01*
X8443572Y-14207333D02*
X8443572Y-14159714D01*
X8443572Y-14159714D02*
X8453095Y-14121619D01*
X8453095Y-14121619D02*
X8462619Y-14102571D01*
X8462619Y-14102571D02*
X8472143Y-14093048D01*
X8472143Y-14093048D02*
X8491191Y-14083524D01*
X8624524Y-14083524D02*
X8748334Y-14083524D01*
X8748334Y-14083524D02*
X8681667Y-14159714D01*
X8681667Y-14159714D02*
X8710238Y-14159714D01*
X8710238Y-14159714D02*
X8729286Y-14169238D01*
X8729286Y-14169238D02*
X8738810Y-14178762D01*
X8738810Y-14178762D02*
X8748334Y-14197809D01*
X8748334Y-14197809D02*
X8748334Y-14245428D01*
X8748334Y-14245428D02*
X8738810Y-14264476D01*
X8738810Y-14264476D02*
X8729286Y-14274000D01*
X8729286Y-14274000D02*
X8710238Y-14283524D01*
X8710238Y-14283524D02*
X8653095Y-14283524D01*
X8653095Y-14283524D02*
X8634048Y-14274000D01*
X8634048Y-14274000D02*
X8624524Y-14264476D01*
X8815000Y-14083524D02*
X8948334Y-14083524D01*
X8948334Y-14083524D02*
X8862619Y-14283524D01*
X9110238Y-14150190D02*
X9110238Y-14283524D01*
X9062619Y-14074000D02*
X9015000Y-14216857D01*
X9015000Y-14216857D02*
X9138810Y-14216857D01*
X9205476Y-14083524D02*
X9205476Y-14121619D01*
X9281667Y-14083524D02*
X9281667Y-14121619D01*
X9576905Y-14359714D02*
X9567381Y-14350190D01*
X9567381Y-14350190D02*
X9548334Y-14321619D01*
X9548334Y-14321619D02*
X9538810Y-14302571D01*
X9538810Y-14302571D02*
X9529286Y-14274000D01*
X9529286Y-14274000D02*
X9519762Y-14226381D01*
X9519762Y-14226381D02*
X9519762Y-14188286D01*
X9519762Y-14188286D02*
X9529286Y-14140667D01*
X9529286Y-14140667D02*
X9538810Y-14112095D01*
X9538810Y-14112095D02*
X9548334Y-14093048D01*
X9548334Y-14093048D02*
X9567381Y-14064476D01*
X9567381Y-14064476D02*
X9576905Y-14054952D01*
X9643572Y-14102571D02*
X9653096Y-14093048D01*
X9653096Y-14093048D02*
X9672143Y-14083524D01*
X9672143Y-14083524D02*
X9719762Y-14083524D01*
X9719762Y-14083524D02*
X9738810Y-14093048D01*
X9738810Y-14093048D02*
X9748334Y-14102571D01*
X9748334Y-14102571D02*
X9757857Y-14121619D01*
X9757857Y-14121619D02*
X9757857Y-14140667D01*
X9757857Y-14140667D02*
X9748334Y-14169238D01*
X9748334Y-14169238D02*
X9634048Y-14283524D01*
X9634048Y-14283524D02*
X9757857Y-14283524D01*
X9995953Y-14283524D02*
X9995953Y-14083524D01*
X10081667Y-14283524D02*
X10081667Y-14178762D01*
X10081667Y-14178762D02*
X10072143Y-14159714D01*
X10072143Y-14159714D02*
X10053096Y-14150190D01*
X10053096Y-14150190D02*
X10024524Y-14150190D01*
X10024524Y-14150190D02*
X10005477Y-14159714D01*
X10005477Y-14159714D02*
X9995953Y-14169238D01*
X10205477Y-14283524D02*
X10186429Y-14274000D01*
X10186429Y-14274000D02*
X10176905Y-14264476D01*
X10176905Y-14264476D02*
X10167381Y-14245428D01*
X10167381Y-14245428D02*
X10167381Y-14188286D01*
X10167381Y-14188286D02*
X10176905Y-14169238D01*
X10176905Y-14169238D02*
X10186429Y-14159714D01*
X10186429Y-14159714D02*
X10205477Y-14150190D01*
X10205477Y-14150190D02*
X10234048Y-14150190D01*
X10234048Y-14150190D02*
X10253096Y-14159714D01*
X10253096Y-14159714D02*
X10262619Y-14169238D01*
X10262619Y-14169238D02*
X10272143Y-14188286D01*
X10272143Y-14188286D02*
X10272143Y-14245428D01*
X10272143Y-14245428D02*
X10262619Y-14264476D01*
X10262619Y-14264476D02*
X10253096Y-14274000D01*
X10253096Y-14274000D02*
X10234048Y-14283524D01*
X10234048Y-14283524D02*
X10205477Y-14283524D01*
X10386429Y-14283524D02*
X10367381Y-14274000D01*
X10367381Y-14274000D02*
X10357858Y-14254952D01*
X10357858Y-14254952D02*
X10357858Y-14083524D01*
X10538810Y-14274000D02*
X10519762Y-14283524D01*
X10519762Y-14283524D02*
X10481667Y-14283524D01*
X10481667Y-14283524D02*
X10462619Y-14274000D01*
X10462619Y-14274000D02*
X10453096Y-14254952D01*
X10453096Y-14254952D02*
X10453096Y-14178762D01*
X10453096Y-14178762D02*
X10462619Y-14159714D01*
X10462619Y-14159714D02*
X10481667Y-14150190D01*
X10481667Y-14150190D02*
X10519762Y-14150190D01*
X10519762Y-14150190D02*
X10538810Y-14159714D01*
X10538810Y-14159714D02*
X10548334Y-14178762D01*
X10548334Y-14178762D02*
X10548334Y-14197809D01*
X10548334Y-14197809D02*
X10453096Y-14216857D01*
X10624524Y-14274000D02*
X10643572Y-14283524D01*
X10643572Y-14283524D02*
X10681667Y-14283524D01*
X10681667Y-14283524D02*
X10700715Y-14274000D01*
X10700715Y-14274000D02*
X10710239Y-14254952D01*
X10710239Y-14254952D02*
X10710239Y-14245428D01*
X10710239Y-14245428D02*
X10700715Y-14226381D01*
X10700715Y-14226381D02*
X10681667Y-14216857D01*
X10681667Y-14216857D02*
X10653096Y-14216857D01*
X10653096Y-14216857D02*
X10634048Y-14207333D01*
X10634048Y-14207333D02*
X10624524Y-14188286D01*
X10624524Y-14188286D02*
X10624524Y-14178762D01*
X10624524Y-14178762D02*
X10634048Y-14159714D01*
X10634048Y-14159714D02*
X10653096Y-14150190D01*
X10653096Y-14150190D02*
X10681667Y-14150190D01*
X10681667Y-14150190D02*
X10700715Y-14159714D01*
X10776905Y-14359714D02*
X10786429Y-14350190D01*
X10786429Y-14350190D02*
X10805477Y-14321619D01*
X10805477Y-14321619D02*
X10815000Y-14302571D01*
X10815000Y-14302571D02*
X10824524Y-14274000D01*
X10824524Y-14274000D02*
X10834048Y-14226381D01*
X10834048Y-14226381D02*
X10834048Y-14188286D01*
X10834048Y-14188286D02*
X10824524Y-14140667D01*
X10824524Y-14140667D02*
X10815000Y-14112095D01*
X10815000Y-14112095D02*
X10805477Y-14093048D01*
X10805477Y-14093048D02*
X10786429Y-14064476D01*
X10786429Y-14064476D02*
X10776905Y-14054952D01*
X11138810Y-14359714D02*
X11129286Y-14350190D01*
X11129286Y-14350190D02*
X11110239Y-14321619D01*
X11110239Y-14321619D02*
X11100715Y-14302571D01*
X11100715Y-14302571D02*
X11091191Y-14274000D01*
X11091191Y-14274000D02*
X11081667Y-14226381D01*
X11081667Y-14226381D02*
X11081667Y-14188286D01*
X11081667Y-14188286D02*
X11091191Y-14140667D01*
X11091191Y-14140667D02*
X11100715Y-14112095D01*
X11100715Y-14112095D02*
X11110239Y-14093048D01*
X11110239Y-14093048D02*
X11129286Y-14064476D01*
X11129286Y-14064476D02*
X11138810Y-14054952D01*
X11215000Y-14150190D02*
X11215000Y-14283524D01*
X11215000Y-14169238D02*
X11224524Y-14159714D01*
X11224524Y-14159714D02*
X11243572Y-14150190D01*
X11243572Y-14150190D02*
X11272143Y-14150190D01*
X11272143Y-14150190D02*
X11291191Y-14159714D01*
X11291191Y-14159714D02*
X11300715Y-14178762D01*
X11300715Y-14178762D02*
X11300715Y-14283524D01*
X11424524Y-14283524D02*
X11405477Y-14274000D01*
X11405477Y-14274000D02*
X11395953Y-14264476D01*
X11395953Y-14264476D02*
X11386429Y-14245428D01*
X11386429Y-14245428D02*
X11386429Y-14188286D01*
X11386429Y-14188286D02*
X11395953Y-14169238D01*
X11395953Y-14169238D02*
X11405477Y-14159714D01*
X11405477Y-14159714D02*
X11424524Y-14150190D01*
X11424524Y-14150190D02*
X11453096Y-14150190D01*
X11453096Y-14150190D02*
X11472143Y-14159714D01*
X11472143Y-14159714D02*
X11481667Y-14169238D01*
X11481667Y-14169238D02*
X11491191Y-14188286D01*
X11491191Y-14188286D02*
X11491191Y-14245428D01*
X11491191Y-14245428D02*
X11481667Y-14264476D01*
X11481667Y-14264476D02*
X11472143Y-14274000D01*
X11472143Y-14274000D02*
X11453096Y-14283524D01*
X11453096Y-14283524D02*
X11424524Y-14283524D01*
X11548334Y-14150190D02*
X11624524Y-14150190D01*
X11576905Y-14083524D02*
X11576905Y-14254952D01*
X11576905Y-14254952D02*
X11586429Y-14274000D01*
X11586429Y-14274000D02*
X11605477Y-14283524D01*
X11605477Y-14283524D02*
X11624524Y-14283524D01*
X11843572Y-14150190D02*
X11843572Y-14350190D01*
X11843572Y-14159714D02*
X11862619Y-14150190D01*
X11862619Y-14150190D02*
X11900715Y-14150190D01*
X11900715Y-14150190D02*
X11919762Y-14159714D01*
X11919762Y-14159714D02*
X11929286Y-14169238D01*
X11929286Y-14169238D02*
X11938810Y-14188286D01*
X11938810Y-14188286D02*
X11938810Y-14245428D01*
X11938810Y-14245428D02*
X11929286Y-14264476D01*
X11929286Y-14264476D02*
X11919762Y-14274000D01*
X11919762Y-14274000D02*
X11900715Y-14283524D01*
X11900715Y-14283524D02*
X11862619Y-14283524D01*
X11862619Y-14283524D02*
X11843572Y-14274000D01*
X12053096Y-14283524D02*
X12034048Y-14274000D01*
X12034048Y-14274000D02*
X12024524Y-14254952D01*
X12024524Y-14254952D02*
X12024524Y-14083524D01*
X12215000Y-14283524D02*
X12215000Y-14178762D01*
X12215000Y-14178762D02*
X12205477Y-14159714D01*
X12205477Y-14159714D02*
X12186429Y-14150190D01*
X12186429Y-14150190D02*
X12148334Y-14150190D01*
X12148334Y-14150190D02*
X12129286Y-14159714D01*
X12215000Y-14274000D02*
X12195953Y-14283524D01*
X12195953Y-14283524D02*
X12148334Y-14283524D01*
X12148334Y-14283524D02*
X12129286Y-14274000D01*
X12129286Y-14274000D02*
X12119762Y-14254952D01*
X12119762Y-14254952D02*
X12119762Y-14235905D01*
X12119762Y-14235905D02*
X12129286Y-14216857D01*
X12129286Y-14216857D02*
X12148334Y-14207333D01*
X12148334Y-14207333D02*
X12195953Y-14207333D01*
X12195953Y-14207333D02*
X12215000Y-14197809D01*
X12281667Y-14150190D02*
X12357858Y-14150190D01*
X12310239Y-14083524D02*
X12310239Y-14254952D01*
X12310239Y-14254952D02*
X12319762Y-14274000D01*
X12319762Y-14274000D02*
X12338810Y-14283524D01*
X12338810Y-14283524D02*
X12357858Y-14283524D01*
X12500715Y-14274000D02*
X12481667Y-14283524D01*
X12481667Y-14283524D02*
X12443572Y-14283524D01*
X12443572Y-14283524D02*
X12424524Y-14274000D01*
X12424524Y-14274000D02*
X12415000Y-14254952D01*
X12415000Y-14254952D02*
X12415000Y-14178762D01*
X12415000Y-14178762D02*
X12424524Y-14159714D01*
X12424524Y-14159714D02*
X12443572Y-14150190D01*
X12443572Y-14150190D02*
X12481667Y-14150190D01*
X12481667Y-14150190D02*
X12500715Y-14159714D01*
X12500715Y-14159714D02*
X12510239Y-14178762D01*
X12510239Y-14178762D02*
X12510239Y-14197809D01*
X12510239Y-14197809D02*
X12415000Y-14216857D01*
X12681667Y-14283524D02*
X12681667Y-14083524D01*
X12681667Y-14274000D02*
X12662620Y-14283524D01*
X12662620Y-14283524D02*
X12624524Y-14283524D01*
X12624524Y-14283524D02*
X12605477Y-14274000D01*
X12605477Y-14274000D02*
X12595953Y-14264476D01*
X12595953Y-14264476D02*
X12586429Y-14245428D01*
X12586429Y-14245428D02*
X12586429Y-14188286D01*
X12586429Y-14188286D02*
X12595953Y-14169238D01*
X12595953Y-14169238D02*
X12605477Y-14159714D01*
X12605477Y-14159714D02*
X12624524Y-14150190D01*
X12624524Y-14150190D02*
X12662620Y-14150190D01*
X12662620Y-14150190D02*
X12681667Y-14159714D01*
X12757858Y-14359714D02*
X12767381Y-14350190D01*
X12767381Y-14350190D02*
X12786429Y-14321619D01*
X12786429Y-14321619D02*
X12795953Y-14302571D01*
X12795953Y-14302571D02*
X12805477Y-14274000D01*
X12805477Y-14274000D02*
X12815000Y-14226381D01*
X12815000Y-14226381D02*
X12815000Y-14188286D01*
X12815000Y-14188286D02*
X12805477Y-14140667D01*
X12805477Y-14140667D02*
X12795953Y-14112095D01*
X12795953Y-14112095D02*
X12786429Y-14093048D01*
X12786429Y-14093048D02*
X12767381Y-14064476D01*
X12767381Y-14064476D02*
X12757858Y-14054952D01*
D10*
X5965000Y-14405000D02*
X5965000Y-14505000D01*
X5915000Y-14455000D02*
X6015000Y-14455000D01*
D11*
X6367381Y-14547524D02*
X6253095Y-14547524D01*
X6310238Y-14547524D02*
X6310238Y-14347524D01*
X6310238Y-14347524D02*
X6291190Y-14376095D01*
X6291190Y-14376095D02*
X6272143Y-14395143D01*
X6272143Y-14395143D02*
X6253095Y-14404667D01*
X6453095Y-14528476D02*
X6462619Y-14538000D01*
X6462619Y-14538000D02*
X6453095Y-14547524D01*
X6453095Y-14547524D02*
X6443571Y-14538000D01*
X6443571Y-14538000D02*
X6453095Y-14528476D01*
X6453095Y-14528476D02*
X6453095Y-14547524D01*
X6586428Y-14347524D02*
X6605476Y-14347524D01*
X6605476Y-14347524D02*
X6624524Y-14357048D01*
X6624524Y-14357048D02*
X6634048Y-14366571D01*
X6634048Y-14366571D02*
X6643571Y-14385619D01*
X6643571Y-14385619D02*
X6653095Y-14423714D01*
X6653095Y-14423714D02*
X6653095Y-14471333D01*
X6653095Y-14471333D02*
X6643571Y-14509428D01*
X6643571Y-14509428D02*
X6634048Y-14528476D01*
X6634048Y-14528476D02*
X6624524Y-14538000D01*
X6624524Y-14538000D02*
X6605476Y-14547524D01*
X6605476Y-14547524D02*
X6586428Y-14547524D01*
X6586428Y-14547524D02*
X6567381Y-14538000D01*
X6567381Y-14538000D02*
X6557857Y-14528476D01*
X6557857Y-14528476D02*
X6548333Y-14509428D01*
X6548333Y-14509428D02*
X6538809Y-14471333D01*
X6538809Y-14471333D02*
X6538809Y-14423714D01*
X6538809Y-14423714D02*
X6548333Y-14385619D01*
X6548333Y-14385619D02*
X6557857Y-14366571D01*
X6557857Y-14366571D02*
X6567381Y-14357048D01*
X6567381Y-14357048D02*
X6586428Y-14347524D01*
X6776905Y-14347524D02*
X6795952Y-14347524D01*
X6795952Y-14347524D02*
X6815000Y-14357048D01*
X6815000Y-14357048D02*
X6824524Y-14366571D01*
X6824524Y-14366571D02*
X6834048Y-14385619D01*
X6834048Y-14385619D02*
X6843571Y-14423714D01*
X6843571Y-14423714D02*
X6843571Y-14471333D01*
X6843571Y-14471333D02*
X6834048Y-14509428D01*
X6834048Y-14509428D02*
X6824524Y-14528476D01*
X6824524Y-14528476D02*
X6815000Y-14538000D01*
X6815000Y-14538000D02*
X6795952Y-14547524D01*
X6795952Y-14547524D02*
X6776905Y-14547524D01*
X6776905Y-14547524D02*
X6757857Y-14538000D01*
X6757857Y-14538000D02*
X6748333Y-14528476D01*
X6748333Y-14528476D02*
X6738809Y-14509428D01*
X6738809Y-14509428D02*
X6729286Y-14471333D01*
X6729286Y-14471333D02*
X6729286Y-14423714D01*
X6729286Y-14423714D02*
X6738809Y-14385619D01*
X6738809Y-14385619D02*
X6748333Y-14366571D01*
X6748333Y-14366571D02*
X6757857Y-14357048D01*
X6757857Y-14357048D02*
X6776905Y-14347524D01*
X6967381Y-14347524D02*
X6986429Y-14347524D01*
X6986429Y-14347524D02*
X7005476Y-14357048D01*
X7005476Y-14357048D02*
X7015000Y-14366571D01*
X7015000Y-14366571D02*
X7024524Y-14385619D01*
X7024524Y-14385619D02*
X7034048Y-14423714D01*
X7034048Y-14423714D02*
X7034048Y-14471333D01*
X7034048Y-14471333D02*
X7024524Y-14509428D01*
X7024524Y-14509428D02*
X7015000Y-14528476D01*
X7015000Y-14528476D02*
X7005476Y-14538000D01*
X7005476Y-14538000D02*
X6986429Y-14547524D01*
X6986429Y-14547524D02*
X6967381Y-14547524D01*
X6967381Y-14547524D02*
X6948333Y-14538000D01*
X6948333Y-14538000D02*
X6938809Y-14528476D01*
X6938809Y-14528476D02*
X6929286Y-14509428D01*
X6929286Y-14509428D02*
X6919762Y-14471333D01*
X6919762Y-14471333D02*
X6919762Y-14423714D01*
X6919762Y-14423714D02*
X6929286Y-14385619D01*
X6929286Y-14385619D02*
X6938809Y-14366571D01*
X6938809Y-14366571D02*
X6948333Y-14357048D01*
X6948333Y-14357048D02*
X6967381Y-14347524D01*
X7119762Y-14547524D02*
X7119762Y-14414190D01*
X7119762Y-14433238D02*
X7129286Y-14423714D01*
X7129286Y-14423714D02*
X7148333Y-14414190D01*
X7148333Y-14414190D02*
X7176905Y-14414190D01*
X7176905Y-14414190D02*
X7195952Y-14423714D01*
X7195952Y-14423714D02*
X7205476Y-14442762D01*
X7205476Y-14442762D02*
X7205476Y-14547524D01*
X7205476Y-14442762D02*
X7215000Y-14423714D01*
X7215000Y-14423714D02*
X7234048Y-14414190D01*
X7234048Y-14414190D02*
X7262619Y-14414190D01*
X7262619Y-14414190D02*
X7281667Y-14423714D01*
X7281667Y-14423714D02*
X7291190Y-14442762D01*
X7291190Y-14442762D02*
X7291190Y-14547524D01*
X7386429Y-14547524D02*
X7386429Y-14414190D01*
X7386429Y-14433238D02*
X7395952Y-14423714D01*
X7395952Y-14423714D02*
X7415000Y-14414190D01*
X7415000Y-14414190D02*
X7443571Y-14414190D01*
X7443571Y-14414190D02*
X7462619Y-14423714D01*
X7462619Y-14423714D02*
X7472143Y-14442762D01*
X7472143Y-14442762D02*
X7472143Y-14547524D01*
X7472143Y-14442762D02*
X7481667Y-14423714D01*
X7481667Y-14423714D02*
X7500714Y-14414190D01*
X7500714Y-14414190D02*
X7529286Y-14414190D01*
X7529286Y-14414190D02*
X7548333Y-14423714D01*
X7548333Y-14423714D02*
X7557857Y-14442762D01*
X7557857Y-14442762D02*
X7557857Y-14547524D01*
X7948333Y-14338000D02*
X7776905Y-14595143D01*
X8205476Y-14347524D02*
X8224524Y-14347524D01*
X8224524Y-14347524D02*
X8243572Y-14357048D01*
X8243572Y-14357048D02*
X8253095Y-14366571D01*
X8253095Y-14366571D02*
X8262619Y-14385619D01*
X8262619Y-14385619D02*
X8272143Y-14423714D01*
X8272143Y-14423714D02*
X8272143Y-14471333D01*
X8272143Y-14471333D02*
X8262619Y-14509428D01*
X8262619Y-14509428D02*
X8253095Y-14528476D01*
X8253095Y-14528476D02*
X8243572Y-14538000D01*
X8243572Y-14538000D02*
X8224524Y-14547524D01*
X8224524Y-14547524D02*
X8205476Y-14547524D01*
X8205476Y-14547524D02*
X8186429Y-14538000D01*
X8186429Y-14538000D02*
X8176905Y-14528476D01*
X8176905Y-14528476D02*
X8167381Y-14509428D01*
X8167381Y-14509428D02*
X8157857Y-14471333D01*
X8157857Y-14471333D02*
X8157857Y-14423714D01*
X8157857Y-14423714D02*
X8167381Y-14385619D01*
X8167381Y-14385619D02*
X8176905Y-14366571D01*
X8176905Y-14366571D02*
X8186429Y-14357048D01*
X8186429Y-14357048D02*
X8205476Y-14347524D01*
X8357857Y-14528476D02*
X8367381Y-14538000D01*
X8367381Y-14538000D02*
X8357857Y-14547524D01*
X8357857Y-14547524D02*
X8348333Y-14538000D01*
X8348333Y-14538000D02*
X8357857Y-14528476D01*
X8357857Y-14528476D02*
X8357857Y-14547524D01*
X8491191Y-14347524D02*
X8510238Y-14347524D01*
X8510238Y-14347524D02*
X8529286Y-14357048D01*
X8529286Y-14357048D02*
X8538810Y-14366571D01*
X8538810Y-14366571D02*
X8548334Y-14385619D01*
X8548334Y-14385619D02*
X8557857Y-14423714D01*
X8557857Y-14423714D02*
X8557857Y-14471333D01*
X8557857Y-14471333D02*
X8548334Y-14509428D01*
X8548334Y-14509428D02*
X8538810Y-14528476D01*
X8538810Y-14528476D02*
X8529286Y-14538000D01*
X8529286Y-14538000D02*
X8510238Y-14547524D01*
X8510238Y-14547524D02*
X8491191Y-14547524D01*
X8491191Y-14547524D02*
X8472143Y-14538000D01*
X8472143Y-14538000D02*
X8462619Y-14528476D01*
X8462619Y-14528476D02*
X8453095Y-14509428D01*
X8453095Y-14509428D02*
X8443572Y-14471333D01*
X8443572Y-14471333D02*
X8443572Y-14423714D01*
X8443572Y-14423714D02*
X8453095Y-14385619D01*
X8453095Y-14385619D02*
X8462619Y-14366571D01*
X8462619Y-14366571D02*
X8472143Y-14357048D01*
X8472143Y-14357048D02*
X8491191Y-14347524D01*
X8624524Y-14347524D02*
X8748334Y-14347524D01*
X8748334Y-14347524D02*
X8681667Y-14423714D01*
X8681667Y-14423714D02*
X8710238Y-14423714D01*
X8710238Y-14423714D02*
X8729286Y-14433238D01*
X8729286Y-14433238D02*
X8738810Y-14442762D01*
X8738810Y-14442762D02*
X8748334Y-14461809D01*
X8748334Y-14461809D02*
X8748334Y-14509428D01*
X8748334Y-14509428D02*
X8738810Y-14528476D01*
X8738810Y-14528476D02*
X8729286Y-14538000D01*
X8729286Y-14538000D02*
X8710238Y-14547524D01*
X8710238Y-14547524D02*
X8653095Y-14547524D01*
X8653095Y-14547524D02*
X8634048Y-14538000D01*
X8634048Y-14538000D02*
X8624524Y-14528476D01*
X8843572Y-14547524D02*
X8881667Y-14547524D01*
X8881667Y-14547524D02*
X8900715Y-14538000D01*
X8900715Y-14538000D02*
X8910238Y-14528476D01*
X8910238Y-14528476D02*
X8929286Y-14499905D01*
X8929286Y-14499905D02*
X8938810Y-14461809D01*
X8938810Y-14461809D02*
X8938810Y-14385619D01*
X8938810Y-14385619D02*
X8929286Y-14366571D01*
X8929286Y-14366571D02*
X8919762Y-14357048D01*
X8919762Y-14357048D02*
X8900715Y-14347524D01*
X8900715Y-14347524D02*
X8862619Y-14347524D01*
X8862619Y-14347524D02*
X8843572Y-14357048D01*
X8843572Y-14357048D02*
X8834048Y-14366571D01*
X8834048Y-14366571D02*
X8824524Y-14385619D01*
X8824524Y-14385619D02*
X8824524Y-14433238D01*
X8824524Y-14433238D02*
X8834048Y-14452286D01*
X8834048Y-14452286D02*
X8843572Y-14461809D01*
X8843572Y-14461809D02*
X8862619Y-14471333D01*
X8862619Y-14471333D02*
X8900715Y-14471333D01*
X8900715Y-14471333D02*
X8919762Y-14461809D01*
X8919762Y-14461809D02*
X8929286Y-14452286D01*
X8929286Y-14452286D02*
X8938810Y-14433238D01*
X9110238Y-14414190D02*
X9110238Y-14547524D01*
X9062619Y-14338000D02*
X9015000Y-14480857D01*
X9015000Y-14480857D02*
X9138810Y-14480857D01*
X9205476Y-14347524D02*
X9205476Y-14385619D01*
X9281667Y-14347524D02*
X9281667Y-14385619D01*
X9576905Y-14623714D02*
X9567381Y-14614190D01*
X9567381Y-14614190D02*
X9548334Y-14585619D01*
X9548334Y-14585619D02*
X9538810Y-14566571D01*
X9538810Y-14566571D02*
X9529286Y-14538000D01*
X9529286Y-14538000D02*
X9519762Y-14490381D01*
X9519762Y-14490381D02*
X9519762Y-14452286D01*
X9519762Y-14452286D02*
X9529286Y-14404667D01*
X9529286Y-14404667D02*
X9538810Y-14376095D01*
X9538810Y-14376095D02*
X9548334Y-14357048D01*
X9548334Y-14357048D02*
X9567381Y-14328476D01*
X9567381Y-14328476D02*
X9576905Y-14318952D01*
X9757857Y-14547524D02*
X9643572Y-14547524D01*
X9700715Y-14547524D02*
X9700715Y-14347524D01*
X9700715Y-14347524D02*
X9681667Y-14376095D01*
X9681667Y-14376095D02*
X9662619Y-14395143D01*
X9662619Y-14395143D02*
X9643572Y-14404667D01*
X9995953Y-14547524D02*
X9995953Y-14347524D01*
X10081667Y-14547524D02*
X10081667Y-14442762D01*
X10081667Y-14442762D02*
X10072143Y-14423714D01*
X10072143Y-14423714D02*
X10053096Y-14414190D01*
X10053096Y-14414190D02*
X10024524Y-14414190D01*
X10024524Y-14414190D02*
X10005477Y-14423714D01*
X10005477Y-14423714D02*
X9995953Y-14433238D01*
X10205477Y-14547524D02*
X10186429Y-14538000D01*
X10186429Y-14538000D02*
X10176905Y-14528476D01*
X10176905Y-14528476D02*
X10167381Y-14509428D01*
X10167381Y-14509428D02*
X10167381Y-14452286D01*
X10167381Y-14452286D02*
X10176905Y-14433238D01*
X10176905Y-14433238D02*
X10186429Y-14423714D01*
X10186429Y-14423714D02*
X10205477Y-14414190D01*
X10205477Y-14414190D02*
X10234048Y-14414190D01*
X10234048Y-14414190D02*
X10253096Y-14423714D01*
X10253096Y-14423714D02*
X10262619Y-14433238D01*
X10262619Y-14433238D02*
X10272143Y-14452286D01*
X10272143Y-14452286D02*
X10272143Y-14509428D01*
X10272143Y-14509428D02*
X10262619Y-14528476D01*
X10262619Y-14528476D02*
X10253096Y-14538000D01*
X10253096Y-14538000D02*
X10234048Y-14547524D01*
X10234048Y-14547524D02*
X10205477Y-14547524D01*
X10386429Y-14547524D02*
X10367381Y-14538000D01*
X10367381Y-14538000D02*
X10357858Y-14518952D01*
X10357858Y-14518952D02*
X10357858Y-14347524D01*
X10538810Y-14538000D02*
X10519762Y-14547524D01*
X10519762Y-14547524D02*
X10481667Y-14547524D01*
X10481667Y-14547524D02*
X10462619Y-14538000D01*
X10462619Y-14538000D02*
X10453096Y-14518952D01*
X10453096Y-14518952D02*
X10453096Y-14442762D01*
X10453096Y-14442762D02*
X10462619Y-14423714D01*
X10462619Y-14423714D02*
X10481667Y-14414190D01*
X10481667Y-14414190D02*
X10519762Y-14414190D01*
X10519762Y-14414190D02*
X10538810Y-14423714D01*
X10538810Y-14423714D02*
X10548334Y-14442762D01*
X10548334Y-14442762D02*
X10548334Y-14461809D01*
X10548334Y-14461809D02*
X10453096Y-14480857D01*
X10615000Y-14623714D02*
X10624524Y-14614190D01*
X10624524Y-14614190D02*
X10643572Y-14585619D01*
X10643572Y-14585619D02*
X10653096Y-14566571D01*
X10653096Y-14566571D02*
X10662619Y-14538000D01*
X10662619Y-14538000D02*
X10672143Y-14490381D01*
X10672143Y-14490381D02*
X10672143Y-14452286D01*
X10672143Y-14452286D02*
X10662619Y-14404667D01*
X10662619Y-14404667D02*
X10653096Y-14376095D01*
X10653096Y-14376095D02*
X10643572Y-14357048D01*
X10643572Y-14357048D02*
X10624524Y-14328476D01*
X10624524Y-14328476D02*
X10615000Y-14318952D01*
X10976905Y-14623714D02*
X10967381Y-14614190D01*
X10967381Y-14614190D02*
X10948334Y-14585619D01*
X10948334Y-14585619D02*
X10938810Y-14566571D01*
X10938810Y-14566571D02*
X10929286Y-14538000D01*
X10929286Y-14538000D02*
X10919762Y-14490381D01*
X10919762Y-14490381D02*
X10919762Y-14452286D01*
X10919762Y-14452286D02*
X10929286Y-14404667D01*
X10929286Y-14404667D02*
X10938810Y-14376095D01*
X10938810Y-14376095D02*
X10948334Y-14357048D01*
X10948334Y-14357048D02*
X10967381Y-14328476D01*
X10967381Y-14328476D02*
X10976905Y-14318952D01*
X11053096Y-14414190D02*
X11053096Y-14547524D01*
X11053096Y-14433238D02*
X11062619Y-14423714D01*
X11062619Y-14423714D02*
X11081667Y-14414190D01*
X11081667Y-14414190D02*
X11110239Y-14414190D01*
X11110239Y-14414190D02*
X11129286Y-14423714D01*
X11129286Y-14423714D02*
X11138810Y-14442762D01*
X11138810Y-14442762D02*
X11138810Y-14547524D01*
X11262619Y-14547524D02*
X11243572Y-14538000D01*
X11243572Y-14538000D02*
X11234048Y-14528476D01*
X11234048Y-14528476D02*
X11224524Y-14509428D01*
X11224524Y-14509428D02*
X11224524Y-14452286D01*
X11224524Y-14452286D02*
X11234048Y-14433238D01*
X11234048Y-14433238D02*
X11243572Y-14423714D01*
X11243572Y-14423714D02*
X11262619Y-14414190D01*
X11262619Y-14414190D02*
X11291191Y-14414190D01*
X11291191Y-14414190D02*
X11310238Y-14423714D01*
X11310238Y-14423714D02*
X11319762Y-14433238D01*
X11319762Y-14433238D02*
X11329286Y-14452286D01*
X11329286Y-14452286D02*
X11329286Y-14509428D01*
X11329286Y-14509428D02*
X11319762Y-14528476D01*
X11319762Y-14528476D02*
X11310238Y-14538000D01*
X11310238Y-14538000D02*
X11291191Y-14547524D01*
X11291191Y-14547524D02*
X11262619Y-14547524D01*
X11386429Y-14414190D02*
X11462619Y-14414190D01*
X11415000Y-14347524D02*
X11415000Y-14518952D01*
X11415000Y-14518952D02*
X11424524Y-14538000D01*
X11424524Y-14538000D02*
X11443572Y-14547524D01*
X11443572Y-14547524D02*
X11462619Y-14547524D01*
X11681667Y-14414190D02*
X11681667Y-14614190D01*
X11681667Y-14423714D02*
X11700715Y-14414190D01*
X11700715Y-14414190D02*
X11738810Y-14414190D01*
X11738810Y-14414190D02*
X11757858Y-14423714D01*
X11757858Y-14423714D02*
X11767381Y-14433238D01*
X11767381Y-14433238D02*
X11776905Y-14452286D01*
X11776905Y-14452286D02*
X11776905Y-14509428D01*
X11776905Y-14509428D02*
X11767381Y-14528476D01*
X11767381Y-14528476D02*
X11757858Y-14538000D01*
X11757858Y-14538000D02*
X11738810Y-14547524D01*
X11738810Y-14547524D02*
X11700715Y-14547524D01*
X11700715Y-14547524D02*
X11681667Y-14538000D01*
X11891191Y-14547524D02*
X11872143Y-14538000D01*
X11872143Y-14538000D02*
X11862619Y-14518952D01*
X11862619Y-14518952D02*
X11862619Y-14347524D01*
X12053096Y-14547524D02*
X12053096Y-14442762D01*
X12053096Y-14442762D02*
X12043572Y-14423714D01*
X12043572Y-14423714D02*
X12024524Y-14414190D01*
X12024524Y-14414190D02*
X11986429Y-14414190D01*
X11986429Y-14414190D02*
X11967381Y-14423714D01*
X12053096Y-14538000D02*
X12034048Y-14547524D01*
X12034048Y-14547524D02*
X11986429Y-14547524D01*
X11986429Y-14547524D02*
X11967381Y-14538000D01*
X11967381Y-14538000D02*
X11957858Y-14518952D01*
X11957858Y-14518952D02*
X11957858Y-14499905D01*
X11957858Y-14499905D02*
X11967381Y-14480857D01*
X11967381Y-14480857D02*
X11986429Y-14471333D01*
X11986429Y-14471333D02*
X12034048Y-14471333D01*
X12034048Y-14471333D02*
X12053096Y-14461809D01*
X12119762Y-14414190D02*
X12195953Y-14414190D01*
X12148334Y-14347524D02*
X12148334Y-14518952D01*
X12148334Y-14518952D02*
X12157858Y-14538000D01*
X12157858Y-14538000D02*
X12176905Y-14547524D01*
X12176905Y-14547524D02*
X12195953Y-14547524D01*
X12338810Y-14538000D02*
X12319762Y-14547524D01*
X12319762Y-14547524D02*
X12281667Y-14547524D01*
X12281667Y-14547524D02*
X12262619Y-14538000D01*
X12262619Y-14538000D02*
X12253096Y-14518952D01*
X12253096Y-14518952D02*
X12253096Y-14442762D01*
X12253096Y-14442762D02*
X12262619Y-14423714D01*
X12262619Y-14423714D02*
X12281667Y-14414190D01*
X12281667Y-14414190D02*
X12319762Y-14414190D01*
X12319762Y-14414190D02*
X12338810Y-14423714D01*
X12338810Y-14423714D02*
X12348334Y-14442762D01*
X12348334Y-14442762D02*
X12348334Y-14461809D01*
X12348334Y-14461809D02*
X12253096Y-14480857D01*
X12519762Y-14547524D02*
X12519762Y-14347524D01*
X12519762Y-14538000D02*
X12500715Y-14547524D01*
X12500715Y-14547524D02*
X12462619Y-14547524D01*
X12462619Y-14547524D02*
X12443572Y-14538000D01*
X12443572Y-14538000D02*
X12434048Y-14528476D01*
X12434048Y-14528476D02*
X12424524Y-14509428D01*
X12424524Y-14509428D02*
X12424524Y-14452286D01*
X12424524Y-14452286D02*
X12434048Y-14433238D01*
X12434048Y-14433238D02*
X12443572Y-14423714D01*
X12443572Y-14423714D02*
X12462619Y-14414190D01*
X12462619Y-14414190D02*
X12500715Y-14414190D01*
X12500715Y-14414190D02*
X12519762Y-14423714D01*
X12595953Y-14623714D02*
X12605477Y-14614190D01*
X12605477Y-14614190D02*
X12624524Y-14585619D01*
X12624524Y-14585619D02*
X12634048Y-14566571D01*
X12634048Y-14566571D02*
X12643572Y-14538000D01*
X12643572Y-14538000D02*
X12653096Y-14490381D01*
X12653096Y-14490381D02*
X12653096Y-14452286D01*
X12653096Y-14452286D02*
X12643572Y-14404667D01*
X12643572Y-14404667D02*
X12634048Y-14376095D01*
X12634048Y-14376095D02*
X12624524Y-14357048D01*
X12624524Y-14357048D02*
X12605477Y-14328476D01*
X12605477Y-14328476D02*
X12595953Y-14318952D01*
D14*
X5995962Y-14764962D02*
X5995962Y-14673038D01*
X5904038Y-14673038D01*
X5904038Y-14764962D01*
X5995962Y-14764962D01*
D11*
X6367381Y-14811524D02*
X6253095Y-14811524D01*
X6310238Y-14811524D02*
X6310238Y-14611524D01*
X6310238Y-14611524D02*
X6291190Y-14640095D01*
X6291190Y-14640095D02*
X6272143Y-14659143D01*
X6272143Y-14659143D02*
X6253095Y-14668667D01*
X6453095Y-14792476D02*
X6462619Y-14802000D01*
X6462619Y-14802000D02*
X6453095Y-14811524D01*
X6453095Y-14811524D02*
X6443571Y-14802000D01*
X6443571Y-14802000D02*
X6453095Y-14792476D01*
X6453095Y-14792476D02*
X6453095Y-14811524D01*
X6529286Y-14611524D02*
X6653095Y-14611524D01*
X6653095Y-14611524D02*
X6586428Y-14687714D01*
X6586428Y-14687714D02*
X6615000Y-14687714D01*
X6615000Y-14687714D02*
X6634048Y-14697238D01*
X6634048Y-14697238D02*
X6643571Y-14706762D01*
X6643571Y-14706762D02*
X6653095Y-14725809D01*
X6653095Y-14725809D02*
X6653095Y-14773428D01*
X6653095Y-14773428D02*
X6643571Y-14792476D01*
X6643571Y-14792476D02*
X6634048Y-14802000D01*
X6634048Y-14802000D02*
X6615000Y-14811524D01*
X6615000Y-14811524D02*
X6557857Y-14811524D01*
X6557857Y-14811524D02*
X6538809Y-14802000D01*
X6538809Y-14802000D02*
X6529286Y-14792476D01*
X6776905Y-14611524D02*
X6795952Y-14611524D01*
X6795952Y-14611524D02*
X6815000Y-14621048D01*
X6815000Y-14621048D02*
X6824524Y-14630571D01*
X6824524Y-14630571D02*
X6834048Y-14649619D01*
X6834048Y-14649619D02*
X6843571Y-14687714D01*
X6843571Y-14687714D02*
X6843571Y-14735333D01*
X6843571Y-14735333D02*
X6834048Y-14773428D01*
X6834048Y-14773428D02*
X6824524Y-14792476D01*
X6824524Y-14792476D02*
X6815000Y-14802000D01*
X6815000Y-14802000D02*
X6795952Y-14811524D01*
X6795952Y-14811524D02*
X6776905Y-14811524D01*
X6776905Y-14811524D02*
X6757857Y-14802000D01*
X6757857Y-14802000D02*
X6748333Y-14792476D01*
X6748333Y-14792476D02*
X6738809Y-14773428D01*
X6738809Y-14773428D02*
X6729286Y-14735333D01*
X6729286Y-14735333D02*
X6729286Y-14687714D01*
X6729286Y-14687714D02*
X6738809Y-14649619D01*
X6738809Y-14649619D02*
X6748333Y-14630571D01*
X6748333Y-14630571D02*
X6757857Y-14621048D01*
X6757857Y-14621048D02*
X6776905Y-14611524D01*
X6967381Y-14611524D02*
X6986429Y-14611524D01*
X6986429Y-14611524D02*
X7005476Y-14621048D01*
X7005476Y-14621048D02*
X7015000Y-14630571D01*
X7015000Y-14630571D02*
X7024524Y-14649619D01*
X7024524Y-14649619D02*
X7034048Y-14687714D01*
X7034048Y-14687714D02*
X7034048Y-14735333D01*
X7034048Y-14735333D02*
X7024524Y-14773428D01*
X7024524Y-14773428D02*
X7015000Y-14792476D01*
X7015000Y-14792476D02*
X7005476Y-14802000D01*
X7005476Y-14802000D02*
X6986429Y-14811524D01*
X6986429Y-14811524D02*
X6967381Y-14811524D01*
X6967381Y-14811524D02*
X6948333Y-14802000D01*
X6948333Y-14802000D02*
X6938809Y-14792476D01*
X6938809Y-14792476D02*
X6929286Y-14773428D01*
X6929286Y-14773428D02*
X6919762Y-14735333D01*
X6919762Y-14735333D02*
X6919762Y-14687714D01*
X6919762Y-14687714D02*
X6929286Y-14649619D01*
X6929286Y-14649619D02*
X6938809Y-14630571D01*
X6938809Y-14630571D02*
X6948333Y-14621048D01*
X6948333Y-14621048D02*
X6967381Y-14611524D01*
X7119762Y-14811524D02*
X7119762Y-14678190D01*
X7119762Y-14697238D02*
X7129286Y-14687714D01*
X7129286Y-14687714D02*
X7148333Y-14678190D01*
X7148333Y-14678190D02*
X7176905Y-14678190D01*
X7176905Y-14678190D02*
X7195952Y-14687714D01*
X7195952Y-14687714D02*
X7205476Y-14706762D01*
X7205476Y-14706762D02*
X7205476Y-14811524D01*
X7205476Y-14706762D02*
X7215000Y-14687714D01*
X7215000Y-14687714D02*
X7234048Y-14678190D01*
X7234048Y-14678190D02*
X7262619Y-14678190D01*
X7262619Y-14678190D02*
X7281667Y-14687714D01*
X7281667Y-14687714D02*
X7291190Y-14706762D01*
X7291190Y-14706762D02*
X7291190Y-14811524D01*
X7386429Y-14811524D02*
X7386429Y-14678190D01*
X7386429Y-14697238D02*
X7395952Y-14687714D01*
X7395952Y-14687714D02*
X7415000Y-14678190D01*
X7415000Y-14678190D02*
X7443571Y-14678190D01*
X7443571Y-14678190D02*
X7462619Y-14687714D01*
X7462619Y-14687714D02*
X7472143Y-14706762D01*
X7472143Y-14706762D02*
X7472143Y-14811524D01*
X7472143Y-14706762D02*
X7481667Y-14687714D01*
X7481667Y-14687714D02*
X7500714Y-14678190D01*
X7500714Y-14678190D02*
X7529286Y-14678190D01*
X7529286Y-14678190D02*
X7548333Y-14687714D01*
X7548333Y-14687714D02*
X7557857Y-14706762D01*
X7557857Y-14706762D02*
X7557857Y-14811524D01*
X7948333Y-14602000D02*
X7776905Y-14859143D01*
X8205476Y-14611524D02*
X8224524Y-14611524D01*
X8224524Y-14611524D02*
X8243572Y-14621048D01*
X8243572Y-14621048D02*
X8253095Y-14630571D01*
X8253095Y-14630571D02*
X8262619Y-14649619D01*
X8262619Y-14649619D02*
X8272143Y-14687714D01*
X8272143Y-14687714D02*
X8272143Y-14735333D01*
X8272143Y-14735333D02*
X8262619Y-14773428D01*
X8262619Y-14773428D02*
X8253095Y-14792476D01*
X8253095Y-14792476D02*
X8243572Y-14802000D01*
X8243572Y-14802000D02*
X8224524Y-14811524D01*
X8224524Y-14811524D02*
X8205476Y-14811524D01*
X8205476Y-14811524D02*
X8186429Y-14802000D01*
X8186429Y-14802000D02*
X8176905Y-14792476D01*
X8176905Y-14792476D02*
X8167381Y-14773428D01*
X8167381Y-14773428D02*
X8157857Y-14735333D01*
X8157857Y-14735333D02*
X8157857Y-14687714D01*
X8157857Y-14687714D02*
X8167381Y-14649619D01*
X8167381Y-14649619D02*
X8176905Y-14630571D01*
X8176905Y-14630571D02*
X8186429Y-14621048D01*
X8186429Y-14621048D02*
X8205476Y-14611524D01*
X8357857Y-14792476D02*
X8367381Y-14802000D01*
X8367381Y-14802000D02*
X8357857Y-14811524D01*
X8357857Y-14811524D02*
X8348333Y-14802000D01*
X8348333Y-14802000D02*
X8357857Y-14792476D01*
X8357857Y-14792476D02*
X8357857Y-14811524D01*
X8491191Y-14611524D02*
X8510238Y-14611524D01*
X8510238Y-14611524D02*
X8529286Y-14621048D01*
X8529286Y-14621048D02*
X8538810Y-14630571D01*
X8538810Y-14630571D02*
X8548334Y-14649619D01*
X8548334Y-14649619D02*
X8557857Y-14687714D01*
X8557857Y-14687714D02*
X8557857Y-14735333D01*
X8557857Y-14735333D02*
X8548334Y-14773428D01*
X8548334Y-14773428D02*
X8538810Y-14792476D01*
X8538810Y-14792476D02*
X8529286Y-14802000D01*
X8529286Y-14802000D02*
X8510238Y-14811524D01*
X8510238Y-14811524D02*
X8491191Y-14811524D01*
X8491191Y-14811524D02*
X8472143Y-14802000D01*
X8472143Y-14802000D02*
X8462619Y-14792476D01*
X8462619Y-14792476D02*
X8453095Y-14773428D01*
X8453095Y-14773428D02*
X8443572Y-14735333D01*
X8443572Y-14735333D02*
X8443572Y-14687714D01*
X8443572Y-14687714D02*
X8453095Y-14649619D01*
X8453095Y-14649619D02*
X8462619Y-14630571D01*
X8462619Y-14630571D02*
X8472143Y-14621048D01*
X8472143Y-14621048D02*
X8491191Y-14611524D01*
X8738810Y-14611524D02*
X8643572Y-14611524D01*
X8643572Y-14611524D02*
X8634048Y-14706762D01*
X8634048Y-14706762D02*
X8643572Y-14697238D01*
X8643572Y-14697238D02*
X8662619Y-14687714D01*
X8662619Y-14687714D02*
X8710238Y-14687714D01*
X8710238Y-14687714D02*
X8729286Y-14697238D01*
X8729286Y-14697238D02*
X8738810Y-14706762D01*
X8738810Y-14706762D02*
X8748334Y-14725809D01*
X8748334Y-14725809D02*
X8748334Y-14773428D01*
X8748334Y-14773428D02*
X8738810Y-14792476D01*
X8738810Y-14792476D02*
X8729286Y-14802000D01*
X8729286Y-14802000D02*
X8710238Y-14811524D01*
X8710238Y-14811524D02*
X8662619Y-14811524D01*
X8662619Y-14811524D02*
X8643572Y-14802000D01*
X8643572Y-14802000D02*
X8634048Y-14792476D01*
X8938810Y-14811524D02*
X8824524Y-14811524D01*
X8881667Y-14811524D02*
X8881667Y-14611524D01*
X8881667Y-14611524D02*
X8862619Y-14640095D01*
X8862619Y-14640095D02*
X8843572Y-14659143D01*
X8843572Y-14659143D02*
X8824524Y-14668667D01*
X9015000Y-14630571D02*
X9024524Y-14621048D01*
X9024524Y-14621048D02*
X9043572Y-14611524D01*
X9043572Y-14611524D02*
X9091191Y-14611524D01*
X9091191Y-14611524D02*
X9110238Y-14621048D01*
X9110238Y-14621048D02*
X9119762Y-14630571D01*
X9119762Y-14630571D02*
X9129286Y-14649619D01*
X9129286Y-14649619D02*
X9129286Y-14668667D01*
X9129286Y-14668667D02*
X9119762Y-14697238D01*
X9119762Y-14697238D02*
X9005476Y-14811524D01*
X9005476Y-14811524D02*
X9129286Y-14811524D01*
X9205476Y-14611524D02*
X9205476Y-14649619D01*
X9281667Y-14611524D02*
X9281667Y-14649619D01*
X9576905Y-14887714D02*
X9567381Y-14878190D01*
X9567381Y-14878190D02*
X9548334Y-14849619D01*
X9548334Y-14849619D02*
X9538810Y-14830571D01*
X9538810Y-14830571D02*
X9529286Y-14802000D01*
X9529286Y-14802000D02*
X9519762Y-14754381D01*
X9519762Y-14754381D02*
X9519762Y-14716286D01*
X9519762Y-14716286D02*
X9529286Y-14668667D01*
X9529286Y-14668667D02*
X9538810Y-14640095D01*
X9538810Y-14640095D02*
X9548334Y-14621048D01*
X9548334Y-14621048D02*
X9567381Y-14592476D01*
X9567381Y-14592476D02*
X9576905Y-14582952D01*
X9757857Y-14811524D02*
X9643572Y-14811524D01*
X9700715Y-14811524D02*
X9700715Y-14611524D01*
X9700715Y-14611524D02*
X9681667Y-14640095D01*
X9681667Y-14640095D02*
X9662619Y-14659143D01*
X9662619Y-14659143D02*
X9643572Y-14668667D01*
X9995953Y-14811524D02*
X9995953Y-14611524D01*
X10081667Y-14811524D02*
X10081667Y-14706762D01*
X10081667Y-14706762D02*
X10072143Y-14687714D01*
X10072143Y-14687714D02*
X10053096Y-14678190D01*
X10053096Y-14678190D02*
X10024524Y-14678190D01*
X10024524Y-14678190D02*
X10005477Y-14687714D01*
X10005477Y-14687714D02*
X9995953Y-14697238D01*
X10205477Y-14811524D02*
X10186429Y-14802000D01*
X10186429Y-14802000D02*
X10176905Y-14792476D01*
X10176905Y-14792476D02*
X10167381Y-14773428D01*
X10167381Y-14773428D02*
X10167381Y-14716286D01*
X10167381Y-14716286D02*
X10176905Y-14697238D01*
X10176905Y-14697238D02*
X10186429Y-14687714D01*
X10186429Y-14687714D02*
X10205477Y-14678190D01*
X10205477Y-14678190D02*
X10234048Y-14678190D01*
X10234048Y-14678190D02*
X10253096Y-14687714D01*
X10253096Y-14687714D02*
X10262619Y-14697238D01*
X10262619Y-14697238D02*
X10272143Y-14716286D01*
X10272143Y-14716286D02*
X10272143Y-14773428D01*
X10272143Y-14773428D02*
X10262619Y-14792476D01*
X10262619Y-14792476D02*
X10253096Y-14802000D01*
X10253096Y-14802000D02*
X10234048Y-14811524D01*
X10234048Y-14811524D02*
X10205477Y-14811524D01*
X10386429Y-14811524D02*
X10367381Y-14802000D01*
X10367381Y-14802000D02*
X10357858Y-14782952D01*
X10357858Y-14782952D02*
X10357858Y-14611524D01*
X10538810Y-14802000D02*
X10519762Y-14811524D01*
X10519762Y-14811524D02*
X10481667Y-14811524D01*
X10481667Y-14811524D02*
X10462619Y-14802000D01*
X10462619Y-14802000D02*
X10453096Y-14782952D01*
X10453096Y-14782952D02*
X10453096Y-14706762D01*
X10453096Y-14706762D02*
X10462619Y-14687714D01*
X10462619Y-14687714D02*
X10481667Y-14678190D01*
X10481667Y-14678190D02*
X10519762Y-14678190D01*
X10519762Y-14678190D02*
X10538810Y-14687714D01*
X10538810Y-14687714D02*
X10548334Y-14706762D01*
X10548334Y-14706762D02*
X10548334Y-14725809D01*
X10548334Y-14725809D02*
X10453096Y-14744857D01*
X10615000Y-14887714D02*
X10624524Y-14878190D01*
X10624524Y-14878190D02*
X10643572Y-14849619D01*
X10643572Y-14849619D02*
X10653096Y-14830571D01*
X10653096Y-14830571D02*
X10662619Y-14802000D01*
X10662619Y-14802000D02*
X10672143Y-14754381D01*
X10672143Y-14754381D02*
X10672143Y-14716286D01*
X10672143Y-14716286D02*
X10662619Y-14668667D01*
X10662619Y-14668667D02*
X10653096Y-14640095D01*
X10653096Y-14640095D02*
X10643572Y-14621048D01*
X10643572Y-14621048D02*
X10624524Y-14592476D01*
X10624524Y-14592476D02*
X10615000Y-14582952D01*
X10976905Y-14887714D02*
X10967381Y-14878190D01*
X10967381Y-14878190D02*
X10948334Y-14849619D01*
X10948334Y-14849619D02*
X10938810Y-14830571D01*
X10938810Y-14830571D02*
X10929286Y-14802000D01*
X10929286Y-14802000D02*
X10919762Y-14754381D01*
X10919762Y-14754381D02*
X10919762Y-14716286D01*
X10919762Y-14716286D02*
X10929286Y-14668667D01*
X10929286Y-14668667D02*
X10938810Y-14640095D01*
X10938810Y-14640095D02*
X10948334Y-14621048D01*
X10948334Y-14621048D02*
X10967381Y-14592476D01*
X10967381Y-14592476D02*
X10976905Y-14582952D01*
X11053096Y-14678190D02*
X11053096Y-14811524D01*
X11053096Y-14697238D02*
X11062619Y-14687714D01*
X11062619Y-14687714D02*
X11081667Y-14678190D01*
X11081667Y-14678190D02*
X11110239Y-14678190D01*
X11110239Y-14678190D02*
X11129286Y-14687714D01*
X11129286Y-14687714D02*
X11138810Y-14706762D01*
X11138810Y-14706762D02*
X11138810Y-14811524D01*
X11262619Y-14811524D02*
X11243572Y-14802000D01*
X11243572Y-14802000D02*
X11234048Y-14792476D01*
X11234048Y-14792476D02*
X11224524Y-14773428D01*
X11224524Y-14773428D02*
X11224524Y-14716286D01*
X11224524Y-14716286D02*
X11234048Y-14697238D01*
X11234048Y-14697238D02*
X11243572Y-14687714D01*
X11243572Y-14687714D02*
X11262619Y-14678190D01*
X11262619Y-14678190D02*
X11291191Y-14678190D01*
X11291191Y-14678190D02*
X11310238Y-14687714D01*
X11310238Y-14687714D02*
X11319762Y-14697238D01*
X11319762Y-14697238D02*
X11329286Y-14716286D01*
X11329286Y-14716286D02*
X11329286Y-14773428D01*
X11329286Y-14773428D02*
X11319762Y-14792476D01*
X11319762Y-14792476D02*
X11310238Y-14802000D01*
X11310238Y-14802000D02*
X11291191Y-14811524D01*
X11291191Y-14811524D02*
X11262619Y-14811524D01*
X11386429Y-14678190D02*
X11462619Y-14678190D01*
X11415000Y-14611524D02*
X11415000Y-14782952D01*
X11415000Y-14782952D02*
X11424524Y-14802000D01*
X11424524Y-14802000D02*
X11443572Y-14811524D01*
X11443572Y-14811524D02*
X11462619Y-14811524D01*
X11681667Y-14678190D02*
X11681667Y-14878190D01*
X11681667Y-14687714D02*
X11700715Y-14678190D01*
X11700715Y-14678190D02*
X11738810Y-14678190D01*
X11738810Y-14678190D02*
X11757858Y-14687714D01*
X11757858Y-14687714D02*
X11767381Y-14697238D01*
X11767381Y-14697238D02*
X11776905Y-14716286D01*
X11776905Y-14716286D02*
X11776905Y-14773428D01*
X11776905Y-14773428D02*
X11767381Y-14792476D01*
X11767381Y-14792476D02*
X11757858Y-14802000D01*
X11757858Y-14802000D02*
X11738810Y-14811524D01*
X11738810Y-14811524D02*
X11700715Y-14811524D01*
X11700715Y-14811524D02*
X11681667Y-14802000D01*
X11891191Y-14811524D02*
X11872143Y-14802000D01*
X11872143Y-14802000D02*
X11862619Y-14782952D01*
X11862619Y-14782952D02*
X11862619Y-14611524D01*
X12053096Y-14811524D02*
X12053096Y-14706762D01*
X12053096Y-14706762D02*
X12043572Y-14687714D01*
X12043572Y-14687714D02*
X12024524Y-14678190D01*
X12024524Y-14678190D02*
X11986429Y-14678190D01*
X11986429Y-14678190D02*
X11967381Y-14687714D01*
X12053096Y-14802000D02*
X12034048Y-14811524D01*
X12034048Y-14811524D02*
X11986429Y-14811524D01*
X11986429Y-14811524D02*
X11967381Y-14802000D01*
X11967381Y-14802000D02*
X11957858Y-14782952D01*
X11957858Y-14782952D02*
X11957858Y-14763905D01*
X11957858Y-14763905D02*
X11967381Y-14744857D01*
X11967381Y-14744857D02*
X11986429Y-14735333D01*
X11986429Y-14735333D02*
X12034048Y-14735333D01*
X12034048Y-14735333D02*
X12053096Y-14725809D01*
X12119762Y-14678190D02*
X12195953Y-14678190D01*
X12148334Y-14611524D02*
X12148334Y-14782952D01*
X12148334Y-14782952D02*
X12157858Y-14802000D01*
X12157858Y-14802000D02*
X12176905Y-14811524D01*
X12176905Y-14811524D02*
X12195953Y-14811524D01*
X12338810Y-14802000D02*
X12319762Y-14811524D01*
X12319762Y-14811524D02*
X12281667Y-14811524D01*
X12281667Y-14811524D02*
X12262619Y-14802000D01*
X12262619Y-14802000D02*
X12253096Y-14782952D01*
X12253096Y-14782952D02*
X12253096Y-14706762D01*
X12253096Y-14706762D02*
X12262619Y-14687714D01*
X12262619Y-14687714D02*
X12281667Y-14678190D01*
X12281667Y-14678190D02*
X12319762Y-14678190D01*
X12319762Y-14678190D02*
X12338810Y-14687714D01*
X12338810Y-14687714D02*
X12348334Y-14706762D01*
X12348334Y-14706762D02*
X12348334Y-14725809D01*
X12348334Y-14725809D02*
X12253096Y-14744857D01*
X12519762Y-14811524D02*
X12519762Y-14611524D01*
X12519762Y-14802000D02*
X12500715Y-14811524D01*
X12500715Y-14811524D02*
X12462619Y-14811524D01*
X12462619Y-14811524D02*
X12443572Y-14802000D01*
X12443572Y-14802000D02*
X12434048Y-14792476D01*
X12434048Y-14792476D02*
X12424524Y-14773428D01*
X12424524Y-14773428D02*
X12424524Y-14716286D01*
X12424524Y-14716286D02*
X12434048Y-14697238D01*
X12434048Y-14697238D02*
X12443572Y-14687714D01*
X12443572Y-14687714D02*
X12462619Y-14678190D01*
X12462619Y-14678190D02*
X12500715Y-14678190D01*
X12500715Y-14678190D02*
X12519762Y-14687714D01*
X12595953Y-14887714D02*
X12605477Y-14878190D01*
X12605477Y-14878190D02*
X12624524Y-14849619D01*
X12624524Y-14849619D02*
X12634048Y-14830571D01*
X12634048Y-14830571D02*
X12643572Y-14802000D01*
X12643572Y-14802000D02*
X12653096Y-14754381D01*
X12653096Y-14754381D02*
X12653096Y-14716286D01*
X12653096Y-14716286D02*
X12643572Y-14668667D01*
X12643572Y-14668667D02*
X12634048Y-14640095D01*
X12634048Y-14640095D02*
X12624524Y-14621048D01*
X12624524Y-14621048D02*
X12605477Y-14592476D01*
X12605477Y-14592476D02*
X12595953Y-14582952D01*
M02*
