G04 #@! TF.GenerationSoftware,KiCad,Pcbnew,(6.0.11)*
G04 #@! TF.CreationDate,2023-03-03T14:47:03+07:00*
G04 #@! TF.ProjectId,chargerV1,63686172-6765-4725-9631-2e6b69636164,rev?*
G04 #@! TF.SameCoordinates,Original*
G04 #@! TF.FileFunction,Profile,NP*
%FSLAX46Y46*%
G04 Gerber Fmt 4.6, Leading zero omitted, Abs format (unit mm)*
G04 Created by KiCad (PCBNEW (6.0.11)) date 2023-03-03 14:47:03*
%MOMM*%
%LPD*%
G01*
G04 APERTURE LIST*
G04 #@! TA.AperFunction,Profile*
%ADD10C,0.100000*%
G04 #@! TD*
G04 APERTURE END LIST*
D10*
X136600000Y-88650000D02*
G75*
G03*
X139040000Y-86210000I0J2440000D01*
G01*
X139040000Y-56740000D02*
X139040000Y-86210000D01*
X87990000Y-88090000D02*
X78550000Y-88090000D01*
X47640000Y-89400000D02*
G75*
G03*
X53090000Y-89400000I2725000J0D01*
G01*
X53265000Y-27570000D02*
G75*
G03*
X47815000Y-27570000I-2725000J0D01*
G01*
X60956250Y-86210000D02*
X60956250Y-61000000D01*
X46329340Y-29995000D02*
X42040000Y-30000000D01*
X139040000Y-31290000D02*
X139040000Y-38240000D01*
X60539833Y-61000000D02*
X60956250Y-61000000D01*
X54575660Y-86974960D02*
G75*
G03*
X53075660Y-88475000I40J-1500040D01*
G01*
X88100000Y-88650000D02*
X87990000Y-88090000D01*
X60540000Y-31900000D02*
X60540000Y-46000000D01*
X53279300Y-28495000D02*
G75*
G03*
X54779340Y-29995000I1500000J0D01*
G01*
X41990000Y-86970000D02*
X46125660Y-86975000D01*
X47625700Y-88475000D02*
G75*
G03*
X46125660Y-86975000I-1500100J-100D01*
G01*
X40140000Y-85070000D02*
X40140000Y-31900000D01*
X139040000Y-31290000D02*
G75*
G03*
X136600000Y-28850000I-2440000J0D01*
G01*
X46329340Y-29995040D02*
G75*
G03*
X47829340Y-28495000I-40J1500040D01*
G01*
X53090000Y-89400000D02*
X53075660Y-88475000D01*
X63400000Y-28860000D02*
X136600000Y-28850000D01*
X60539833Y-61000000D02*
X60539833Y-85070000D01*
X54575660Y-86975000D02*
X58664833Y-86970000D01*
X58640000Y-30000000D02*
X54779340Y-29995000D01*
X47815000Y-27570000D02*
X47829340Y-28495000D01*
X78500000Y-88650000D02*
X63396250Y-88650000D01*
X132596250Y-38240000D02*
X132596250Y-56740000D01*
X58664833Y-86969967D02*
G75*
G03*
X60539833Y-85070000I-25133J1899967D01*
G01*
X60956200Y-86210000D02*
G75*
G03*
X63396250Y-88650000I2440000J0D01*
G01*
X47640000Y-89400000D02*
X47625660Y-88475000D01*
X132596250Y-56740000D02*
X139040000Y-56740000D01*
X136600000Y-88650000D02*
X88100000Y-88650000D01*
X63400000Y-28860000D02*
G75*
G03*
X60960000Y-31300000I0J-2440000D01*
G01*
X78550000Y-88090000D02*
X78500000Y-88650000D01*
X42040000Y-30000000D02*
G75*
G03*
X40140000Y-31900000I0J-1900000D01*
G01*
X139040000Y-38240000D02*
X132596250Y-38240000D01*
X60540000Y-31900000D02*
G75*
G03*
X58640000Y-30000000I-1900000J0D01*
G01*
X60540000Y-46000000D02*
X60956250Y-46000000D01*
X40139926Y-85070000D02*
G75*
G03*
X41990000Y-86970000I1900674J0D01*
G01*
X60956250Y-46000000D02*
X60960000Y-31300000D01*
X53265000Y-27570000D02*
X53279340Y-28495000D01*
M02*
