M48
; DRILL file {KiCad 7.0.1} date Sun Apr 16 16:24:14 2023
; FORMAT={-:-/ absolute / metric / decimal}
; #@! TF.CreationDate,2023-04-16T16:24:14+07:00
; #@! TF.GenerationSoftware,Kicad,Pcbnew,7.0.1
; #@! TF.FileFunction,Plated,1,2,PTH
FMAT,2
METRIC
; #@! TA.AperFunction,Plated,PTH,ViaDrill
T1C0.400
; #@! TA.AperFunction,Plated,PTH,ComponentDrill
T2C0.400
; #@! TA.AperFunction,Plated,PTH,ComponentDrill
T3C0.500
; #@! TA.AperFunction,Plated,PTH,ViaDrill
T4C0.600
; #@! TA.AperFunction,Plated,PTH,ComponentDrill
T5C0.600
; #@! TA.AperFunction,Plated,PTH,ComponentDrill
T6C2.200
%
G90
G05
T1
X61.56Y-88.11
X61.57Y-102.62
X61.57Y-104.996
X61.57Y-107.372
X61.57Y-109.747
X61.57Y-112.123
X61.57Y-114.499
X61.57Y-116.875
X61.57Y-119.251
X61.57Y-121.626
X61.57Y-124.002
X63.07Y-88.11
X64.09Y-102.62
X64.09Y-104.996
X64.09Y-107.372
X64.09Y-109.747
X64.09Y-112.123
X64.09Y-114.499
X64.09Y-116.875
X64.58Y-88.11
X66.17Y-82.88
X66.17Y-84.705
X66.17Y-86.53
X67.76Y-107.11
X67.76Y-119.27
X67.88Y-82.88
X67.88Y-84.705
X67.88Y-86.53
X67.943Y-131.71
X70.481Y-131.71
X70.7Y-82.88
X72.91Y-121.525
X72.91Y-124.063
X72.91Y-126.602
X73.019Y-131.71
X73.532Y-82.88
X74.18Y-67.53
X75.558Y-131.71
X76.365Y-82.88
X77.0Y-104.15
X77.005Y-105.54
X78.08Y-128.73
X78.096Y-131.71
X78.445Y-104.15
X78.45Y-105.54
X79.197Y-82.88
X79.89Y-104.15
X79.895Y-105.54
X80.618Y-128.73
X80.635Y-131.71
X82.03Y-82.88
X83.157Y-128.73
X83.173Y-131.71
X83.65Y-72.98
X83.65Y-73.98
X83.65Y-74.98
X83.904Y-92.89
X84.862Y-82.88
X84.96Y-72.98
X84.96Y-73.98
X84.96Y-74.98
X85.14Y-92.89
X85.695Y-128.73
X85.712Y-131.71
X87.01Y-113.305
X87.01Y-114.75
X87.01Y-116.195
X87.694Y-82.88
X88.234Y-128.73
X88.25Y-131.71
X88.4Y-113.3
X88.4Y-114.745
X88.4Y-116.19
X88.65Y-93.53
X88.65Y-94.73
X89.5Y-67.33
X90.527Y-82.88
X90.7Y-93.52
X90.7Y-94.72
X90.788Y-131.71
X91.9Y-121.67
X92.32Y-92.86
X93.327Y-131.71
X93.359Y-82.88
X93.6Y-92.86
X94.86Y-92.86
X95.03Y-109.6
X95.03Y-110.88
X95.03Y-112.13
X95.865Y-131.71
X96.191Y-82.88
X96.41Y-128.84
X97.882Y-128.84
X98.404Y-131.71
X98.9Y-105.64
X98.92Y-73.2
X98.92Y-74.2
X98.92Y-75.2
X99.024Y-82.88
X99.09Y-113.92
X99.355Y-128.84
X99.85Y-85.83
X100.23Y-73.2
X100.23Y-74.2
X100.23Y-75.2
X100.56Y-91.79
X100.57Y-93.07
X100.57Y-94.35
X100.57Y-95.63
X100.828Y-128.84
X100.942Y-131.71
X101.11Y-100.73
X101.62Y-85.52
X102.29Y-99.49
X102.3Y-128.84
X102.8Y-90.49
X102.81Y-91.63
X102.81Y-92.76
X103.28Y-85.52
X104.68Y-110.64
X104.82Y-67.53
X105.545Y-109.54
X106.93Y-111.66
X106.94Y-112.68
X107.56Y-118.18
X107.83Y-92.155
X107.93Y-111.66
X107.94Y-112.68
X108.09Y-105.87
X109.08Y-92.14
X109.338Y-106.884
X109.77Y-115.49
X110.43Y-92.16
X110.9Y-122.95
X110.9Y-130.31
X111.895Y-109.84
X111.97Y-115.49
X113.165Y-109.88
X114.83Y-112.74
X114.84Y-113.76
X115.71Y-107.02
X115.83Y-112.74
X115.84Y-113.76
X119.51Y-106.98
X120.06Y-85.84
X120.212Y-82.97
X120.78Y-109.8
X121.28Y-86.29
X121.79Y-119.13
X121.8Y-122.13
X121.986Y-82.97
X122.03Y-87.62
X122.4Y-126.93
X122.4Y-128.343
X122.41Y-129.757
X122.41Y-131.17
X123.761Y-82.97
X123.85Y-126.93
X123.85Y-128.343
X123.86Y-129.757
X123.86Y-131.17
X125.535Y-82.97
X127.31Y-82.97
T2
X61.05Y-130.3
X61.073Y-84.323
X61.533Y-129.133
X61.533Y-131.467
X61.557Y-83.157
X61.557Y-85.49
X62.7Y-128.65
X62.7Y-131.95
X62.723Y-82.673
X62.723Y-85.973
X63.867Y-129.133
X63.867Y-131.467
X63.89Y-83.157
X63.89Y-85.49
X64.35Y-130.3
X64.373Y-84.323
X126.04Y-130.28
X126.523Y-129.113
X126.523Y-131.447
X127.69Y-128.63
X127.69Y-131.93
X128.857Y-129.113
X128.857Y-131.447
X129.34Y-130.28
T4
X69.22Y-94.855
X69.22Y-96.57
X69.24Y-93.14
X70.73Y-94.855
X70.73Y-96.57
X70.75Y-93.14
X71.72Y-87.65
X71.74Y-89.48
X86.55Y-121.62
X86.55Y-123.27
X88.02Y-121.62
T5
X113.405Y-97.665
X113.415Y-98.965
X113.435Y-100.325
X114.705Y-97.665
X114.715Y-98.965
X114.735Y-100.325
X115.995Y-97.615
X116.005Y-98.915
X116.025Y-100.275
T6
X62.7Y-130.3
X62.723Y-84.323
X127.69Y-130.28
T3
G00X61.645Y-90.72
M15
G01X61.245Y-90.72
M16
G05
G00X61.645Y-99.36
M15
G01X61.245Y-99.36
M16
G05
G00X65.875Y-90.72
M15
G01X65.375Y-90.72
M16
G05
G00X65.875Y-99.36
M15
G01X65.375Y-99.36
M16
G05
T0
M30
