G04 #@! TF.GenerationSoftware,KiCad,Pcbnew,(6.0.11)*
G04 #@! TF.CreationDate,2023-03-03T14:47:03+07:00*
G04 #@! TF.ProjectId,chargerV1,63686172-6765-4725-9631-2e6b69636164,rev?*
G04 #@! TF.SameCoordinates,Original*
G04 #@! TF.FileFunction,Copper,L2,Bot*
G04 #@! TF.FilePolarity,Positive*
%FSLAX46Y46*%
G04 Gerber Fmt 4.6, Leading zero omitted, Abs format (unit mm)*
G04 Created by KiCad (PCBNEW (6.0.11)) date 2023-03-03 14:47:03*
%MOMM*%
%LPD*%
G01*
G04 APERTURE LIST*
G04 #@! TA.AperFunction,ComponentPad*
%ADD10C,0.300000*%
G04 #@! TD*
G04 #@! TA.AperFunction,HeatsinkPad*
%ADD11C,0.475000*%
G04 #@! TD*
G04 #@! TA.AperFunction,ComponentPad*
%ADD12C,0.700000*%
G04 #@! TD*
G04 #@! TA.AperFunction,ComponentPad*
%ADD13C,4.400000*%
G04 #@! TD*
G04 #@! TA.AperFunction,ComponentPad*
%ADD14C,0.500000*%
G04 #@! TD*
G04 #@! TA.AperFunction,SMDPad,CuDef*
%ADD15R,1.600000X1.600000*%
G04 #@! TD*
G04 #@! TA.AperFunction,ComponentPad*
%ADD16O,1.000000X2.100000*%
G04 #@! TD*
G04 #@! TA.AperFunction,ComponentPad*
%ADD17O,1.000000X1.600000*%
G04 #@! TD*
G04 #@! TA.AperFunction,ComponentPad*
%ADD18R,3.500000X3.500000*%
G04 #@! TD*
G04 #@! TA.AperFunction,ComponentPad*
%ADD19C,3.500000*%
G04 #@! TD*
G04 #@! TA.AperFunction,SMDPad,CuDef*
%ADD20R,2.100000X0.750000*%
G04 #@! TD*
G04 #@! TA.AperFunction,ViaPad*
%ADD21C,0.800000*%
G04 #@! TD*
G04 #@! TA.AperFunction,Conductor*
%ADD22C,0.250000*%
G04 #@! TD*
G04 #@! TA.AperFunction,Conductor*
%ADD23C,0.600000*%
G04 #@! TD*
G04 #@! TA.AperFunction,Conductor*
%ADD24C,0.400000*%
G04 #@! TD*
G04 APERTURE END LIST*
D10*
X72250000Y-51607500D03*
X71300000Y-52182500D03*
X72250000Y-52757500D03*
X73200000Y-52182500D03*
D11*
X122485000Y-47582500D03*
X125535000Y-46057500D03*
X125535000Y-47582500D03*
X123247500Y-48345000D03*
X123247500Y-45295000D03*
X124010000Y-47582500D03*
X124772500Y-48345000D03*
X123247500Y-46820000D03*
X124772500Y-45295000D03*
X124010000Y-46057500D03*
X122485000Y-46057500D03*
X124772500Y-46820000D03*
D12*
X49362614Y-26328274D03*
X51696066Y-28661726D03*
X50529340Y-25845000D03*
X52179340Y-27495000D03*
X48879340Y-27495000D03*
D13*
X50529340Y-27495000D03*
D12*
X50529340Y-29145000D03*
X49362614Y-28661726D03*
X51696066Y-26328274D03*
D14*
X86920000Y-72350000D03*
X85820000Y-72350000D03*
X86920000Y-71250000D03*
X85820000Y-71250000D03*
D15*
X86370000Y-71800000D03*
D12*
X64562926Y-87376726D03*
X62229474Y-85043274D03*
X63396200Y-87860000D03*
X63396200Y-84560000D03*
X65046200Y-86210000D03*
X64562926Y-85043274D03*
X61746200Y-86210000D03*
X62229474Y-87376726D03*
D13*
X63396200Y-86210000D03*
D12*
X135573274Y-85173274D03*
X135090000Y-86340000D03*
X137906726Y-85173274D03*
X138390000Y-86340000D03*
X137906726Y-87506726D03*
X136740000Y-84690000D03*
X135573274Y-87506726D03*
X136740000Y-87990000D03*
D13*
X136740000Y-86340000D03*
D12*
X62233274Y-32466726D03*
X63400000Y-29650000D03*
X63400000Y-32950000D03*
X64566726Y-30133274D03*
D13*
X63400000Y-31300000D03*
D12*
X61750000Y-31300000D03*
X65050000Y-31300000D03*
X62233274Y-30133274D03*
X64566726Y-32466726D03*
X48690000Y-89400000D03*
X51506726Y-90566726D03*
X50340000Y-87750000D03*
X50340000Y-91050000D03*
X51990000Y-89400000D03*
X49173274Y-90566726D03*
X51506726Y-88233274D03*
D13*
X50340000Y-89400000D03*
D12*
X49173274Y-88233274D03*
D16*
X87600000Y-82455000D03*
X78960000Y-82455000D03*
D17*
X87600000Y-86635000D03*
X78960000Y-86635000D03*
D18*
X64000000Y-77870000D03*
D19*
X136000000Y-77870000D03*
D20*
X77410000Y-34140000D03*
X81010000Y-34140000D03*
X77410000Y-35410000D03*
X81010000Y-35410000D03*
X77410000Y-36680000D03*
X81010000Y-36680000D03*
X77410000Y-37950000D03*
X81010000Y-37950000D03*
X77410000Y-39220000D03*
X81010000Y-39220000D03*
D21*
X123250000Y-61750000D03*
X83750000Y-42750000D03*
X109990000Y-40160000D03*
X86700000Y-60680000D03*
X112000000Y-66000000D03*
X107000000Y-55250000D03*
X107250000Y-76000000D03*
X50590000Y-71230000D03*
X67500000Y-71750000D03*
X107990000Y-40160000D03*
X66330000Y-37350000D03*
X51590000Y-70230000D03*
X113000000Y-66000000D03*
X109990000Y-39160000D03*
X64330000Y-37350000D03*
X49980000Y-56260000D03*
X66330000Y-38350000D03*
X67500000Y-72750000D03*
X88700000Y-59680000D03*
X48980000Y-56260000D03*
X70500000Y-73750000D03*
X83750000Y-43750000D03*
X69500000Y-71750000D03*
X131750000Y-85750000D03*
X107000000Y-56250000D03*
X108990000Y-39160000D03*
X66330000Y-36350000D03*
X92590000Y-72340000D03*
X106000000Y-54250000D03*
X124250000Y-62750000D03*
X81500000Y-76250000D03*
X51980000Y-56260000D03*
X91590000Y-71340000D03*
X84750000Y-43750000D03*
X84750000Y-45750000D03*
X92590000Y-71340000D03*
X65330000Y-37350000D03*
X48590000Y-71230000D03*
X92590000Y-70340000D03*
X107250000Y-77000000D03*
X87700000Y-59680000D03*
X112000000Y-65000000D03*
X64330000Y-36350000D03*
X124250000Y-63750000D03*
X48980000Y-55260000D03*
X85750000Y-43750000D03*
X108000000Y-56250000D03*
X115000000Y-65000000D03*
X86700000Y-59680000D03*
X114000000Y-64000000D03*
X85750000Y-45750000D03*
X113000000Y-65000000D03*
X88490000Y-80130000D03*
X126100000Y-42000000D03*
X50590000Y-70230000D03*
X103750000Y-47000000D03*
X96580000Y-84880000D03*
X51590000Y-71230000D03*
X106250000Y-76000000D03*
X83500000Y-76250000D03*
X50980000Y-56260000D03*
X108990000Y-41160000D03*
X131750000Y-84750000D03*
X91590000Y-70340000D03*
X107990000Y-42160000D03*
X50980000Y-55260000D03*
X48590000Y-70230000D03*
X48560000Y-48450000D03*
X107000000Y-54250000D03*
X129750000Y-85750000D03*
X95580000Y-84880000D03*
X68500000Y-73750000D03*
X108990000Y-40160000D03*
X113000000Y-64000000D03*
X66330000Y-39350000D03*
X87490000Y-80130000D03*
X132750000Y-84750000D03*
X64330000Y-39350000D03*
X108000000Y-55250000D03*
X107250000Y-75000000D03*
X131750000Y-83750000D03*
X87700000Y-60680000D03*
X112000000Y-64000000D03*
X114000000Y-66000000D03*
X130750000Y-84750000D03*
X109000000Y-56250000D03*
X94750000Y-53000000D03*
X107990000Y-41160000D03*
X130750000Y-83750000D03*
X132750000Y-83750000D03*
X129750000Y-83750000D03*
X124250000Y-61750000D03*
X123250000Y-64750000D03*
X124600000Y-42000000D03*
X83750000Y-44750000D03*
X65330000Y-39350000D03*
X67500000Y-73750000D03*
X94580000Y-85880000D03*
X69500000Y-73750000D03*
X123250000Y-63750000D03*
X70500000Y-71750000D03*
X84750000Y-44750000D03*
X106250000Y-75000000D03*
X88700000Y-60680000D03*
X85750000Y-42750000D03*
X68500000Y-71750000D03*
X84500000Y-76250000D03*
X84750000Y-42750000D03*
X109990000Y-42160000D03*
X123250000Y-62750000D03*
X68500000Y-72750000D03*
X69500000Y-72750000D03*
X51980000Y-55260000D03*
X93580000Y-84880000D03*
X123100000Y-42000000D03*
X105500000Y-45750000D03*
X129750000Y-84750000D03*
X130750000Y-85750000D03*
X107990000Y-39160000D03*
X65330000Y-38350000D03*
X132750000Y-85750000D03*
X65330000Y-36350000D03*
X106250000Y-74000000D03*
X108000000Y-54250000D03*
X64330000Y-38350000D03*
X93750000Y-53000000D03*
X108990000Y-42160000D03*
X91590000Y-72340000D03*
X124250000Y-64750000D03*
X107250000Y-74000000D03*
X109000000Y-55250000D03*
X106250000Y-77000000D03*
X83750000Y-45750000D03*
X47560000Y-47450000D03*
X47560000Y-48450000D03*
X106000000Y-56250000D03*
X109000000Y-54250000D03*
X85750000Y-44750000D03*
X109990000Y-41160000D03*
X96580000Y-85880000D03*
X115000000Y-64000000D03*
X87860000Y-68740000D03*
X82500000Y-76250000D03*
X70500000Y-72750000D03*
X114000000Y-65000000D03*
X49980000Y-55260000D03*
X93580000Y-85880000D03*
X95580000Y-85880000D03*
X94580000Y-84880000D03*
X49590000Y-70230000D03*
X48560000Y-47450000D03*
X106000000Y-55250000D03*
X115000000Y-66000000D03*
X49590000Y-71230000D03*
X94240500Y-74530000D03*
X103064500Y-52950000D03*
X82870000Y-80170000D03*
X78850000Y-80360000D03*
X84550000Y-79770000D03*
X79610000Y-79360000D03*
X110730000Y-59630000D03*
X116597299Y-58212701D03*
X125180000Y-70230000D03*
X128800000Y-40960000D03*
X110860000Y-72140000D03*
X122190000Y-72645500D03*
X97040000Y-59050000D03*
X73030000Y-58210000D03*
X95790000Y-41050000D03*
X117410000Y-41500000D03*
X96790000Y-41990000D03*
X118700000Y-41500000D03*
X97790000Y-43040000D03*
X119910000Y-41500000D03*
X130250000Y-51800000D03*
X114460000Y-74150000D03*
X124150000Y-49760500D03*
X88890000Y-41390000D03*
X87890000Y-40630000D03*
X127360000Y-51360000D03*
X80410000Y-50920000D03*
X73620000Y-34580000D03*
X79880000Y-55490000D03*
X118325000Y-52965000D03*
X116940000Y-51225500D03*
X129524500Y-67275500D03*
X113224500Y-73790000D03*
X112150000Y-71600000D03*
X120700000Y-70600000D03*
X102340000Y-72290000D03*
X102340000Y-54300000D03*
X105280000Y-42180000D03*
X123300000Y-37100000D03*
X87225000Y-64225000D03*
X88750000Y-65590000D03*
D22*
X103064500Y-73335500D02*
X103064500Y-52950000D01*
X94240500Y-74530000D02*
X101870000Y-74530000D01*
X101870000Y-74530000D02*
X103064500Y-73335500D01*
X78850000Y-80360000D02*
X79040000Y-80170000D01*
X79040000Y-80170000D02*
X82870000Y-80170000D01*
X79610000Y-79360000D02*
X84140000Y-79360000D01*
X84140000Y-79360000D02*
X84550000Y-79770000D01*
X121500000Y-68500000D02*
X121500000Y-60250000D01*
X121500000Y-60250000D02*
X119462701Y-58212701D01*
X116597299Y-58212701D02*
X116597299Y-58902701D01*
X125180000Y-70230000D02*
X123230000Y-70230000D01*
X119462701Y-58212701D02*
X116597299Y-58212701D01*
X116597299Y-58902701D02*
X115870000Y-59630000D01*
X115870000Y-59630000D02*
X110730000Y-59630000D01*
X123230000Y-70230000D02*
X121500000Y-68500000D01*
X122190000Y-72645500D02*
X128181708Y-72645500D01*
X128800000Y-72027208D02*
X128800000Y-40960000D01*
X111365500Y-72645500D02*
X122190000Y-72645500D01*
X128181708Y-72645500D02*
X128800000Y-72027208D01*
X110860000Y-72140000D02*
X111365500Y-72645500D01*
X96200000Y-58210000D02*
X97040000Y-59050000D01*
X73030000Y-58210000D02*
X96200000Y-58210000D01*
X95790000Y-41050000D02*
X99100000Y-41050000D01*
X115597212Y-43312788D02*
X117410000Y-41500000D01*
X99100000Y-41050000D02*
X101362788Y-43312788D01*
X101362788Y-43312788D02*
X115597212Y-43312788D01*
X101030000Y-43920000D02*
X117680000Y-43920000D01*
X96790000Y-41990000D02*
X99100000Y-41990000D01*
X99100000Y-41990000D02*
X101030000Y-43920000D01*
X117680000Y-43920000D02*
X118700000Y-42900000D01*
X118700000Y-42900000D02*
X118700000Y-41500000D01*
X119910000Y-42670000D02*
X119910000Y-41500000D01*
X100530000Y-44370000D02*
X118210000Y-44370000D01*
X99200000Y-43040000D02*
X100530000Y-44370000D01*
X118210000Y-44370000D02*
X119910000Y-42670000D01*
X97790000Y-43040000D02*
X99200000Y-43040000D01*
X114470000Y-74160000D02*
X127940000Y-74160000D01*
X114460000Y-74150000D02*
X114470000Y-74160000D01*
X130250000Y-71850000D02*
X130250000Y-51800000D01*
X127940000Y-74160000D02*
X130250000Y-71850000D01*
X90100500Y-49760500D02*
X124150000Y-49760500D01*
X88890000Y-48550000D02*
X90100500Y-49760500D01*
X88890000Y-41390000D02*
X88890000Y-48550000D01*
X89585000Y-50485000D02*
X126485000Y-50485000D01*
X126485000Y-50485000D02*
X127360000Y-51360000D01*
X87890000Y-48790000D02*
X89585000Y-50485000D01*
X87890000Y-40630000D02*
X87890000Y-48790000D01*
D23*
X74060000Y-34140000D02*
X77410000Y-34140000D01*
D24*
X80410000Y-54960000D02*
X79880000Y-55490000D01*
D23*
X73620000Y-34580000D02*
X74060000Y-34140000D01*
X77410000Y-34140000D02*
X81010000Y-34140000D01*
D24*
X80410000Y-50920000D02*
X80410000Y-54960000D01*
D22*
X118325000Y-52965000D02*
X117310000Y-51950000D01*
X80940000Y-41990000D02*
X76650000Y-41990000D01*
X76650000Y-41990000D02*
X75030000Y-40370000D01*
X82360000Y-51950000D02*
X81440000Y-51030000D01*
X75460000Y-37950000D02*
X77410000Y-37950000D01*
X81440000Y-42490000D02*
X80940000Y-41990000D01*
X81440000Y-51030000D02*
X81440000Y-42490000D01*
X75030000Y-40370000D02*
X75030000Y-38380000D01*
X117310000Y-51950000D02*
X82360000Y-51950000D01*
X75030000Y-38380000D02*
X75460000Y-37950000D01*
X77410000Y-40830000D02*
X77860000Y-41280000D01*
X82140000Y-50610000D02*
X82755500Y-51225500D01*
X77410000Y-39220000D02*
X77410000Y-40830000D01*
X82755500Y-51225500D02*
X116940000Y-51225500D01*
X81160000Y-41280000D02*
X82140000Y-42260000D01*
X82140000Y-42260000D02*
X82140000Y-50610000D01*
X77860000Y-41280000D02*
X81160000Y-41280000D01*
X113644500Y-73370000D02*
X128093604Y-73370000D01*
X113224500Y-73790000D02*
X113644500Y-73370000D01*
X129524500Y-71939104D02*
X129524500Y-67275500D01*
X128093604Y-73370000D02*
X129524500Y-71939104D01*
X112700000Y-71050000D02*
X120250000Y-71050000D01*
X112150000Y-71600000D02*
X112700000Y-71050000D01*
X120250000Y-71050000D02*
X120700000Y-70600000D01*
X122600000Y-36400000D02*
X107300000Y-36400000D01*
X107300000Y-36400000D02*
X105280000Y-38420000D01*
X123300000Y-37100000D02*
X122600000Y-36400000D01*
X105280000Y-38420000D02*
X105280000Y-42180000D01*
X102340000Y-72290000D02*
X102340000Y-54300000D01*
X88590000Y-65590000D02*
X87225000Y-64225000D01*
X88750000Y-65590000D02*
X88590000Y-65590000D01*
G04 #@! TA.AperFunction,Conductor*
G36*
X52869445Y-29125977D02*
G01*
X52896112Y-29170872D01*
X52927119Y-29262213D01*
X53043108Y-29497411D01*
X53188805Y-29715458D01*
X53361717Y-29912621D01*
X53364813Y-29915336D01*
X53364819Y-29915342D01*
X53555779Y-30082804D01*
X53555786Y-30082810D01*
X53558885Y-30085527D01*
X53776935Y-30231219D01*
X54012136Y-30347202D01*
X54016031Y-30348524D01*
X54016038Y-30348527D01*
X54198917Y-30410601D01*
X54260465Y-30431492D01*
X54264507Y-30432296D01*
X54264511Y-30432297D01*
X54513633Y-30481844D01*
X54513635Y-30481844D01*
X54517671Y-30482647D01*
X54521780Y-30482916D01*
X54521786Y-30482917D01*
X54745891Y-30497600D01*
X54758549Y-30499075D01*
X54761757Y-30499614D01*
X54766999Y-30500496D01*
X54779353Y-30500647D01*
X54784177Y-30499956D01*
X54805995Y-30496831D01*
X54824024Y-30495558D01*
X56166228Y-30497296D01*
X58591020Y-30500436D01*
X58610239Y-30501937D01*
X58624947Y-30504228D01*
X58624954Y-30504228D01*
X58633823Y-30505609D01*
X58647459Y-30503826D01*
X58673674Y-30503150D01*
X58849045Y-30516952D01*
X58868572Y-30520045D01*
X59062833Y-30566683D01*
X59081627Y-30572789D01*
X59266209Y-30649245D01*
X59283807Y-30658212D01*
X59454154Y-30762602D01*
X59470145Y-30774221D01*
X59622055Y-30903964D01*
X59636036Y-30917945D01*
X59765779Y-31069855D01*
X59777398Y-31085846D01*
X59881788Y-31256193D01*
X59890755Y-31273791D01*
X59911748Y-31324473D01*
X59967209Y-31458368D01*
X59973319Y-31477172D01*
X60019955Y-31671427D01*
X60023048Y-31690955D01*
X60036305Y-31859400D01*
X60035675Y-31875972D01*
X60035882Y-31875975D01*
X60035772Y-31884952D01*
X60034391Y-31893823D01*
X60035555Y-31902725D01*
X60035555Y-31902728D01*
X60038436Y-31924756D01*
X60039500Y-31941093D01*
X60039500Y-45991426D01*
X60039498Y-45992196D01*
X60039031Y-46068624D01*
X60039740Y-46071106D01*
X60040000Y-46074912D01*
X60040000Y-60922764D01*
X60039839Y-60924931D01*
X60039740Y-60925261D01*
X60039733Y-60926345D01*
X60039733Y-60926350D01*
X60039533Y-60959169D01*
X60039501Y-60959925D01*
X60039333Y-60961009D01*
X60039333Y-60991426D01*
X60039331Y-60992196D01*
X60038864Y-61068624D01*
X60039244Y-61069953D01*
X60039333Y-61071263D01*
X60039333Y-85021259D01*
X60037833Y-85040643D01*
X60034224Y-85063823D01*
X60035388Y-85072726D01*
X60035388Y-85072727D01*
X60036021Y-85077571D01*
X60036702Y-85103706D01*
X60023155Y-85277316D01*
X60020114Y-85296685D01*
X59975039Y-85486095D01*
X59974247Y-85489421D01*
X59968238Y-85508083D01*
X59893026Y-85691373D01*
X59884194Y-85708877D01*
X59781465Y-85878270D01*
X59770025Y-85894192D01*
X59642250Y-86045613D01*
X59628479Y-86059567D01*
X59486026Y-86183037D01*
X59478778Y-86189319D01*
X59463009Y-86200969D01*
X59294979Y-86305935D01*
X59277594Y-86314997D01*
X59095315Y-86392627D01*
X59076734Y-86398882D01*
X58968646Y-86426121D01*
X58884621Y-86447296D01*
X58865301Y-86450592D01*
X58795539Y-86456965D01*
X58698657Y-86465816D01*
X58682186Y-86465404D01*
X58682186Y-86465609D01*
X58673212Y-86465618D01*
X58664322Y-86464354D01*
X58637208Y-86468265D01*
X58619376Y-86469556D01*
X56454549Y-86472202D01*
X54627997Y-86474435D01*
X54606944Y-86472690D01*
X54592791Y-86470309D01*
X54592782Y-86470308D01*
X54588001Y-86469504D01*
X54575647Y-86469353D01*
X54570824Y-86470044D01*
X54570821Y-86470044D01*
X54569949Y-86470169D01*
X54560340Y-86471170D01*
X54318081Y-86487055D01*
X54318076Y-86487056D01*
X54313968Y-86487325D01*
X54217522Y-86506512D01*
X54060817Y-86537686D01*
X54060810Y-86537688D01*
X54056768Y-86538492D01*
X53808447Y-86622791D01*
X53767816Y-86642829D01*
X53576953Y-86736957D01*
X53576950Y-86736959D01*
X53573253Y-86738782D01*
X53518494Y-86775372D01*
X53358644Y-86882183D01*
X53358640Y-86882186D01*
X53355210Y-86884478D01*
X53158050Y-87057388D01*
X52985145Y-87254553D01*
X52839455Y-87472599D01*
X52723471Y-87707796D01*
X52722151Y-87711686D01*
X52722145Y-87711701D01*
X52714075Y-87735476D01*
X52673238Y-87793552D01*
X52607486Y-87820331D01*
X52537693Y-87807310D01*
X52495407Y-87772463D01*
X52369377Y-87610863D01*
X52139738Y-87380018D01*
X52039690Y-87301146D01*
X51887010Y-87180783D01*
X51884029Y-87178433D01*
X51605954Y-87009029D01*
X51487453Y-86955150D01*
X51312994Y-86875827D01*
X51312986Y-86875824D01*
X51309542Y-86874258D01*
X50999085Y-86776073D01*
X50813164Y-86741111D01*
X50682805Y-86716597D01*
X50682800Y-86716596D01*
X50679081Y-86715897D01*
X50354166Y-86694601D01*
X50350386Y-86694809D01*
X50350385Y-86694809D01*
X50253156Y-86700160D01*
X50029045Y-86712494D01*
X50025318Y-86713155D01*
X50025314Y-86713155D01*
X49766625Y-86759001D01*
X49708429Y-86769315D01*
X49704804Y-86770420D01*
X49704799Y-86770421D01*
X49503196Y-86831866D01*
X49396961Y-86864244D01*
X49393497Y-86865775D01*
X49393490Y-86865778D01*
X49209938Y-86946926D01*
X49099153Y-86995903D01*
X49095899Y-86997839D01*
X49095893Y-86997842D01*
X48822578Y-87160447D01*
X48819319Y-87162386D01*
X48816318Y-87164701D01*
X48816314Y-87164704D01*
X48695406Y-87257984D01*
X48561513Y-87361282D01*
X48558812Y-87363941D01*
X48558805Y-87363947D01*
X48332177Y-87587044D01*
X48329469Y-87589710D01*
X48327105Y-87592677D01*
X48327102Y-87592680D01*
X48198504Y-87754061D01*
X48140409Y-87794870D01*
X48069472Y-87797793D01*
X48008217Y-87761900D01*
X47980654Y-87716050D01*
X47977849Y-87707787D01*
X47931525Y-87613858D01*
X47863686Y-87476307D01*
X47863684Y-87476304D01*
X47861857Y-87472599D01*
X47859563Y-87469166D01*
X47859561Y-87469162D01*
X47718456Y-87257998D01*
X47716161Y-87254563D01*
X47543255Y-87057408D01*
X47434072Y-86961659D01*
X47349186Y-86887217D01*
X47349181Y-86887213D01*
X47346094Y-86884506D01*
X47128054Y-86738816D01*
X46892864Y-86622831D01*
X46644548Y-86538534D01*
X46640501Y-86537729D01*
X46640494Y-86537727D01*
X46391396Y-86488171D01*
X46391391Y-86488170D01*
X46387353Y-86487367D01*
X46383246Y-86487098D01*
X46383241Y-86487097D01*
X46287946Y-86480848D01*
X46159124Y-86472400D01*
X46146475Y-86470924D01*
X46138034Y-86469504D01*
X46131840Y-86469428D01*
X46130547Y-86469412D01*
X46130541Y-86469412D01*
X46125680Y-86469353D01*
X46120864Y-86470042D01*
X46120856Y-86470043D01*
X46098989Y-86473174D01*
X46080981Y-86474446D01*
X45335728Y-86473545D01*
X42047321Y-86469569D01*
X42024791Y-86467510D01*
X42009635Y-86464735D01*
X41995739Y-86466177D01*
X41969680Y-86466171D01*
X41798188Y-86448299D01*
X41779075Y-86444802D01*
X41670335Y-86416078D01*
X41589083Y-86394615D01*
X41570729Y-86388216D01*
X41390721Y-86309408D01*
X41373570Y-86300262D01*
X41207835Y-86194711D01*
X41192294Y-86183037D01*
X41044754Y-86053242D01*
X41031194Y-86039316D01*
X40905372Y-85888371D01*
X40894126Y-85872541D01*
X40793010Y-85704030D01*
X40784329Y-85686650D01*
X40710342Y-85504612D01*
X40704434Y-85486095D01*
X40659325Y-85294842D01*
X40656335Y-85275635D01*
X40643597Y-85110979D01*
X40644252Y-85094028D01*
X40644118Y-85094026D01*
X40644228Y-85085047D01*
X40645609Y-85076177D01*
X40641564Y-85045243D01*
X40640500Y-85028907D01*
X40640500Y-31952576D01*
X40642246Y-31931671D01*
X40644689Y-31917148D01*
X40645496Y-31912354D01*
X40645647Y-31900000D01*
X40644305Y-31890630D01*
X40643421Y-31862885D01*
X40656952Y-31690955D01*
X40660045Y-31671427D01*
X40706681Y-31477172D01*
X40712791Y-31458368D01*
X40768252Y-31324473D01*
X40789245Y-31273791D01*
X40798212Y-31256193D01*
X40902602Y-31085846D01*
X40914221Y-31069855D01*
X41043964Y-30917945D01*
X41057945Y-30903964D01*
X41209855Y-30774221D01*
X41225846Y-30762602D01*
X41396193Y-30658212D01*
X41413791Y-30649245D01*
X41598373Y-30572789D01*
X41617167Y-30566683D01*
X41811428Y-30520045D01*
X41830955Y-30516952D01*
X41975081Y-30505609D01*
X41999400Y-30503695D01*
X42015975Y-30504325D01*
X42015978Y-30504118D01*
X42024952Y-30504228D01*
X42033823Y-30505609D01*
X42042725Y-30504445D01*
X42042727Y-30504445D01*
X42065132Y-30501516D01*
X42081319Y-30500453D01*
X44493867Y-30497640D01*
X46276998Y-30495561D01*
X46298039Y-30497306D01*
X46316999Y-30500496D01*
X46329353Y-30500647D01*
X46334176Y-30499956D01*
X46334179Y-30499956D01*
X46335051Y-30499831D01*
X46344660Y-30498830D01*
X46586919Y-30482945D01*
X46586924Y-30482944D01*
X46591032Y-30482675D01*
X46687478Y-30463488D01*
X46844183Y-30432314D01*
X46844190Y-30432312D01*
X46848232Y-30431508D01*
X47096553Y-30347209D01*
X47204608Y-30293919D01*
X47328047Y-30233043D01*
X47328050Y-30233041D01*
X47331747Y-30231218D01*
X47479070Y-30132777D01*
X47546356Y-30087817D01*
X47546360Y-30087814D01*
X47549790Y-30085522D01*
X47746950Y-29912612D01*
X47919855Y-29715447D01*
X48065545Y-29497401D01*
X48181529Y-29262204D01*
X48197679Y-29214628D01*
X48238513Y-29156553D01*
X48304266Y-29129773D01*
X48374058Y-29142793D01*
X48417154Y-29178687D01*
X48479038Y-29259775D01*
X48479043Y-29259781D01*
X48481338Y-29262788D01*
X48540286Y-29323300D01*
X48692274Y-29479319D01*
X48708548Y-29496025D01*
X48962132Y-29700276D01*
X49238418Y-29872583D01*
X49533403Y-30010451D01*
X49537012Y-30011634D01*
X49806312Y-30099915D01*
X49842814Y-30111881D01*
X50162170Y-30175405D01*
X50165942Y-30175692D01*
X50165950Y-30175693D01*
X50483068Y-30199815D01*
X50483073Y-30199815D01*
X50486845Y-30200102D01*
X50812135Y-30185615D01*
X51133329Y-30132154D01*
X51445774Y-30040493D01*
X51744944Y-29911959D01*
X51748222Y-29910055D01*
X51748228Y-29910052D01*
X51988350Y-29770577D01*
X52026505Y-29748415D01*
X52286380Y-29552230D01*
X52408763Y-29434253D01*
X52518070Y-29328881D01*
X52518073Y-29328877D01*
X52520804Y-29326245D01*
X52679088Y-29131823D01*
X52737606Y-29091625D01*
X52808569Y-29089445D01*
X52869445Y-29125977D01*
G37*
G04 #@! TD.AperFunction*
G04 #@! TA.AperFunction,Conductor*
G36*
X132842106Y-29371015D02*
G01*
X132888606Y-29424664D01*
X132900000Y-29477022D01*
X132900000Y-37613500D01*
X132879998Y-37681621D01*
X132826342Y-37728114D01*
X132774000Y-37739500D01*
X132604824Y-37739500D01*
X132604054Y-37739498D01*
X132603283Y-37739493D01*
X132527626Y-37739031D01*
X132499768Y-37746993D01*
X132483009Y-37750571D01*
X132473606Y-37751917D01*
X132463221Y-37753404D01*
X132463220Y-37753404D01*
X132454332Y-37754677D01*
X132446158Y-37758393D01*
X132446156Y-37758394D01*
X132431462Y-37765075D01*
X132413938Y-37771523D01*
X132398405Y-37775962D01*
X132398401Y-37775964D01*
X132389779Y-37778428D01*
X132382191Y-37783215D01*
X132382192Y-37783215D01*
X132365274Y-37793889D01*
X132350192Y-37802026D01*
X132331998Y-37810298D01*
X132331995Y-37810300D01*
X132323822Y-37814016D01*
X132317019Y-37819878D01*
X132304787Y-37830418D01*
X132289774Y-37841527D01*
X132268530Y-37854930D01*
X132262587Y-37861659D01*
X132262585Y-37861661D01*
X132249353Y-37876644D01*
X132237159Y-37888690D01*
X132222014Y-37901740D01*
X132215213Y-37907600D01*
X132201546Y-37928686D01*
X132190261Y-37943554D01*
X132173627Y-37962388D01*
X132163182Y-37984635D01*
X132161317Y-37988607D01*
X132152996Y-38003587D01*
X132142119Y-38020369D01*
X132142118Y-38020372D01*
X132137235Y-38027905D01*
X132130035Y-38051981D01*
X132123379Y-38069411D01*
X132112697Y-38092163D01*
X132111316Y-38101032D01*
X132108240Y-38120787D01*
X132104457Y-38137505D01*
X132098728Y-38156660D01*
X132098727Y-38156668D01*
X132096157Y-38165261D01*
X132095972Y-38195581D01*
X132095950Y-38199169D01*
X132095918Y-38199925D01*
X132095750Y-38201009D01*
X132095750Y-38231426D01*
X132095748Y-38232196D01*
X132095281Y-38308624D01*
X132095661Y-38309953D01*
X132095750Y-38311263D01*
X132095750Y-56731426D01*
X132095748Y-56732196D01*
X132095281Y-56808624D01*
X132097747Y-56817251D01*
X132103242Y-56836476D01*
X132106821Y-56853241D01*
X132110927Y-56881918D01*
X132114643Y-56890092D01*
X132114644Y-56890094D01*
X132121325Y-56904788D01*
X132127773Y-56922312D01*
X132132212Y-56937845D01*
X132132214Y-56937849D01*
X132134678Y-56946471D01*
X132139465Y-56954058D01*
X132150139Y-56970976D01*
X132158276Y-56986058D01*
X132166548Y-57004252D01*
X132166550Y-57004255D01*
X132170266Y-57012428D01*
X132176128Y-57019231D01*
X132186668Y-57031463D01*
X132197777Y-57046476D01*
X132211180Y-57067720D01*
X132217909Y-57073663D01*
X132217911Y-57073665D01*
X132232894Y-57086897D01*
X132244940Y-57099091D01*
X132257990Y-57114236D01*
X132263850Y-57121037D01*
X132284936Y-57134704D01*
X132299804Y-57145989D01*
X132318638Y-57162623D01*
X132344857Y-57174933D01*
X132359837Y-57183254D01*
X132376619Y-57194131D01*
X132376622Y-57194132D01*
X132384155Y-57199015D01*
X132408231Y-57206215D01*
X132425661Y-57212871D01*
X132448413Y-57223553D01*
X132457282Y-57224934D01*
X132477037Y-57228010D01*
X132493755Y-57231793D01*
X132512910Y-57237522D01*
X132512918Y-57237523D01*
X132521511Y-57240093D01*
X132530482Y-57240148D01*
X132530483Y-57240148D01*
X132535212Y-57240177D01*
X132555432Y-57240301D01*
X132556175Y-57240332D01*
X132557259Y-57240500D01*
X132587676Y-57240500D01*
X132588447Y-57240502D01*
X132664874Y-57240969D01*
X132666203Y-57240589D01*
X132667513Y-57240500D01*
X132774000Y-57240500D01*
X132842121Y-57260502D01*
X132888614Y-57314158D01*
X132900000Y-57366500D01*
X132900000Y-71500000D01*
X138254000Y-71500000D01*
X138322121Y-71520002D01*
X138368614Y-71573658D01*
X138380000Y-71626000D01*
X138380000Y-83952599D01*
X138359998Y-84020720D01*
X138306342Y-84067213D01*
X138236068Y-84077317D01*
X138188447Y-84060204D01*
X138041111Y-83970447D01*
X138005954Y-83949029D01*
X137873464Y-83888789D01*
X137712994Y-83815827D01*
X137712986Y-83815824D01*
X137709542Y-83814258D01*
X137399085Y-83716073D01*
X137195924Y-83677869D01*
X137082805Y-83656597D01*
X137082800Y-83656596D01*
X137079081Y-83655897D01*
X136754166Y-83634601D01*
X136750386Y-83634809D01*
X136750385Y-83634809D01*
X136653156Y-83640160D01*
X136429045Y-83652494D01*
X136425318Y-83653155D01*
X136425314Y-83653155D01*
X136240961Y-83685827D01*
X136108429Y-83709315D01*
X136104804Y-83710420D01*
X136104799Y-83710421D01*
X135903196Y-83771866D01*
X135796961Y-83804244D01*
X135793497Y-83805775D01*
X135793490Y-83805778D01*
X135704168Y-83845267D01*
X135499153Y-83935903D01*
X135495899Y-83937839D01*
X135495893Y-83937842D01*
X135261456Y-84077317D01*
X135219319Y-84102386D01*
X135216318Y-84104701D01*
X135216314Y-84104704D01*
X135138611Y-84164652D01*
X134961513Y-84301282D01*
X134958812Y-84303941D01*
X134958805Y-84303947D01*
X134732177Y-84527044D01*
X134729469Y-84529710D01*
X134526548Y-84784360D01*
X134355690Y-85061544D01*
X134219369Y-85357247D01*
X134218210Y-85360848D01*
X134218207Y-85360854D01*
X134152575Y-85564663D01*
X134119560Y-85667185D01*
X134118841Y-85670901D01*
X134118839Y-85670909D01*
X134058428Y-85983151D01*
X134058427Y-85983160D01*
X134057709Y-85986870D01*
X134057442Y-85990646D01*
X134057441Y-85990651D01*
X134034980Y-86307880D01*
X134034712Y-86311669D01*
X134034901Y-86315461D01*
X134046067Y-86539750D01*
X134050902Y-86636879D01*
X134051543Y-86640610D01*
X134051544Y-86640618D01*
X134097871Y-86910218D01*
X134106045Y-86957789D01*
X134107133Y-86961428D01*
X134107134Y-86961431D01*
X134173313Y-87182716D01*
X134199341Y-87269749D01*
X134329439Y-87568242D01*
X134331362Y-87571514D01*
X134331364Y-87571517D01*
X134387717Y-87667377D01*
X134494455Y-87848944D01*
X134516557Y-87877905D01*
X134569333Y-87947058D01*
X134594760Y-88013345D01*
X134580313Y-88082856D01*
X134530579Y-88133522D01*
X134469170Y-88149500D01*
X88616959Y-88149500D01*
X88548838Y-88129498D01*
X88502345Y-88075842D01*
X88494430Y-88038932D01*
X88492133Y-88039247D01*
X88490914Y-88030351D01*
X88490969Y-88021376D01*
X88488503Y-88012746D01*
X88488502Y-88012742D01*
X88478411Y-87977435D01*
X88475923Y-87967099D01*
X88475051Y-87962658D01*
X88475051Y-87962657D01*
X88474188Y-87958265D01*
X88472711Y-87954039D01*
X88472709Y-87954031D01*
X88468494Y-87941970D01*
X88466291Y-87935029D01*
X88458696Y-87908456D01*
X88451572Y-87883529D01*
X88446784Y-87875940D01*
X88444456Y-87870736D01*
X88441831Y-87865674D01*
X88438869Y-87857199D01*
X88407706Y-87813611D01*
X88403660Y-87807592D01*
X88375070Y-87762280D01*
X88368338Y-87756335D01*
X88364640Y-87751990D01*
X88360708Y-87747877D01*
X88355487Y-87740574D01*
X88348426Y-87735030D01*
X88348423Y-87735027D01*
X88313355Y-87707493D01*
X88307761Y-87702834D01*
X88274338Y-87673317D01*
X88267612Y-87667377D01*
X88259489Y-87663563D01*
X88254720Y-87660431D01*
X88249785Y-87657583D01*
X88242724Y-87652039D01*
X88193005Y-87632116D01*
X88186327Y-87629213D01*
X88145966Y-87610263D01*
X88145962Y-87610262D01*
X88137837Y-87606447D01*
X88128965Y-87605066D01*
X88123528Y-87603404D01*
X88117982Y-87602053D01*
X88109645Y-87598712D01*
X88056325Y-87593543D01*
X88049103Y-87592631D01*
X88033799Y-87590248D01*
X88033793Y-87590248D01*
X88028991Y-87589500D01*
X88020707Y-87589500D01*
X88008550Y-87588912D01*
X87975880Y-87585745D01*
X87966947Y-87584879D01*
X87958132Y-87586555D01*
X87958125Y-87586555D01*
X87954295Y-87587283D01*
X87930765Y-87589500D01*
X78580258Y-87589500D01*
X78568286Y-87588930D01*
X78526200Y-87584913D01*
X78470249Y-87595635D01*
X78464438Y-87596606D01*
X78416968Y-87603404D01*
X78416965Y-87603405D01*
X78408082Y-87604677D01*
X78399911Y-87608392D01*
X78398505Y-87608803D01*
X78397059Y-87609152D01*
X78396976Y-87609178D01*
X78395582Y-87609734D01*
X78394213Y-87610205D01*
X78385396Y-87611895D01*
X78377408Y-87615991D01*
X78334748Y-87637866D01*
X78329407Y-87640448D01*
X78285746Y-87660299D01*
X78285743Y-87660301D01*
X78277572Y-87664016D01*
X78270771Y-87669876D01*
X78269549Y-87670658D01*
X78268259Y-87671399D01*
X78268164Y-87671463D01*
X78266994Y-87672378D01*
X78265810Y-87673216D01*
X78257824Y-87677311D01*
X78216475Y-87716478D01*
X78212106Y-87720425D01*
X78168963Y-87757600D01*
X78164080Y-87765134D01*
X78163127Y-87766226D01*
X78162088Y-87767308D01*
X78162034Y-87767373D01*
X78161162Y-87768588D01*
X78160257Y-87769730D01*
X78153740Y-87775903D01*
X78131742Y-87813620D01*
X78125054Y-87825086D01*
X78121964Y-87830110D01*
X78090985Y-87877905D01*
X78088414Y-87886502D01*
X78087802Y-87887826D01*
X78087114Y-87889147D01*
X78087073Y-87889239D01*
X78086580Y-87890643D01*
X78086033Y-87891989D01*
X78081510Y-87899745D01*
X78079346Y-87908456D01*
X78067782Y-87955004D01*
X78066216Y-87960726D01*
X78049907Y-88015261D01*
X78049852Y-88024237D01*
X78049852Y-88024269D01*
X78049843Y-88024299D01*
X78048525Y-88033117D01*
X78047252Y-88032927D01*
X78029434Y-88092267D01*
X77975496Y-88138431D01*
X77923854Y-88149500D01*
X65564587Y-88149500D01*
X65496466Y-88129498D01*
X65449973Y-88075842D01*
X65439869Y-88005568D01*
X65466874Y-87943950D01*
X65474137Y-87935029D01*
X65593240Y-87788733D01*
X65766992Y-87513354D01*
X65906402Y-87219095D01*
X66009451Y-86910218D01*
X66074646Y-86591199D01*
X66101043Y-86266658D01*
X66101636Y-86210000D01*
X66099286Y-86171009D01*
X66082269Y-85888755D01*
X66082269Y-85888751D01*
X66082041Y-85884977D01*
X66023542Y-85564663D01*
X65926984Y-85253696D01*
X65793767Y-84956582D01*
X65625821Y-84677624D01*
X65623494Y-84674640D01*
X65623489Y-84674633D01*
X65427913Y-84423858D01*
X65427911Y-84423856D01*
X65425577Y-84420863D01*
X65195938Y-84190018D01*
X65163762Y-84164652D01*
X64943210Y-83990783D01*
X64940229Y-83988433D01*
X64662154Y-83819029D01*
X64480266Y-83736329D01*
X64369194Y-83685827D01*
X64369186Y-83685824D01*
X64365742Y-83684258D01*
X64055285Y-83586073D01*
X63913271Y-83559368D01*
X63739005Y-83526597D01*
X63739000Y-83526596D01*
X63735281Y-83525897D01*
X63410366Y-83504601D01*
X63406586Y-83504809D01*
X63406585Y-83504809D01*
X63309356Y-83510160D01*
X63085245Y-83522494D01*
X63081518Y-83523155D01*
X63081514Y-83523155D01*
X62822825Y-83569001D01*
X62764629Y-83579315D01*
X62761004Y-83580420D01*
X62760999Y-83580421D01*
X62583232Y-83634601D01*
X62453161Y-83674244D01*
X62449697Y-83675775D01*
X62449690Y-83675778D01*
X62312727Y-83736329D01*
X62155353Y-83805903D01*
X62152099Y-83807839D01*
X62152093Y-83807842D01*
X61878778Y-83970447D01*
X61875519Y-83972386D01*
X61704011Y-84104704D01*
X61659715Y-84138878D01*
X61593562Y-84164652D01*
X61523977Y-84150570D01*
X61473051Y-84101102D01*
X61456750Y-84039117D01*
X61456750Y-83088648D01*
X79560927Y-83088648D01*
X79561284Y-83095465D01*
X79561284Y-83095469D01*
X79568999Y-83242669D01*
X79570314Y-83267760D01*
X79572125Y-83274333D01*
X79572125Y-83274336D01*
X79593399Y-83351570D01*
X79617943Y-83440679D01*
X79701594Y-83599336D01*
X79705999Y-83604549D01*
X79706002Y-83604553D01*
X79792233Y-83706593D01*
X79817362Y-83736329D01*
X79822786Y-83740476D01*
X79822787Y-83740477D01*
X79954426Y-83841123D01*
X79954430Y-83841126D01*
X79959847Y-83845267D01*
X80122401Y-83921067D01*
X80297440Y-83960193D01*
X80302931Y-83960500D01*
X80434810Y-83960500D01*
X80568309Y-83945997D01*
X80738300Y-83888789D01*
X80892040Y-83796413D01*
X80951191Y-83740477D01*
X80955577Y-83736329D01*
X81022357Y-83673178D01*
X81033626Y-83656597D01*
X81119336Y-83530477D01*
X81123171Y-83524834D01*
X81125703Y-83518504D01*
X81125705Y-83518500D01*
X81187245Y-83364639D01*
X81187246Y-83364634D01*
X81189779Y-83358302D01*
X81190893Y-83351575D01*
X81190894Y-83351570D01*
X81217958Y-83188090D01*
X81217958Y-83188086D01*
X81219073Y-83181352D01*
X81214215Y-83088648D01*
X85340927Y-83088648D01*
X85341284Y-83095465D01*
X85341284Y-83095469D01*
X85348999Y-83242669D01*
X85350314Y-83267760D01*
X85352125Y-83274333D01*
X85352125Y-83274336D01*
X85373399Y-83351570D01*
X85397943Y-83440679D01*
X85481594Y-83599336D01*
X85485999Y-83604549D01*
X85486002Y-83604553D01*
X85572233Y-83706593D01*
X85597362Y-83736329D01*
X85602786Y-83740476D01*
X85602787Y-83740477D01*
X85734426Y-83841123D01*
X85734430Y-83841126D01*
X85739847Y-83845267D01*
X85902401Y-83921067D01*
X86077440Y-83960193D01*
X86082931Y-83960500D01*
X86214810Y-83960500D01*
X86348309Y-83945997D01*
X86518300Y-83888789D01*
X86672040Y-83796413D01*
X86731191Y-83740477D01*
X86735577Y-83736329D01*
X86802357Y-83673178D01*
X86813626Y-83656597D01*
X86899336Y-83530477D01*
X86903171Y-83524834D01*
X86905703Y-83518504D01*
X86905705Y-83518500D01*
X86967245Y-83364639D01*
X86967246Y-83364634D01*
X86969779Y-83358302D01*
X86970893Y-83351575D01*
X86970894Y-83351570D01*
X86997958Y-83188090D01*
X86997958Y-83188086D01*
X86999073Y-83181352D01*
X86993862Y-83081910D01*
X86990043Y-83009053D01*
X86989686Y-83002240D01*
X86987875Y-82995664D01*
X86943870Y-82835902D01*
X86943869Y-82835899D01*
X86942057Y-82829321D01*
X86858406Y-82670664D01*
X86854001Y-82665451D01*
X86853998Y-82665447D01*
X86747044Y-82538885D01*
X86742638Y-82533671D01*
X86737213Y-82529523D01*
X86605574Y-82428877D01*
X86605570Y-82428874D01*
X86600153Y-82424733D01*
X86437599Y-82348933D01*
X86262560Y-82309807D01*
X86257069Y-82309500D01*
X86125190Y-82309500D01*
X85991691Y-82324003D01*
X85821700Y-82381211D01*
X85667960Y-82473587D01*
X85663000Y-82478278D01*
X85662998Y-82478279D01*
X85607219Y-82531027D01*
X85537643Y-82596822D01*
X85436829Y-82745166D01*
X85434297Y-82751496D01*
X85434295Y-82751500D01*
X85372755Y-82905361D01*
X85372754Y-82905366D01*
X85370221Y-82911698D01*
X85369107Y-82918425D01*
X85369106Y-82918430D01*
X85342042Y-83081910D01*
X85340927Y-83088648D01*
X81214215Y-83088648D01*
X81213862Y-83081910D01*
X81210043Y-83009053D01*
X81209686Y-83002240D01*
X81207875Y-82995664D01*
X81163870Y-82835902D01*
X81163869Y-82835899D01*
X81162057Y-82829321D01*
X81078406Y-82670664D01*
X81074001Y-82665451D01*
X81073998Y-82665447D01*
X80967044Y-82538885D01*
X80962638Y-82533671D01*
X80957213Y-82529523D01*
X80825574Y-82428877D01*
X80825570Y-82428874D01*
X80820153Y-82424733D01*
X80657599Y-82348933D01*
X80482560Y-82309807D01*
X80477069Y-82309500D01*
X80345190Y-82309500D01*
X80211691Y-82324003D01*
X80041700Y-82381211D01*
X79887960Y-82473587D01*
X79883000Y-82478278D01*
X79882998Y-82478279D01*
X79827219Y-82531027D01*
X79757643Y-82596822D01*
X79656829Y-82745166D01*
X79654297Y-82751496D01*
X79654295Y-82751500D01*
X79592755Y-82905361D01*
X79592754Y-82905366D01*
X79590221Y-82911698D01*
X79589107Y-82918425D01*
X79589106Y-82918430D01*
X79562042Y-83081910D01*
X79560927Y-83088648D01*
X61456750Y-83088648D01*
X61456750Y-80360000D01*
X77944540Y-80360000D01*
X77964326Y-80548256D01*
X78022821Y-80728284D01*
X78026124Y-80734006D01*
X78026125Y-80734007D01*
X78091227Y-80846767D01*
X78117467Y-80892216D01*
X78121885Y-80897123D01*
X78121886Y-80897124D01*
X78173234Y-80954151D01*
X78244129Y-81032888D01*
X78397270Y-81144151D01*
X78570197Y-81221144D01*
X78668212Y-81241978D01*
X78748897Y-81259128D01*
X78748901Y-81259128D01*
X78755354Y-81260500D01*
X78944646Y-81260500D01*
X78951099Y-81259128D01*
X78951103Y-81259128D01*
X79031788Y-81241978D01*
X79129803Y-81221144D01*
X79302730Y-81144151D01*
X79455871Y-81032888D01*
X79526767Y-80954151D01*
X79578114Y-80897124D01*
X79578115Y-80897123D01*
X79582533Y-80892216D01*
X79601999Y-80858500D01*
X79653382Y-80809507D01*
X79711118Y-80795500D01*
X82165362Y-80795500D01*
X82233483Y-80815502D01*
X82254770Y-80833597D01*
X82254802Y-80833561D01*
X82256050Y-80834685D01*
X82259002Y-80837194D01*
X82264129Y-80842888D01*
X82269471Y-80846769D01*
X82269473Y-80846771D01*
X82411928Y-80950270D01*
X82417270Y-80954151D01*
X82590197Y-81031144D01*
X82688212Y-81051978D01*
X82768897Y-81069128D01*
X82768901Y-81069128D01*
X82775354Y-81070500D01*
X82964646Y-81070500D01*
X82971099Y-81069128D01*
X82971103Y-81069128D01*
X83051788Y-81051978D01*
X83149803Y-81031144D01*
X83322730Y-80954151D01*
X83475871Y-80842888D01*
X83505928Y-80809507D01*
X83598114Y-80707124D01*
X83598115Y-80707123D01*
X83602533Y-80702216D01*
X83645119Y-80628455D01*
X83693875Y-80544007D01*
X83693876Y-80544006D01*
X83697179Y-80538284D01*
X83718001Y-80474202D01*
X83758073Y-80415597D01*
X83823470Y-80387960D01*
X83893427Y-80400067D01*
X83931468Y-80428827D01*
X83944129Y-80442888D01*
X84097270Y-80554151D01*
X84270197Y-80631144D01*
X84368212Y-80651978D01*
X84448897Y-80669128D01*
X84448901Y-80669128D01*
X84455354Y-80670500D01*
X84644646Y-80670500D01*
X84651099Y-80669128D01*
X84651103Y-80669128D01*
X84731788Y-80651978D01*
X84829803Y-80631144D01*
X85002730Y-80554151D01*
X85155871Y-80442888D01*
X85194428Y-80400067D01*
X85278114Y-80307124D01*
X85278115Y-80307123D01*
X85282533Y-80302216D01*
X85357861Y-80171744D01*
X85373875Y-80144007D01*
X85373876Y-80144006D01*
X85377179Y-80138284D01*
X85435674Y-79958256D01*
X85455460Y-79770000D01*
X85446341Y-79683233D01*
X85436364Y-79588307D01*
X85436364Y-79588305D01*
X85435674Y-79581744D01*
X85377179Y-79401716D01*
X85282533Y-79237784D01*
X85223070Y-79171744D01*
X85160286Y-79102015D01*
X85160284Y-79102014D01*
X85155871Y-79097112D01*
X85019456Y-78998001D01*
X85008072Y-78989730D01*
X85008071Y-78989729D01*
X85002730Y-78985849D01*
X84829803Y-78908856D01*
X84731788Y-78888022D01*
X84651103Y-78870872D01*
X84651099Y-78870872D01*
X84644646Y-78869500D01*
X84576756Y-78869500D01*
X84511488Y-78848294D01*
X84510584Y-78849939D01*
X84493168Y-78840365D01*
X84476638Y-78829507D01*
X84467200Y-78822186D01*
X84460936Y-78817327D01*
X84420942Y-78800020D01*
X84410282Y-78794798D01*
X84405041Y-78791917D01*
X84372092Y-78773803D01*
X84352836Y-78768859D01*
X84334147Y-78762460D01*
X84315896Y-78754562D01*
X84272841Y-78747743D01*
X84261237Y-78745340D01*
X84219019Y-78734500D01*
X84199144Y-78734500D01*
X84179434Y-78732949D01*
X84167633Y-78731080D01*
X84159804Y-78729840D01*
X84151912Y-78730586D01*
X84116421Y-78733941D01*
X84104563Y-78734500D01*
X80314638Y-78734500D01*
X80246517Y-78714498D01*
X80225230Y-78696403D01*
X80225198Y-78696439D01*
X80223950Y-78695315D01*
X80220998Y-78692806D01*
X80220291Y-78692021D01*
X80215871Y-78687112D01*
X80210529Y-78683231D01*
X80210527Y-78683229D01*
X80068072Y-78579730D01*
X80068071Y-78579729D01*
X80062730Y-78575849D01*
X79889803Y-78498856D01*
X79791788Y-78478022D01*
X79711103Y-78460872D01*
X79711099Y-78460872D01*
X79704646Y-78459500D01*
X79515354Y-78459500D01*
X79508901Y-78460872D01*
X79508897Y-78460872D01*
X79428212Y-78478022D01*
X79330197Y-78498856D01*
X79157270Y-78575849D01*
X79004129Y-78687112D01*
X78999716Y-78692014D01*
X78999714Y-78692015D01*
X78882507Y-78822186D01*
X78877467Y-78827784D01*
X78782821Y-78991716D01*
X78724326Y-79171744D01*
X78704540Y-79360000D01*
X78705230Y-79366565D01*
X78705230Y-79368121D01*
X78685228Y-79436242D01*
X78631572Y-79482735D01*
X78605426Y-79491368D01*
X78570197Y-79498856D01*
X78397270Y-79575849D01*
X78244129Y-79687112D01*
X78117467Y-79827784D01*
X78114164Y-79833505D01*
X78038515Y-79964534D01*
X78022821Y-79991716D01*
X77964326Y-80171744D01*
X77963636Y-80178305D01*
X77963636Y-80178307D01*
X77951214Y-80296495D01*
X77944540Y-80360000D01*
X61456750Y-80360000D01*
X61456750Y-76072623D01*
X61749500Y-76072623D01*
X61749501Y-79667376D01*
X61749870Y-79670770D01*
X61749870Y-79670776D01*
X61751645Y-79687112D01*
X61756149Y-79728580D01*
X61806474Y-79862824D01*
X61811854Y-79870003D01*
X61811856Y-79870006D01*
X61873078Y-79951693D01*
X61892454Y-79977546D01*
X61899635Y-79982928D01*
X61999994Y-80058144D01*
X61999997Y-80058146D01*
X62007176Y-80063526D01*
X62096561Y-80097034D01*
X62134025Y-80111079D01*
X62134027Y-80111079D01*
X62141420Y-80113851D01*
X62149270Y-80114704D01*
X62149271Y-80114704D01*
X62199217Y-80120130D01*
X62202623Y-80120500D01*
X63999737Y-80120500D01*
X65797376Y-80120499D01*
X65800770Y-80120130D01*
X65800776Y-80120130D01*
X65850722Y-80114705D01*
X65850726Y-80114704D01*
X65858580Y-80113851D01*
X65992824Y-80063526D01*
X66000003Y-80058146D01*
X66000006Y-80058144D01*
X66100365Y-79982928D01*
X66107546Y-79977546D01*
X66126922Y-79951693D01*
X66188144Y-79870006D01*
X66188146Y-79870003D01*
X66193526Y-79862824D01*
X66243851Y-79728580D01*
X66250500Y-79667377D01*
X66250499Y-76072624D01*
X66243851Y-76011420D01*
X66193526Y-75877176D01*
X66188146Y-75869997D01*
X66188144Y-75869994D01*
X66112928Y-75769635D01*
X66107546Y-75762454D01*
X66100365Y-75757072D01*
X66000006Y-75681856D01*
X66000003Y-75681854D01*
X65992824Y-75676474D01*
X65903439Y-75642966D01*
X65865975Y-75628921D01*
X65865973Y-75628921D01*
X65858580Y-75626149D01*
X65850730Y-75625296D01*
X65850729Y-75625296D01*
X65800774Y-75619869D01*
X65800773Y-75619869D01*
X65797377Y-75619500D01*
X64000263Y-75619500D01*
X62202624Y-75619501D01*
X62199230Y-75619870D01*
X62199224Y-75619870D01*
X62149278Y-75625295D01*
X62149274Y-75625296D01*
X62141420Y-75626149D01*
X62007176Y-75676474D01*
X61999997Y-75681854D01*
X61999994Y-75681856D01*
X61899635Y-75757072D01*
X61892454Y-75762454D01*
X61887072Y-75769635D01*
X61811856Y-75869994D01*
X61811854Y-75869997D01*
X61806474Y-75877176D01*
X61756149Y-76011420D01*
X61749500Y-76072623D01*
X61456750Y-76072623D01*
X61456750Y-64225000D01*
X86319540Y-64225000D01*
X86339326Y-64413256D01*
X86397821Y-64593284D01*
X86492467Y-64757216D01*
X86619129Y-64897888D01*
X86772270Y-65009151D01*
X86945197Y-65086144D01*
X87043212Y-65106978D01*
X87123897Y-65124128D01*
X87123901Y-65124128D01*
X87130354Y-65125500D01*
X87188720Y-65125500D01*
X87256841Y-65145502D01*
X87277815Y-65162405D01*
X87830910Y-65715500D01*
X87864168Y-65776749D01*
X87864326Y-65778256D01*
X87922821Y-65958284D01*
X88017467Y-66122216D01*
X88144129Y-66262888D01*
X88297270Y-66374151D01*
X88470197Y-66451144D01*
X88568212Y-66471978D01*
X88648897Y-66489128D01*
X88648901Y-66489128D01*
X88655354Y-66490500D01*
X88844646Y-66490500D01*
X88851099Y-66489128D01*
X88851103Y-66489128D01*
X88931788Y-66471978D01*
X89029803Y-66451144D01*
X89202730Y-66374151D01*
X89355871Y-66262888D01*
X89482533Y-66122216D01*
X89577179Y-65958284D01*
X89635674Y-65778256D01*
X89655460Y-65590000D01*
X89635674Y-65401744D01*
X89577179Y-65221716D01*
X89482533Y-65057784D01*
X89355871Y-64917112D01*
X89202730Y-64805849D01*
X89029803Y-64728856D01*
X88931788Y-64708022D01*
X88851103Y-64690872D01*
X88851099Y-64690872D01*
X88844646Y-64689500D01*
X88655354Y-64689500D01*
X88648897Y-64690872D01*
X88642326Y-64691563D01*
X88641994Y-64688399D01*
X88585056Y-64684343D01*
X88539961Y-64655370D01*
X88164462Y-64279871D01*
X88130436Y-64217559D01*
X88128247Y-64203946D01*
X88111364Y-64043307D01*
X88111364Y-64043305D01*
X88110674Y-64036744D01*
X88052179Y-63856716D01*
X87957533Y-63692784D01*
X87830871Y-63552112D01*
X87677730Y-63440849D01*
X87504803Y-63363856D01*
X87406788Y-63343022D01*
X87326103Y-63325872D01*
X87326099Y-63325872D01*
X87319646Y-63324500D01*
X87130354Y-63324500D01*
X87123901Y-63325872D01*
X87123897Y-63325872D01*
X87043212Y-63343022D01*
X86945197Y-63363856D01*
X86772270Y-63440849D01*
X86619129Y-63552112D01*
X86492467Y-63692784D01*
X86397821Y-63856716D01*
X86339326Y-64036744D01*
X86319540Y-64225000D01*
X61456750Y-64225000D01*
X61456750Y-61008574D01*
X61456752Y-61007804D01*
X61457164Y-60940350D01*
X61457219Y-60931376D01*
X61449257Y-60903518D01*
X61445679Y-60886757D01*
X61442846Y-60866971D01*
X61442846Y-60866970D01*
X61441573Y-60858082D01*
X61437856Y-60849906D01*
X61435338Y-60841296D01*
X61437642Y-60840622D01*
X61430000Y-60805329D01*
X61430000Y-58210000D01*
X72124540Y-58210000D01*
X72125230Y-58216565D01*
X72130128Y-58263163D01*
X72144326Y-58398256D01*
X72202821Y-58578284D01*
X72297467Y-58742216D01*
X72301885Y-58747123D01*
X72301886Y-58747124D01*
X72394145Y-58849587D01*
X72424129Y-58882888D01*
X72429468Y-58886767D01*
X72570727Y-58989397D01*
X72577270Y-58994151D01*
X72750197Y-59071144D01*
X72848212Y-59091978D01*
X72928897Y-59109128D01*
X72928901Y-59109128D01*
X72935354Y-59110500D01*
X73124646Y-59110500D01*
X73131099Y-59109128D01*
X73131103Y-59109128D01*
X73211788Y-59091978D01*
X73309803Y-59071144D01*
X73482730Y-58994151D01*
X73488072Y-58990270D01*
X73630527Y-58886771D01*
X73630529Y-58886769D01*
X73635871Y-58882888D01*
X73640998Y-58877194D01*
X73641521Y-58876872D01*
X73645198Y-58873561D01*
X73645803Y-58874233D01*
X73701442Y-58839952D01*
X73734638Y-58835500D01*
X95888720Y-58835500D01*
X95956841Y-58855502D01*
X95977815Y-58872405D01*
X96100538Y-58995128D01*
X96134564Y-59057440D01*
X96136752Y-59071048D01*
X96142645Y-59127114D01*
X96152790Y-59223637D01*
X96154326Y-59238256D01*
X96212821Y-59418284D01*
X96216124Y-59424006D01*
X96216125Y-59424007D01*
X96230155Y-59448307D01*
X96307467Y-59582216D01*
X96434129Y-59722888D01*
X96439468Y-59726767D01*
X96574437Y-59824827D01*
X96587270Y-59834151D01*
X96760197Y-59911144D01*
X96858212Y-59931978D01*
X96938897Y-59949128D01*
X96938901Y-59949128D01*
X96945354Y-59950500D01*
X97134646Y-59950500D01*
X97141099Y-59949128D01*
X97141103Y-59949128D01*
X97221788Y-59931978D01*
X97319803Y-59911144D01*
X97492730Y-59834151D01*
X97505564Y-59824827D01*
X97640532Y-59726767D01*
X97645871Y-59722888D01*
X97772533Y-59582216D01*
X97849845Y-59448307D01*
X97863875Y-59424007D01*
X97863876Y-59424006D01*
X97867179Y-59418284D01*
X97925674Y-59238256D01*
X97927211Y-59223637D01*
X97944770Y-59056565D01*
X97945460Y-59050000D01*
X97940375Y-59001621D01*
X97926364Y-58868307D01*
X97926364Y-58868305D01*
X97925674Y-58861744D01*
X97867179Y-58681716D01*
X97772533Y-58517784D01*
X97645871Y-58377112D01*
X97492730Y-58265849D01*
X97319803Y-58188856D01*
X97221788Y-58168022D01*
X97141103Y-58150872D01*
X97141099Y-58150872D01*
X97134646Y-58149500D01*
X97076281Y-58149500D01*
X97008160Y-58129498D01*
X96987186Y-58112595D01*
X96697242Y-57822651D01*
X96689853Y-57814531D01*
X96685786Y-57808123D01*
X96636793Y-57762115D01*
X96633951Y-57759360D01*
X96614471Y-57739880D01*
X96611341Y-57737452D01*
X96611259Y-57737380D01*
X96602351Y-57729771D01*
X96570582Y-57699938D01*
X96553167Y-57690364D01*
X96536638Y-57679507D01*
X96527200Y-57672186D01*
X96520936Y-57667327D01*
X96480942Y-57650020D01*
X96470282Y-57644798D01*
X96465041Y-57641917D01*
X96432092Y-57623803D01*
X96412836Y-57618859D01*
X96394147Y-57612460D01*
X96375896Y-57604562D01*
X96332841Y-57597743D01*
X96321237Y-57595340D01*
X96279019Y-57584500D01*
X96259144Y-57584500D01*
X96239434Y-57582949D01*
X96227633Y-57581080D01*
X96219804Y-57579840D01*
X96178114Y-57583781D01*
X96176421Y-57583941D01*
X96164563Y-57584500D01*
X73734638Y-57584500D01*
X73666517Y-57564498D01*
X73645230Y-57546403D01*
X73645198Y-57546439D01*
X73643950Y-57545315D01*
X73640998Y-57542806D01*
X73640291Y-57542021D01*
X73635871Y-57537112D01*
X73630529Y-57533231D01*
X73630527Y-57533229D01*
X73488072Y-57429730D01*
X73488071Y-57429729D01*
X73482730Y-57425849D01*
X73309803Y-57348856D01*
X73211788Y-57328022D01*
X73131103Y-57310872D01*
X73131099Y-57310872D01*
X73124646Y-57309500D01*
X72935354Y-57309500D01*
X72928901Y-57310872D01*
X72928897Y-57310872D01*
X72848212Y-57328022D01*
X72750197Y-57348856D01*
X72577270Y-57425849D01*
X72571929Y-57429729D01*
X72571928Y-57429730D01*
X72429474Y-57533229D01*
X72424129Y-57537112D01*
X72419716Y-57542014D01*
X72419714Y-57542015D01*
X72302507Y-57672186D01*
X72297467Y-57677784D01*
X72294164Y-57683505D01*
X72217362Y-57816531D01*
X72202821Y-57841716D01*
X72144326Y-58021744D01*
X72124540Y-58210000D01*
X61430000Y-58210000D01*
X61430000Y-46194368D01*
X61435516Y-46157496D01*
X61435948Y-46156084D01*
X61439765Y-46147960D01*
X61444243Y-46119250D01*
X61448015Y-46102586D01*
X61456343Y-46074739D01*
X61456550Y-46040854D01*
X61456580Y-46040145D01*
X61456740Y-46039119D01*
X61456748Y-46008917D01*
X61456750Y-46008181D01*
X61457196Y-45935126D01*
X61457219Y-45931376D01*
X61456854Y-45930098D01*
X61456768Y-45928838D01*
X61457007Y-44994264D01*
X61458699Y-38360196D01*
X74399840Y-38360196D01*
X74400586Y-38368088D01*
X74403941Y-38403579D01*
X74404500Y-38415437D01*
X74404500Y-40292297D01*
X74403983Y-40303257D01*
X74402327Y-40310667D01*
X74402576Y-40318593D01*
X74402576Y-40318594D01*
X74404438Y-40377841D01*
X74404500Y-40381799D01*
X74404500Y-40409350D01*
X74404996Y-40413273D01*
X74405003Y-40413388D01*
X74405923Y-40425068D01*
X74407291Y-40468627D01*
X74412836Y-40487712D01*
X74416844Y-40507062D01*
X74419336Y-40526792D01*
X74435384Y-40567323D01*
X74439219Y-40578524D01*
X74451382Y-40620390D01*
X74461491Y-40637483D01*
X74461498Y-40637494D01*
X74470195Y-40655245D01*
X74477514Y-40673732D01*
X74494871Y-40697622D01*
X74503129Y-40708988D01*
X74509646Y-40718910D01*
X74527790Y-40749590D01*
X74527793Y-40749594D01*
X74531830Y-40756420D01*
X74545880Y-40770470D01*
X74558721Y-40785504D01*
X74570406Y-40801587D01*
X74576514Y-40806640D01*
X74580431Y-40809880D01*
X74600496Y-40826479D01*
X74603989Y-40829369D01*
X74612769Y-40837359D01*
X76152758Y-42377349D01*
X76160147Y-42385469D01*
X76164214Y-42391877D01*
X76169992Y-42397303D01*
X76213207Y-42437885D01*
X76216049Y-42440640D01*
X76235529Y-42460120D01*
X76238659Y-42462548D01*
X76238741Y-42462620D01*
X76247649Y-42470229D01*
X76279418Y-42500062D01*
X76286365Y-42503881D01*
X76296832Y-42509635D01*
X76313361Y-42520492D01*
X76329064Y-42532673D01*
X76336339Y-42535821D01*
X76369058Y-42549980D01*
X76379718Y-42555202D01*
X76417908Y-42576197D01*
X76437164Y-42581141D01*
X76455853Y-42587540D01*
X76474104Y-42595438D01*
X76517159Y-42602257D01*
X76528763Y-42604660D01*
X76570981Y-42615500D01*
X76590856Y-42615500D01*
X76610566Y-42617051D01*
X76630196Y-42620160D01*
X76638088Y-42619414D01*
X76673579Y-42616059D01*
X76685437Y-42615500D01*
X80628720Y-42615500D01*
X80696841Y-42635502D01*
X80717815Y-42652405D01*
X80777595Y-42712185D01*
X80811621Y-42774497D01*
X80814500Y-42801280D01*
X80814500Y-49929764D01*
X80794498Y-49997885D01*
X80740842Y-50044378D01*
X80670568Y-50054482D01*
X80662310Y-50053012D01*
X80608741Y-50041626D01*
X80511103Y-50020872D01*
X80511099Y-50020872D01*
X80504646Y-50019500D01*
X80315354Y-50019500D01*
X80308901Y-50020872D01*
X80308897Y-50020872D01*
X80228212Y-50038022D01*
X80130197Y-50058856D01*
X79957270Y-50135849D01*
X79804129Y-50247112D01*
X79799716Y-50252014D01*
X79799714Y-50252015D01*
X79733546Y-50325502D01*
X79677467Y-50387784D01*
X79582821Y-50551716D01*
X79524326Y-50731744D01*
X79504540Y-50920000D01*
X79505230Y-50926565D01*
X79514332Y-51013163D01*
X79524326Y-51108256D01*
X79582821Y-51288284D01*
X79586124Y-51294006D01*
X79586125Y-51294007D01*
X79636381Y-51381053D01*
X79677467Y-51452216D01*
X79681885Y-51457123D01*
X79685436Y-51462010D01*
X79709500Y-51536071D01*
X79709500Y-54503590D01*
X79689498Y-54571711D01*
X79635842Y-54618204D01*
X79609693Y-54626837D01*
X79606665Y-54627481D01*
X79606663Y-54627482D01*
X79600197Y-54628856D01*
X79427270Y-54705849D01*
X79274129Y-54817112D01*
X79147467Y-54957784D01*
X79052821Y-55121716D01*
X78994326Y-55301744D01*
X78993636Y-55308305D01*
X78993636Y-55308307D01*
X78991196Y-55331524D01*
X78974540Y-55490000D01*
X78994326Y-55678256D01*
X79052821Y-55858284D01*
X79147467Y-56022216D01*
X79274129Y-56162888D01*
X79427270Y-56274151D01*
X79600197Y-56351144D01*
X79698212Y-56371978D01*
X79778897Y-56389128D01*
X79778901Y-56389128D01*
X79785354Y-56390500D01*
X79974646Y-56390500D01*
X79981099Y-56389128D01*
X79981103Y-56389128D01*
X80061788Y-56371978D01*
X80159803Y-56351144D01*
X80332730Y-56274151D01*
X80485871Y-56162888D01*
X80612533Y-56022216D01*
X80707179Y-55858284D01*
X80765674Y-55678256D01*
X80770790Y-55629576D01*
X80797803Y-55563920D01*
X80807005Y-55553652D01*
X80885074Y-55475583D01*
X80891340Y-55469729D01*
X80928669Y-55437165D01*
X80934396Y-55432169D01*
X80970702Y-55380510D01*
X80974627Y-55375226D01*
X81008893Y-55331524D01*
X81013583Y-55325543D01*
X81016711Y-55318616D01*
X81018486Y-55315685D01*
X81025903Y-55302682D01*
X81027519Y-55299668D01*
X81031887Y-55293453D01*
X81034646Y-55286377D01*
X81034648Y-55286373D01*
X81054819Y-55234636D01*
X81057375Y-55228555D01*
X81080231Y-55177935D01*
X81080231Y-55177934D01*
X81083355Y-55171016D01*
X81084739Y-55163550D01*
X81085757Y-55160301D01*
X81089877Y-55145836D01*
X81090717Y-55142563D01*
X81093476Y-55135487D01*
X81101716Y-55072894D01*
X81102748Y-55066377D01*
X81112868Y-55011775D01*
X81114252Y-55004308D01*
X81110709Y-54942856D01*
X81110500Y-54935604D01*
X81110500Y-51889281D01*
X81130502Y-51821160D01*
X81184158Y-51774667D01*
X81254432Y-51764563D01*
X81319012Y-51794057D01*
X81325592Y-51800182D01*
X81627892Y-52102483D01*
X81862762Y-52337353D01*
X81870148Y-52345470D01*
X81874214Y-52351877D01*
X81879989Y-52357300D01*
X81879993Y-52357305D01*
X81923223Y-52397901D01*
X81926065Y-52400656D01*
X81945529Y-52420120D01*
X81948659Y-52422548D01*
X81948741Y-52422620D01*
X81957649Y-52430229D01*
X81989418Y-52460062D01*
X81996365Y-52463881D01*
X82006832Y-52469635D01*
X82023361Y-52480492D01*
X82039064Y-52492673D01*
X82079057Y-52509979D01*
X82089713Y-52515200D01*
X82120955Y-52532376D01*
X82120964Y-52532380D01*
X82127908Y-52536197D01*
X82135584Y-52538168D01*
X82135587Y-52538169D01*
X82147160Y-52541140D01*
X82165865Y-52547544D01*
X82184104Y-52555437D01*
X82227148Y-52562254D01*
X82238771Y-52564662D01*
X82273304Y-52573529D01*
X82273305Y-52573529D01*
X82280981Y-52575500D01*
X82300856Y-52575500D01*
X82320566Y-52577051D01*
X82340196Y-52580160D01*
X82383580Y-52576059D01*
X82395437Y-52575500D01*
X102065916Y-52575500D01*
X102134037Y-52595502D01*
X102180530Y-52649158D01*
X102190634Y-52719432D01*
X102185750Y-52740434D01*
X102178826Y-52761744D01*
X102178136Y-52768305D01*
X102178136Y-52768307D01*
X102163231Y-52910128D01*
X102159040Y-52950000D01*
X102178826Y-53138256D01*
X102219281Y-53262763D01*
X102221309Y-53333729D01*
X102184646Y-53394527D01*
X102125644Y-53424945D01*
X102066660Y-53437482D01*
X102066658Y-53437483D01*
X102060197Y-53438856D01*
X101887270Y-53515849D01*
X101734129Y-53627112D01*
X101729716Y-53632014D01*
X101729714Y-53632015D01*
X101714011Y-53649455D01*
X101607467Y-53767784D01*
X101512821Y-53931716D01*
X101454326Y-54111744D01*
X101434540Y-54300000D01*
X101454326Y-54488256D01*
X101512821Y-54668284D01*
X101607467Y-54832216D01*
X101611885Y-54837123D01*
X101611886Y-54837124D01*
X101682136Y-54915144D01*
X101712853Y-54979152D01*
X101714500Y-54999455D01*
X101714500Y-71590545D01*
X101694498Y-71658666D01*
X101682137Y-71674855D01*
X101607467Y-71757784D01*
X101604164Y-71763505D01*
X101525806Y-71899226D01*
X101512821Y-71921716D01*
X101454326Y-72101744D01*
X101453636Y-72108305D01*
X101453636Y-72108307D01*
X101444580Y-72194475D01*
X101434540Y-72290000D01*
X101454326Y-72478256D01*
X101512821Y-72658284D01*
X101516124Y-72664006D01*
X101516125Y-72664007D01*
X101523698Y-72677124D01*
X101607467Y-72822216D01*
X101734129Y-72962888D01*
X101739468Y-72966767D01*
X101868484Y-73060502D01*
X101887270Y-73074151D01*
X102060197Y-73151144D01*
X102075810Y-73154463D01*
X102083969Y-73156197D01*
X102146443Y-73189924D01*
X102180765Y-73252073D01*
X102176038Y-73322913D01*
X102146869Y-73368539D01*
X101647813Y-73867595D01*
X101585501Y-73901621D01*
X101558718Y-73904500D01*
X94945138Y-73904500D01*
X94877017Y-73884498D01*
X94855730Y-73866403D01*
X94855698Y-73866439D01*
X94854450Y-73865315D01*
X94851498Y-73862806D01*
X94850791Y-73862021D01*
X94846371Y-73857112D01*
X94841029Y-73853231D01*
X94841027Y-73853229D01*
X94698572Y-73749730D01*
X94698571Y-73749729D01*
X94693230Y-73745849D01*
X94520303Y-73668856D01*
X94422288Y-73648022D01*
X94341603Y-73630872D01*
X94341599Y-73630872D01*
X94335146Y-73629500D01*
X94145854Y-73629500D01*
X94139401Y-73630872D01*
X94139397Y-73630872D01*
X94058712Y-73648022D01*
X93960697Y-73668856D01*
X93787770Y-73745849D01*
X93782429Y-73749729D01*
X93782428Y-73749730D01*
X93676595Y-73826622D01*
X93634629Y-73857112D01*
X93630216Y-73862014D01*
X93630214Y-73862015D01*
X93525550Y-73978256D01*
X93507967Y-73997784D01*
X93413321Y-74161716D01*
X93354826Y-74341744D01*
X93335040Y-74530000D01*
X93335730Y-74536565D01*
X93353730Y-74707824D01*
X93354826Y-74718256D01*
X93413321Y-74898284D01*
X93416624Y-74904006D01*
X93416625Y-74904007D01*
X93444009Y-74951437D01*
X93507967Y-75062216D01*
X93512385Y-75067123D01*
X93512386Y-75067124D01*
X93591961Y-75155500D01*
X93634629Y-75202888D01*
X93787770Y-75314151D01*
X93960697Y-75391144D01*
X94058712Y-75411978D01*
X94139397Y-75429128D01*
X94139401Y-75429128D01*
X94145854Y-75430500D01*
X94335146Y-75430500D01*
X94341599Y-75429128D01*
X94341603Y-75429128D01*
X94422288Y-75411978D01*
X94520303Y-75391144D01*
X94693230Y-75314151D01*
X94698572Y-75310270D01*
X94841027Y-75206771D01*
X94841029Y-75206769D01*
X94846371Y-75202888D01*
X94851498Y-75197194D01*
X94852021Y-75196872D01*
X94855698Y-75193561D01*
X94856303Y-75194233D01*
X94911942Y-75159952D01*
X94945138Y-75155500D01*
X101792297Y-75155500D01*
X101803257Y-75156017D01*
X101810667Y-75157673D01*
X101818593Y-75157424D01*
X101818594Y-75157424D01*
X101877841Y-75155562D01*
X101881799Y-75155500D01*
X101909350Y-75155500D01*
X101913273Y-75155004D01*
X101913388Y-75154997D01*
X101925068Y-75154077D01*
X101968627Y-75152709D01*
X101987716Y-75147163D01*
X102007062Y-75143156D01*
X102026792Y-75140664D01*
X102067323Y-75124616D01*
X102078524Y-75120781D01*
X102120390Y-75108618D01*
X102137499Y-75098500D01*
X102155245Y-75089805D01*
X102173732Y-75082486D01*
X102208991Y-75056869D01*
X102218910Y-75050354D01*
X102249590Y-75032210D01*
X102249594Y-75032207D01*
X102256420Y-75028170D01*
X102270470Y-75014120D01*
X102285504Y-75001279D01*
X102295173Y-74994254D01*
X102301587Y-74989594D01*
X102329370Y-74956010D01*
X102337359Y-74947231D01*
X103451849Y-73832742D01*
X103459969Y-73825353D01*
X103466377Y-73821286D01*
X103471806Y-73815505D01*
X103512369Y-73772310D01*
X103515126Y-73769464D01*
X103531826Y-73752765D01*
X103534620Y-73749971D01*
X103537044Y-73746846D01*
X103537095Y-73746788D01*
X103544729Y-73737851D01*
X103574562Y-73706082D01*
X103584136Y-73688667D01*
X103594993Y-73672138D01*
X103602314Y-73662700D01*
X103607173Y-73656436D01*
X103624479Y-73616443D01*
X103629700Y-73605787D01*
X103646876Y-73574545D01*
X103646880Y-73574536D01*
X103650697Y-73567592D01*
X103655640Y-73548339D01*
X103662044Y-73529636D01*
X103666787Y-73518675D01*
X103669937Y-73511396D01*
X103676754Y-73468352D01*
X103679162Y-73456729D01*
X103688029Y-73422196D01*
X103688029Y-73422195D01*
X103690000Y-73414519D01*
X103690000Y-73394644D01*
X103691551Y-73374933D01*
X103693420Y-73363133D01*
X103694660Y-73355304D01*
X103690559Y-73311920D01*
X103690000Y-73300063D01*
X103690000Y-59630000D01*
X109824540Y-59630000D01*
X109825230Y-59636565D01*
X109841423Y-59790631D01*
X109844326Y-59818256D01*
X109902821Y-59998284D01*
X109997467Y-60162216D01*
X110001885Y-60167123D01*
X110001886Y-60167124D01*
X110081461Y-60255500D01*
X110124129Y-60302888D01*
X110277270Y-60414151D01*
X110450197Y-60491144D01*
X110534632Y-60509091D01*
X110628897Y-60529128D01*
X110628901Y-60529128D01*
X110635354Y-60530500D01*
X110824646Y-60530500D01*
X110831099Y-60529128D01*
X110831103Y-60529128D01*
X110925368Y-60509091D01*
X111009803Y-60491144D01*
X111182730Y-60414151D01*
X111301716Y-60327703D01*
X111330527Y-60306771D01*
X111330529Y-60306769D01*
X111335871Y-60302888D01*
X111340998Y-60297194D01*
X111341521Y-60296872D01*
X111345198Y-60293561D01*
X111345803Y-60294233D01*
X111401442Y-60259952D01*
X111434638Y-60255500D01*
X115792297Y-60255500D01*
X115803257Y-60256017D01*
X115810667Y-60257673D01*
X115818593Y-60257424D01*
X115818594Y-60257424D01*
X115877841Y-60255562D01*
X115881799Y-60255500D01*
X115909350Y-60255500D01*
X115913273Y-60255004D01*
X115913388Y-60254997D01*
X115925068Y-60254077D01*
X115968627Y-60252709D01*
X115987716Y-60247163D01*
X116007062Y-60243156D01*
X116026792Y-60240664D01*
X116067323Y-60224616D01*
X116078524Y-60220781D01*
X116120390Y-60208618D01*
X116137499Y-60198500D01*
X116155245Y-60189805D01*
X116173732Y-60182486D01*
X116208991Y-60156869D01*
X116218910Y-60150354D01*
X116249590Y-60132210D01*
X116249594Y-60132207D01*
X116256420Y-60128170D01*
X116270470Y-60114120D01*
X116285504Y-60101279D01*
X116295173Y-60094254D01*
X116301587Y-60089594D01*
X116329364Y-60056017D01*
X116337354Y-60047236D01*
X116984652Y-59399939D01*
X116992769Y-59392553D01*
X116999176Y-59388487D01*
X117004599Y-59382712D01*
X117004604Y-59382708D01*
X117045200Y-59339478D01*
X117047955Y-59336636D01*
X117067419Y-59317172D01*
X117069847Y-59314042D01*
X117069919Y-59313960D01*
X117077528Y-59305052D01*
X117107361Y-59273283D01*
X117116935Y-59255868D01*
X117127792Y-59239339D01*
X117135113Y-59229901D01*
X117139972Y-59223637D01*
X117157278Y-59183644D01*
X117162499Y-59172988D01*
X117179675Y-59141746D01*
X117179679Y-59141737D01*
X117183496Y-59134793D01*
X117188439Y-59115540D01*
X117194843Y-59096837D01*
X117199586Y-59085876D01*
X117202736Y-59078597D01*
X117209553Y-59035553D01*
X117211961Y-59023930D01*
X117220828Y-58989397D01*
X117220828Y-58989396D01*
X117222799Y-58981720D01*
X117222799Y-58964201D01*
X117242801Y-58896080D01*
X117296457Y-58849587D01*
X117348799Y-58838201D01*
X119151421Y-58838201D01*
X119219542Y-58858203D01*
X119240516Y-58875106D01*
X120837595Y-60472186D01*
X120871621Y-60534498D01*
X120874500Y-60561281D01*
X120874500Y-68422297D01*
X120873983Y-68433257D01*
X120872327Y-68440667D01*
X120872576Y-68448593D01*
X120872576Y-68448594D01*
X120874438Y-68507841D01*
X120874500Y-68511799D01*
X120874500Y-68539350D01*
X120874996Y-68543273D01*
X120875003Y-68543388D01*
X120875923Y-68555068D01*
X120877291Y-68598627D01*
X120882836Y-68617712D01*
X120886844Y-68637062D01*
X120889336Y-68656792D01*
X120905384Y-68697323D01*
X120909219Y-68708524D01*
X120921382Y-68750390D01*
X120931498Y-68767494D01*
X120940195Y-68785245D01*
X120947514Y-68803732D01*
X120973129Y-68838988D01*
X120979646Y-68848910D01*
X120997790Y-68879590D01*
X120997793Y-68879594D01*
X121001830Y-68886420D01*
X121015880Y-68900470D01*
X121028721Y-68915504D01*
X121040406Y-68931587D01*
X121046514Y-68936640D01*
X121073989Y-68959369D01*
X121082769Y-68967359D01*
X122732758Y-70617349D01*
X122740147Y-70625469D01*
X122744214Y-70631877D01*
X122749992Y-70637303D01*
X122793207Y-70677885D01*
X122796049Y-70680640D01*
X122815529Y-70700120D01*
X122818659Y-70702548D01*
X122818741Y-70702620D01*
X122827649Y-70710229D01*
X122859418Y-70740062D01*
X122866365Y-70743881D01*
X122876832Y-70749635D01*
X122893361Y-70760492D01*
X122909064Y-70772673D01*
X122949057Y-70789979D01*
X122959713Y-70795200D01*
X122990955Y-70812376D01*
X122990964Y-70812380D01*
X122997908Y-70816197D01*
X123005584Y-70818168D01*
X123005587Y-70818169D01*
X123017160Y-70821140D01*
X123035865Y-70827544D01*
X123054104Y-70835437D01*
X123097148Y-70842254D01*
X123108771Y-70844662D01*
X123143304Y-70853529D01*
X123143305Y-70853529D01*
X123150981Y-70855500D01*
X123170856Y-70855500D01*
X123190566Y-70857051D01*
X123210196Y-70860160D01*
X123253580Y-70856059D01*
X123265437Y-70855500D01*
X124475362Y-70855500D01*
X124543483Y-70875502D01*
X124564770Y-70893597D01*
X124564802Y-70893561D01*
X124566050Y-70894685D01*
X124569002Y-70897194D01*
X124574129Y-70902888D01*
X124579471Y-70906769D01*
X124579473Y-70906771D01*
X124664139Y-70968284D01*
X124727270Y-71014151D01*
X124900197Y-71091144D01*
X124998212Y-71111978D01*
X125078897Y-71129128D01*
X125078901Y-71129128D01*
X125085354Y-71130500D01*
X125274646Y-71130500D01*
X125281099Y-71129128D01*
X125281103Y-71129128D01*
X125361788Y-71111978D01*
X125459803Y-71091144D01*
X125632730Y-71014151D01*
X125785871Y-70902888D01*
X125825016Y-70859414D01*
X125908114Y-70767124D01*
X125908115Y-70767123D01*
X125912533Y-70762216D01*
X125960447Y-70679226D01*
X126003875Y-70604007D01*
X126003876Y-70604006D01*
X126007179Y-70598284D01*
X126065674Y-70418256D01*
X126085460Y-70230000D01*
X126065674Y-70041744D01*
X126007179Y-69861716D01*
X125982939Y-69819730D01*
X125915836Y-69703505D01*
X125912533Y-69697784D01*
X125908114Y-69692876D01*
X125790286Y-69562015D01*
X125790284Y-69562014D01*
X125785871Y-69557112D01*
X125632730Y-69445849D01*
X125459803Y-69368856D01*
X125361788Y-69348022D01*
X125281103Y-69330872D01*
X125281099Y-69330872D01*
X125274646Y-69329500D01*
X125085354Y-69329500D01*
X125078901Y-69330872D01*
X125078897Y-69330872D01*
X124998212Y-69348022D01*
X124900197Y-69368856D01*
X124727270Y-69445849D01*
X124721929Y-69449729D01*
X124721928Y-69449730D01*
X124579473Y-69553229D01*
X124579471Y-69553231D01*
X124574129Y-69557112D01*
X124569709Y-69562021D01*
X124569002Y-69562806D01*
X124568479Y-69563128D01*
X124564802Y-69566439D01*
X124564197Y-69565767D01*
X124508558Y-69600048D01*
X124475362Y-69604500D01*
X123541281Y-69604500D01*
X123473160Y-69584498D01*
X123452186Y-69567595D01*
X122162405Y-68277814D01*
X122128379Y-68215502D01*
X122125500Y-68188719D01*
X122125500Y-60327703D01*
X122126017Y-60316743D01*
X122127673Y-60309333D01*
X122127282Y-60296872D01*
X122125562Y-60242159D01*
X122125500Y-60238201D01*
X122125500Y-60210650D01*
X122125004Y-60206727D01*
X122124997Y-60206612D01*
X122124077Y-60194926D01*
X122122958Y-60159299D01*
X122122709Y-60151373D01*
X122117163Y-60132284D01*
X122113156Y-60112938D01*
X122110664Y-60093208D01*
X122094616Y-60052677D01*
X122090781Y-60041476D01*
X122078618Y-59999610D01*
X122068500Y-59982501D01*
X122059805Y-59964755D01*
X122052486Y-59946268D01*
X122026869Y-59911009D01*
X122020354Y-59901090D01*
X122002210Y-59870410D01*
X122002207Y-59870406D01*
X121998170Y-59863580D01*
X121984120Y-59849530D01*
X121971279Y-59834496D01*
X121964254Y-59824827D01*
X121959594Y-59818413D01*
X121926010Y-59790630D01*
X121917231Y-59782641D01*
X119959943Y-57825352D01*
X119952554Y-57817232D01*
X119948487Y-57810824D01*
X119899494Y-57764816D01*
X119896652Y-57762061D01*
X119877172Y-57742581D01*
X119874042Y-57740153D01*
X119873960Y-57740081D01*
X119865052Y-57732472D01*
X119833283Y-57702639D01*
X119815868Y-57693065D01*
X119799339Y-57682208D01*
X119789901Y-57674887D01*
X119783637Y-57670028D01*
X119743643Y-57652721D01*
X119732983Y-57647499D01*
X119727742Y-57644618D01*
X119694793Y-57626504D01*
X119675537Y-57621560D01*
X119656848Y-57615161D01*
X119638597Y-57607263D01*
X119595542Y-57600444D01*
X119583938Y-57598041D01*
X119541720Y-57587201D01*
X119521845Y-57587201D01*
X119502135Y-57585650D01*
X119494874Y-57584500D01*
X119482505Y-57582541D01*
X119440931Y-57586471D01*
X119439122Y-57586642D01*
X119427264Y-57587201D01*
X117301937Y-57587201D01*
X117233816Y-57567199D01*
X117212529Y-57549104D01*
X117212497Y-57549140D01*
X117211249Y-57548016D01*
X117208297Y-57545507D01*
X117207590Y-57544722D01*
X117203170Y-57539813D01*
X117197828Y-57535932D01*
X117197826Y-57535930D01*
X117055371Y-57432431D01*
X117055370Y-57432430D01*
X117050029Y-57428550D01*
X116877102Y-57351557D01*
X116779087Y-57330723D01*
X116698402Y-57313573D01*
X116698398Y-57313573D01*
X116691945Y-57312201D01*
X116502653Y-57312201D01*
X116496200Y-57313573D01*
X116496196Y-57313573D01*
X116415511Y-57330723D01*
X116317496Y-57351557D01*
X116144569Y-57428550D01*
X115991428Y-57539813D01*
X115987015Y-57544715D01*
X115987013Y-57544716D01*
X115872238Y-57672186D01*
X115864766Y-57680485D01*
X115861463Y-57686206D01*
X115774984Y-57835993D01*
X115770120Y-57844417D01*
X115711625Y-58024445D01*
X115710935Y-58031006D01*
X115710935Y-58031008D01*
X115698337Y-58150872D01*
X115691839Y-58212701D01*
X115711625Y-58400957D01*
X115770120Y-58580985D01*
X115818522Y-58664820D01*
X115835259Y-58733812D01*
X115812039Y-58800904D01*
X115798497Y-58816912D01*
X115647814Y-58967595D01*
X115585502Y-59001621D01*
X115558719Y-59004500D01*
X111434638Y-59004500D01*
X111366517Y-58984498D01*
X111345230Y-58966403D01*
X111345198Y-58966439D01*
X111343950Y-58965315D01*
X111340998Y-58962806D01*
X111340291Y-58962021D01*
X111335871Y-58957112D01*
X111330529Y-58953231D01*
X111330527Y-58953229D01*
X111188072Y-58849730D01*
X111188071Y-58849729D01*
X111182730Y-58845849D01*
X111009803Y-58768856D01*
X110884471Y-58742216D01*
X110831103Y-58730872D01*
X110831099Y-58730872D01*
X110824646Y-58729500D01*
X110635354Y-58729500D01*
X110628901Y-58730872D01*
X110628897Y-58730872D01*
X110575529Y-58742216D01*
X110450197Y-58768856D01*
X110277270Y-58845849D01*
X110271929Y-58849729D01*
X110271928Y-58849730D01*
X110233038Y-58877985D01*
X110124129Y-58957112D01*
X110119716Y-58962014D01*
X110119714Y-58962015D01*
X110014743Y-59078597D01*
X109997467Y-59097784D01*
X109994164Y-59103505D01*
X109911216Y-59247176D01*
X109902821Y-59261716D01*
X109844326Y-59441744D01*
X109824540Y-59630000D01*
X103690000Y-59630000D01*
X103690000Y-53649455D01*
X103710002Y-53581334D01*
X103722364Y-53565144D01*
X103792614Y-53487124D01*
X103792615Y-53487123D01*
X103797033Y-53482216D01*
X103883019Y-53333284D01*
X103888375Y-53324007D01*
X103888376Y-53324006D01*
X103891679Y-53318284D01*
X103950174Y-53138256D01*
X103969960Y-52950000D01*
X103965769Y-52910128D01*
X103950864Y-52768307D01*
X103950864Y-52768305D01*
X103950174Y-52761744D01*
X103943250Y-52740434D01*
X103941224Y-52669466D01*
X103977887Y-52608669D01*
X104041600Y-52577345D01*
X104063084Y-52575500D01*
X116998720Y-52575500D01*
X117066841Y-52595502D01*
X117087815Y-52612405D01*
X117385538Y-52910128D01*
X117419564Y-52972440D01*
X117421752Y-52986048D01*
X117439326Y-53153256D01*
X117497821Y-53333284D01*
X117501124Y-53339006D01*
X117501125Y-53339007D01*
X117536051Y-53399500D01*
X117592467Y-53497216D01*
X117596885Y-53502123D01*
X117596886Y-53502124D01*
X117705934Y-53623233D01*
X117719129Y-53637888D01*
X117872270Y-53749151D01*
X118045197Y-53826144D01*
X118143212Y-53846978D01*
X118223897Y-53864128D01*
X118223901Y-53864128D01*
X118230354Y-53865500D01*
X118419646Y-53865500D01*
X118426099Y-53864128D01*
X118426103Y-53864128D01*
X118506788Y-53846978D01*
X118604803Y-53826144D01*
X118777730Y-53749151D01*
X118930871Y-53637888D01*
X118944067Y-53623233D01*
X119053114Y-53502124D01*
X119053115Y-53502123D01*
X119057533Y-53497216D01*
X119113949Y-53399500D01*
X119148875Y-53339007D01*
X119148876Y-53339006D01*
X119152179Y-53333284D01*
X119210674Y-53153256D01*
X119212941Y-53131693D01*
X119229770Y-52971565D01*
X119230460Y-52965000D01*
X119210674Y-52776744D01*
X119152179Y-52596716D01*
X119142621Y-52580160D01*
X119060836Y-52438505D01*
X119057533Y-52432784D01*
X119053114Y-52427876D01*
X118935286Y-52297015D01*
X118935284Y-52297014D01*
X118930871Y-52292112D01*
X118833192Y-52221144D01*
X118783072Y-52184730D01*
X118783071Y-52184729D01*
X118777730Y-52180849D01*
X118604803Y-52103856D01*
X118506788Y-52083022D01*
X118426103Y-52065872D01*
X118426099Y-52065872D01*
X118419646Y-52064500D01*
X118361281Y-52064500D01*
X118293160Y-52044498D01*
X118272185Y-52027595D01*
X117839236Y-51594645D01*
X117805211Y-51532333D01*
X117808499Y-51466616D01*
X117825674Y-51413756D01*
X117845460Y-51225500D01*
X117847924Y-51225759D01*
X117864772Y-51168379D01*
X117918428Y-51121886D01*
X117970770Y-51110500D01*
X126173720Y-51110500D01*
X126241841Y-51130502D01*
X126262815Y-51147405D01*
X126420538Y-51305128D01*
X126454564Y-51367440D01*
X126456752Y-51381048D01*
X126462738Y-51438001D01*
X126473271Y-51538215D01*
X126474326Y-51548256D01*
X126532821Y-51728284D01*
X126536124Y-51734006D01*
X126536125Y-51734007D01*
X126578016Y-51806565D01*
X126627467Y-51892216D01*
X126631885Y-51897123D01*
X126631886Y-51897124D01*
X126708033Y-51981693D01*
X126754129Y-52032888D01*
X126759468Y-52036767D01*
X126855510Y-52106545D01*
X126907270Y-52144151D01*
X127080197Y-52221144D01*
X127178212Y-52241978D01*
X127258897Y-52259128D01*
X127258901Y-52259128D01*
X127265354Y-52260500D01*
X127454646Y-52260500D01*
X127461099Y-52259128D01*
X127461103Y-52259128D01*
X127541788Y-52241978D01*
X127639803Y-52221144D01*
X127812730Y-52144151D01*
X127864491Y-52106545D01*
X127960532Y-52036767D01*
X127965871Y-52032888D01*
X127966224Y-52032496D01*
X128028202Y-52002756D01*
X128098656Y-52011523D01*
X128153185Y-52056988D01*
X128174500Y-52127110D01*
X128174500Y-71715927D01*
X128154498Y-71784048D01*
X128137595Y-71805023D01*
X127959521Y-71983096D01*
X127897209Y-72017121D01*
X127870426Y-72020000D01*
X122894638Y-72020000D01*
X122826517Y-71999998D01*
X122805230Y-71981903D01*
X122805198Y-71981939D01*
X122803950Y-71980815D01*
X122800998Y-71978306D01*
X122800291Y-71977521D01*
X122795871Y-71972612D01*
X122790529Y-71968731D01*
X122790527Y-71968729D01*
X122648072Y-71865230D01*
X122648071Y-71865229D01*
X122642730Y-71861349D01*
X122469803Y-71784356D01*
X122344791Y-71757784D01*
X122291103Y-71746372D01*
X122291099Y-71746372D01*
X122284646Y-71745000D01*
X122095354Y-71745000D01*
X122088901Y-71746372D01*
X122088897Y-71746372D01*
X122035209Y-71757784D01*
X121910197Y-71784356D01*
X121737270Y-71861349D01*
X121731929Y-71865229D01*
X121731928Y-71865230D01*
X121589473Y-71968729D01*
X121589471Y-71968731D01*
X121584129Y-71972612D01*
X121579709Y-71977521D01*
X121579002Y-71978306D01*
X121578479Y-71978628D01*
X121574802Y-71981939D01*
X121574197Y-71981267D01*
X121518558Y-72015548D01*
X121485362Y-72020000D01*
X113133800Y-72020000D01*
X113065679Y-71999998D01*
X113019186Y-71946342D01*
X113009082Y-71876068D01*
X113013967Y-71855064D01*
X113033632Y-71794542D01*
X113033633Y-71794538D01*
X113035674Y-71788256D01*
X113036365Y-71781685D01*
X113037721Y-71775303D01*
X113071449Y-71712830D01*
X113133599Y-71678508D01*
X113160968Y-71675500D01*
X120172297Y-71675500D01*
X120183257Y-71676017D01*
X120190667Y-71677673D01*
X120198593Y-71677424D01*
X120198594Y-71677424D01*
X120257841Y-71675562D01*
X120261799Y-71675500D01*
X120289350Y-71675500D01*
X120293273Y-71675004D01*
X120293388Y-71674997D01*
X120305068Y-71674077D01*
X120348627Y-71672709D01*
X120367716Y-71667163D01*
X120387062Y-71663156D01*
X120406792Y-71660664D01*
X120447323Y-71644616D01*
X120458524Y-71640781D01*
X120500390Y-71628618D01*
X120517499Y-71618500D01*
X120535245Y-71609805D01*
X120553732Y-71602486D01*
X120588991Y-71576869D01*
X120598910Y-71570354D01*
X120629590Y-71552210D01*
X120629594Y-71552207D01*
X120636420Y-71548170D01*
X120647185Y-71537405D01*
X120709497Y-71503379D01*
X120736280Y-71500500D01*
X120794646Y-71500500D01*
X120801099Y-71499128D01*
X120801103Y-71499128D01*
X120882223Y-71481885D01*
X120979803Y-71461144D01*
X121152730Y-71384151D01*
X121195382Y-71353163D01*
X121300532Y-71276767D01*
X121305871Y-71272888D01*
X121334699Y-71240872D01*
X121428114Y-71137124D01*
X121428115Y-71137123D01*
X121432533Y-71132216D01*
X121500698Y-71014151D01*
X121523875Y-70974007D01*
X121523876Y-70974006D01*
X121527179Y-70968284D01*
X121585674Y-70788256D01*
X121587823Y-70767814D01*
X121604770Y-70606565D01*
X121605460Y-70600000D01*
X121586956Y-70423941D01*
X121586364Y-70418307D01*
X121586364Y-70418305D01*
X121585674Y-70411744D01*
X121527179Y-70231716D01*
X121432533Y-70067784D01*
X121414996Y-70048307D01*
X121310286Y-69932015D01*
X121310284Y-69932014D01*
X121305871Y-69927112D01*
X121152730Y-69815849D01*
X120979803Y-69738856D01*
X120881788Y-69718022D01*
X120801103Y-69700872D01*
X120801099Y-69700872D01*
X120794646Y-69699500D01*
X120605354Y-69699500D01*
X120598901Y-69700872D01*
X120598897Y-69700872D01*
X120518212Y-69718022D01*
X120420197Y-69738856D01*
X120247270Y-69815849D01*
X120094129Y-69927112D01*
X120089716Y-69932014D01*
X120089714Y-69932015D01*
X119985004Y-70048307D01*
X119967467Y-70067784D01*
X119872821Y-70231716D01*
X119870780Y-70237998D01*
X119838470Y-70337437D01*
X119798396Y-70396042D01*
X119732999Y-70423679D01*
X119718637Y-70424500D01*
X112777698Y-70424500D01*
X112766737Y-70423983D01*
X112759332Y-70422328D01*
X112697473Y-70424272D01*
X112692176Y-70424438D01*
X112688219Y-70424500D01*
X112660650Y-70424500D01*
X112656715Y-70424997D01*
X112656605Y-70425004D01*
X112644934Y-70425922D01*
X112609296Y-70427042D01*
X112601372Y-70427291D01*
X112593759Y-70429503D01*
X112593752Y-70429504D01*
X112582282Y-70432836D01*
X112562926Y-70436845D01*
X112560866Y-70437105D01*
X112543208Y-70439336D01*
X112535842Y-70442253D01*
X112535836Y-70442254D01*
X112502683Y-70455381D01*
X112491450Y-70459227D01*
X112457220Y-70469171D01*
X112457213Y-70469174D01*
X112449610Y-70471383D01*
X112442794Y-70475414D01*
X112442791Y-70475415D01*
X112432504Y-70481499D01*
X112414752Y-70490195D01*
X112407335Y-70493132D01*
X112396268Y-70497514D01*
X112389853Y-70502175D01*
X112389849Y-70502177D01*
X112361013Y-70523127D01*
X112351094Y-70529643D01*
X112320402Y-70547794D01*
X112320397Y-70547798D01*
X112313579Y-70551830D01*
X112299526Y-70565883D01*
X112284493Y-70578723D01*
X112268413Y-70590406D01*
X112263360Y-70596514D01*
X112240635Y-70623984D01*
X112232645Y-70632764D01*
X112202814Y-70662595D01*
X112140502Y-70696621D01*
X112113719Y-70699500D01*
X112055354Y-70699500D01*
X112048901Y-70700872D01*
X112048897Y-70700872D01*
X111968212Y-70718022D01*
X111870197Y-70738856D01*
X111697270Y-70815849D01*
X111691929Y-70819729D01*
X111691928Y-70819730D01*
X111637308Y-70859414D01*
X111544129Y-70927112D01*
X111539716Y-70932014D01*
X111539714Y-70932015D01*
X111463340Y-71016837D01*
X111417467Y-71067784D01*
X111322821Y-71231716D01*
X111321297Y-71230836D01*
X111280927Y-71278332D01*
X111213000Y-71298982D01*
X111160554Y-71288095D01*
X111139803Y-71278856D01*
X111041788Y-71258022D01*
X110961103Y-71240872D01*
X110961099Y-71240872D01*
X110954646Y-71239500D01*
X110765354Y-71239500D01*
X110758901Y-71240872D01*
X110758897Y-71240872D01*
X110678212Y-71258022D01*
X110580197Y-71278856D01*
X110407270Y-71355849D01*
X110401929Y-71359729D01*
X110401928Y-71359730D01*
X110259468Y-71463233D01*
X110254129Y-71467112D01*
X110249716Y-71472014D01*
X110249714Y-71472015D01*
X110186196Y-71542559D01*
X110127467Y-71607784D01*
X110124164Y-71613505D01*
X110037562Y-71763505D01*
X110032821Y-71771716D01*
X109974326Y-71951744D01*
X109973636Y-71958305D01*
X109973636Y-71958307D01*
X109965767Y-72033175D01*
X109954540Y-72140000D01*
X109955230Y-72146565D01*
X109967285Y-72261259D01*
X109974326Y-72328256D01*
X110032821Y-72508284D01*
X110127467Y-72672216D01*
X110254129Y-72812888D01*
X110407270Y-72924151D01*
X110580197Y-73001144D01*
X110678212Y-73021978D01*
X110758897Y-73039128D01*
X110758901Y-73039128D01*
X110765354Y-73040500D01*
X110822502Y-73040500D01*
X110890623Y-73060502D01*
X110908754Y-73074649D01*
X110928722Y-73093400D01*
X110931565Y-73096156D01*
X110951029Y-73115620D01*
X110954159Y-73118048D01*
X110954241Y-73118120D01*
X110963149Y-73125729D01*
X110994918Y-73155562D01*
X111001865Y-73159381D01*
X111012332Y-73165135D01*
X111028861Y-73175992D01*
X111044564Y-73188173D01*
X111051839Y-73191321D01*
X111084558Y-73205480D01*
X111095218Y-73210702D01*
X111133408Y-73231697D01*
X111152664Y-73236641D01*
X111171353Y-73243040D01*
X111189604Y-73250938D01*
X111232659Y-73257757D01*
X111244263Y-73260160D01*
X111286481Y-73271000D01*
X111306356Y-73271000D01*
X111326066Y-73272551D01*
X111345696Y-73275660D01*
X111353588Y-73274914D01*
X111389079Y-73271559D01*
X111400937Y-73271000D01*
X112272868Y-73271000D01*
X112340989Y-73291002D01*
X112387482Y-73344658D01*
X112397586Y-73414932D01*
X112392703Y-73435929D01*
X112338826Y-73601744D01*
X112338136Y-73608305D01*
X112338136Y-73608307D01*
X112333078Y-73656436D01*
X112319040Y-73790000D01*
X112319730Y-73796565D01*
X112330772Y-73901621D01*
X112338826Y-73978256D01*
X112397321Y-74158284D01*
X112491967Y-74322216D01*
X112496385Y-74327123D01*
X112496386Y-74327124D01*
X112515460Y-74348307D01*
X112618629Y-74462888D01*
X112771770Y-74574151D01*
X112944697Y-74651144D01*
X113038847Y-74671156D01*
X113123397Y-74689128D01*
X113123401Y-74689128D01*
X113129854Y-74690500D01*
X113319146Y-74690500D01*
X113325599Y-74689128D01*
X113325603Y-74689128D01*
X113411725Y-74670822D01*
X113504303Y-74651144D01*
X113517490Y-74645273D01*
X113563919Y-74624601D01*
X113634286Y-74615167D01*
X113698583Y-74645273D01*
X113719948Y-74671401D01*
X113720285Y-74671156D01*
X113724164Y-74676496D01*
X113727467Y-74682216D01*
X113731885Y-74687123D01*
X113731886Y-74687124D01*
X113821947Y-74787146D01*
X113854129Y-74822888D01*
X113859468Y-74826767D01*
X113949253Y-74891999D01*
X114007270Y-74934151D01*
X114180197Y-75011144D01*
X114260299Y-75028170D01*
X114358897Y-75049128D01*
X114358901Y-75049128D01*
X114365354Y-75050500D01*
X114554646Y-75050500D01*
X114561099Y-75049128D01*
X114561103Y-75049128D01*
X114659701Y-75028170D01*
X114739803Y-75011144D01*
X114912730Y-74934151D01*
X114962097Y-74898284D01*
X115060527Y-74826771D01*
X115060529Y-74826769D01*
X115065871Y-74822888D01*
X115070290Y-74817980D01*
X115070420Y-74817863D01*
X115134428Y-74787146D01*
X115154730Y-74785500D01*
X127862297Y-74785500D01*
X127873257Y-74786017D01*
X127880667Y-74787673D01*
X127888593Y-74787424D01*
X127888594Y-74787424D01*
X127947841Y-74785562D01*
X127951799Y-74785500D01*
X127979350Y-74785500D01*
X127983273Y-74785004D01*
X127983388Y-74784997D01*
X127995068Y-74784077D01*
X128038627Y-74782709D01*
X128057716Y-74777163D01*
X128077062Y-74773156D01*
X128096792Y-74770664D01*
X128137323Y-74754616D01*
X128148524Y-74750781D01*
X128190390Y-74738618D01*
X128207499Y-74728500D01*
X128225245Y-74719805D01*
X128243732Y-74712486D01*
X128278991Y-74686869D01*
X128288910Y-74680354D01*
X128319590Y-74662210D01*
X128319594Y-74662207D01*
X128326420Y-74658170D01*
X128340470Y-74644120D01*
X128355504Y-74631279D01*
X128365173Y-74624254D01*
X128371587Y-74619594D01*
X128399370Y-74586010D01*
X128407359Y-74577231D01*
X130637349Y-72347242D01*
X130645469Y-72339853D01*
X130651877Y-72335786D01*
X130697885Y-72286793D01*
X130700640Y-72283951D01*
X130720120Y-72264471D01*
X130722548Y-72261341D01*
X130722620Y-72261259D01*
X130730229Y-72252351D01*
X130760062Y-72220582D01*
X130769636Y-72203167D01*
X130780493Y-72186638D01*
X130787814Y-72177200D01*
X130792673Y-72170936D01*
X130809979Y-72130943D01*
X130815200Y-72120287D01*
X130832376Y-72089045D01*
X130832380Y-72089036D01*
X130836197Y-72082092D01*
X130841140Y-72062839D01*
X130847544Y-72044136D01*
X130852287Y-72033175D01*
X130855437Y-72025896D01*
X130862254Y-71982852D01*
X130864662Y-71971229D01*
X130873529Y-71936696D01*
X130873529Y-71936695D01*
X130875500Y-71929019D01*
X130875500Y-71909144D01*
X130877051Y-71889433D01*
X130878920Y-71877633D01*
X130880160Y-71869804D01*
X130876059Y-71826420D01*
X130875500Y-71814563D01*
X130875500Y-52499455D01*
X130895502Y-52431334D01*
X130907864Y-52415144D01*
X130978114Y-52337124D01*
X130978115Y-52337123D01*
X130982533Y-52332216D01*
X131069925Y-52180849D01*
X131073875Y-52174007D01*
X131073876Y-52174006D01*
X131077179Y-52168284D01*
X131135674Y-51988256D01*
X131146077Y-51889281D01*
X131154770Y-51806565D01*
X131155460Y-51800000D01*
X131135674Y-51611744D01*
X131077179Y-51431716D01*
X130982533Y-51267784D01*
X130978114Y-51262876D01*
X130860286Y-51132015D01*
X130860284Y-51132014D01*
X130855871Y-51127112D01*
X130702730Y-51015849D01*
X130529803Y-50938856D01*
X130410206Y-50913435D01*
X130351103Y-50900872D01*
X130351099Y-50900872D01*
X130344646Y-50899500D01*
X130155354Y-50899500D01*
X130148901Y-50900872D01*
X130148897Y-50900872D01*
X130089794Y-50913435D01*
X129970197Y-50938856D01*
X129797270Y-51015849D01*
X129791929Y-51019729D01*
X129791928Y-51019730D01*
X129649473Y-51123229D01*
X129649471Y-51123231D01*
X129644129Y-51127112D01*
X129639711Y-51132019D01*
X129635809Y-51135532D01*
X129571800Y-51166248D01*
X129501347Y-51157482D01*
X129446817Y-51112018D01*
X129425500Y-51041894D01*
X129425500Y-41659455D01*
X129445502Y-41591334D01*
X129457864Y-41575144D01*
X129467128Y-41564856D01*
X129532533Y-41492216D01*
X129627179Y-41328284D01*
X129685674Y-41148256D01*
X129687201Y-41133732D01*
X129704770Y-40966565D01*
X129705460Y-40960000D01*
X129691878Y-40830774D01*
X129686364Y-40778307D01*
X129686364Y-40778305D01*
X129685674Y-40771744D01*
X129627179Y-40591716D01*
X129620346Y-40579880D01*
X129535836Y-40433505D01*
X129532533Y-40427784D01*
X129524742Y-40419131D01*
X129410286Y-40292015D01*
X129410284Y-40292014D01*
X129405871Y-40287112D01*
X129363039Y-40255993D01*
X129258072Y-40179730D01*
X129258071Y-40179729D01*
X129252730Y-40175849D01*
X129079803Y-40098856D01*
X128981788Y-40078022D01*
X128901103Y-40060872D01*
X128901099Y-40060872D01*
X128894646Y-40059500D01*
X128705354Y-40059500D01*
X128698901Y-40060872D01*
X128698897Y-40060872D01*
X128618212Y-40078022D01*
X128520197Y-40098856D01*
X128347270Y-40175849D01*
X128341929Y-40179729D01*
X128341928Y-40179730D01*
X128236961Y-40255993D01*
X128194129Y-40287112D01*
X128189716Y-40292014D01*
X128189714Y-40292015D01*
X128075258Y-40419131D01*
X128067467Y-40427784D01*
X128064164Y-40433505D01*
X127979655Y-40579880D01*
X127972821Y-40591716D01*
X127914326Y-40771744D01*
X127913636Y-40778305D01*
X127913636Y-40778307D01*
X127908122Y-40830774D01*
X127894540Y-40960000D01*
X127895230Y-40966565D01*
X127912800Y-41133732D01*
X127914326Y-41148256D01*
X127972821Y-41328284D01*
X128067467Y-41492216D01*
X128132873Y-41564856D01*
X128142136Y-41575144D01*
X128172853Y-41639152D01*
X128174500Y-41659455D01*
X128174500Y-50592890D01*
X128154498Y-50661011D01*
X128100842Y-50707504D01*
X128030568Y-50717608D01*
X127966187Y-50687463D01*
X127965871Y-50687112D01*
X127845971Y-50600000D01*
X127818072Y-50579730D01*
X127818071Y-50579729D01*
X127812730Y-50575849D01*
X127639803Y-50498856D01*
X127541788Y-50478022D01*
X127461103Y-50460872D01*
X127461099Y-50460872D01*
X127454646Y-50459500D01*
X127396281Y-50459500D01*
X127328160Y-50439498D01*
X127307186Y-50422595D01*
X126982244Y-50097653D01*
X126974853Y-50089531D01*
X126970786Y-50083123D01*
X126965011Y-50077700D01*
X126965007Y-50077695D01*
X126921777Y-50037099D01*
X126918935Y-50034344D01*
X126899471Y-50014880D01*
X126896341Y-50012452D01*
X126896259Y-50012380D01*
X126887351Y-50004771D01*
X126855582Y-49974938D01*
X126838167Y-49965364D01*
X126821638Y-49954507D01*
X126812200Y-49947186D01*
X126805936Y-49942327D01*
X126765942Y-49925020D01*
X126755282Y-49919798D01*
X126750041Y-49916917D01*
X126717092Y-49898803D01*
X126697836Y-49893859D01*
X126679147Y-49887460D01*
X126660896Y-49879562D01*
X126617841Y-49872743D01*
X126606237Y-49870340D01*
X126564019Y-49859500D01*
X126544144Y-49859500D01*
X126524434Y-49857949D01*
X126512633Y-49856080D01*
X126504804Y-49854840D01*
X126496912Y-49855586D01*
X126461421Y-49858941D01*
X126449563Y-49859500D01*
X125179316Y-49859500D01*
X125111195Y-49839498D01*
X125064702Y-49785842D01*
X125054006Y-49746670D01*
X125036364Y-49578807D01*
X125036364Y-49578805D01*
X125035674Y-49572244D01*
X124977179Y-49392216D01*
X124882533Y-49228284D01*
X124862022Y-49205504D01*
X124760286Y-49092515D01*
X124760284Y-49092514D01*
X124755871Y-49087612D01*
X124690875Y-49040390D01*
X124608072Y-48980230D01*
X124608071Y-48980229D01*
X124602730Y-48976349D01*
X124429803Y-48899356D01*
X124331788Y-48878522D01*
X124251103Y-48861372D01*
X124251099Y-48861372D01*
X124244646Y-48860000D01*
X124055354Y-48860000D01*
X124048901Y-48861372D01*
X124048897Y-48861372D01*
X123968212Y-48878522D01*
X123870197Y-48899356D01*
X123697270Y-48976349D01*
X123691929Y-48980229D01*
X123691928Y-48980230D01*
X123549473Y-49083729D01*
X123549471Y-49083731D01*
X123544129Y-49087612D01*
X123539709Y-49092521D01*
X123539002Y-49093306D01*
X123538479Y-49093628D01*
X123534802Y-49096939D01*
X123534197Y-49096267D01*
X123478558Y-49130548D01*
X123445362Y-49135000D01*
X90411781Y-49135000D01*
X90343660Y-49114998D01*
X90322686Y-49098095D01*
X89552405Y-48327814D01*
X89518379Y-48265502D01*
X89515500Y-48238719D01*
X89515500Y-42089455D01*
X89535502Y-42021334D01*
X89547864Y-42005144D01*
X89559930Y-41991744D01*
X89622533Y-41922216D01*
X89667407Y-41844492D01*
X89713875Y-41764007D01*
X89713876Y-41764006D01*
X89717179Y-41758284D01*
X89775674Y-41578256D01*
X89777083Y-41564856D01*
X89794770Y-41396565D01*
X89795460Y-41390000D01*
X89781964Y-41261587D01*
X89776364Y-41208307D01*
X89776364Y-41208305D01*
X89775674Y-41201744D01*
X89726369Y-41050000D01*
X94884540Y-41050000D01*
X94885230Y-41056565D01*
X94900489Y-41201744D01*
X94904326Y-41238256D01*
X94962821Y-41418284D01*
X94966124Y-41424006D01*
X94966125Y-41424007D01*
X95006209Y-41493435D01*
X95057467Y-41582216D01*
X95061885Y-41587123D01*
X95061886Y-41587124D01*
X95147037Y-41681693D01*
X95184129Y-41722888D01*
X95189468Y-41726767D01*
X95298514Y-41805993D01*
X95337270Y-41834151D01*
X95510197Y-41911144D01*
X95585378Y-41927124D01*
X95688897Y-41949128D01*
X95688901Y-41949128D01*
X95695354Y-41950500D01*
X95766937Y-41950500D01*
X95835058Y-41970502D01*
X95881551Y-42024158D01*
X95892247Y-42063330D01*
X95902552Y-42161373D01*
X95904326Y-42178256D01*
X95962821Y-42358284D01*
X95966124Y-42364006D01*
X95966125Y-42364007D01*
X96009553Y-42439226D01*
X96057467Y-42522216D01*
X96061885Y-42527123D01*
X96061886Y-42527124D01*
X96176232Y-42654117D01*
X96184129Y-42662888D01*
X96189468Y-42666767D01*
X96302679Y-42749019D01*
X96337270Y-42774151D01*
X96510197Y-42851144D01*
X96608212Y-42871978D01*
X96688897Y-42889128D01*
X96688901Y-42889128D01*
X96695354Y-42890500D01*
X96760316Y-42890500D01*
X96828437Y-42910502D01*
X96874930Y-42964158D01*
X96885161Y-43026830D01*
X96885230Y-43026830D01*
X96885230Y-43027254D01*
X96885625Y-43029674D01*
X96884540Y-43040000D01*
X96904326Y-43228256D01*
X96962821Y-43408284D01*
X97057467Y-43572216D01*
X97061885Y-43577123D01*
X97061886Y-43577124D01*
X97141461Y-43665500D01*
X97184129Y-43712888D01*
X97337270Y-43824151D01*
X97510197Y-43901144D01*
X97608212Y-43921978D01*
X97688897Y-43939128D01*
X97688901Y-43939128D01*
X97695354Y-43940500D01*
X97884646Y-43940500D01*
X97891099Y-43939128D01*
X97891103Y-43939128D01*
X97971788Y-43921978D01*
X98069803Y-43901144D01*
X98242730Y-43824151D01*
X98248072Y-43820270D01*
X98390527Y-43716771D01*
X98390529Y-43716769D01*
X98395871Y-43712888D01*
X98400998Y-43707194D01*
X98401521Y-43706872D01*
X98405198Y-43703561D01*
X98405803Y-43704233D01*
X98461442Y-43669952D01*
X98494638Y-43665500D01*
X98888720Y-43665500D01*
X98956841Y-43685502D01*
X98977815Y-43702405D01*
X100032758Y-44757349D01*
X100040147Y-44765469D01*
X100044214Y-44771877D01*
X100049992Y-44777303D01*
X100093207Y-44817885D01*
X100096049Y-44820640D01*
X100115529Y-44840120D01*
X100118659Y-44842548D01*
X100118741Y-44842620D01*
X100127649Y-44850229D01*
X100159418Y-44880062D01*
X100166365Y-44883881D01*
X100176832Y-44889635D01*
X100193361Y-44900492D01*
X100209064Y-44912673D01*
X100238481Y-44925403D01*
X100249058Y-44929980D01*
X100259718Y-44935202D01*
X100297908Y-44956197D01*
X100317164Y-44961141D01*
X100335853Y-44967540D01*
X100354104Y-44975438D01*
X100397159Y-44982257D01*
X100408763Y-44984660D01*
X100450981Y-44995500D01*
X100470856Y-44995500D01*
X100490566Y-44997051D01*
X100510196Y-45000160D01*
X100518088Y-44999414D01*
X100553579Y-44996059D01*
X100565437Y-44995500D01*
X118132297Y-44995500D01*
X118143257Y-44996017D01*
X118150667Y-44997673D01*
X118158593Y-44997424D01*
X118158594Y-44997424D01*
X118217841Y-44995562D01*
X118221799Y-44995500D01*
X118249350Y-44995500D01*
X118253273Y-44995004D01*
X118253388Y-44994997D01*
X118265068Y-44994077D01*
X118308627Y-44992709D01*
X118327716Y-44987163D01*
X118347062Y-44983156D01*
X118366792Y-44980664D01*
X118407323Y-44964616D01*
X118418524Y-44960781D01*
X118460390Y-44948618D01*
X118477499Y-44938500D01*
X118495245Y-44929805D01*
X118513732Y-44922486D01*
X118548991Y-44896869D01*
X118558910Y-44890354D01*
X118589590Y-44872210D01*
X118589594Y-44872207D01*
X118596420Y-44868170D01*
X118610470Y-44854120D01*
X118625504Y-44841279D01*
X118635173Y-44834254D01*
X118641587Y-44829594D01*
X118669370Y-44796010D01*
X118677359Y-44787231D01*
X120297349Y-43167242D01*
X120305469Y-43159853D01*
X120311877Y-43155786D01*
X120357885Y-43106793D01*
X120360640Y-43103951D01*
X120380120Y-43084471D01*
X120382548Y-43081341D01*
X120382620Y-43081259D01*
X120390229Y-43072351D01*
X120420062Y-43040582D01*
X120429636Y-43023167D01*
X120440493Y-43006638D01*
X120447814Y-42997200D01*
X120452673Y-42990936D01*
X120469980Y-42950942D01*
X120475202Y-42940282D01*
X120478083Y-42935041D01*
X120496197Y-42902092D01*
X120501141Y-42882836D01*
X120507540Y-42864147D01*
X120515438Y-42845896D01*
X120522257Y-42802841D01*
X120524660Y-42791237D01*
X120535500Y-42749019D01*
X120535500Y-42729144D01*
X120537051Y-42709434D01*
X120538920Y-42697633D01*
X120540160Y-42689804D01*
X120536059Y-42646420D01*
X120535500Y-42634563D01*
X120535500Y-42199455D01*
X120555502Y-42131334D01*
X120567864Y-42115144D01*
X120638114Y-42037124D01*
X120638115Y-42037123D01*
X120642533Y-42032216D01*
X120658163Y-42005144D01*
X120733875Y-41874007D01*
X120733876Y-41874006D01*
X120737179Y-41868284D01*
X120795674Y-41688256D01*
X120799327Y-41653505D01*
X120814770Y-41506565D01*
X120815460Y-41500000D01*
X120798014Y-41334007D01*
X120796364Y-41318307D01*
X120796364Y-41318305D01*
X120795674Y-41311744D01*
X120737179Y-41131716D01*
X120722351Y-41106032D01*
X120645836Y-40973505D01*
X120642533Y-40967784D01*
X120574883Y-40892651D01*
X120520286Y-40832015D01*
X120520284Y-40832014D01*
X120515871Y-40827112D01*
X120496014Y-40812685D01*
X120368072Y-40719730D01*
X120368071Y-40719729D01*
X120362730Y-40715849D01*
X120189803Y-40638856D01*
X120089758Y-40617591D01*
X120011103Y-40600872D01*
X120011099Y-40600872D01*
X120004646Y-40599500D01*
X119815354Y-40599500D01*
X119808901Y-40600872D01*
X119808897Y-40600872D01*
X119730242Y-40617591D01*
X119630197Y-40638856D01*
X119457270Y-40715849D01*
X119382823Y-40769938D01*
X119379061Y-40772671D01*
X119312193Y-40796530D01*
X119243042Y-40780449D01*
X119230939Y-40772671D01*
X119227178Y-40769938D01*
X119152730Y-40715849D01*
X118979803Y-40638856D01*
X118879758Y-40617591D01*
X118801103Y-40600872D01*
X118801099Y-40600872D01*
X118794646Y-40599500D01*
X118605354Y-40599500D01*
X118598901Y-40600872D01*
X118598897Y-40600872D01*
X118520242Y-40617591D01*
X118420197Y-40638856D01*
X118247270Y-40715849D01*
X118129060Y-40801733D01*
X118062193Y-40825592D01*
X117993042Y-40809511D01*
X117980945Y-40801737D01*
X117862730Y-40715849D01*
X117689803Y-40638856D01*
X117589758Y-40617591D01*
X117511103Y-40600872D01*
X117511099Y-40600872D01*
X117504646Y-40599500D01*
X117315354Y-40599500D01*
X117308901Y-40600872D01*
X117308897Y-40600872D01*
X117230242Y-40617591D01*
X117130197Y-40638856D01*
X116957270Y-40715849D01*
X116951929Y-40719729D01*
X116951928Y-40719730D01*
X116823986Y-40812685D01*
X116804129Y-40827112D01*
X116799716Y-40832014D01*
X116799714Y-40832015D01*
X116745117Y-40892651D01*
X116677467Y-40967784D01*
X116674164Y-40973505D01*
X116597650Y-41106032D01*
X116582821Y-41131716D01*
X116524326Y-41311744D01*
X116523636Y-41318305D01*
X116523636Y-41318307D01*
X116521986Y-41334007D01*
X116513129Y-41418284D01*
X116506753Y-41478946D01*
X116479740Y-41544603D01*
X116470538Y-41554871D01*
X115375026Y-42650383D01*
X115312714Y-42684409D01*
X115285931Y-42687288D01*
X106235438Y-42687288D01*
X106167317Y-42667286D01*
X106120824Y-42613630D01*
X106110720Y-42543356D01*
X106115605Y-42522352D01*
X106163634Y-42374534D01*
X106165674Y-42368256D01*
X106166422Y-42361144D01*
X106184770Y-42186565D01*
X106185460Y-42180000D01*
X106169928Y-42032216D01*
X106166364Y-41998307D01*
X106166364Y-41998305D01*
X106165674Y-41991744D01*
X106107179Y-41811716D01*
X106100782Y-41800635D01*
X106015836Y-41653505D01*
X106012533Y-41647784D01*
X105937864Y-41564856D01*
X105907147Y-41500848D01*
X105905500Y-41480545D01*
X105905500Y-38731280D01*
X105925502Y-38663159D01*
X105942405Y-38642185D01*
X107522186Y-37062405D01*
X107584498Y-37028379D01*
X107611281Y-37025500D01*
X122273259Y-37025500D01*
X122341380Y-37045502D01*
X122387873Y-37099158D01*
X122398568Y-37138327D01*
X122414326Y-37288256D01*
X122472821Y-37468284D01*
X122476124Y-37474006D01*
X122476125Y-37474007D01*
X122504979Y-37523983D01*
X122567467Y-37632216D01*
X122571885Y-37637123D01*
X122571886Y-37637124D01*
X122681079Y-37758394D01*
X122694129Y-37772888D01*
X122699468Y-37776767D01*
X122807051Y-37854930D01*
X122847270Y-37884151D01*
X123020197Y-37961144D01*
X123097890Y-37977658D01*
X123198897Y-37999128D01*
X123198901Y-37999128D01*
X123205354Y-38000500D01*
X123394646Y-38000500D01*
X123401099Y-37999128D01*
X123401103Y-37999128D01*
X123502110Y-37977658D01*
X123579803Y-37961144D01*
X123752730Y-37884151D01*
X123792950Y-37854930D01*
X123900532Y-37776767D01*
X123905871Y-37772888D01*
X123918922Y-37758394D01*
X124028114Y-37637124D01*
X124028115Y-37637123D01*
X124032533Y-37632216D01*
X124095021Y-37523983D01*
X124123875Y-37474007D01*
X124123876Y-37474006D01*
X124127179Y-37468284D01*
X124185674Y-37288256D01*
X124198000Y-37170984D01*
X124204770Y-37106565D01*
X124205460Y-37100000D01*
X124185674Y-36911744D01*
X124127179Y-36731716D01*
X124032533Y-36567784D01*
X123905871Y-36427112D01*
X123752730Y-36315849D01*
X123579803Y-36238856D01*
X123481788Y-36218022D01*
X123401103Y-36200872D01*
X123401099Y-36200872D01*
X123394646Y-36199500D01*
X123336281Y-36199500D01*
X123268160Y-36179498D01*
X123247186Y-36162595D01*
X123097242Y-36012651D01*
X123089853Y-36004531D01*
X123085786Y-35998123D01*
X123036793Y-35952115D01*
X123033951Y-35949360D01*
X123014471Y-35929880D01*
X123011341Y-35927452D01*
X123011259Y-35927380D01*
X123002351Y-35919771D01*
X122970582Y-35889938D01*
X122953167Y-35880364D01*
X122936638Y-35869507D01*
X122933221Y-35866856D01*
X122920936Y-35857327D01*
X122880942Y-35840020D01*
X122870282Y-35834798D01*
X122853214Y-35825415D01*
X122832092Y-35813803D01*
X122812836Y-35808859D01*
X122794147Y-35802460D01*
X122775896Y-35794562D01*
X122732841Y-35787743D01*
X122721237Y-35785340D01*
X122679019Y-35774500D01*
X122659144Y-35774500D01*
X122639434Y-35772949D01*
X122627633Y-35771080D01*
X122619804Y-35769840D01*
X122611912Y-35770586D01*
X122576421Y-35773941D01*
X122564563Y-35774500D01*
X107377698Y-35774500D01*
X107366737Y-35773983D01*
X107359332Y-35772328D01*
X107297473Y-35774272D01*
X107292176Y-35774438D01*
X107288219Y-35774500D01*
X107260650Y-35774500D01*
X107256715Y-35774997D01*
X107256605Y-35775004D01*
X107244934Y-35775922D01*
X107209296Y-35777042D01*
X107201372Y-35777291D01*
X107193759Y-35779503D01*
X107193752Y-35779504D01*
X107182282Y-35782836D01*
X107162926Y-35786845D01*
X107160866Y-35787105D01*
X107143208Y-35789336D01*
X107135842Y-35792253D01*
X107135836Y-35792254D01*
X107102683Y-35805381D01*
X107091450Y-35809227D01*
X107057220Y-35819171D01*
X107057213Y-35819174D01*
X107049610Y-35821383D01*
X107042794Y-35825414D01*
X107042791Y-35825415D01*
X107032504Y-35831499D01*
X107014752Y-35840195D01*
X107007335Y-35843132D01*
X106996268Y-35847514D01*
X106989853Y-35852175D01*
X106989849Y-35852177D01*
X106961013Y-35873127D01*
X106951094Y-35879643D01*
X106920402Y-35897794D01*
X106920397Y-35897798D01*
X106913579Y-35901830D01*
X106899526Y-35915883D01*
X106884493Y-35928723D01*
X106868413Y-35940406D01*
X106863360Y-35946514D01*
X106840635Y-35973984D01*
X106832645Y-35982764D01*
X104892651Y-37922758D01*
X104884531Y-37930147D01*
X104878123Y-37934214D01*
X104872697Y-37939992D01*
X104832115Y-37983207D01*
X104829360Y-37986049D01*
X104809880Y-38005529D01*
X104807452Y-38008659D01*
X104807380Y-38008741D01*
X104799771Y-38017649D01*
X104769938Y-38049418D01*
X104766119Y-38056365D01*
X104760365Y-38066832D01*
X104749508Y-38083361D01*
X104737327Y-38099064D01*
X104734179Y-38106339D01*
X104720020Y-38139058D01*
X104714798Y-38149718D01*
X104693803Y-38187908D01*
X104688859Y-38207164D01*
X104682460Y-38225853D01*
X104674562Y-38244104D01*
X104673322Y-38251934D01*
X104667744Y-38287154D01*
X104665340Y-38298763D01*
X104654500Y-38340981D01*
X104654500Y-38360856D01*
X104652949Y-38380566D01*
X104649840Y-38400196D01*
X104650586Y-38408088D01*
X104653941Y-38443579D01*
X104654500Y-38455437D01*
X104654500Y-41480545D01*
X104634498Y-41548666D01*
X104622137Y-41564855D01*
X104547467Y-41647784D01*
X104544164Y-41653505D01*
X104459219Y-41800635D01*
X104452821Y-41811716D01*
X104394326Y-41991744D01*
X104393636Y-41998305D01*
X104393636Y-41998307D01*
X104390072Y-42032216D01*
X104374540Y-42180000D01*
X104375230Y-42186565D01*
X104393579Y-42361144D01*
X104394326Y-42368256D01*
X104396366Y-42374534D01*
X104444395Y-42522352D01*
X104446423Y-42593319D01*
X104409760Y-42654117D01*
X104346048Y-42685443D01*
X104324562Y-42687288D01*
X101674069Y-42687288D01*
X101605948Y-42667286D01*
X101584974Y-42650383D01*
X99597242Y-40662651D01*
X99589853Y-40654531D01*
X99585786Y-40648123D01*
X99536793Y-40602115D01*
X99533951Y-40599360D01*
X99514471Y-40579880D01*
X99511341Y-40577452D01*
X99511259Y-40577380D01*
X99502351Y-40569771D01*
X99470582Y-40539938D01*
X99453167Y-40530364D01*
X99436638Y-40519507D01*
X99427200Y-40512186D01*
X99420936Y-40507327D01*
X99380942Y-40490020D01*
X99370282Y-40484798D01*
X99365041Y-40481917D01*
X99332092Y-40463803D01*
X99312836Y-40458859D01*
X99294147Y-40452460D01*
X99275896Y-40444562D01*
X99232841Y-40437743D01*
X99221237Y-40435340D01*
X99179019Y-40424500D01*
X99159144Y-40424500D01*
X99139434Y-40422949D01*
X99127633Y-40421080D01*
X99119804Y-40419840D01*
X99111912Y-40420586D01*
X99076421Y-40423941D01*
X99064563Y-40424500D01*
X96494638Y-40424500D01*
X96426517Y-40404498D01*
X96405230Y-40386403D01*
X96405198Y-40386439D01*
X96403950Y-40385315D01*
X96400998Y-40382806D01*
X96400291Y-40382021D01*
X96395871Y-40377112D01*
X96390529Y-40373231D01*
X96390527Y-40373229D01*
X96248072Y-40269730D01*
X96248071Y-40269729D01*
X96242730Y-40265849D01*
X96069803Y-40188856D01*
X95971788Y-40168022D01*
X95891103Y-40150872D01*
X95891099Y-40150872D01*
X95884646Y-40149500D01*
X95695354Y-40149500D01*
X95688901Y-40150872D01*
X95688897Y-40150872D01*
X95608212Y-40168022D01*
X95510197Y-40188856D01*
X95337270Y-40265849D01*
X95184129Y-40377112D01*
X95179716Y-40382014D01*
X95179714Y-40382015D01*
X95062507Y-40512186D01*
X95057467Y-40517784D01*
X95054164Y-40523505D01*
X94967431Y-40673732D01*
X94962821Y-40681716D01*
X94904326Y-40861744D01*
X94903636Y-40868305D01*
X94903636Y-40868307D01*
X94897296Y-40928627D01*
X94884540Y-41050000D01*
X89726369Y-41050000D01*
X89717179Y-41021716D01*
X89689345Y-40973505D01*
X89625836Y-40863505D01*
X89622533Y-40857784D01*
X89600355Y-40833153D01*
X89500286Y-40722015D01*
X89500284Y-40722014D01*
X89495871Y-40717112D01*
X89412488Y-40656531D01*
X89348072Y-40609730D01*
X89348071Y-40609729D01*
X89342730Y-40605849D01*
X89169803Y-40528856D01*
X89053706Y-40504179D01*
X88991103Y-40490872D01*
X88991099Y-40490872D01*
X88984646Y-40489500D01*
X88882735Y-40489500D01*
X88814614Y-40469498D01*
X88768121Y-40415842D01*
X88762902Y-40402436D01*
X88719221Y-40268001D01*
X88717179Y-40261716D01*
X88669845Y-40179730D01*
X88625836Y-40103505D01*
X88622533Y-40097784D01*
X88495871Y-39957112D01*
X88342730Y-39845849D01*
X88169803Y-39768856D01*
X88071788Y-39748022D01*
X87991103Y-39730872D01*
X87991099Y-39730872D01*
X87984646Y-39729500D01*
X87795354Y-39729500D01*
X87788901Y-39730872D01*
X87788897Y-39730872D01*
X87708212Y-39748022D01*
X87610197Y-39768856D01*
X87437270Y-39845849D01*
X87284129Y-39957112D01*
X87157467Y-40097784D01*
X87154164Y-40103505D01*
X87110156Y-40179730D01*
X87062821Y-40261716D01*
X87004326Y-40441744D01*
X87003636Y-40448305D01*
X87003636Y-40448307D01*
X86990548Y-40572837D01*
X86984540Y-40630000D01*
X86985230Y-40636565D01*
X87003446Y-40809880D01*
X87004326Y-40818256D01*
X87062821Y-40998284D01*
X87157467Y-41162216D01*
X87220025Y-41231693D01*
X87232136Y-41245144D01*
X87262853Y-41309152D01*
X87264500Y-41329455D01*
X87264500Y-48712297D01*
X87263983Y-48723257D01*
X87262327Y-48730667D01*
X87262576Y-48738593D01*
X87262576Y-48738594D01*
X87264438Y-48797841D01*
X87264500Y-48801799D01*
X87264500Y-48829350D01*
X87264996Y-48833273D01*
X87265003Y-48833388D01*
X87265923Y-48845068D01*
X87267291Y-48888627D01*
X87272836Y-48907712D01*
X87276844Y-48927062D01*
X87279336Y-48946792D01*
X87295384Y-48987323D01*
X87299219Y-48998524D01*
X87311382Y-49040390D01*
X87321498Y-49057494D01*
X87330195Y-49075245D01*
X87337514Y-49093732D01*
X87352965Y-49114998D01*
X87363129Y-49128988D01*
X87369646Y-49138910D01*
X87387790Y-49169590D01*
X87387793Y-49169594D01*
X87391830Y-49176420D01*
X87405880Y-49190470D01*
X87418721Y-49205504D01*
X87430406Y-49221587D01*
X87436514Y-49226640D01*
X87463989Y-49249369D01*
X87472769Y-49257359D01*
X88600314Y-50384905D01*
X88634340Y-50447217D01*
X88629275Y-50518033D01*
X88586728Y-50574868D01*
X88520208Y-50599679D01*
X88511219Y-50600000D01*
X83066781Y-50600000D01*
X82998660Y-50579998D01*
X82977686Y-50563095D01*
X82802405Y-50387814D01*
X82768379Y-50325502D01*
X82765500Y-50298719D01*
X82765500Y-42337698D01*
X82766017Y-42326737D01*
X82767672Y-42319332D01*
X82765562Y-42252176D01*
X82765500Y-42248219D01*
X82765500Y-42220650D01*
X82765003Y-42216715D01*
X82764996Y-42216605D01*
X82764078Y-42204934D01*
X82762958Y-42169297D01*
X82762709Y-42161373D01*
X82757165Y-42142291D01*
X82753155Y-42122928D01*
X82751657Y-42111069D01*
X82750664Y-42103208D01*
X82747747Y-42095841D01*
X82747746Y-42095836D01*
X82734620Y-42062683D01*
X82730776Y-42051456D01*
X82720830Y-42017223D01*
X82720827Y-42017215D01*
X82718617Y-42009610D01*
X82714586Y-42002794D01*
X82714585Y-42002791D01*
X82708501Y-41992504D01*
X82699805Y-41974752D01*
X82695406Y-41963643D01*
X82692486Y-41956268D01*
X82687825Y-41949853D01*
X82687823Y-41949849D01*
X82666873Y-41921013D01*
X82660357Y-41911094D01*
X82642206Y-41880402D01*
X82642202Y-41880397D01*
X82638170Y-41873579D01*
X82624117Y-41859526D01*
X82611276Y-41844492D01*
X82604254Y-41834827D01*
X82599594Y-41828413D01*
X82566016Y-41800635D01*
X82557236Y-41792645D01*
X81657242Y-40892651D01*
X81649853Y-40884531D01*
X81645786Y-40878123D01*
X81596793Y-40832115D01*
X81593951Y-40829360D01*
X81574471Y-40809880D01*
X81571341Y-40807452D01*
X81571259Y-40807380D01*
X81562351Y-40799771D01*
X81530582Y-40769938D01*
X81513167Y-40760364D01*
X81496638Y-40749507D01*
X81487200Y-40742186D01*
X81480936Y-40737327D01*
X81440942Y-40720020D01*
X81430282Y-40714798D01*
X81419713Y-40708988D01*
X81392092Y-40693803D01*
X81372836Y-40688859D01*
X81354147Y-40682460D01*
X81335896Y-40674562D01*
X81292841Y-40667743D01*
X81281237Y-40665340D01*
X81239019Y-40654500D01*
X81219144Y-40654500D01*
X81199434Y-40652949D01*
X81187633Y-40651080D01*
X81179804Y-40649840D01*
X81137151Y-40653872D01*
X81136421Y-40653941D01*
X81124563Y-40654500D01*
X78171281Y-40654500D01*
X78103160Y-40634498D01*
X78082181Y-40617591D01*
X78072400Y-40607809D01*
X78038378Y-40545495D01*
X78035500Y-40518718D01*
X78035500Y-40221499D01*
X78055502Y-40153378D01*
X78109158Y-40106885D01*
X78161500Y-40095499D01*
X78507376Y-40095499D01*
X78510770Y-40095130D01*
X78510776Y-40095130D01*
X78560722Y-40089705D01*
X78560726Y-40089704D01*
X78568580Y-40088851D01*
X78702824Y-40038526D01*
X78710003Y-40033146D01*
X78710006Y-40033144D01*
X78810365Y-39957928D01*
X78817546Y-39952546D01*
X78822928Y-39945365D01*
X78898144Y-39845006D01*
X78898146Y-39845003D01*
X78903526Y-39837824D01*
X78953851Y-39703580D01*
X78960500Y-39642377D01*
X78960499Y-38797624D01*
X78960499Y-38797623D01*
X79459500Y-38797623D01*
X79459501Y-39642376D01*
X79466149Y-39703580D01*
X79516474Y-39837824D01*
X79521854Y-39845003D01*
X79521856Y-39845006D01*
X79597072Y-39945365D01*
X79602454Y-39952546D01*
X79609635Y-39957928D01*
X79709994Y-40033144D01*
X79709997Y-40033146D01*
X79717176Y-40038526D01*
X79776785Y-40060872D01*
X79844025Y-40086079D01*
X79844027Y-40086079D01*
X79851420Y-40088851D01*
X79859270Y-40089704D01*
X79859271Y-40089704D01*
X79888469Y-40092876D01*
X79912623Y-40095500D01*
X81009839Y-40095500D01*
X82107376Y-40095499D01*
X82110770Y-40095130D01*
X82110776Y-40095130D01*
X82160722Y-40089705D01*
X82160726Y-40089704D01*
X82168580Y-40088851D01*
X82302824Y-40038526D01*
X82310003Y-40033146D01*
X82310006Y-40033144D01*
X82410365Y-39957928D01*
X82417546Y-39952546D01*
X82422928Y-39945365D01*
X82498144Y-39845006D01*
X82498146Y-39845003D01*
X82503526Y-39837824D01*
X82553851Y-39703580D01*
X82560500Y-39642377D01*
X82560499Y-38797624D01*
X82553851Y-38736420D01*
X82551077Y-38729020D01*
X82551076Y-38729016D01*
X82513668Y-38629228D01*
X82508485Y-38558421D01*
X82513668Y-38540772D01*
X82551078Y-38440978D01*
X82551079Y-38440976D01*
X82553851Y-38433580D01*
X82560500Y-38372377D01*
X82560499Y-37527624D01*
X82557120Y-37496514D01*
X82554705Y-37474278D01*
X82554704Y-37474274D01*
X82553851Y-37466420D01*
X82551077Y-37459020D01*
X82551076Y-37459016D01*
X82513668Y-37359228D01*
X82508485Y-37288421D01*
X82513668Y-37270772D01*
X82551078Y-37170978D01*
X82551079Y-37170976D01*
X82553851Y-37163580D01*
X82560500Y-37102377D01*
X82560499Y-36257624D01*
X82560130Y-36254224D01*
X82554705Y-36204278D01*
X82554704Y-36204274D01*
X82553851Y-36196420D01*
X82503526Y-36062176D01*
X82498146Y-36054997D01*
X82498144Y-36054994D01*
X82422928Y-35954635D01*
X82417546Y-35947454D01*
X82380600Y-35919764D01*
X82310006Y-35866856D01*
X82310003Y-35866854D01*
X82302824Y-35861474D01*
X82185847Y-35817622D01*
X82175975Y-35813921D01*
X82175973Y-35813921D01*
X82168580Y-35811149D01*
X82160730Y-35810296D01*
X82160729Y-35810296D01*
X82110774Y-35804869D01*
X82110773Y-35804869D01*
X82107377Y-35804500D01*
X81010161Y-35804500D01*
X79912624Y-35804501D01*
X79909230Y-35804870D01*
X79909224Y-35804870D01*
X79859278Y-35810295D01*
X79859274Y-35810296D01*
X79851420Y-35811149D01*
X79717176Y-35861474D01*
X79709997Y-35866854D01*
X79709994Y-35866856D01*
X79639400Y-35919764D01*
X79602454Y-35947454D01*
X79597072Y-35954635D01*
X79521856Y-36054994D01*
X79521854Y-36054997D01*
X79516474Y-36062176D01*
X79466149Y-36196420D01*
X79459500Y-36257623D01*
X79459501Y-37102376D01*
X79466149Y-37163580D01*
X79468923Y-37170980D01*
X79468924Y-37170984D01*
X79506332Y-37270772D01*
X79511515Y-37341579D01*
X79506332Y-37359228D01*
X79468922Y-37459022D01*
X79466149Y-37466420D01*
X79459500Y-37527623D01*
X79459501Y-38372376D01*
X79459870Y-38375770D01*
X79459870Y-38375776D01*
X79463533Y-38409493D01*
X79466149Y-38433580D01*
X79468923Y-38440980D01*
X79468924Y-38440984D01*
X79506332Y-38540772D01*
X79511515Y-38611579D01*
X79506332Y-38629228D01*
X79468922Y-38729022D01*
X79466149Y-38736420D01*
X79459500Y-38797623D01*
X78960499Y-38797623D01*
X78953851Y-38736420D01*
X78951077Y-38729020D01*
X78951076Y-38729016D01*
X78913668Y-38629228D01*
X78908485Y-38558421D01*
X78913668Y-38540772D01*
X78951078Y-38440978D01*
X78951079Y-38440976D01*
X78953851Y-38433580D01*
X78960500Y-38372377D01*
X78960499Y-37527624D01*
X78957120Y-37496514D01*
X78954705Y-37474278D01*
X78954704Y-37474274D01*
X78953851Y-37466420D01*
X78951077Y-37459020D01*
X78951076Y-37459016D01*
X78913668Y-37359228D01*
X78908485Y-37288421D01*
X78913668Y-37270772D01*
X78951078Y-37170978D01*
X78951079Y-37170976D01*
X78953851Y-37163580D01*
X78960500Y-37102377D01*
X78960499Y-36257624D01*
X78960130Y-36254224D01*
X78954705Y-36204278D01*
X78954704Y-36204274D01*
X78953851Y-36196420D01*
X78903526Y-36062176D01*
X78898146Y-36054997D01*
X78898144Y-36054994D01*
X78822928Y-35954635D01*
X78817546Y-35947454D01*
X78780600Y-35919764D01*
X78710006Y-35866856D01*
X78710003Y-35866854D01*
X78702824Y-35861474D01*
X78585847Y-35817622D01*
X78575975Y-35813921D01*
X78575973Y-35813921D01*
X78568580Y-35811149D01*
X78560730Y-35810296D01*
X78560729Y-35810296D01*
X78510774Y-35804869D01*
X78510773Y-35804869D01*
X78507377Y-35804500D01*
X77410161Y-35804500D01*
X76312624Y-35804501D01*
X76309230Y-35804870D01*
X76309224Y-35804870D01*
X76259278Y-35810295D01*
X76259274Y-35810296D01*
X76251420Y-35811149D01*
X76117176Y-35861474D01*
X76109997Y-35866854D01*
X76109994Y-35866856D01*
X76039400Y-35919764D01*
X76002454Y-35947454D01*
X75997072Y-35954635D01*
X75921856Y-36054994D01*
X75921854Y-36054997D01*
X75916474Y-36062176D01*
X75866149Y-36196420D01*
X75859500Y-36257623D01*
X75859501Y-37102376D01*
X75866149Y-37163580D01*
X75868509Y-37169875D01*
X75864835Y-37240253D01*
X75823390Y-37297897D01*
X75757359Y-37323983D01*
X75745954Y-37324500D01*
X75537703Y-37324500D01*
X75526743Y-37323983D01*
X75519333Y-37322327D01*
X75511407Y-37322576D01*
X75511406Y-37322576D01*
X75452159Y-37324438D01*
X75448201Y-37324500D01*
X75420650Y-37324500D01*
X75416727Y-37324996D01*
X75416612Y-37325003D01*
X75404932Y-37325923D01*
X75361373Y-37327291D01*
X75342284Y-37332837D01*
X75322938Y-37336844D01*
X75303208Y-37339336D01*
X75262677Y-37355384D01*
X75251476Y-37359219D01*
X75209610Y-37371382D01*
X75192501Y-37381500D01*
X75174755Y-37390195D01*
X75156268Y-37397514D01*
X75121012Y-37423129D01*
X75111090Y-37429646D01*
X75080410Y-37447790D01*
X75080406Y-37447793D01*
X75073580Y-37451830D01*
X75059530Y-37465880D01*
X75044496Y-37478721D01*
X75028413Y-37490406D01*
X75023360Y-37496514D01*
X75000636Y-37523983D01*
X74992646Y-37532764D01*
X74642647Y-37882762D01*
X74634530Y-37890148D01*
X74628123Y-37894214D01*
X74622700Y-37899989D01*
X74622695Y-37899993D01*
X74582099Y-37943223D01*
X74579344Y-37946065D01*
X74559880Y-37965529D01*
X74557452Y-37968659D01*
X74557380Y-37968741D01*
X74549771Y-37977649D01*
X74519938Y-38009418D01*
X74516119Y-38016365D01*
X74510365Y-38026832D01*
X74499508Y-38043361D01*
X74487327Y-38059064D01*
X74482845Y-38069422D01*
X74470020Y-38099058D01*
X74464798Y-38109718D01*
X74443803Y-38147908D01*
X74438859Y-38167164D01*
X74432460Y-38185853D01*
X74424562Y-38204104D01*
X74421117Y-38225859D01*
X74417744Y-38247154D01*
X74415340Y-38258763D01*
X74404500Y-38300981D01*
X74404500Y-38320856D01*
X74402949Y-38340566D01*
X74399840Y-38360196D01*
X61458699Y-38360196D01*
X61459663Y-34580000D01*
X72714540Y-34580000D01*
X72715230Y-34586565D01*
X72733230Y-34757824D01*
X72734326Y-34768256D01*
X72792821Y-34948284D01*
X72796124Y-34954006D01*
X72796125Y-34954007D01*
X72831628Y-35015500D01*
X72887467Y-35112216D01*
X73014129Y-35252888D01*
X73167270Y-35364151D01*
X73340197Y-35441144D01*
X73438212Y-35461978D01*
X73518897Y-35479128D01*
X73518901Y-35479128D01*
X73525354Y-35480500D01*
X73714646Y-35480500D01*
X73721099Y-35479128D01*
X73721103Y-35479128D01*
X73801788Y-35461978D01*
X73899803Y-35441144D01*
X74072730Y-35364151D01*
X74225871Y-35252888D01*
X74352533Y-35112216D01*
X74415300Y-35003500D01*
X74466682Y-34954507D01*
X74524419Y-34940500D01*
X76054667Y-34940500D01*
X76113055Y-34955438D01*
X76117176Y-34958526D01*
X76125580Y-34961676D01*
X76125579Y-34961676D01*
X76244025Y-35006079D01*
X76244027Y-35006079D01*
X76251420Y-35008851D01*
X76259270Y-35009704D01*
X76259271Y-35009704D01*
X76309217Y-35015130D01*
X76312623Y-35015500D01*
X77409839Y-35015500D01*
X78507376Y-35015499D01*
X78510770Y-35015130D01*
X78510776Y-35015130D01*
X78560722Y-35009705D01*
X78560726Y-35009704D01*
X78568580Y-35008851D01*
X78702824Y-34958526D01*
X78706945Y-34955438D01*
X78765333Y-34940500D01*
X79654667Y-34940500D01*
X79713055Y-34955438D01*
X79717176Y-34958526D01*
X79725580Y-34961676D01*
X79725579Y-34961676D01*
X79844025Y-35006079D01*
X79844027Y-35006079D01*
X79851420Y-35008851D01*
X79859270Y-35009704D01*
X79859271Y-35009704D01*
X79909217Y-35015130D01*
X79912623Y-35015500D01*
X81009839Y-35015500D01*
X82107376Y-35015499D01*
X82110770Y-35015130D01*
X82110776Y-35015130D01*
X82160722Y-35009705D01*
X82160726Y-35009704D01*
X82168580Y-35008851D01*
X82302824Y-34958526D01*
X82310003Y-34953146D01*
X82310006Y-34953144D01*
X82410365Y-34877928D01*
X82417546Y-34872546D01*
X82422928Y-34865365D01*
X82498144Y-34765006D01*
X82498146Y-34765003D01*
X82503526Y-34757824D01*
X82553851Y-34623580D01*
X82558586Y-34580000D01*
X82560131Y-34565774D01*
X82560131Y-34565773D01*
X82560500Y-34562377D01*
X82560499Y-33717624D01*
X82556150Y-33677583D01*
X82554705Y-33664278D01*
X82554704Y-33664274D01*
X82553851Y-33656420D01*
X82503526Y-33522176D01*
X82498146Y-33514997D01*
X82498144Y-33514994D01*
X82422928Y-33414635D01*
X82417546Y-33407454D01*
X82406826Y-33399420D01*
X82310006Y-33326856D01*
X82310003Y-33326854D01*
X82302824Y-33321474D01*
X82213439Y-33287966D01*
X82175975Y-33273921D01*
X82175973Y-33273921D01*
X82168580Y-33271149D01*
X82160730Y-33270296D01*
X82160729Y-33270296D01*
X82110774Y-33264869D01*
X82110773Y-33264869D01*
X82107377Y-33264500D01*
X81010161Y-33264500D01*
X79912624Y-33264501D01*
X79909230Y-33264870D01*
X79909224Y-33264870D01*
X79859278Y-33270295D01*
X79859274Y-33270296D01*
X79851420Y-33271149D01*
X79717176Y-33321474D01*
X79713055Y-33324562D01*
X79654667Y-33339500D01*
X78765333Y-33339500D01*
X78706945Y-33324562D01*
X78702824Y-33321474D01*
X78659001Y-33305046D01*
X78575975Y-33273921D01*
X78575973Y-33273921D01*
X78568580Y-33271149D01*
X78560730Y-33270296D01*
X78560729Y-33270296D01*
X78510774Y-33264869D01*
X78510773Y-33264869D01*
X78507377Y-33264500D01*
X77410161Y-33264500D01*
X76312624Y-33264501D01*
X76309230Y-33264870D01*
X76309224Y-33264870D01*
X76259278Y-33270295D01*
X76259274Y-33270296D01*
X76251420Y-33271149D01*
X76117176Y-33321474D01*
X76113055Y-33324562D01*
X76054667Y-33339500D01*
X74069083Y-33339500D01*
X74067763Y-33339493D01*
X74066425Y-33339479D01*
X73978593Y-33338559D01*
X73936704Y-33347616D01*
X73924130Y-33349675D01*
X73909523Y-33351314D01*
X73888524Y-33353669D01*
X73888522Y-33353670D01*
X73881528Y-33354454D01*
X73850241Y-33365350D01*
X73835436Y-33369511D01*
X73809939Y-33375023D01*
X73809936Y-33375024D01*
X73803058Y-33376511D01*
X73764201Y-33394630D01*
X73752418Y-33399414D01*
X73711927Y-33413515D01*
X73688212Y-33428334D01*
X73683833Y-33431070D01*
X73670318Y-33438408D01*
X73640293Y-33452409D01*
X73634726Y-33456728D01*
X73634725Y-33456728D01*
X73606433Y-33478674D01*
X73595976Y-33485969D01*
X73565600Y-33504950D01*
X73565597Y-33504952D01*
X73559625Y-33508684D01*
X73554628Y-33513646D01*
X73554627Y-33513647D01*
X73531107Y-33537003D01*
X73530485Y-33537585D01*
X73529823Y-33538099D01*
X73503963Y-33563959D01*
X73432193Y-33635230D01*
X73431541Y-33636257D01*
X73430457Y-33637465D01*
X73372697Y-33695225D01*
X73334851Y-33721236D01*
X73167270Y-33795849D01*
X73161929Y-33799729D01*
X73161928Y-33799730D01*
X73097475Y-33846558D01*
X73014129Y-33907112D01*
X73009716Y-33912014D01*
X73009714Y-33912015D01*
X72926050Y-34004933D01*
X72887467Y-34047784D01*
X72792821Y-34211716D01*
X72734326Y-34391744D01*
X72714540Y-34580000D01*
X61459663Y-34580000D01*
X61459947Y-33468211D01*
X61479966Y-33400095D01*
X61533634Y-33353616D01*
X61603910Y-33343530D01*
X61664985Y-33370115D01*
X61704661Y-33402072D01*
X61832792Y-33505276D01*
X61873366Y-33530580D01*
X62037231Y-33632775D01*
X62109078Y-33677583D01*
X62404063Y-33815451D01*
X62407672Y-33816634D01*
X62683674Y-33907112D01*
X62713474Y-33916881D01*
X63032830Y-33980405D01*
X63036602Y-33980692D01*
X63036610Y-33980693D01*
X63353728Y-34004815D01*
X63353733Y-34004815D01*
X63357505Y-34005102D01*
X63682795Y-33990615D01*
X64003989Y-33937154D01*
X64316434Y-33845493D01*
X64615604Y-33716959D01*
X64618882Y-33715055D01*
X64618888Y-33715052D01*
X64879012Y-33563959D01*
X64897165Y-33553415D01*
X65157040Y-33357230D01*
X65391464Y-33131245D01*
X65393862Y-33128300D01*
X65594643Y-32881678D01*
X65594647Y-32881672D01*
X65597040Y-32878733D01*
X65770792Y-32603354D01*
X65910202Y-32309095D01*
X66013251Y-32000218D01*
X66078446Y-31681199D01*
X66104843Y-31356658D01*
X66105436Y-31300000D01*
X66085841Y-30974977D01*
X66027342Y-30654663D01*
X65930784Y-30343696D01*
X65797567Y-30046582D01*
X65629621Y-29767624D01*
X65627294Y-29764640D01*
X65627289Y-29764633D01*
X65470576Y-29563690D01*
X65444456Y-29497673D01*
X65458174Y-29428014D01*
X65507375Y-29376830D01*
X65569915Y-29360203D01*
X132773984Y-29351022D01*
X132842106Y-29371015D01*
G37*
G04 #@! TD.AperFunction*
G04 #@! TA.AperFunction,NonConductor*
G36*
X118010459Y-42267866D02*
G01*
X118059939Y-42318780D01*
X118074500Y-42377580D01*
X118074500Y-42588719D01*
X118054498Y-42656840D01*
X118037595Y-42677815D01*
X117457813Y-43257596D01*
X117395501Y-43291621D01*
X117368718Y-43294500D01*
X116804281Y-43294500D01*
X116736160Y-43274498D01*
X116689667Y-43220842D01*
X116679563Y-43150568D01*
X116709057Y-43085988D01*
X116715186Y-43079404D01*
X116948695Y-42845896D01*
X117357187Y-42437404D01*
X117419499Y-42403379D01*
X117446282Y-42400500D01*
X117504646Y-42400500D01*
X117511099Y-42399128D01*
X117511103Y-42399128D01*
X117591788Y-42381978D01*
X117689803Y-42361144D01*
X117862730Y-42284151D01*
X117868072Y-42280270D01*
X117868077Y-42280267D01*
X117874440Y-42275644D01*
X117941307Y-42251785D01*
X118010459Y-42267866D01*
G37*
G04 #@! TD.AperFunction*
G04 #@! TA.AperFunction,NonConductor*
G36*
X75864012Y-39741502D02*
G01*
X75899482Y-39792497D01*
X75916474Y-39837824D01*
X75921854Y-39845003D01*
X75921856Y-39845006D01*
X75997072Y-39945365D01*
X76002454Y-39952546D01*
X76009635Y-39957928D01*
X76109994Y-40033144D01*
X76109997Y-40033146D01*
X76117176Y-40038526D01*
X76176785Y-40060872D01*
X76244025Y-40086079D01*
X76244027Y-40086079D01*
X76251420Y-40088851D01*
X76259270Y-40089704D01*
X76259271Y-40089704D01*
X76288469Y-40092876D01*
X76312623Y-40095500D01*
X76658500Y-40095500D01*
X76726621Y-40115502D01*
X76773114Y-40169158D01*
X76784500Y-40221500D01*
X76784500Y-40752297D01*
X76783983Y-40763257D01*
X76782327Y-40770667D01*
X76782576Y-40778593D01*
X76782576Y-40778594D01*
X76784438Y-40837841D01*
X76784500Y-40841799D01*
X76784500Y-40869350D01*
X76784996Y-40873273D01*
X76785003Y-40873388D01*
X76785923Y-40885068D01*
X76786161Y-40892651D01*
X76787291Y-40928628D01*
X76785807Y-40928675D01*
X76777829Y-40990401D01*
X76732106Y-41044715D01*
X76664278Y-41065687D01*
X76595879Y-41046659D01*
X76573390Y-41028800D01*
X75692403Y-40147812D01*
X75658379Y-40085502D01*
X75655500Y-40058719D01*
X75655500Y-39836726D01*
X75675502Y-39768605D01*
X75729158Y-39722112D01*
X75799432Y-39712008D01*
X75864012Y-39741502D01*
G37*
G04 #@! TD.AperFunction*
M02*
